<?xml version="1.0" encoding="utf-8"?>
<!-- Generator: Adobe Illustrator 23.1.0, SVG Export Plug-In . SVG Version: 6.00 Build 0)  -->
<svg version="1.1" id="Layer_1" xmlns="http://www.w3.org/2000/svg" xmlns:xlink="http://www.w3.org/1999/xlink" x="0px" y="0px"
	 viewBox="0 0 400 400" style="enable-background:new 0 0 400 400;" xml:space="preserve">
<style type="text/css">
	.st0{fill:none;}
	.st1{fill:#FFF5BB;}
	.st2{fill:#FFC6B5;}
	.st3{opacity:0.3;fill:#99665E;}
	.st4{opacity:0.4;fill:#99665E;}
	.st5{fill:#0C181E;}
	.st6{fill:#172D3A;}
	.st7{fill:#0E2735;}
	.st8{fill:#4B616B;}
	.st9{fill:#FFEBDE;}
	.st10{opacity:0.1;fill:#141D1F;}
	.st11{fill:#9EC1D8;}
	.st12{fill:#AED4F4;}
	.st13{fill:#E5BEB5;}
	.st14{fill:#FFFFFF;}
	.st15{fill:#E58383;}
	.st16{opacity:0.2;fill:#172D3A;}
	.st17{fill:#353030;}
	.st18{opacity:0.2;fill:#755950;}
	.st19{opacity:0.5;}
	.st20{fill:#755950;}
	.st21{fill:#EDC156;}
	.st22{fill:#D3AA50;}
	.st23{opacity:0.2;}
	.st24{opacity:0.1;}
	.st25{fill:none;stroke:#3F3E3D;stroke-width:0.6594;stroke-miterlimit:10;}
	.st26{fill:none;stroke:#D2D8DB;stroke-width:0.524;stroke-miterlimit:10;}
	.st27{fill:#CCD6DB;}
	.st28{fill:#E7EEF3;}
	.st29{opacity:0.7;fill:#CCD6DB;}
	.st30{fill:#ADB8BC;}
	.st31{opacity:0.15;fill:#0E2735;}
	.st32{fill:#C99775;}
	.st33{opacity:0.2;fill:#0E2735;}
	.st34{opacity:0.4;fill:#B57F74;}
	.st35{fill:#33594B;}
	.st36{fill:#C7DDE2;}
	.st37{fill:none;stroke:#172D3A;stroke-width:0.7289;stroke-linecap:round;stroke-linejoin:round;stroke-miterlimit:10;}
	.st38{opacity:0.3;fill:#172D3A;}
	.st39{fill:#393A3A;}
	.st40{fill:#222323;}
	.st41{fill:#4F5051;}
	.st42{fill:#686868;}
</style>
<rect class="st0" width="400" height="400"/>
<g>
	<g>
		<path class="st1" d="M167,71.8c-14.9-9.5-25.4,3.8-25.4,3.8s5.8,40.6,18.1,41c4.6,0.1,8-0.1,10.5-0.6l2-5.2c0,0,0.1,2.3-0.3,4.9
			c0.6-0.1,1.1-0.3,1.6-0.4c0.6-3.8,1.4-9.7,1.5-14.1c0,0,0.2,8.4-0.5,13.8c1.6-0.7,2.1-1.2,2.1-1.2S182,81.2,167,71.8z"/>
		<path class="st2" d="M136.7,99.7c-0.3,3.6,1.2,6.6,3.3,6.8c2.1,0.2,4.1-2.6,4.4-6.1c0.3-3.6-1.2-6.6-3.3-6.8
			C138.9,93.4,137,96.1,136.7,99.7z"/>
		<path class="st2" d="M146.1,101.6l3.9,14.9l-10.7,6.6c0,0,11.1,6,23.1,3.3c12-2.7,7.9-8.3,7.9-8.3l-9.1-2.4l-0.8-12.1L146.1,101.6
			z"/>
		<path class="st3" d="M160.9,115.1l1.4-11.7l-16-1.9l3.3,13.6C151.1,114.8,158.7,115,160.9,115.1z"/>
		<path class="st2" d="M148.3,76.5c0,0,16.5-5.9,21.3,9.4c2.8,8.7,4.3,18.7-2.8,24.4c-7.2,5.7-18.2,2.3-23.5-4.9
			C138.1,98.2,128.9,80.7,148.3,76.5z"/>
		<path class="st4" d="M162,94.2c0,0,1,1.8,3.7,4.2l-2.4,2.5"/>
		<g>
			<path class="st5" d="M161.8,86.4c0.3-0.6,0.9-1.1,1.5-1.4c0.6-0.3,1.4-0.4,2.1-0.4c0.7,0.1,1.4,0.3,2,0.7
				c0.3,0.2,0.6,0.4,0.8,0.6c0.2,0.3,0.5,0.5,0.7,0.8c-0.3-0.1-0.7-0.2-1-0.3c-0.3-0.1-0.6-0.2-0.9-0.3c-0.6-0.2-1.2-0.3-1.8-0.3
				C164.2,85.6,163,85.8,161.8,86.4z"/>
		</g>
		<g>
			<path class="st5" d="M149.3,88.1c0.2-0.7,0.7-1.3,1.3-1.7c0.6-0.4,1.3-0.7,2.1-0.8c0.7-0.1,1.5,0,2.2,0.3c0.3,0.1,0.7,0.3,1,0.4
				c0.3,0.2,0.6,0.4,0.9,0.6c-0.4,0-0.7-0.1-1-0.1c-0.3,0-0.7-0.1-1-0.1c-0.6-0.1-1.3-0.1-1.9,0C151.6,86.9,150.5,87.3,149.3,88.1z"
				/>
		</g>
		<g>
			<g>
				<path class="st6" d="M162.1,91.7c0.5,0.4,1,0.7,1.6,1c0.5,0.2,1.1,0.3,1.6,0.2c1.1-0.2,1.9-1.2,2.4-2.4c0,0.7-0.1,1.3-0.5,1.9
					c-0.4,0.6-1,1.1-1.7,1.2c-0.7,0.1-1.5,0-2.1-0.4C162.8,92.9,162.4,92.3,162.1,91.7z"/>
			</g>
			<g>
				<path class="st6" d="M151.2,93.3c0.5,0.4,0.9,0.8,1.4,1c0.5,0.2,1,0.3,1.5,0.2c0.5-0.1,0.9-0.4,1.2-0.8c0.3-0.4,0.6-0.9,0.8-1.5
					c0,0.6,0,1.3-0.4,1.8c-0.3,0.6-0.9,1.1-1.6,1.2c-0.7,0.1-1.4-0.1-1.9-0.5C151.8,94.4,151.5,93.9,151.2,93.3z"/>
			</g>
		</g>
		<g>
			<path class="st7" d="M121.2,307.8c0,0-1.3,9.4-4.3,14.4c0,0-11.2,3.9-10.8-2.7l7.3-14L121.2,307.8z"/>
			<path class="st7" d="M117.8,283.8c3.9,1.3,7.9,2.5,11.8,3.8c-5,10.2-10.4,25.2-10.4,25.2s-2.1,4.7-3.7,4.6
				c-4.6,1.4-6.2-2.8-6.2-2.8l4-9C113.4,305.5,115.7,295.2,117.8,283.8z"/>
		</g>
		<path class="st7" d="M163.1,288.3c-0.1,9.8-0.2,17.5-0.2,17.5l7.1,14l-6.9-0.6l-8.7-13.5c0,0-1.3-8.9-3.1-18.4
			C155.2,287.6,159.2,287.9,163.1,288.3z"/>
		<path class="st7" d="M154.5,305c0,0-3.2,2.5-2.5,6.7c0.6,4.2,1.7,10.7,1.7,10.7l1.3,0l0.4-7.7c0,0,2.6,7,4.1,7.6
			c1.5,0.7,13.4,3.8,14.7,1.2c1.3-2.5-5-5.6-5-5.6s-3.2,1.6-6.3-1.1C159.9,314.3,154.5,305,154.5,305z"/>
		<path class="st8" d="M129.6,243.8h50.1c0.5-2.6,1-5.2,1.5-7.7c3.7-15.7,4.6-19.7,6.3-27.7c6.9-31.6-16.5-46.3-16.5-46.3l-8.5,1.2
			l-10.6-3.1c0,0-27.9,15-25.6,47.2C127.2,218.8,128.7,234.6,129.6,243.8z"/>
		<path class="st9" d="M185,178.2c0,0-6.4,7.8-18.1,10.6l-6.5-10.3l-5.1,13c0,0-18.2-2.5-24.3-10.1c0,0,6.1-12.7,10.6-20
			c0,0-12.8-32.8-7.3-37.9c2.5-2.3,13.1-5.4,21.7-7.2l3.3,4.7l0.6-5.5c9.3-1.3,16.7,1.2,18.2,7.4c3.1,13-5.2,36.5-5.2,36.5
			L185,178.2z"/>
		<path class="st10" d="M185,178.2c0,0-6.4,7.8-18.1,10.6l-6.5-10.3l-5.1,13c0,0-18.2-2.5-24.3-10.1c0,0,6.1-12.7,10.6-20
			c0,0-12.8-32.8-7.3-37.9c2.5-2.3,13.1-5.4,21.7-7.2l3.3,4.7l0.8-6c9.3-1.3,16.5,1.6,18,7.9c3.1,13-5.2,36.5-5.2,36.5L185,178.2z"
			/>
		<path class="st8" d="M129.7,243.8c0,0-18.5,29-22.8,55.6c0,0,11.1,9.6,21,5.6c0,0,11.7-40.1,16.7-51.3c4.9-11.1,2.8-15.7,2.2-19.8
			C146.1,229.9,129.7,243.8,129.7,243.8z"/>
		<path class="st11" d="M174.1,130.3c0,0,7.6,8.2,4.1,13.7c-3.4,5.5-11.3,7.9-17.2,0.3C155.2,136.8,174.1,130.3,174.1,130.3z"/>
		<path class="st6" d="M135.4,142.5c0,0,1.2,9.7,5.7,18.2c0.1,0.3-0.6-3.6-0.4-3.3c0,0-5,14.5-6.6,18c-1.6,3.6-0.2,1.1-0.2,1.1
			s24.9,19.6,51.2-0.3l-11.3-16.9l1.7-9.6l7.7-3.3c0,0-2.3-26.1-7.2-28.4s-8.7-2.2-8.7-2.2s-7.1,10.7-20.3,2.2
			c0,0-10.5,3.1-12.7,5.6S135.4,142.5,135.4,142.5z"/>
		<polygon class="st9" points="167.8,116.1 163.4,121.3 159.9,115.2 165.5,112.5 		"/>
		<path class="st2" d="M133.5,179c0,0,4.8-2.7,6.7-1.1c0,0,8.8,11.4,0,2.5c0,0,3.3,12.2-1.8,0c0,0,0.9,13.5-2,0.6
			c0,0,1.6,13.1-1.7,1.8c0,0-1.8,3.9-4.6,1.2c-2.8-2.6-10-18-10-18l8.2,1.1L133.5,179z"/>
		<path class="st12" d="M131.9,173.2c-2.9,0.7-5.9,1.4-8.8,2c2.7,4.5,4.9,7.7,4.9,7.7s5.5-1.7,6.1-4.6c0,0-1-1.9-1.9-5.2
			C132.1,173.1,132,173.2,131.9,173.2z"/>
		<path class="st9" d="M134.2,123.6c0,0-15,15.4-19.5,27.9c-2.9,8.1,11.7,30,11.7,30s6.7-2,7.4-4.9c0,0-5.1-15-5.1-20.2
			c0-1.9,5.4-8.4,8.7-14.2C146.5,127.6,134.2,123.6,134.2,123.6z"/>
		<polygon class="st9" points="146.4,118.3 154.7,124.3 155.8,116.4 147.9,115 		"/>
		<g>
			<path class="st2" d="M211.2,133.1c-1.3,0.5-2.9,1.2-4.8,2.1c-1.7,0.8-6.1,4.7-8.1,5.7c2.4,3.3,3.4,4.6,3.7,8.9
				c4.5-5.1,11.5-10.5,12.8-13.7C213.4,135.4,212.2,134.4,211.2,133.1z"/>
			<path class="st2" d="M211.6,140.4c0,0,7-5.6,6.6-6.9c-0.3-0.9-4.6,2.6-4.6,2.6s4.9-4.8,3.9-5.1c-0.9-0.4-3.9,2.4-3.9,2.4
				s3.5-3.7,2.9-3.9c-0.6-0.2-4.8,3-4.8,3s6.3-7-2.6,0.5c0,0,1-9.3-2.1,1.3C203.8,144.8,211.6,140.4,211.6,140.4z"/>
		</g>
		<g>
			<path class="st13" d="M179.6,230.9c0,0-4.6-1.4-7.5-0.8c-2.9,0.5-7.5,3.8-6.2,7.4c0,0,0,0,0,0.1h13.3L179.6,230.9z"/>
		</g>
		<path class="st9" d="M203.9,135.7l-13.8,9.6c0,0-9.3-25-14.2-27.3c-0.1,0-0.1,0-0.2-0.1c0.5,2.3,1,5.1,0.6,7
			c-0.8,3.8,5.4,7.1,4.4,14c-0.9,6.9-5.4,10.7-5.4,10.7s6.4,10.5,10.9,11.5c4.4,1,24.4-18.3,24.4-18.3L203.9,135.7z"/>
		<path class="st1" d="M149,110.8c-5.2-3.3-6.3-7.7-6.3-7.7s-3.7,1.1-4.4-3.3c-1-5.8,3.9-5.2,3.9-5.2l0.9,5.1
			c7.9-6.3,5.7-21.4,5.7-21.4c-1.9-9.5-10.4-8.2-15.1,1.3c-4.7,9.5-1.3,37.8-1.3,37.8c1.2,0.3,2.3,0.6,3.4,0.7
			c-0.3-1.4-0.5-2.8-0.5-4.1c0.5,1.7,1,3.3,1.2,4.2c1,0.1,2.1,0.2,3,0.2c-0.5-4.6-0.3-9.7-0.3-9.7c0.1,4.1,0.5,7.3,0.8,9.7
			c0.7,0,1.3,0,1.9,0c0.1-0.9,0.1-1.7,0.2-2.4c0.1,0.9,0.3,1.7,0.5,2.4c4-0.3,6.6-1.2,6.6-1.2C150,117.1,149,110.8,149,110.8z"/>
		<path class="st14" d="M155.7,104l12.4-1.5C168,102.4,164.3,110.2,155.7,104z"/>
	</g>
	<g>
		<g>
			<path class="st15" d="M261.6,233c0,2.1-1.7,3.8-3.8,3.8h-35.3c-2.1,0-3.8-1.7-3.8-3.8v-25.6c0-2.1,1.7-3.8,3.8-3.8h35.3
				c2.1,0,3.8,1.7,3.8,3.8V233z"/>
			<path class="st16" d="M257.7,203.6h-8.2c2.1,0,3.8,1.7,3.8,3.8V233c0,2.1-1.7,3.8-3.8,3.8h8.2c2.1,0,3.8-1.7,3.8-3.8v-25.6
				C261.6,205.3,259.9,203.6,257.7,203.6z"/>
		</g>
		<g>
			<path class="st13" d="M195.9,213.6c0.1,0.3-0.5,0.9-1.1,1.8c5,0.8,4,6.1,12.4,8.6c6.2-8,2.8-31.3,2.8-31.3l-11.9-1.3
				C198.2,191.4,195.2,209.4,195.9,213.6z"/>
		</g>
		<g>
			<path class="st13" d="M201.1,210.1c-3.4,1.4-17.1,6.9-24.9,11.5c-1.5,0.8-2.7,1.6-3.7,2.2c0.4,1.3,0.5,2.6,0.3,3.9
				c6.1,1.4,24-0.8,31.5-3.2c0.7-0.2,1.4-0.6,2.1-1C203.4,219.4,201.5,214.7,201.1,210.1z"/>
		</g>
		<path class="st17" d="M230.6,131.4c0,0-11.4-10.7-22.4,5.1c-4.8,7-11.4,36.2,2.3,45.6c13.7,9.5,15.4-4.4,15.4-4.4L230.6,131.4z"/>
		<path class="st13" d="M234.7,156.6c-0.2,2.9,1.8,5.4,4.4,5.6c2.6,0.2,5-2,5.2-4.9c0.2-2.9-1.8-5.4-4.4-5.6
			C237.2,151.5,234.9,153.7,234.7,156.6z"/>
		<path class="st13" d="M232.4,158.9l-2.3,15.6l13.7,4.4c0,0-10.3,8.4-24,6.3c-11.1-1.7-13.5-10.4-13.5-10.4l12-1.5l1-7.9
			L232.4,158.9z"/>
		<path class="st18" d="M218.5,172.2l1-7.9l13.6-8.7l-2.7,16.2C229,171.6,220.6,172,218.5,172.2z"/>
		<path class="st13" d="M226.9,134.8c0,0-11.7-0.2-14.5,8c-2.9,8.2-5,18.9,1.6,24.6c6.6,5.7,17.2,2.9,22.5-3.8
			S245.1,139.5,226.9,134.8z"/>
		<path class="st18" d="M219.4,151.4c0,0-0.9,1.6-3.2,3.6l2,2.2"/>
		<path class="st5" d="M213.4,151c0,1.1,0.4,1.9,1,1.9c0.6,0,1.1-0.8,1.1-1.9c0-1.1-0.4-1.9-1-1.9C214,149.1,213.5,150,213.4,151z"
			/>
		<path class="st5" d="M223.6,151.1c0,1.1,0.4,1.9,1,1.9c0.6,0,1.1-0.8,1.1-1.9c0-1.1-0.4-1.9-1-1.9
			C224.1,149.2,223.6,150,223.6,151.1z"/>
		<g class="st19">
			<path class="st20" d="M218,160.5c1.3,0.3,2.5,0.6,3.7,0.5c0.6,0,1.2-0.2,1.7-0.4c0.6-0.2,1.1-0.5,1.7-0.9
				c-0.3,0.6-0.8,1.2-1.4,1.5c-0.6,0.4-1.3,0.6-2,0.7c-0.7,0-1.4-0.1-2.1-0.3C219.1,161.4,218.5,161.1,218,160.5z"/>
		</g>
		<path class="st21" d="M243,177.9c-1.1-0.4-2.2-0.6-3.3-0.9c-4.1,4.7-10.6,7-17.5,7c-6.4,0-11.6-4.4-14.6-9.9
			c-0.8,0.2-1.7,0.4-2.6,0.7c-9,2.9-9.3,20-9.3,20l4.6,2.5c-4.7,10.7,4.9,14.4,4.9,14.4s21,1.2,32.1-0.1c0.1,0,1.2-0.4,1.4-0.4
			l0.1-8.7l13.6-3.4C252.2,197.3,253,181.7,243,177.9z"/>
		<path class="st17" d="M226,134.9c0,0,0.5,15.3,12.1,19.3c0,0,1.3-3.9,4.4-1.4c3.1,2.5,0,9.5-5.2,7.5c0,0-1.6,4.7-6.5,8.2l-0.8,6.6
			c0,0,8.9,1.9,16.2,4.8c0,0,10.2-3.8,7.5-15.1c-2.5-10.4-5.7-7.4-6.9-19.1c-1.3-11.8-7.7-16.7-16-16.3
			C225.3,129.5,226,134.9,226,134.9z"/>
		<g>
			<path class="st17" d="M222.2,142.3c1.1,1.3,2.3,2.2,3.8,2.7c0.7,0.2,1.5,0.4,2.3,0.5c0.4,0,0.8,0,1.2,0.1c0.4,0,0.8,0,1.2,0
				c-0.4,0.2-0.8,0.3-1.2,0.5c-0.4,0.1-0.8,0.2-1.3,0.2c-0.9,0.1-1.7,0-2.6-0.3c-0.8-0.3-1.6-0.8-2.2-1.4
				C222.8,143.9,222.4,143.1,222.2,142.3z"/>
		</g>
		<g>
			<path class="st17" d="M218.6,144.6c-1.1-0.9-2.3-1.3-3.6-1.3c-0.6,0-1.3,0.1-1.9,0.3l-1,0.3c-0.3,0.1-0.7,0.2-1,0.3
				c0.2-0.3,0.5-0.5,0.8-0.8c0.3-0.2,0.6-0.4,0.9-0.6c0.7-0.3,1.4-0.5,2.2-0.6c0.8,0,1.6,0.2,2.2,0.6
				C217.8,143.3,218.3,143.9,218.6,144.6z"/>
		</g>
		<path class="st21" d="M205.5,203.3l-7.2,27.1c0,0,20.5,8.1,44.1,6.7l-3.2-36.9L205.5,203.3z"/>
		<path class="st22" d="M237,202.4c-8.4,7.9-19.8,15.3-35.1,14.6l-3.6,13.4c0,0,20.5,8.1,44.1,6.7l-3-35
			C238.7,202.9,237.8,201.7,237,202.4z"/>
		<g>
			<path class="st13" d="M236.7,219c-0.2,0.2-0.6,0.9-1.1,1.7c5,1,3.7,6.3,11.9,9.3c6.6-7.7,4.5-31.1,4.5-31.1l-15,3.5
				C237,202.4,238.1,216.9,236.7,219z"/>
		</g>
		<g>
			<path class="st13" d="M243.1,216.4c-3.5,1.1-17.6,5.5-25.8,9.4c-1.5,0.7-2.9,1.4-3.9,1.9c0.3,1.3,0.3,2.6,0,3.9
				c6,1.9,24,1.1,31.7-0.6c0.7-0.2,1.4-0.4,2.2-0.8C244.7,225.9,243.2,221,243.1,216.4z"/>
		</g>
		<path class="st14" d="M238.1,160.6c0,1,0.8,1.8,1.8,1.8c1,0,1.8-0.8,1.8-1.8c0-1-0.8-1.8-1.8-1.8
			C238.9,158.8,238.1,159.6,238.1,160.6z"/>
		<path class="st14" d="M213,174.4c0,0.9,0.7,1.6,1.6,1.6c0.9,0,1.6-0.7,1.6-1.6c0-0.9-0.7-1.6-1.6-1.6
			C213.7,172.8,213,173.5,213,174.4z"/>
		<path class="st14" d="M214.8,177.4c0,0.9,0.7,1.6,1.6,1.6c0.9,0,1.6-0.7,1.6-1.6c0-0.9-0.7-1.6-1.6-1.6
			C215.6,175.8,214.8,176.5,214.8,177.4z"/>
		<path class="st14" d="M227.3,178.3c0,0.9,0.7,1.6,1.6,1.6c0.9,0,1.6-0.7,1.6-1.6s-0.7-1.6-1.6-1.6
			C228,176.7,227.3,177.4,227.3,178.3z"/>
		<path class="st14" d="M229.9,176c0,0.9,0.7,1.6,1.6,1.6c0.9,0,1.6-0.7,1.6-1.6c0-0.9-0.7-1.6-1.6-1.6
			C230.6,174.4,229.9,175.1,229.9,176z"/>
		<circle class="st14" cx="219.1" cy="179.2" r="1.6"/>
		<path class="st14" d="M220.9,180c0,0.9,0.7,1.6,1.6,1.6s1.6-0.7,1.6-1.6c0-0.9-0.7-1.6-1.6-1.6S220.9,179.1,220.9,180z"/>
		<path class="st14" d="M224,179.6c0,0.9,0.7,1.6,1.6,1.6c0.9,0,1.6-0.7,1.6-1.6c0-0.9-0.7-1.6-1.6-1.6
			C224.8,178,224,178.7,224,179.6z"/>
	</g>
	<g>
		<g>
			<g>
				<g>
					<path class="st21" d="M285.2,222.4L285.2,222.4c-2.8,0.7-5.7-0.7-6.7-3.3c-1.1-2.8,0.5-6.1,3.5-7.2c0.2-0.1,0.5-0.2,0.7-0.2
						c2.8-0.7,5.7,0.7,6.7,3.3c0.5,1.4,0.4,2.9-0.2,4.3c-0.7,1.3-1.8,2.4-3.3,2.9C285.7,222.3,285.4,222.4,285.2,222.4z
						 M283.2,213.2c-0.2,0-0.4,0.1-0.6,0.2c-2.2,0.8-3.4,3.2-2.6,5.2c0.7,1.8,2.8,2.9,4.8,2.4h0c0.2,0,0.4-0.1,0.6-0.2
						c1.1-0.4,1.9-1.2,2.4-2.2c0.5-1,0.5-2.1,0.2-3C287.3,213.7,285.2,212.7,283.2,213.2z"/>
				</g>
				<path class="st23" d="M285.1,220.8c-0.1,0-0.2,0.1-0.2,0.1l0,0c-2.1,0.5-4.2-0.5-4.8-2.4c-0.8-2,0.4-4.4,2.6-5.2
					c0.2-0.1,0.4-0.1,0.6-0.2c0.7-0.2,1.4-0.2,2,0c-0.1-0.6-0.2-1.1-0.3-1.6c-0.7-0.1-1.4,0-2,0.1c-0.2,0.1-0.5,0.1-0.7,0.2
					c-3,1.1-4.6,4.4-3.5,7.2c0.9,2.4,3.4,3.8,6,3.4C284.8,222,284.9,221.4,285.1,220.8z"/>
				<rect x="269.3" y="207.7" class="st21" width="14.5" height="18.7"/>
				<rect x="280.6" y="207.7" class="st24" width="3.2" height="18.7"/>
			</g>
			<line class="st25" x1="275.8" y1="207.2" x2="275.8" y2="217.8"/>
			<polygon class="st14" points="275.7,213 273.7,215.1 273.9,217.8 277.6,217.8 278,215.1 			"/>
		</g>
		<g>
			<g>
				<path class="st26" d="M115.1,211.7c0,0-4,6.4,4.4,6.4c8.4-0.1,4.4,12.6,19.4,6.6"/>
				<rect x="126.5" y="210.7" class="st27" width="33" height="12.1"/>
				<path class="st28" d="M99.1,211.9c0,1.8,1.5,3.3,3.3,3.3h81.1c1.8,0,3.3-1.5,3.3-3.3v-63.8c0-1.8-1.5-3.3-3.3-3.3h-81.1
					c-1.8,0-3.3,1.5-3.3,3.3V211.9z"/>
				<path class="st29" d="M99.1,212c0,1.8,1.4,3.2,3.2,3.2h78.7c1.8,0,3.2-1.4,3.2-3.2v-61.9c0-1.8-1.4-3.2-3.2-3.2h-78.7
					c-1.8,0-3.2,1.4-3.2,3.2V212z"/>
				<rect x="121.5" y="220.6" class="st30" width="43.2" height="2.2"/>
				<rect x="105.2" y="222.8" class="st28" width="74.8" height="3.7"/>
				<rect x="184.1" y="222.8" class="st28" width="60.7" height="3.7"/>
			</g>
		</g>
		<path class="st31" d="M316.2,323.5c0,4.5-55.5,8.1-124,8.1s-124-3.6-124-8.1c0-4.5,55.5-8.1,124-8.1S316.2,319,316.2,323.5z"/>
		<rect x="77.2" y="231.9" class="st32" width="228.9" height="92.7"/>
		<rect x="88.1" y="242.7" class="st33" width="207.1" height="72.7"/>
		<rect x="77.2" y="231.6" class="st33" width="228.9" height="4.8"/>
		<rect x="67.7" y="225.8" class="st32" width="248" height="6.8"/>
	</g>
	<g>
		<g>
			
				<rect x="282.8" y="149.1" transform="matrix(0.991 -0.134 0.134 0.991 -18.1218 40.1672)" class="st13" width="12.8" height="11.1"/>
			
				<rect x="282.8" y="149.1" transform="matrix(0.991 -0.134 0.134 0.991 -18.1218 40.1672)" class="st34" width="12.8" height="11.1"/>
		</g>
		<polygon class="st13" points="275.8,137 277.4,124.6 270.2,134.5 		"/>
		<polygon class="st34" points="275.8,137 277.4,124.6 270.2,134.5 		"/>
		<g>
			<polygon class="st35" points="258.4,298.6 260.5,315 254.2,317.2 251,299.6 			"/>
			<path class="st8" d="M250.5,307.6c0,0-3.7,4.8-9.4,6.5c-5.7,1.8-10.9,4-10.4,7.3c0,0,8.7,3.8,22.5-0.9l0,1.4l9.1-0.6l-0.2-11.5
				l-7.6,0.7l0.5-1.2L250.5,307.6z"/>
			<g>
				<path class="st6" d="M247.1,320.8c-12.4,3.3-15.7,0-16.4-0.2c-0.1,0.3-0.1,0.6-0.1,0.9c0,0,8.7,3.8,22.5-0.9l0,1.4l9.1-0.6
					l0-2.3C259,319.3,256.3,318.3,247.1,320.8z"/>
			</g>
			<path class="st36" d="M298.2,225.4c0,0-47.2-5.5-57.6,1.2c-10.4,6.7,5.5,79.1,5.5,79.1s11,0.6,17.2-1.2l-4.3-57.6
				c0,0,42.3,11,42.9-3.1C302.5,229.7,298.2,225.4,298.2,225.4z"/>
			<path class="st37" d="M247.9,309.5c1.5,1.3,2.8,2.5,4.3,3.8"/>
			<path class="st37" d="M245.4,312.8c1,1.3,1.8,2.3,2.8,3.6"/>
			<path class="st38" d="M298.2,225.4c0,0-47.2-5.5-57.6,1.2c-10.4,6.7,5.5,79.1,5.5,79.1s2.6,0.1,6,0.1l0.5,2.6l-2.1-0.8
				c0,0-0.8,1-2.2,2.3c-0.6,0.6-1.4,1.2-2.2,1.7c-1.4,1-3.1,1.9-5,2.5c-5.7,1.8-10.9,4-10.4,7.3c0,0,8.7,3.8,22.5-0.9l0,1.4l9.1-0.6
				l0-2.3h0l-0.2-9.2l-2.2,0.2l-0.6-4.7c1.5-0.2,2.9-0.5,4.1-0.8l-4.3-57.6c0,0,42.3,11,42.9-3.1
				C302.5,229.7,298.2,225.4,298.2,225.4z"/>
			<polygon class="st35" points="246.1,303 248.3,319.4 241.9,321.6 238.7,304.1 			"/>
			<path class="st8" d="M238.2,312c0,0-3.7,4.8-9.4,6.5c-5.7,1.8-10.9,4-10.4,7.3c0,0,8.7,3.8,22.5-0.9l0,1.4l9.1-0.6l-0.2-11.5
				l-7.6,0.7l0.5-1.2L238.2,312z"/>
			<g>
				<path class="st6" d="M234.8,325.2c-12.4,3.3-15.7,0-16.4-0.2c-0.1,0.3-0.1,0.6-0.1,0.9c0,0,8.7,3.8,22.5-0.9l0,1.4l9.1-0.6
					l0-2.3C246.7,323.7,244,322.8,234.8,325.2z"/>
			</g>
			<path class="st36" d="M312.2,226c0,0-73.7-1.7-84.1,5c-10.4,6.7,5.5,79.1,5.5,79.1s11,0.6,17.2-1.2l-4.3-57.6
				c0,0,68.3,12.9,68.3-5.7C314.7,231.5,312.2,226,312.2,226z"/>
			<path class="st37" d="M235.2,314.7c1.5,1.3,2.8,2.5,4.3,3.8"/>
			<path class="st37" d="M232.9,316.1c1,1.3,1.8,2.3,2.8,3.6"/>
			<path class="st6" d="M266.8,226.3c0,0,16.1,13.2,48.6,10.1c0,0,10.1-62.4-3.8-72.5c-6.3-4.4-33.6-10.4-42.9,6.6
				C259.4,187.5,267.8,206.2,266.8,226.3z"/>
			<path class="st31" d="M332.3,325.3c0,3.1-18.1,5.7-40.4,5.7c-22.3,0-40.4-2.5-40.4-5.7c0-3.1,18.1-5.7,40.4-5.7
				C314.2,319.6,332.3,322.1,332.3,325.3z"/>
			<g>
				<rect x="287.8" y="260.9" class="st39" width="9.5" height="48.5"/>
				<rect x="286.3" y="292.6" class="st40" width="12.5" height="23.8"/>
				<path class="st40" d="M310.9,311.1h-37c-1.9,0-3.4,1.8-3.4,3.9c0,2.2,1.5,3.9,3.4,3.9h37c1.9,0,3.4-1.8,3.4-3.9
					C314.3,312.9,312.8,311.1,310.9,311.1z"/>
				<rect x="287.8" y="260.9" class="st40" width="9.5" height="13.3"/>
				<rect x="296.5" y="220.3" class="st39" width="10.4" height="37.7"/>
				<path class="st15" d="M325.5,261.7c0,2.4-1.9,4.4-4.4,4.4h-65.6c-2.4,0-4.4-1.9-4.4-4.4v-5.2c0-2.4,1.9-4.4,4.4-4.4h65.6
					c2.4,0,4.4,1.9,4.4,4.4V261.7z"/>
				<path class="st15" d="M325.5,227.5c0,2.4-1.9,4.4-4.4,4.4h-40c-2.4,0-4.4-1.9-4.4-4.4v-29c0-2.4,1.9-4.4,4.4-4.4h40
					c2.4,0,4.4,1.9,4.4,4.4V227.5z"/>
				<path class="st16" d="M325.5,261.7c0,2.4-1.9,4.4-4.4,4.4h-57c-2.4,0-4.4-1.9-4.4-4.4v-5.2c0-2.4,1.9-4.4,4.4-4.4h57
					c2.4,0,4.4,1.9,4.4,4.4V261.7z"/>
				<path class="st16" d="M325.5,227.5c0,2.4-1.9,4.4-4.4,4.4h-31.8c-2.4,0-4.4-1.9-4.4-4.4v-29c0-2.4,1.9-4.4,4.4-4.4h31.8
					c2.4,0,4.4,1.9,4.4,4.4V227.5z"/>
				<g>
					<ellipse class="st41" cx="270.6" cy="321.3" rx="5.2" ry="6.1"/>
					<rect x="270.1" y="315.2" class="st41" width="3.8" height="12.2"/>
					<ellipse class="st42" cx="273.9" cy="321.3" rx="5.2" ry="6.1"/>
					<path class="st40" d="M271.5,321.3c0,1.5,1.1,2.8,2.4,2.8c1.3,0,2.4-1.2,2.4-2.8c0-1.5-1.1-2.8-2.4-2.8
						C272.6,318.5,271.5,319.8,271.5,321.3z"/>
				</g>
				<g>
					<path class="st41" d="M285.4,321.3c0,3.4,2.3,6.1,5.2,6.1c2.9,0,5.2-2.7,5.2-6.1c0-3.4-2.3-6.1-5.2-6.1
						C287.7,315.2,285.4,317.9,285.4,321.3z"/>
					<rect x="290.1" y="315.2" class="st41" width="3.8" height="12.2"/>
					<ellipse class="st42" cx="293.9" cy="321.3" rx="5.2" ry="6.1"/>
					<path class="st40" d="M291.6,321.3c0,1.5,1.1,2.8,2.4,2.8c1.3,0,2.4-1.2,2.4-2.8c0-1.5-1.1-2.8-2.4-2.8
						C292.6,318.5,291.6,319.8,291.6,321.3z"/>
				</g>
				<g>
					<ellipse class="st41" cx="308.7" cy="321.3" rx="5.2" ry="6.1"/>
					<rect x="308.2" y="315.2" class="st41" width="3.8" height="12.2"/>
					<ellipse class="st42" cx="312.1" cy="321.3" rx="5.2" ry="6.1"/>
					<path class="st40" d="M309.7,321.3c0,1.5,1.1,2.8,2.4,2.8c1.3,0,2.4-1.2,2.4-2.8c0-1.5-1.1-2.8-2.4-2.8
						C310.7,318.5,309.7,319.8,309.7,321.3z"/>
				</g>
			</g>
		</g>
		<path class="st13" d="M295.7,115c9.3,3.3,8.3,9.2,8.3,9.2s0.2,3.6-0.7,9c1-1-3.4,14.2-3.8,14.9c-1.7,2.4-7.8,4.6-13.2,4.5
			c-5.5-0.1-12.6-4.8-12.7-12c-0.1-8.1,4.3-24.6,4.3-24.6S280.4,109.5,295.7,115z"/>
		<path class="st17" d="M280.3,116.7c2.4,0.3,6.4,0,8.8,0.2c0-0.2-0.2,1.8-0.2,1.8c-0.5,1-1.8,10.5-1.8,10.5
			c-2.5-0.2-2.7,1.8-2.7,1.8l-0.9,4.3l-2.4-0.6l1.1-9.3c-1.5-1.1-1.9-2.6-1.9-2.6S280.5,118.4,280.3,116.7z"/>
		<path class="st17" d="M300.4,121c0,0-0.2-0.1-0.4,0c-1,0.7-4.4,4.2-14.3,0.9l-1-4c0,0-8.2,0.8-12.3-5.8c0,0,6.9-7.1,17.2-4.9
			c0,0-4.8-2.1-7.1-2.1c0,0,15.2-3.4,22.6,6.8c0,0,7.7,0.9,6.3,7.9C310.3,125,300.4,121,300.4,121z"/>
		<path class="st17" d="M284.3,130c0,0,4.1-2.6,4.4,2.5c0.3,5.1-3.1,6.2-5.5,6.3c0,0-2.6,11.8,4.5,14.2c7.1,2.4,23.4,0,23.6-33.3
			l-21.3-4.5L284.3,130z"/>
		<path class="st6" d="M279.2,162.9l-0.6-8.3c0,0,11.1-1.5,19.6-0.4l0.4,6.5L279.2,162.9z"/>
		<path class="st6" d="M279.5,159.9c0,0-16.8,0.8-20.6,13.5c-6.2,20.7-10.4,29-10.4,29l-18.3-0.6c0,0-4.4,5-3.2,8.8
			c1.5,4.4,22.7,6.3,27.4,5.4s18.3-24.6,18.3-24.6L279.5,159.9z"/>
	</g>
</g>
</svg>
