<?xml version="1.0" encoding="utf-8"?>
<!-- Generator: Adobe Illustrator 23.1.0, SVG Export Plug-In . SVG Version: 6.00 Build 0)  -->
<svg version="1.1" id="Layer_1" xmlns="http://www.w3.org/2000/svg" xmlns:xlink="http://www.w3.org/1999/xlink" x="0px" y="0px"
	 viewBox="0 0 538 270" style="enable-background:new 0 0 538 270;" xml:space="preserve">
<style type="text/css">
	.st0{fill:#131313;}
</style>
<g id="Group_1761" transform="translate(-752.715 -1257.267)">
	<g id="Path_446">
		<path class="st0" d="M1271.5,1467.7c-0.5,0-1.1-0.2-1.5-0.6c-1.5-1.6-3.2-3.3-5-5.1c-0.8-0.8-0.8-2.1,0-2.9c0.8-0.8,2.1-0.8,2.9,0
			c1.8,1.8,3.5,3.5,5.1,5.1c0.8,0.8,0.8,2.1,0,2.9C1272.6,1467.5,1272,1467.7,1271.5,1467.7z M1252.5,1449.1c-0.5,0-1-0.2-1.4-0.5
			c-1.7-1.6-3.4-3.2-5.3-4.8c-0.8-0.8-0.9-2-0.1-2.9c0.8-0.8,2-0.9,2.9-0.1c1.8,1.7,3.6,3.3,5.3,4.8c0.8,0.8,0.9,2.1,0.1,2.9
			C1253.6,1448.9,1253,1449.1,1252.5,1449.1z M1232.6,1431.6c-0.5,0-0.9-0.2-1.3-0.5c-1.8-1.5-3.6-3-5.5-4.6c-0.9-0.7-1-2-0.3-2.9
			c0.7-0.9,2-1,2.9-0.3c1.9,1.5,3.7,3.1,5.5,4.6c0.9,0.7,1,2,0.2,2.9C1233.7,1431.3,1233.2,1431.6,1232.6,1431.6z M1211.9,1414.9
			c-0.4,0-0.9-0.1-1.2-0.4c-1.9-1.4-3.7-2.9-5.7-4.3c-0.9-0.7-1.1-2-0.4-2.9c0.7-0.9,2-1.1,2.9-0.4c1.9,1.5,3.8,2.9,5.7,4.4
			c0.9,0.7,1.1,2,0.4,2.9C1213.1,1414.6,1212.5,1414.9,1211.9,1414.9z M1190.6,1399.1c-0.4,0-0.8-0.1-1.2-0.4
			c-1.9-1.4-3.9-2.7-5.8-4.1c-0.9-0.6-1.2-1.9-0.5-2.8c0.6-0.9,1.9-1.2,2.8-0.5c2,1.4,3.9,2.7,5.9,4.1c0.9,0.7,1.1,1.9,0.5,2.8
			C1191.9,1398.8,1191.2,1399.1,1190.6,1399.1z M1168.6,1384.2c-0.4,0-0.8-0.1-1.1-0.3c-2-1.3-4-2.6-6-3.8c-1-0.6-1.2-1.9-0.6-2.8
			c0.6-1,1.9-1.2,2.8-0.6c2,1.3,4.1,2.6,6,3.9c0.9,0.6,1.2,1.9,0.6,2.8C1169.9,1383.9,1169.3,1384.2,1168.6,1384.2z M1146,1370.3
			c-0.4,0-0.7-0.1-1-0.3c-2-1.2-4.1-2.4-6.2-3.6c-1-0.6-1.3-1.8-0.8-2.8c0.6-1,1.8-1.3,2.8-0.8c2.1,1.2,4.2,2.4,6.2,3.6
			c1,0.6,1.3,1.8,0.7,2.8C1147.4,1369.9,1146.7,1370.3,1146,1370.3z M1122.8,1357.4c-0.3,0-0.6-0.1-1-0.2c-2.1-1.1-4.2-2.2-6.3-3.3
			c-1-0.5-1.4-1.7-0.9-2.7c0.5-1,1.7-1.4,2.7-0.9c2.1,1.1,4.3,2.2,6.4,3.3c1,0.5,1.4,1.8,0.9,2.8
			C1124.2,1357,1123.5,1357.4,1122.8,1357.4z M1099,1345.6c-0.3,0-0.6-0.1-0.9-0.2c-2.1-1-4.3-2-6.5-3c-1-0.5-1.5-1.7-1-2.7
			c0.5-1,1.7-1.5,2.7-1c2.2,1,4.4,2,6.5,3c1,0.5,1.5,1.7,1,2.7C1100.5,1345.1,1099.8,1345.6,1099,1345.6z M1074.8,1334.8
			c-0.3,0-0.5,0-0.8-0.2c-2.2-0.9-4.4-1.8-6.6-2.7c-1-0.4-1.6-1.6-1.1-2.7c0.4-1,1.6-1.6,2.7-1.1c2.2,0.9,4.4,1.8,6.6,2.7
			c1,0.4,1.5,1.6,1.1,2.7C1076.3,1334.4,1075.6,1334.8,1074.8,1334.8z M1050,1325.3c-0.2,0-0.5,0-0.7-0.1c-2.2-0.8-4.5-1.5-6.7-2.3
			c-1.1-0.4-1.7-1.5-1.3-2.6c0.4-1.1,1.5-1.7,2.6-1.3c2.3,0.7,4.6,1.5,6.8,2.3c1.1,0.4,1.6,1.5,1.3,2.6
			C1051.6,1324.8,1050.8,1325.3,1050,1325.3z M1024.7,1317.4c-0.2,0-0.4,0-0.5-0.1c-2.3-0.6-4.6-1.2-6.9-1.8
			c-1.1-0.3-1.8-1.4-1.5-2.5c0.3-1.1,1.4-1.7,2.5-1.5c2.3,0.6,4.6,1.2,6.9,1.8c1.1,0.3,1.7,1.4,1.4,2.5
			C1026.4,1316.8,1025.6,1317.4,1024.7,1317.4z M754.8,1317.1c-0.9,0-1.7-0.6-2-1.5c-0.3-1.1,0.4-2.2,1.4-2.5c0.1,0,2.5-0.7,7-1.7
			c1.1-0.3,2.2,0.4,2.4,1.5c0.3,1.1-0.4,2.2-1.5,2.4c-4.4,1-6.9,1.7-6.9,1.7C755.1,1317,754.9,1317.1,754.8,1317.1z M780.7,1311.5
			c-1,0-1.8-0.7-2-1.7c-0.2-1.1,0.5-2.2,1.6-2.4c2.2-0.4,4.6-0.8,7.1-1.3c1.1-0.2,2.2,0.6,2.4,1.7c0.2,1.1-0.6,2.2-1.7,2.4
			c-2.5,0.4-4.8,0.8-7,1.3C781,1311.5,780.9,1311.5,780.7,1311.5z M998.9,1311.2c-0.1,0-0.3,0-0.4,0c-2.3-0.5-4.6-0.9-7-1.4
			c-1.1-0.2-1.8-1.3-1.6-2.4c0.2-1.1,1.3-1.8,2.4-1.6c2.3,0.4,4.7,0.9,7,1.4c1.1,0.2,1.8,1.3,1.6,2.4
			C1000.7,1310.6,999.8,1311.2,998.9,1311.2z M806.9,1307.2c-1,0-1.9-0.7-2-1.8c-0.2-1.1,0.6-2.1,1.7-2.3c2.3-0.3,4.7-0.6,7.1-1
			c1.1-0.1,2.1,0.6,2.3,1.8c0.1,1.1-0.6,2.1-1.8,2.3c-2.4,0.3-4.8,0.6-7.1,1C807.1,1307.2,807,1307.2,806.9,1307.2z M972.8,1306.6
			c-0.1,0-0.2,0-0.3,0c-2.4-0.3-4.7-0.7-7-1c-1.1-0.1-1.9-1.2-1.8-2.3c0.1-1.1,1.2-1.9,2.3-1.8c2.4,0.3,4.7,0.6,7.1,1
			c1.1,0.2,1.9,1.2,1.7,2.3C974.6,1305.9,973.8,1306.6,972.8,1306.6z M833.3,1304.1c-1,0-1.9-0.8-2-1.8c-0.1-1.1,0.7-2.1,1.8-2.2
			c2.3-0.2,4.7-0.5,7.1-0.7c1.1-0.1,2.1,0.7,2.2,1.9c0.1,1.1-0.7,2.1-1.9,2.2c-2.4,0.2-4.8,0.4-7.1,0.7
			C833.4,1304.1,833.4,1304.1,833.3,1304.1z M946.4,1303.4c-0.1,0-0.1,0-0.2,0c-2.4-0.2-4.7-0.4-7.1-0.6c-1.1-0.1-2-1.1-1.9-2.2
			c0.1-1.1,1.1-2,2.2-1.9c2.4,0.2,4.8,0.4,7.1,0.6c1.1,0.1,1.9,1.1,1.8,2.2C948.4,1302.6,947.5,1303.4,946.4,1303.4z M859.8,1302
			c-1.1,0-2-0.8-2-1.9c-0.1-1.1,0.8-2.1,1.9-2.2c2.4-0.1,4.7-0.3,7.2-0.4c1.1,0,2.1,0.8,2.1,1.9c0.1,1.1-0.8,2.1-1.9,2.1
			c-2.4,0.1-4.8,0.2-7.1,0.4C859.8,1302,859.8,1302,859.8,1302z M920,1301.6C919.9,1301.6,919.9,1301.6,920,1301.6
			c-2.5-0.1-4.8-0.2-7.2-0.3c-1.1,0-2-1-2-2.1c0-1.1,1-2,2.1-2c2.4,0.1,4.8,0.2,7.2,0.3c1.1,0,2,1,1.9,2.1
			C922,1300.7,921.1,1301.6,920,1301.6z M886.3,1301.1c-1.1,0-2-0.9-2-2c0-1.1,0.9-2.1,2-2.1c2.4,0,4.8-0.1,7.2-0.1c0,0,0,0,0,0
			c1.1,0,2,0.9,2,2c0,1.1-0.9,2-2,2C891,1301,888.7,1301.1,886.3,1301.1C886.3,1301.1,886.3,1301.1,886.3,1301.1z"/>
	</g>
	<g id="Polygon_1">
		<path class="st0" d="M1290.7,1487.6l-25.7-8.1l19.4-18.1L1290.7,1487.6z"/>
	</g>
</g>
</svg>
