<svg xmlns="http://www.w3.org/2000/svg" width="120" height="120" viewBox="0 0 120 120">
  <g id="Group_3079" data-name="Group 3079" transform="translate(-620 749)">
    <rect id="Rectangle_1021" data-name="Rectangle 1021" width="120" height="120" transform="translate(620 -749)" fill="#fff"/>
    <g id="Group_3078" data-name="Group 3078" transform="translate(652 -710)">
      <path id="Path_312" data-name="Path 312" d="M57.972,133.089a1.526,1.526,0,0,1,1.877-1.028,7.421,7.421,0,0,0,.926.047c.181-.007.484-.063.511-.159a.866.866,0,0,0-.083-.659,9.93,9.93,0,0,0-.9-.963,1.479,1.479,0,0,1,0-2.316q1.128-1.164,2.272-2.313a1.424,1.424,0,0,1,2.209,0c.315.307.6.644.937.927a.459.459,0,0,0,.813-.327c.04-.476,0-.958.023-1.436a1.418,1.418,0,0,1,1.524-1.507c1.2-.012,2.4-.008,3.6.005.262,0,.417-.02.515-.329a7.283,7.283,0,0,1,8.938-4.887,2.1,2.1,0,0,0,.3.039,10.81,10.81,0,0,1,4.343-5.389,10.439,10.439,0,0,1,6.68-1.58,1.683,1.683,0,0,1,.419-2.325c.706-.665,1.361-1.385,2.046-2.072a1.454,1.454,0,0,1,2.293.011,11.258,11.258,0,0,0,.817.813c.163.132.445.268.6.208s.275-.357.295-.562c.044-.456,0-.921.018-1.381a1.4,1.4,0,0,1,1.456-1.458q1.829-.023,3.659,0a1.383,1.383,0,0,1,1.419,1.583c-.03.422-.113.844-.1,1.265a.682.682,0,0,0,.28.525.667.667,0,0,0,.557-.16c.36-.308.666-.68,1.015-1a1.322,1.322,0,0,1,1.956.012q1.294,1.27,2.543,2.586a1.366,1.366,0,0,1,.013,1.981c-.318.354-.682.668-.986,1.033a.717.717,0,0,0-.174.569.692.692,0,0,0,.509.308c.469.049.946.015,1.418.037A1.4,1.4,0,0,1,113.9,114.6c.024,1.216.021,2.433,0,3.649a1.417,1.417,0,0,1-1.415,1.452c-.454.021-.913-.024-1.364.02-.2.02-.5.142-.556.293a.8.8,0,0,0,.2.614c.274.342.612.63.909.954a1.435,1.435,0,0,1-.01,2.118c-.744.784-1.515,1.542-2.266,2.319a1.565,1.565,0,0,1-1.683.373c.222.908.5,1.8.651,2.71a9.568,9.568,0,0,1-8.091,10.859,13.091,13.091,0,0,1-1.578.095q-9.5.009-19.007,0H78.9c.186.209.31.343.429.483a1.416,1.416,0,0,1,.009,2q-1.175,1.271-2.423,2.472a1.4,1.4,0,0,1-1.9.072c-.42-.324-.809-.687-1.23-1.009-.144-.11-.424-.254-.5-.2a.946.946,0,0,0-.334.578c-.05.437-.01.883-.019,1.325a1.461,1.461,0,0,1-1.578,1.576q-1.638.013-3.277,0a1.419,1.419,0,0,1-1.523-1.5c-.017-.46.024-.924-.018-1.381a.474.474,0,0,0-.858-.344c-.334.282-.617.625-.935.928a1.429,1.429,0,0,1-2.137-.005q-1.209-1.2-2.388-2.43a1.441,1.441,0,0,1,.013-2.157c.313-.334.664-.635.95-.991a.727.727,0,0,0,.123-.586c-.043-.129-.3-.237-.474-.259a4.409,4.409,0,0,0-.981-.007,1.747,1.747,0,0,1-1.88-1Zm29.236,6.062c3.858,0,7.717,0,11.575-.005a9.658,9.658,0,0,0,1.63-.124,8.751,8.751,0,0,0,1.771-16.686,1.663,1.663,0,0,1-1.223-1.627,9.635,9.635,0,0,0-18.712-2.09c-.249.7-.342.746-1.034.513a6.361,6.361,0,0,0-8.411,5.649,1.193,1.193,0,0,1-.707,1.12,6.647,6.647,0,0,0-3.627,5.5,6.94,6.94,0,0,0,7.108,7.751Q81.394,139.154,87.208,139.151Zm-19.745,5.935h0c0,.147,0,.295,0,.442,0,.832.089.927.9.928.983,0,1.966,0,2.949,0,.5,0,.735-.241.731-.743,0-.479-.018-.96.015-1.436a1.437,1.437,0,0,1,.913-1.271,1.157,1.157,0,0,1,1.306.278c.4.348.813.682,1.22,1.021a.575.575,0,0,0,.872-.03c.757-.771,1.523-1.534,2.263-2.321a.725.725,0,0,0,.169-.54,2.771,2.771,0,0,0-1.746-1.36,13.756,13.756,0,0,1-3.9-.3.869.869,0,0,0-.588.171,5.247,5.247,0,0,1-7.422-1.919,5.457,5.457,0,0,1,2.147-7.428,1.171,1.171,0,0,0,.5-.627,8.085,8.085,0,0,1,2.895-4.243c.3-.23.673-.38.955-.633a.979.979,0,0,0,.211-.615c0-.057-.272-.194-.421-.2-1.092-.016-2.184,0-3.276-.007-.472,0-.709.2-.693.7.015.46.008.921,0,1.382a1.343,1.343,0,0,1-.861,1.294,1.272,1.272,0,0,1-1.5-.318c-.3-.3-.586-.6-.884-.9-.44-.44-.643-.439-1.091.014q-1.062,1.075-2.114,2.16c-.466.48-.466.679-.014,1.151.317.33.655.642.948.994a1.578,1.578,0,0,1,.129,1.714,1.253,1.253,0,0,1-1.356.6c-.4-.043-.8-.055-1.2-.09-.439-.038-.649.165-.65.6,0,1.161,0,2.322,0,3.482,0,.468.238.665.681.66s.91,0,1.365,0a1.252,1.252,0,0,1,1.246.814,1.319,1.319,0,0,1-.257,1.531q-.491.519-1,1.025a.576.576,0,0,0-.024.913q1.17,1.2,2.342,2.4a.556.556,0,0,0,.9,0c.333-.341.666-.681,1-1.016a1.267,1.267,0,0,1,1.46-.293,1.339,1.339,0,0,1,.871,1.23C67.476,144.569,67.463,144.828,67.463,145.086Zm35.858-23.364c1.072.846,2.135,1.678,3.191,2.52q.664.53,1.3,1.094a.63.63,0,0,0,1-.018q1.069-1.107,2.152-2.2a.616.616,0,0,0-.022-1c-.352-.347-.707-.693-1.032-1.065a1.3,1.3,0,0,1-.187-1.447,1.214,1.214,0,0,1,1.135-.81c.491-.015.983-.018,1.474-.016a.591.591,0,0,0,.678-.669c0-1.124,0-2.248,0-3.372,0-.459-.247-.664-.689-.664s-.91,0-1.365-.017a1.394,1.394,0,0,1-.954-2.341c.327-.346.661-.686,1-1.023a.538.538,0,0,0,.024-.861q-1.211-1.236-2.421-2.474a.5.5,0,0,0-.807,0c-.333.341-.661.686-1,1.018a1.275,1.275,0,0,1-1.548.278,1.441,1.441,0,0,1-.812-1.44c.034-.4.08-.806.127-1.208.052-.446-.146-.662-.582-.663q-1.747,0-3.495,0c-.459,0-.655.249-.653.7s-.005.921,0,1.382a1.3,1.3,0,0,1-.844,1.295,1.266,1.266,0,0,1-1.5-.315c-.335-.339-.665-.682-1-1.017a.523.523,0,0,0-.819-.023c-.827.83-1.656,1.659-2.452,2.519a.67.67,0,0,0-.073.631,3.23,3.23,0,0,0,1,1c1.211.606,2.468,1.116,3.753,1.684,2.007-2.1,4.048-2.678,6.285-1.715a5.435,5.435,0,0,1-.86,10.244Zm-1.366-.829a4.388,4.388,0,0,0,4.488-3.6,4.505,4.505,0,0,0-2.966-5.105,4.174,4.174,0,0,0-4.917,1.8C100.8,116.5,101.26,117.433,101.954,120.893ZM67.5,131.51a4.431,4.431,0,0,0-2.115,3.622,4.293,4.293,0,0,0,2.337,4.179,4.123,4.123,0,0,0,4.154-.049A8.185,8.185,0,0,1,67.5,131.51Z" transform="translate(-57.972 -104.437)" fill="#ff5ec3" stroke="#ff5ec3" stroke-width="1"/>
      <path id="Path_313" data-name="Path 313" d="M304.4,185.568l.6-.722c.518.556,1.045,1.058,1.5,1.622a10.627,10.627,0,0,1,2.288,5.578.684.684,0,0,0,.516.647,9.433,9.433,0,0,1,5.448,5.616c.024.065.041.133.076.249l-.687.238c-.6-.956-1.1-1.916-1.75-2.762a7.7,7.7,0,0,0-3.82-2.634.829.829,0,0,1-.652-.862,9.818,9.818,0,0,0-3.094-6.564Z" transform="translate(-268.505 -172.99)" fill="#ff5ec3" stroke="#ff5ec3" stroke-width="1"/>
      <path id="Path_314" data-name="Path 314" d="M152.351,214.515l.405.7c-.573.537-1.147.994-1.623,1.539a6.631,6.631,0,0,0-1.554,3.982.908.908,0,0,1-.365.649,7.206,7.206,0,0,0-3.581,4.126.731.731,0,0,1-.1.129l-.8-.232c.074-.226.125-.414.2-.594a7.87,7.87,0,0,1,3.354-3.94.8.8,0,0,0,.45-.667A7.532,7.532,0,0,1,152.351,214.515Z" transform="translate(-132.095 -198.284)" fill="#ff5ec3" stroke="#ff5ec3" stroke-width="1"/>
    </g>
  </g>
</svg>
