<?xml version="1.0" encoding="utf-8"?>
<!-- Generator: Adobe Illustrator 23.1.0, SVG Export Plug-In . SVG Version: 6.00 Build 0)  -->
<svg version="1.1" id="Layer_1" xmlns="http://www.w3.org/2000/svg" xmlns:xlink="http://www.w3.org/1999/xlink" x="0px" y="0px"
	 viewBox="0 0 400 400" style="enable-background:new 0 0 400 400;" xml:space="preserve">
<style type="text/css">
	.st0{fill:#879299;}
	.st1{fill:#2E4661;}
	.st2{fill:#3F3F3F;}
	.st3{fill:#C7DADC;}
	.st4{opacity:0.41;}
	.st5{fill:#FFFFFF;}
	.st6{opacity:0.4;fill:#FFFFFF;enable-background:new    ;}
	.st7{fill:#9C6652;}
	.st8{fill:#658095;}
	.st9{fill:none;stroke:#747474;stroke-width:0.2296;stroke-miterlimit:10;}
	.st10{fill:#D2C3A8;}
	.st11{fill:#40495F;}
	.st12{fill:#3B3631;}
	.st13{fill:#8398B7;}
	.st14{fill:#7F5256;}
	.st15{fill:#6E694F;}
	.st16{fill:#625337;}
	.st17{fill:#343F54;}
	.st18{fill:#3C3C3C;}
	.st19{fill:#D3C4A9;}
	.st20{fill:#C7C7C7;}
	.st21{opacity:0.76;}
	.st22{fill:#DFE0E0;}
	.st23{fill:#CBD2D4;}
	.st24{opacity:0.51;fill:#BBBDBD;enable-background:new    ;}
	.st25{opacity:0.51;fill:#B3B3B3;enable-background:new    ;}
	.st26{fill:#E3E1DE;}
	.st27{fill:#CFD3D4;}
	.st28{fill:#4D555B;}
	.st29{fill:#DFDFDF;}
	.st30{opacity:8.000000e-02;enable-background:new    ;}
	.st31{fill:#F0EDEB;}
	.st32{fill:#87949D;}
	.st33{fill:#DCDDDD;}
	.st34{fill:#C5C5C5;}
	.st35{opacity:7.000000e-02;enable-background:new    ;}
	.st36{fill:#EBEBEB;}
	.st37{opacity:0.53;fill:#EBEBEB;enable-background:new    ;}
	.st38{opacity:0.16;}
	.st39{fill:#6183A8;}
	.st40{opacity:0.75;fill:#FFFFFF;enable-background:new    ;}
	.st41{fill:#D8DEE0;}
	.st42{fill:#ECECEC;}
	.st43{fill:#D4D4D5;}
	.st44{fill:#CDD2D4;}
	.st45{fill:#E3E1DF;}
	.st46{opacity:0.27;fill:#BBBDBD;enable-background:new    ;}
	.st47{fill:#CFCFCF;}
	.st48{fill:#D49848;}
	.st49{opacity:0.1;fill:#2B2A2A;enable-background:new    ;}
	.st50{fill:#F0C94F;}
	.st51{fill:#E2C94F;}
	.st52{fill:none;}
</style>
<g>
	<g>
		<g>
			<g>
				<g>
					<g>
						<g>
							<g>
								<g>
									
										<rect x="247.4" y="100.8" transform="matrix(0.4992 -0.8665 0.8665 0.4992 18.8687 280.8825)" class="st0" width="10" height="46.6"/>
									<path class="st1" d="M285.7,143.2L285.7,143.2c-1.6,2.8-4.5,4.1-6.6,2.9l-23.3-13.2l5.7-10.4l23.4,13.6
										C286.9,137.3,287.3,140.5,285.7,143.2z"/>
								</g>
							</g>
							<g>
								
									<ellipse transform="matrix(0.5213 -0.8534 0.8534 0.5213 15.9214 237.1473)" class="st2" cx="219.3" cy="104.4" rx="30" ry="29.8"/>
								
									<ellipse transform="matrix(0.5213 -0.8534 0.8534 0.5213 15.9287 237.147)" class="st3" cx="219.3" cy="104.4" rx="25.8" ry="25.6"/>
							</g>
						</g>
						<g>
							<g class="st4">
								<path class="st5" d="M200.7,104.1c-0.4-8.2,4.7-15.9,12.5-18.4c7.8-2.6,16.5,0.6,20.9,7.5c1.2,2,4.4,0.2,3.1-1.8
									c-5-8-14.6-11.8-23.8-9.5c-9,2.3-15.5,10.4-16.3,19.6c-0.1,0.9-0.1,1.8,0,2.7C197.3,106.4,200.8,106.4,200.7,104.1
									L200.7,104.1z"/>
							</g>
							<path class="st6" d="M239.6,96.4c1.1,0.7,1.5,2.1,0.9,3.2c-0.7,1.1-2.1,1.5-3.2,0.9s-1.5-2.1-0.9-3.2
								C237,96.2,238.5,95.8,239.6,96.4z"/>
						</g>
					</g>
					<path class="st7" d="M256.1,132.6l5.4-9.9c0.2-0.3,0.1-0.8-0.2-1l-0.1-0.1c-0.4-0.3-0.9-0.1-1.1,0.3l-5.3,9.9
						c-0.2,0.4-0.1,0.8,0.3,1l0,0C255.5,133.1,255.9,132.9,256.1,132.6z"/>
					<g>
						<path class="st8" d="M244.3,103.6c0.2,6.2-1.9,12.3-5.8,17.1c-3.9,4.8-9.4,7.9-15.4,9c-6.1,1.1-12.5-0.2-17.8-3.5
							c-5.1-3.2-8.9-8.2-10.7-14c-1.9-6-1.4-12.6,1.2-18.3c2.5-5.5,7-10,12.5-12.5c5.7-2.7,12.3-3.1,18.2-1.2
							c5.8,1.8,10.7,5.7,13.9,10.8C242.9,94.7,244.2,99.1,244.3,103.6c0,0.9,1.4,0.8,1.4-0.1c-0.2-6.2-2.6-12.1-6.6-16.8
							c-3.9-4.6-9.5-7.6-15.4-8.7c-6.1-1.1-12.6,0.1-18,3.2c-5.2,3-9.4,7.8-11.6,13.4c-2.4,5.8-2.6,12.4-0.7,18.4
							c1.8,5.8,5.7,10.7,10.7,14.1c5.1,3.4,11.5,4.9,17.6,4.2s11.8-3.5,16.1-7.8c5.2-5.2,8.1-12.6,7.9-20
							C245.7,102.7,244.3,102.7,244.3,103.6z"/>
					</g>
				</g>
			</g>
			<g>
				<path class="st9" d="M282.1,141L282.1,141L282.1,141z M256.3,120.8L256.3,120.8L256.3,120.8z"/>
			</g>
		</g>
		<polygon class="st10" points="279.1,145.4 280.5,137.8 274.9,132.4 271.9,135.4 274.1,140.7 272.8,143.2 275.1,147.6 		"/>
		<g>
			<g>
				<g>
					<polygon class="st11" points="219.5,224.4 219,267.6 223.6,323.3 229.9,323.3 237.4,271.9 246,220.5 					"/>
					<polygon class="st12" points="229.9,325.9 223.1,329.3 219.7,325.9 223.1,322.6 229.9,322.6 					"/>
				</g>
				<g>
					<polygon class="st11" points="262.5,224.4 262.6,249.4 258.4,323.3 252.1,323.3 241.6,274.3 236,220.5 					"/>
					<polygon class="st12" points="252.2,325.9 258.9,329.3 262.3,325.9 258.9,322.6 252.2,322.6 					"/>
				</g>
			</g>
			<path class="st13" d="M269,239.5c0.1,4,0,9.3-1.6,9.5c-0.3,0-0.6-0.1-0.9-0.2c-2.9-1.4-5-3.4-7.8-4.8c-3-1.4-6.4-2.2-9.7-2.7
				c-5-0.8-10-1.3-15-1.3c-4.3,0-8.8,1.9-12.8,3c-1.6,0.4-2.8,1.6-4.1,2.5c-1.9,1.3-2.8,1.8-2.5-0.9c0.4-4.4,0.9-8.8,1.4-13.2
				c1.1-8.8,2.6-17.5,5-26c1-3.2,2-6.4,3.1-9.6c1.3-3.9,2.7-7.8,4-11.7c1.7-4.8,4.5-8.2,9.4-9.9c4.2-1.5,9.5-1.9,13.6,0.2
				c4.6,2.3,6.8,10,9,14.2c2,3.6,4.4,13.5,5.1,17.4c0.9,4.7,1.7,9.4,2.3,14.1c0.7,5.2,1.2,10.3,1.4,15.5
				C268.8,236,268.9,237.6,269,239.5z"/>
			<path class="st5" d="M246.4,175l-8.5,0.1c0,0-9.1,31.7-9.4,37.2c-0.3,5.4-2.6,27.2-2.6,27.2s9.4,0.2,20.2,1.5
				c10.6,2.3,11.4,0.9,11.4,0.9s-5.7-22.9-5.9-29.5c-0.2-6.7-1.1-28.9-1.1-28.9L246.4,175z"/>
			<path class="st14" d="M245.1,175.5H241c-1,0-1.5,1.1-0.9,1.9l1.7,2.2l-4.6,42l5.6,5.5l3.9-6.5l-1.1-41l0.7-2.7
				C246.5,176.2,245.9,175.5,245.1,175.5z"/>
			<g>
				<path class="st10" d="M241.2,175.1c0.1,0.1,0.2,0.2,0.3,0.2c0.3,0.1,0.5,0.1,0.8,0c1.1-0.1,2.2-0.3,3.4-0.4
					c-0.4-3.4,1.6-4.2,3.6-6.4s1.4-5.3,1.3-8c0-0.8-0.1-1.5-0.4-2.2c-0.6-1.2-1.9-1.9-3.2-2.3c-3.3-1-7-0.8-9.9,1.1
					c-0.8,0.5-1.5,1.1-1.9,1.9c-0.6,1.2-0.5,2.7-0.3,4.1c0.3,2.1,0.9,4.2,2.1,6c1.1,1.7,3.3,2.5,3.5,4.5
					C240.7,174.2,240.8,174.8,241.2,175.1z"/>
				<g>
					<path class="st15" d="M235.1,160.7c0.2,0.9,0.6,1.7,0.4,2.6c-1.4-0.5-2.3-1.9-2.7-3.3c-0.2-0.6-0.4-1.3-0.3-2
						c0.1-0.7,0.4-1.4,0.9-1.8c0.8-0.5,2.1-0.3,2.3,0.6C235.8,157.9,234.8,159.4,235.1,160.7z"/>
					<path class="st16" d="M227.8,153.1c0-1,0.4-2,1.3-2.6c0.8-0.5,1.7-1,2.2-1.8c0.4-0.7,0.4-1.5,0.8-2.1c0.7-1.2,2.1-1.6,3.4-2
						c3.2-1,4.9-2.2,8.3-0.9c2.4,0.9,5.5,1.1,7.7,2.4c0.9,0.6,1.7,1.5,2.4,2.5c2.2,3.5,2.8,8.4,1.3,12.1c-0.3,0.8-0.7,1.6-1.2,2.3
						c-0.9,1.4-1.8,3.2-3.4,3.9c-0.1-0.7-0.6-1.1-0.8-1.7c-0.1-0.5-0.1-1-0.1-1.5c0.1-1.9,0.7-5-1.2-5.9c-2.4-1.2-7-0.1-9.3,0.9
						c-2.1,0.9-5.6,2.1-7.8,1.1C229.4,158.9,227.7,155.3,227.8,153.1z"/>
				</g>
			</g>
		</g>
		<polygon class="st13" points="249.1,173.8 269.1,165.4 271.5,146.2 281.2,144.5 280.4,163.3 279.5,173.9 260.1,188.4 		"/>
		<polygon class="st10" points="225.9,148.6 229.5,141.9 237.3,141.1 237.7,145.4 232.7,148.1 232.1,150.8 227.6,152.8 		"/>
		<polygon class="st13" points="235.7,175.1 214.2,168.8 230.2,152.9 224.7,147 199.8,168.3 204.1,179.1 226.8,190.8 		"/>
	</g>
	<g>
		<polygon class="st10" points="151.9,223.3 147.8,223.1 149.4,216.9 154.1,215.3 157.3,218.1 		"/>
		<polygon class="st17" points="113.8,180.1 120.8,184.3 134.6,204.1 152.2,216.3 148.4,223.4 124.5,210.4 		"/>
		<polygon class="st17" points="112.2,240.9 112.2,249.1 123,284.3 120.3,321 127.1,322.3 137.9,277.6 137.5,264.4 132.5,237.5 		
			"/>
		<polygon class="st18" points="126.2,321.6 131.4,327.1 129.9,329.9 119.2,324.8 121.2,320.7 		"/>
		<polygon class="st18" points="109.8,324.1 116.2,328.2 115.4,331.2 103.8,328.9 104.7,324.5 		"/>
		<path class="st17" d="M114.2,180.4L97,176.3c0,0-3.4,15-6.2,38.6c-2.8,23.6,11.3,50.8,11.3,50.8s35.1-14.6,42.2-17.2l-15.8-39.7
			L114.2,180.4z"/>
		<polygon class="st17" points="120.8,250.6 109.9,325.2 104.9,325.2 101.8,284.5 95,243.8 		"/>
		<g>
			<path class="st19" d="M108.4,156.6c-4,1.8-9.1-0.3-12.9,2c-2.5,1.5-3.7,4.6-3.6,7.5c0.1,1.4,0.4,2.8,1.2,3.9
				c0.5,0.7,1.2,1.3,2,1.7c1,0.6,2.1,1,3.2,1.2c-0.2,1-0.5,2-1,3c2.2,0.1,4,1,6.2,1c0-1.2,0.4-3.3,0.4-4.6c0.6-0.2,1.1-0.5,1.6-0.9
				c3.1-2.1,4.9-6,4.4-9.8C109.7,160,109.1,158.3,108.4,156.6z"/>
			<polygon class="st2" points="107.8,158.3 94.4,161.2 95.3,171.9 90.7,170.3 87,153.6 105,146.9 114.4,148.7 115.7,153.5 
				110.3,160.6 			"/>
		</g>
		<path class="st5" d="M107.4,177.7l-17.1-3.8c0,0-3.1,14.5-5.9,38.1s11.3,50.8,11.3,50.8s30.1-21.4,37.1-24L122,205.9L107.4,177.7z
			"/>
		<path class="st17" d="M84.3,212.4c2.8-23.6,6.1-38.6,6.1-38.6l17.1,3.8v0.1c-0.2,1-0.4,2-0.6,2.9c-0.7,3.9-1,7.8-0.9,11.8
			c0.1,6.9,1.1,13.9,2.4,20.7c1.3,6.5,3,13,5.2,19.2c2.9,8.3,6.7,16.2,11.2,23.7c-14.3,5.4-31.2,11.8-31.2,11.8S81.5,236,84.3,212.4
			z"/>
		<g>
			<g>
				
					<rect x="123.2" y="190.1" transform="matrix(0.9967 -8.087666e-02 8.087666e-02 0.9967 -16.8898 13.3051)" class="st20" width="65.2" height="50.1"/>
				<g class="st21">
					
						<rect x="126.7" y="236" transform="matrix(0.9967 -8.087655e-02 8.087655e-02 0.9967 -18.6309 13.5174)" class="st22" width="61.7" height="1.5"/>
					
						<rect x="126.3" y="231.6" transform="matrix(0.9967 -8.087651e-02 8.087651e-02 0.9967 -18.2764 13.4706)" class="st22" width="61.7" height="1.5"/>
					
						<rect x="126" y="227.3" transform="matrix(0.9967 -8.087651e-02 8.087651e-02 0.9967 -17.9296 13.4323)" class="st22" width="61.7" height="1.5"/>
					
						<rect x="125.6" y="223" transform="matrix(0.9967 -8.087651e-02 8.087651e-02 0.9967 -17.5832 13.3858)" class="st22" width="61.7" height="1.5"/>
					
						<rect x="125.3" y="218.6" transform="matrix(0.9967 -8.087651e-02 8.087651e-02 0.9967 -17.2283 13.3472)" class="st22" width="61.7" height="1.5"/>
					
						<rect x="124.9" y="214.3" transform="matrix(0.9967 -8.087651e-02 8.087651e-02 0.9967 -16.8819 13.3007)" class="st22" width="61.7" height="1.5"/>
					
						<rect x="124.6" y="209.9" transform="matrix(0.9967 -8.087655e-02 8.087655e-02 0.9967 -16.527 13.2621)" class="st22" width="61.7" height="1.5"/>
					
						<rect x="124.2" y="205.6" transform="matrix(0.9967 -8.087655e-02 8.087655e-02 0.9967 -16.1806 13.2156)" class="st22" width="61.7" height="1.5"/>
					
						<rect x="123.9" y="201.2" transform="matrix(0.9967 -8.087655e-02 8.087655e-02 0.9967 -15.8257 13.1769)" class="st22" width="61.7" height="1.5"/>
					
						<rect x="123.5" y="196.9" transform="matrix(0.9967 -8.087655e-02 8.087655e-02 0.9967 -15.4792 13.1305)" class="st22" width="61.7" height="1.5"/>
					
						<rect x="123.2" y="192.6" transform="matrix(0.9967 -8.087655e-02 8.087655e-02 0.9967 -15.1325 13.0922)" class="st22" width="61.7" height="1.5"/>
				</g>
			</g>
			<g>
				
					<rect x="123.2" y="164.9" transform="matrix(0.9967 -8.087669e-02 8.087669e-02 0.9967 -13.8489 13.1819)" class="st23" width="65.2" height="25.3"/>
				
					<rect x="125.6" y="185.7" transform="matrix(0.9967 -8.087655e-02 8.087655e-02 0.9967 -14.5706 13.2638)" class="st22" width="61.7" height="1.6"/>
				
					<rect x="125.2" y="181" transform="matrix(0.9967 -8.087655e-02 8.087655e-02 0.9967 -14.1918 13.216)" class="st22" width="61.7" height="1.6"/>
				
					<rect x="124.8" y="176.3" transform="matrix(0.9967 -8.087655e-02 8.087655e-02 0.9967 -13.813 13.1683)" class="st22" width="61.7" height="1.6"/>
				
					<rect x="124.5" y="171.5" transform="matrix(0.9967 -8.087700e-02 8.087700e-02 0.9967 -13.4258 13.1284)" class="st22" width="61.7" height="1.6"/>
				
					<rect x="124.1" y="166.8" transform="matrix(0.9967 -8.087655e-02 8.087655e-02 0.9967 -13.047 13.0806)" class="st22" width="61.7" height="1.6"/>
			</g>
			<g>
				
					<rect x="121.4" y="111.7" transform="matrix(0.9967 -8.087654e-02 8.087654e-02 0.9967 -10.4134 12.7025)" class="st20" width="60.4" height="46.4"/>
				
					<rect x="124.6" y="154.2" transform="matrix(0.9967 -8.087671e-02 8.087671e-02 0.9967 -12.0216 12.8973)" class="st22" width="57.2" height="1.3"/>
				
					<rect x="124.3" y="150.2" transform="matrix(0.9967 -8.087671e-02 8.087671e-02 0.9967 -11.6991 12.8599)" class="st22" width="57.2" height="1.3"/>
				
					<rect x="123.9" y="146.2" transform="matrix(0.9967 -8.087675e-02 8.087675e-02 0.9967 -11.3769 12.8145)" class="st22" width="57.2" height="1.3"/>
				
					<rect x="123.6" y="142.1" transform="matrix(0.9967 -8.087675e-02 8.087675e-02 0.9967 -11.0462 12.7768)" class="st22" width="57.2" height="1.3"/>
				
					<rect x="123.3" y="138.1" transform="matrix(0.9967 -8.087626e-02 8.087626e-02 0.9967 -10.7237 12.7393)" class="st22" width="57.2" height="1.3"/>
				
					<rect x="123" y="134.1" transform="matrix(0.9967 -8.087675e-02 8.087675e-02 0.9967 -10.4012 12.7021)" class="st22" width="57.2" height="1.3"/>
				
					<rect x="122.6" y="130.1" transform="matrix(0.9967 -8.087675e-02 8.087675e-02 0.9967 -10.079 12.6566)" class="st22" width="57.2" height="1.3"/>
				
					<rect x="122.3" y="126.1" transform="matrix(0.9967 -8.087675e-02 8.087675e-02 0.9967 -9.7565 12.6192)" class="st22" width="57.2" height="1.3"/>
				
					<rect x="122" y="122" transform="matrix(0.9967 -8.087675e-02 8.087675e-02 0.9967 -9.4259 12.5815)" class="st22" width="57.2" height="1.3"/>
				
					<rect x="121.7" y="118" transform="matrix(0.9967 -8.087675e-02 8.087675e-02 0.9967 -9.1034 12.5442)" class="st22" width="57.2" height="1.3"/>
				
					<rect x="121.3" y="114" transform="matrix(0.9967 -8.087675e-02 8.087675e-02 0.9967 -8.7812 12.4987)" class="st22" width="57.2" height="1.3"/>
			</g>
			
				<rect x="119.5" y="158.1" transform="matrix(0.9967 -8.087645e-02 8.087645e-02 0.9967 -12.5702 12.8506)" class="st22" width="65.7" height="7"/>
			<path class="st24" d="M172.3,141c4.3,16.4,10.6,25.4,15.6,30.2l-2.5-31.3L172.3,141z"/>
			<path class="st25" d="M127.1,160.3c0,0,11.2,3.7,10.8,14.2c0,0,27.9-17.3,39.2-18.2L127.1,160.3z"/>
			<path class="st26" d="M123.4,160.4c0,0,11.2,3.3,10.7,12.8c0,0,28-16,39.4-16.9L123.4,160.4z"/>
			<path class="st27" d="M170.7,136.3c0,0,5.5-1.6,8.4-12.2c0,0,11.2,27.2,23.3,26.4c0,0-11.7,4.4-6.8,20.1
				C195.6,170.7,180.1,166.5,170.7,136.3z"/>
		</g>
		<g>
			<polygon class="st10" points="129.8,240.2 125.7,240 127.3,233.8 132,232.2 135.2,234.9 			"/>
			<polygon class="st17" points="88.9,186.4 94.7,189.2 108.6,224.4 128.5,232.9 127.5,240.1 101.9,234.1 90.2,213.3 			"/>
		</g>
	</g>
	<g>
		<g>
			<g>
				<g>
					<path class="st28" d="M281.4,329.2l13.3-10.4c0.7-0.6,0.3-1.7-0.6-1.7h-76.7l-10.3,12.1H281.4z"/>
					<polygon class="st29" points="278.3,313.9 278.3,327.5 291,318.6 290.6,309.2 					"/>
					<path class="st28" d="M281.4,312.9l10.9-4.4c0.6-0.3,0.5-1.2-0.2-1.2l-71.5-0.5l-13.3,5.5L281.4,312.9z"/>
					<rect x="207.2" y="312.3" class="st28" width="74.2" height="16.9"/>
					<polygon class="st30" points="281.4,312.9 290.6,309.2 290.7,309.9 281.4,315.7 					"/>
				</g>
			</g>
			<rect x="209.1" y="293.3" class="st31" width="73.9" height="17.2"/>
			<rect x="207.4" y="281.2" class="st11" width="73.9" height="12.1"/>
			<rect x="210.2" y="266.7" class="st32" width="73.9" height="14.5"/>
			<rect x="205.6" y="250.4" class="st33" width="73.9" height="17.2"/>
			<rect x="207.2" y="233.1" class="st34" width="73.9" height="17.2"/>
			<path class="st35" d="M282.3,284.8c-7.3-7.6-7.9-18.1-7.9-18.1s-1.2,12.5,3,28.7c0.2,0.6,2.4,2.6,5.6,5
				C282.9,295.2,282.6,290,282.3,284.8z"/>
			<path class="st36" d="M276.4,262.2c0,0,1.6,25.6,27.6,25.8l0.6,22c0,0-24.7-16.9-25.2-19.1C275.1,274.7,276.4,262.2,276.4,262.2z
				"/>
			<rect x="215.1" y="273.1" class="st37" width="42.6" height="4.3"/>
			<g class="st38">
				<rect x="218.5" y="285.1" class="st39" width="1" height="5.1"/>
				<rect x="220.8" y="285.1" class="st39" width="1" height="5.1"/>
				<rect x="223.8" y="285.1" class="st39" width="1" height="5.1"/>
			</g>
		</g>
		<rect x="209" y="263.7" class="st40" width="69.2" height="0.6"/>
		<rect x="209" y="260" class="st40" width="69.2" height="0.6"/>
		<rect x="209" y="256.4" class="st40" width="69.2" height="0.6"/>
		<rect x="209" y="252.8" class="st40" width="69.2" height="0.6"/>
		<g>
			
				<rect x="213.8" y="210.4" transform="matrix(1 -2.141208e-03 2.141208e-03 1 -0.4753 0.5235)" class="st41" width="60.9" height="23.7"/>
			
				<rect x="215.5" y="229.9" transform="matrix(1 -2.141478e-03 2.141478e-03 1 -0.4934 0.5238)" class="st42" width="57.7" height="1.5"/>
			
				<rect x="215.5" y="225.4" transform="matrix(1 -2.141478e-03 2.141478e-03 1 -0.4837 0.5238)" class="st42" width="57.7" height="1.5"/>
			
				<rect x="215.5" y="221.1" transform="matrix(1 -2.141478e-03 2.141478e-03 1 -0.4745 0.5238)" class="st42" width="57.7" height="1.5"/>
			
				<rect x="215.5" y="216.6" transform="matrix(1 -2.141478e-03 2.141478e-03 1 -0.4649 0.5238)" class="st42" width="57.7" height="1.5"/>
			
				<rect x="215.5" y="212.1" transform="matrix(1 -2.141478e-03 2.141478e-03 1 -0.4553 0.5238)" class="st42" width="57.7" height="1.5"/>
		</g>
	</g>
	<g>
		<g>
			
				<rect x="153.7" y="287.4" transform="matrix(1 -2.141208e-03 2.141208e-03 1 -0.6651 0.395)" class="st43" width="60.9" height="46.8"/>
			<g class="st21">
				
					<rect x="155.4" y="330.3" transform="matrix(1 -2.141479e-03 2.141479e-03 1 -0.7084 0.3953)" class="st22" width="57.7" height="1.4"/>
				
					<rect x="155.4" y="326.2" transform="matrix(1 -2.141479e-03 2.141479e-03 1 -0.6996 0.3953)" class="st22" width="57.7" height="1.4"/>
				
					<rect x="155.4" y="322.1" transform="matrix(1 -2.141478e-03 2.141478e-03 1 -0.6908 0.3953)" class="st22" width="57.7" height="1.4"/>
				
					<rect x="155.4" y="318.1" transform="matrix(1 -2.141478e-03 2.141478e-03 1 -0.6823 0.3953)" class="st22" width="57.7" height="1.4"/>
				
					<rect x="155.5" y="314" transform="matrix(1 -2.141479e-03 2.141479e-03 1 -0.6735 0.3955)" class="st22" width="57.7" height="1.4"/>
				
					<rect x="155.4" y="309.9" transform="matrix(1 -2.141479e-03 2.141479e-03 1 -0.6647 0.3953)" class="st22" width="57.7" height="1.4"/>
				
					<rect x="155.4" y="305.8" transform="matrix(1 -2.141478e-03 2.141478e-03 1 -0.6559 0.3953)" class="st22" width="57.7" height="1.4"/>
				
					<rect x="155.4" y="301.8" transform="matrix(1 -2.141478e-03 2.141478e-03 1 -0.6474 0.3953)" class="st22" width="57.7" height="1.4"/>
				
					<rect x="155.4" y="297.8" transform="matrix(1 -2.141479e-03 2.141479e-03 1 -0.6388 0.3953)" class="st22" width="57.7" height="1.4"/>
				
					<rect x="155.4" y="293.6" transform="matrix(1 -2.141479e-03 2.141479e-03 1 -0.6298 0.3952)" class="st22" width="57.7" height="1.4"/>
				
					<rect x="155.3" y="289.6" transform="matrix(1 -2.141478e-03 2.141478e-03 1 -0.6213 0.395)" class="st22" width="57.7" height="1.4"/>
			</g>
		</g>
		<g>
			
				<rect x="150.9" y="263.9" transform="matrix(1 -2.141677e-03 2.141677e-03 1 -0.5902 0.389)" class="st44" width="60.9" height="23.7"/>
			
				<rect x="152.5" y="283.4" transform="matrix(1 -2.141479e-03 2.141479e-03 1 -0.6081 0.389)" class="st22" width="57.7" height="1.5"/>
			
				<rect x="152.5" y="278.9" transform="matrix(1 -2.141479e-03 2.141479e-03 1 -0.5985 0.389)" class="st22" width="57.7" height="1.5"/>
			
				<rect x="152.5" y="274.6" transform="matrix(1 -2.141479e-03 2.141479e-03 1 -0.5892 0.389)" class="st22" width="57.7" height="1.5"/>
			
				<rect x="152.5" y="270.1" transform="matrix(1 -2.141479e-03 2.141479e-03 1 -0.5796 0.389)" class="st22" width="57.7" height="1.5"/>
			
				<rect x="152.6" y="265.6" transform="matrix(1 -2.141479e-03 2.141479e-03 1 -0.57 0.3892)" class="st22" width="57.7" height="1.5"/>
		</g>
		<polygon class="st24" points="205.8,287.3 169.4,300.3 158.3,287.4 		"/>
		
			<rect x="152.6" y="257.3" transform="matrix(1 -2.141634e-03 2.141634e-03 1 -0.5577 0.3932)" class="st45" width="61.4" height="6.6"/>
		<path class="st46" d="M153.8,301.6c13.3,9.8,28.4,1,28.4,1s-9.3,7.8-24.6,13.1c-0.4,0.1-1.8-0.2-3.8-0.8L153.8,301.6z"/>
		<polygon class="st47" points="201.2,287.3 164.8,298.5 153.7,287.4 		"/>
		<path class="st47" d="M182.2,299.5c0,0-21.4,12.6-35.6-8.8l-17.9,11.4c0,0,26.9,11.2,29,10.5C172.9,307.3,182.2,299.5,182.2,299.5
			z"/>
	</g>
	<g>
		<g>
			<g>
				<g>
					<ellipse class="st48" cx="94.1" cy="304.5" rx="25.9" ry="25.9"/>
					<path class="st49" d="M91.5,276.5C76,278,64.6,291.7,66.1,307.2s15.2,26.9,30.7,25.4s26.9-15.2,25.4-30.7
						C120.8,286.4,107,275,91.5,276.5z M96.3,327.9c-12.9,1.2-24.3-8.3-25.6-21.2c-1.2-12.9,8.3-24.3,21.2-25.6
						c12.9-1.2,24.3,8.3,25.6,21.2C118.7,315.3,109.2,326.7,96.3,327.9z"/>
					<path class="st50" d="M91.2,273.6c-17.1,1.6-29.7,16.8-28.1,33.9c1.6,17.1,16.8,29.7,33.9,28.1s29.7-16.8,28.1-33.9
						C123.5,284.5,108.3,272,91.2,273.6z M96.6,330.3c-14.2,1.3-26.8-9.1-28.2-23.3c-1.3-14.2,9.1-26.8,23.3-28.2
						c14.2-1.3,26.8,9.1,28.2,23.3C121.2,316.4,110.8,329,96.6,330.3z"/>
				</g>
			</g>
			<g>
				<g>
					<path class="st51" d="M86.5,313.1c-0.3-0.2-0.4-0.6-0.5-1.1c-0.3-1,0.3-1.9,1.3-2.1c1.6-0.3,3.3,0.7,4.8,1.3
						c1.2,0.5,2.5,0.6,4,0.5s2.7-0.6,3.6-1.4s1.2-1.8,1.1-3s-0.6-2.1-1.3-2.5c-0.8-0.5-2.1-0.6-3.9-0.4l-1.2,0.1
						c-2.9,0.3-5.2-0.2-6.8-1.2c-1.6-1.1-2.6-2.8-2.8-5.1c-0.2-2.3,0.4-4.1,1.8-5.5s3.4-2.2,6.1-2.4c1.1-0.1,2.2,0,3.4,0.3
						c2.5,0.6,6.6,2.1,5.9,4.6c-0.7,2.8-5.2-0.8-6.8-1.3c-0.9-0.3-1.9-0.4-3.1-0.3c-1.3,0.1-2.4,0.6-3.2,1.4c-0.8,0.8-1.1,1.7-1,2.8
						c0.1,1.1,0.6,1.8,1.5,2.2c0.9,0.4,2.7,0.5,5.5,0.3c3-0.2,5.2,0.3,6.7,1.3s2.3,2.8,2.5,5.2c0.2,2.3-0.4,4.2-1.8,5.8
						c-1.4,1.5-3.4,2.4-6,2.6c-0.8,0.1-1.7,0.1-2.8,0C91.8,314.8,88.8,314.4,86.5,313.1z"/>
				</g>
				<path class="st51" d="M96.1,321.2L96.1,321.2c-0.9,0.1-1.7-0.7-1.8-1.7l-2.8-31.8c-0.1-1,0.6-1.9,1.4-2l0,0
					c0.9-0.1,1.7,0.7,1.8,1.7l2.8,31.8C97.7,320.2,97,321.1,96.1,321.2z"/>
			</g>
		</g>
	</g>
</g>
<rect class="st52" width="400" height="400"/>
</svg>
