<svg xmlns="http://www.w3.org/2000/svg" width="69" height="68" viewBox="0 0 69 68">
  <g id="Group_3081" data-name="Group 3081" transform="translate(0.283)">
    <ellipse id="Ellipse_26" data-name="Ellipse 26" cx="34.5" cy="34" rx="34.5" ry="34" transform="translate(-0.283)" fill="#5283f8"/>
    <g id="COST_EFFECTIVE_SERVICE" data-name="COST EFFECTIVE SERVICE" transform="translate(13.75 20.19)">
      <path id="Path_92" data-name="Path 92" d="M208.325,161.561H175.993c-.894,0-.953.055-.953.935v6.362h3.439c0-.079,0-.158,0-.236-.007-.579.171-.854.787-.906a2.1,2.1,0,0,0,1.94-1.967c.048-.594.323-.754.87-.751,3.359.015,6.717.007,10.075.007,3.339,0,6.677.01,10.015-.01.58,0,.851.171.916.778a2.105,2.105,0,0,0,2.017,1.955.679.679,0,0,1,.709.793q-.021,2.8,0,5.59c0,.5-.183.724-.7.788a2.111,2.111,0,0,0-1.889,1.384q0,2.407,0,4.813,2.549,0,5.1,0c.8,0,.93-.125.93-.92v-17.7C209.242,161.641,209.162,161.561,208.325,161.561Z" transform="translate(-167.783 -161.56)" fill="#fff"/>
      <path id="Path_93" data-name="Path 93" d="M34.2,374.653q0-3.257,0-6.512c0-.833-.08-.913-.917-.913q-8.085,0-16.167,0H.951c-.894,0-.953.055-.953.935q0,8.821,0,17.641c0,.869.09.96.942.96q16.166,0,32.333,0c.8,0,.93-.125.93-.92v-6.378Q34.2,377.059,34.2,374.653Zm-3.437,4.814c0,.1,0,.208,0,.311,0,.5-.183.723-.7.787a2.123,2.123,0,0,0-2.029,2.021c-.069.642-.424.739-.963.738q-7.863-.015-15.728-.006c-1.413,0-2.826-.015-4.239.007-.591.01-.9-.161-.948-.818a2.109,2.109,0,0,0-1.982-1.935c-.595-.069-.744-.336-.738-.879q.029-2.7,0-5.406c-.007-.579.171-.855.787-.906a2.08,2.08,0,0,0,1.8-1.356,2.205,2.205,0,0,0,.136-.611c.048-.594.323-.754.87-.751q1.221.006,2.443.007,3.815.006,7.632,0c3.338,0,6.677.01,10.015-.01.58,0,.851.171.916.778a2.105,2.105,0,0,0,2.017,1.955.68.68,0,0,1,.709.793q-.007.919-.009,1.838Q30.751,377.745,30.763,379.467Z" transform="translate(0.002 -358.7)" fill="#fff"/>
      <path id="Path_94" data-name="Path 94" d="M354.934,490.41c.017.317.031.577.044.825l1.913.309v1.321c-.417.1-.7.091-.928-.35-.151-.287-.551-.443-.84-.658l-.165.131c0,.67-.017,1.342.015,2.011.006.135.177.291.31.385.3.211.637.37.933.585a1.954,1.954,0,0,1,.826,2.042,1.915,1.915,0,0,1-1.417,1.541c-.193.063-.391.111-.634.18-.018.262-.038.542-.061.886l-.6.042c-.026-.306-.048-.566-.074-.881-.481-.069-.957-.174-1.437-.2-.584-.027-.794-.293-.711-.854a4.153,4.153,0,0,0,0-.6c.472-.171.748-.112.94.369s.637.594,1.229.55c0-.75.013-1.5-.013-2.24,0-.12-.166-.261-.289-.344-.287-.194-.6-.344-.891-.539a1.867,1.867,0,0,1-.911-1.992,1.817,1.817,0,0,1,1.488-1.461c.443-.107.687-.234.634-.746C354.25,490.243,354.6,490.361,354.934,490.41Zm.058,7.554a.754.754,0,0,0,.732-.761,1.128,1.128,0,0,0-.732-1.251Zm-.738-5.927a.764.764,0,0,0-.768.806.976.976,0,0,0,.768,1.022Z" transform="translate(-337.493 -476.729)" fill="#fff"/>
      <path id="Path_95" data-name="Path 95" d="M578.314,570.953a1.462,1.462,0,0,1-1.454-1.435,1.449,1.449,0,0,1,2.9-.012A1.466,1.466,0,0,1,578.314,570.953Z" transform="translate(-552.942 -551.225)" fill="#fff"/>
      <path id="Path_96" data-name="Path 96" d="M181.213,569.413a1.419,1.419,0,0,1-1.411,1.457,1.437,1.437,0,0,1-.038-2.874A1.417,1.417,0,0,1,181.213,569.413Z" transform="translate(-170.954 -551.144)" fill="#fff"/>
    </g>
  </g>
</svg>
