<svg xmlns="http://www.w3.org/2000/svg" width="120" height="120" viewBox="0 0 120 120">
  <g id="Group_3076" data-name="Group 3076" transform="translate(-634 1152)">
    <rect id="Rectangle_1019" data-name="Rectangle 1019" width="120" height="120" transform="translate(634 -1152)" fill="#fff"/>
    <g id="marketingsales_icon" transform="translate(665 -1120)">
      <g id="Group_996" data-name="Group 996" transform="translate(0 0)">
        <g id="Group_995" data-name="Group 995">
          <g id="Group_994" data-name="Group 994">
            <g id="Group_981" data-name="Group 981" transform="translate(4.163 8.843)">
              <path id="Path_288" data-name="Path 288" d="M67.734,51.158H19.125a.476.476,0,0,1-.476-.476V22.216a.477.477,0,0,1,.476-.476H67.734a.476.476,0,0,1,.476.476V50.682A.476.476,0,0,1,67.734,51.158ZM19.6,50.206H67.258V22.692H19.6Z" transform="translate(-18.65 -21.74)" fill="#8087e8" stroke="#7f86e6" stroke-width="0.652"/>
            </g>
            <g id="Group_982" data-name="Group 982" transform="translate(0 4.746)">
              <path id="Path_289" data-name="Path 289" d="M73.71,24.481H16.779A.475.475,0,0,1,16.3,24v-4.1a.476.476,0,0,1,.475-.476H73.71a.476.476,0,0,1,.476.476V24A.476.476,0,0,1,73.71,24.481Zm-56.455-.952H73.233V20.384H17.255Z" transform="translate(-16.304 -19.432)" fill="#8087e8" stroke="#7f86e6" stroke-width="0.652"/>
            </g>
            <g id="Group_983" data-name="Group 983" transform="translate(37.932 15.609)">
              <path id="Path_290" data-name="Path 290" d="M41.563,43.838H38.15a.476.476,0,0,1-.476-.476V26.028a.477.477,0,0,1,.476-.476h3.413a.475.475,0,0,1,.476.476V43.361A.475.475,0,0,1,41.563,43.838Zm-2.937-.952h2.461V26.5H38.626Z" transform="translate(-37.674 -25.552)" fill="#8087e8" stroke="#7f86e6" stroke-width="0.652"/>
            </g>
            <g id="Group_984" data-name="Group 984" transform="translate(32.346 17.756)">
              <path id="Path_291" data-name="Path 291" d="M38.416,42.9H35a.475.475,0,0,1-.476-.476V27.237A.476.476,0,0,1,35,26.761h3.413a.475.475,0,0,1,.475.476V42.425A.476.476,0,0,1,38.416,42.9Zm-2.937-.952H37.94V27.713H35.479Z" transform="translate(-34.527 -26.761)" fill="#8087e8" stroke="#7f86e6" stroke-width="0.652"/>
            </g>
            <g id="Group_985" data-name="Group 985" transform="translate(26.763 19.847)">
              <path id="Path_292" data-name="Path 292" d="M35.269,41.988H31.858a.475.475,0,0,1-.476-.476v-13.1a.476.476,0,0,1,.476-.476h3.412a.475.475,0,0,1,.476.476v13.1A.476.476,0,0,1,35.269,41.988Zm-2.937-.952h2.46V28.891h-2.46Z" transform="translate(-31.382 -27.94)" fill="#8087e8" stroke="#7f86e6" stroke-width="0.652"/>
            </g>
            <g id="Group_986" data-name="Group 986" transform="translate(21.175 22.759)">
              <path id="Path_293" data-name="Path 293" d="M32.122,40.716H28.71a.475.475,0,0,1-.476-.476V30.056a.475.475,0,0,1,.476-.476h3.413a.475.475,0,0,1,.476.476V40.241A.474.474,0,0,1,32.122,40.716Zm-2.937-.952h2.461V30.529H29.185Z" transform="translate(-28.234 -29.58)" fill="#8087e8" stroke="#7f86e6" stroke-width="0.652"/>
            </g>
            <g id="Group_987" data-name="Group 987" transform="translate(15.59 25.79)">
              <path id="Path_294" data-name="Path 294" d="M28.974,39.393H25.563a.475.475,0,0,1-.476-.476V31.763a.476.476,0,0,1,.476-.476h3.412a.475.475,0,0,1,.476.476v7.154A.475.475,0,0,1,28.974,39.393Zm-2.936-.952H28.5v-6.2h-2.46Z" transform="translate(-25.087 -31.287)" fill="#8087e8" stroke="#7f86e6" stroke-width="0.652"/>
            </g>
            <g id="Group_988" data-name="Group 988" transform="translate(13.27 35.056)">
              <path id="Path_295" data-name="Path 295" d="M54.652,37.46h-30.4a.476.476,0,0,1,0-.952h30.4a.476.476,0,0,1,0,.952Z" transform="translate(-23.78 -36.508)" fill="#8087e8" stroke="#7f86e6" stroke-width="0.652"/>
            </g>
            <g id="Group_989" data-name="Group 989" transform="translate(15.597 11.461)">
              <path id="Path_296" data-name="Path 296" d="M25.568,35.47a.475.475,0,0,1-.162-.923c.127-.047,12.844-4.676,18.419-11.168a.477.477,0,0,1,.722.622c-5.742,6.683-18.288,11.251-18.819,11.442A.543.543,0,0,1,25.568,35.47Z" transform="translate(-25.091 -23.215)" fill="#8087e8" stroke="#7f86e6" stroke-width="0.652"/>
            </g>
            <g id="Group_990" data-name="Group 990" transform="translate(31.462 11.538)">
              <path id="Path_297" data-name="Path 297" d="M37.193,27.04a.475.475,0,0,1-.476-.476V24.214l-2.21.012h0a.476.476,0,0,1,0-.953l2.688-.014a.478.478,0,0,1,.478.477v2.829A.475.475,0,0,1,37.193,27.04Z" transform="translate(-34.029 -23.258)" fill="#8087e8" stroke="#7f86e6" stroke-width="0.652"/>
            </g>
            <g id="Group_991" data-name="Group 991" transform="translate(26.622)">
              <path id="Path_298" data-name="Path 298" d="M35.472,22.456H31.778a.475.475,0,0,1-.476-.476v-2.9a2.323,2.323,0,1,1,4.647,0v2.9A.478.478,0,0,1,35.472,22.456ZM32.253,21.5H35V19.085a1.371,1.371,0,1,0-2.742,0Z" transform="translate(-31.302 -16.758)" fill="#8087e8" stroke="#7f86e6" stroke-width="0.652"/>
            </g>
            <g id="Group_993" data-name="Group 993" transform="translate(6.028 41.283)">
              <g id="Group_992" data-name="Group 992">
                <path id="Path_299" data-name="Path 299" d="M65.055,55a.476.476,0,0,1-.476-.476V52.334a3.1,3.1,0,0,0-3.1-3.1H56.325a3.1,3.1,0,0,0-3.1,3.1v2.193a.476.476,0,1,1-.952,0V52.334a4.054,4.054,0,0,1,4.049-4.049h5.157a4.053,4.053,0,0,1,4.048,4.049v2.193A.476.476,0,0,1,65.055,55ZM48.136,55a.475.475,0,0,1-.476-.476V52.334a3.1,3.1,0,0,0-3.1-3.1H39.406a3.1,3.1,0,0,0-3.1,3.1v2.193a.475.475,0,1,1-.95,0V52.334a4.054,4.054,0,0,1,4.049-4.049h5.157a4.053,4.053,0,0,1,4.048,4.049v2.193A.474.474,0,0,1,48.136,55ZM32.479,55A.475.475,0,0,1,32,54.527V52.334a3.1,3.1,0,0,0-3.1-3.1H23.748a3.1,3.1,0,0,0-3.1,3.1v2.193a.476.476,0,1,1-.952,0V52.334a4.053,4.053,0,0,1,4.048-4.049h5.158a4.053,4.053,0,0,1,4.048,4.049v2.193A.475.475,0,0,1,32.479,55Zm26.334-7.335a3.826,3.826,0,1,1,3.829-3.822A3.83,3.83,0,0,1,58.813,47.668Zm-2.866-3.579a2.877,2.877,0,0,0,5.744-.242,2.682,2.682,0,0,0-.019-.322,3.776,3.776,0,0,1-2.349-.567A3.8,3.8,0,0,1,55.947,44.089Zm.076-.952a2.858,2.858,0,0,0,2.837-1.1.475.475,0,0,1,.68-.086,3.008,3.008,0,0,0,1.859.64,2.878,2.878,0,0,0-5.376.55ZM41.9,47.668a3.826,3.826,0,1,1,3.686-4.86.354.354,0,0,1,.024.085.275.275,0,0,1,.006.03A3.821,3.821,0,0,1,41.9,47.668Zm-2.869-3.579a2.878,2.878,0,0,0,5.745-.242,2.685,2.685,0,0,0-.019-.322,3.8,3.8,0,0,1-2.342-.567A3.838,3.838,0,0,1,39.027,44.089Zm.08-.953a2.873,2.873,0,0,0,2.844-1.1.474.474,0,0,1,.678-.086,2.867,2.867,0,0,0,1.853.64,2.878,2.878,0,0,0-5.376.549ZM26.237,47.668a3.826,3.826,0,1,1,3.829-3.822A3.83,3.83,0,0,1,26.237,47.668Zm-2.866-3.579a2.877,2.877,0,0,0,5.744-.242,2.685,2.685,0,0,0-.019-.322,3.778,3.778,0,0,1-2.349-.567A3.787,3.787,0,0,1,23.371,44.089Zm.078-.952a2.844,2.844,0,0,0,2.836-1.1.475.475,0,0,1,.68-.086,3,3,0,0,0,1.859.64,2.877,2.877,0,0,0-5.375.55Z" transform="translate(-19.7 -40.016)" fill="#8087e8" stroke="#7f86e6" stroke-width="0.652"/>
              </g>
            </g>
          </g>
        </g>
      </g>
    </g>
  </g>
</svg>
