<svg xmlns="http://www.w3.org/2000/svg" width="120" height="120" viewBox="0 0 120 120">
  <g id="Group_3077" data-name="Group 3077" transform="translate(-620 940)">
    <rect id="Rectangle_1020" data-name="Rectangle 1020" width="120" height="120" transform="translate(620 -940)" fill="#fff"/>
    <g id="ecom" transform="translate(654 -912)">
      <g id="Group_1010" data-name="Group 1010" transform="translate(0 0)">
        <g id="Group_1009" data-name="Group 1009">
          <g id="Group_1008" data-name="Group 1008">
            <g id="Group_998" data-name="Group 998" transform="translate(0 13.967)">
              <path id="Path_303" data-name="Path 303" d="M68.577,64.538H22.7a3.386,3.386,0,0,1-3.4-3.363V28.537a3.386,3.386,0,0,1,3.4-3.362H34.953a.536.536,0,0,1,.539.532v18.1H56.816v-18.1a.535.535,0,0,1,.538-.532H68.579a3.386,3.386,0,0,1,3.4,3.362V61.176A3.388,3.388,0,0,1,68.577,64.538ZM22.7,26.24a2.312,2.312,0,0,0-2.323,2.3V61.175a2.312,2.312,0,0,0,2.323,2.3H68.577a2.312,2.312,0,0,0,2.325-2.3V28.537a2.312,2.312,0,0,0-2.325-2.3H57.894v18.1a.536.536,0,0,1-.54.532h-22.4a.536.536,0,0,1-.539-.532V26.24Z" transform="translate(-19.297 -25.175)" fill="#f2992e" stroke="#f2992e" stroke-width="0.645"/>
            </g>
            <g id="Group_999" data-name="Group 999" transform="translate(17.479 52.266)">
              <path id="Path_304" data-name="Path 304" d="M45.1,54.518H28.435a.541.541,0,0,1-.426-.207.532.532,0,0,1-.094-.46l2.449-9.2a.54.54,0,0,1,.521-.4H42.632a.536.536,0,0,1,.519.4l2.418,9.084a.549.549,0,0,1,.067.255A.534.534,0,0,1,45.1,54.518Zm-15.96-1.066H44.382l-2.163-8.14H31.3Z" transform="translate(-27.897 -44.248)" fill="#f2992e" stroke="#f2992e" stroke-width="0.645"/>
            </g>
            <g id="Group_1000" data-name="Group 1000" transform="translate(10.119 61.471)">
              <path id="Path_305" data-name="Path 305" d="M56.182,52.138H24.814a.535.535,0,0,1-.539-.534V49.363a.535.535,0,0,1,.539-.531H56.182a.534.534,0,0,1,.538.531V51.6A.534.534,0,0,1,56.182,52.138ZM25.353,51.073H55.642V49.9H25.353v1.176Z" transform="translate(-24.275 -48.832)" fill="#f2992e" stroke="#f2992e" stroke-width="0.645"/>
            </g>
            <g id="Group_1001" data-name="Group 1001" transform="translate(2.824 16.843)">
              <path id="Path_306" data-name="Path 306" d="M67.069,54.32H21.225a.535.535,0,0,1-.539-.531V27.14a.536.536,0,0,1,.539-.532H33.518a.536.536,0,0,1,.539.532V42.365H55.381V27.14a.535.535,0,0,1,.538-.532H67.069a.535.535,0,0,1,.54.532V53.787A.536.536,0,0,1,67.069,54.32Zm-45.3-1.065H66.532V27.673H56.459V42.9a.536.536,0,0,1-.54.532h-22.4a.536.536,0,0,1-.539-.532V27.673H21.764V53.255Z" transform="translate(-20.686 -26.608)" fill="#f2992e" stroke="#f2992e" stroke-width="0.645"/>
            </g>
            <g id="Group_1002" data-name="Group 1002" transform="translate(24.722 48.252)">
              <path id="Path_307" data-name="Path 307" d="M33.084,45.442a1.6,1.6,0,1,1,1.615-1.6A1.612,1.612,0,0,1,33.084,45.442Zm0-2.127a.531.531,0,1,0,.538.531A.539.539,0,0,0,33.084,43.315Z" transform="translate(-31.461 -42.25)" fill="#f2992e" stroke="#f2992e" stroke-width="0.645"/>
            </g>
            <g id="Group_1003" data-name="Group 1003" transform="translate(12.234 29.631)">
              <path id="Path_308" data-name="Path 308" d="M54.025,39.932H25.854a.534.534,0,0,1-.538-.531V33.507a.538.538,0,0,1,1.076,0v5.362H53.484V33.507a.539.539,0,0,1,1.078,0V39.4A.532.532,0,0,1,54.025,39.932Z" transform="translate(-25.316 -32.976)" fill="#f2992e" stroke="#f2992e" stroke-width="0.645"/>
            </g>
            <g id="Group_1004" data-name="Group 1004" transform="translate(15.117 7.506)">
              <path id="Path_309" data-name="Path 309" d="M49.674,48.118h-22.4a.536.536,0,0,1-.539-.532v-25.1a.536.536,0,0,1,.539-.532h22.4a.535.535,0,0,1,.54.532v25.1A.537.537,0,0,1,49.674,48.118ZM27.813,47.052H49.137V23.023H27.813Z" transform="translate(-26.735 -21.958)" fill="#f2992e" stroke="#f2992e" stroke-width="0.645"/>
            </g>
            <g id="Group_1005" data-name="Group 1005" transform="translate(21.122)">
              <path id="Path_310" data-name="Path 310" d="M40.616,31.465a.535.535,0,0,1-.54-.532V23.885a4.654,4.654,0,0,0-9.308,0v7.048a.539.539,0,0,1-1.078,0V23.885a5.732,5.732,0,0,1,11.464,0v7.048A.535.535,0,0,1,40.616,31.465Z" transform="translate(-29.69 -18.22)" fill="#f2992e" stroke="#f2992e" stroke-width="0.645"/>
            </g>
            <g id="Group_1007" data-name="Group 1007" transform="translate(19.717 12.182)">
              <g id="Group_1006" data-name="Group 1006">
                <path id="Path_311" data-name="Path 311" d="M41.33,28.129a1.921,1.921,0,1,1,1.943-1.921A1.937,1.937,0,0,1,41.33,28.129Zm0-2.779a.856.856,0,1,0,.865.856A.863.863,0,0,0,41.33,25.35ZM30.943,28.129a1.921,1.921,0,1,1,1.948-1.921A1.936,1.936,0,0,1,30.943,28.129Zm0-2.779a.856.856,0,1,0,.871.856A.863.863,0,0,0,30.943,25.35Z" transform="translate(-28.998 -24.286)" fill="#f2992e" stroke="#f2992e" stroke-width="0.645"/>
              </g>
            </g>
          </g>
        </g>
      </g>
    </g>
  </g>
</svg>
