<svg xmlns="http://www.w3.org/2000/svg" width="115.807" height="80.829" viewBox="0 0 115.807 80.829">
  <g id="Group_3087" data-name="Group 3087" transform="translate(0 0)">
    <path id="Path_212" data-name="Path 212" d="M1800.487,702.076q13.04-.165,26.081-.33,8.754-.11,17.508-.215c1.773-.022,3.546-.046,5.319-.082a8.4,8.4,0,0,1,8.413,6.813.59.59,0,0,1-.286.68q-6.172,4.5-12.337,9.007-4.5,3.286-9.006,6.567-5.369,3.889-10.758,7.753-5.455,3.9-10.938,7.766c-1.958,1.371-3.93,2.729-5.966,3.978a15.063,15.063,0,0,1-6.932,1.994,16.418,16.418,0,0,1-6.472-.745,17.672,17.672,0,0,1-4.035-2.166q-5.539-3.645-11.046-7.337c-3.21-2.161-6.393-4.363-9.585-6.55q-5.172-3.542-10.337-7.093-5.585-3.853-11.155-7.73c-1.865-1.294-3.718-2.607-5.6-3.877a.81.81,0,0,1-.389-.978,8.376,8.376,0,0,1,8.253-6.818q8.573-.1,17.146-.217l31.968-.413h.155Z" transform="translate(-1742.883 -701.448)" fill="#a326e9"/>
    <path id="Path_213" data-name="Path 213" d="M1801.9,820.233q-14.641.175-29.282.352c-6.576.083-13.152.186-19.728.265a8.355,8.355,0,0,1-8.361-6.8.61.61,0,0,1,.268-.691c1.836-1.335,3.662-2.684,5.494-4.024q3.29-2.406,6.585-4.805,4.9-3.566,9.807-7.126,4.093-2.969,8.194-5.929,4.547-3.266,9.114-6.5c.728-.519,1.47-1.021,2.18-1.563a.63.63,0,0,1,.861-.013c1.481.973,2.963,1.946,4.479,2.861a18.4,18.4,0,0,0,11.025,2.393,19.478,19.478,0,0,0,8.662-2.473c1.69-.989,3.291-2.131,4.911-3.234a.633.633,0,0,1,.854.009c5.229,3.569,10.476,7.11,15.7,10.687q8.11,5.553,16.185,11.158c3.411,2.355,6.813,4.722,10.232,7.065.376.258.331.554.271.9a8.324,8.324,0,0,1-7.976,6.82c-6.387.1-12.773.166-19.16.249q-12.575.162-25.15.324c-1.721.021-3.443,0-5.164,0Z" transform="translate(-1743.635 -740.02)" fill="#a326e9"/>
    <path id="Path_214" data-name="Path 214" d="M1743.536,782.42l-.7-54.852,39.2,26.952Z" transform="translate(-1742.84 -713.836)" fill="#a326e9"/>
    <path id="Path_215" data-name="Path 215" d="M1888.54,752.649l38.5-27.893c.235,18.289.469,36.519.7,54.845Z" transform="translate(-1811.941 -712.502)" fill="#a326e9"/>
  </g>
</svg>
