<svg xmlns="http://www.w3.org/2000/svg" width="69" height="69" viewBox="0 0 69 69">
  <g id="Group_3082" data-name="Group 3082" transform="translate(-1003 -1216)">
    <g id="Group_830" data-name="Group 830" transform="translate(1003.283 1216)">
      <circle id="Ellipse_27" data-name="Ellipse 27" cx="34.5" cy="34.5" r="34.5" transform="translate(-0.283)" fill="#159f5f"/>
      <g id="group-of-men" transform="translate(13.75 21.329)">
        <path id="Path_97" data-name="Path 97" d="M41.12,50.634a7.341,7.341,0,0,0-5.327-6.782A6.806,6.806,0,0,0,36.91,41.9a2.014,2.014,0,0,0,.883-1.237c.12-.481.385-1.535-.181-2.11v-.473c.023-.813.088-2.925-1.671-3.838a2.028,2.028,0,0,1-.06-.331l-.222-2.259-1.619,1.528a7.67,7.67,0,0,1-2.282.513l-.416.064c-3.1.487-3.047,2.274-3.008,3.712.006.183.012.377.012.594l.014.426a2.252,2.252,0,0,0-.246,2.148,1.9,1.9,0,0,0,.883,1.2,7.781,7.781,0,0,0,1.158,2.021,8.21,8.21,0,0,0-3.358,2.084,11.326,11.326,0,0,0-2.746-1.264,8.983,8.983,0,0,0,1.635-2.812,2.537,2.537,0,0,0,1.158-1.585c.155-.626.5-2.015-.247-2.71v-.71c.05-1.671-.133-3.985-2.212-5.016a2.65,2.65,0,0,1-.1-.541l-.265-2.689-1.931,1.819a9.648,9.648,0,0,1-3.131.723l-.556.088c-4,.629-3.939,2.843-3.883,4.881.007.223.013.455.013.713l.02.636c-.409.411-.716,1.21-.335,2.769a2.352,2.352,0,0,0,1.153,1.534,10.086,10.086,0,0,0,1.7,2.9,11.21,11.21,0,0,0-2.741,1.26,8.226,8.226,0,0,0-3.369-2.088A6.863,6.863,0,0,0,12.071,41.9a1.994,1.994,0,0,0,.884-1.238c.12-.481.382-1.534-.181-2.109v-.473c.023-.813.087-2.925-1.672-3.838a1.94,1.94,0,0,1-.059-.331l-.223-2.259L9.2,33.176a7.679,7.679,0,0,1-2.282.513l-.415.064c-3.1.487-3.047,2.274-3.008,3.711.006.183.011.377.011.6l.014.425a2.252,2.252,0,0,0-.244,2.148,1.9,1.9,0,0,0,.882,1.2,7.834,7.834,0,0,0,1.158,2.019A7.343,7.343,0,0,0,0,50.633v.487H10.236a8.5,8.5,0,0,0-.4,2.548v.487H31.286v-.487a8.474,8.474,0,0,0-.4-2.548H41.121v-.486h0Zm-3.86-.487V48.783a.487.487,0,0,0-.974,0v1.364H30.514a8.937,8.937,0,0,0-.87-1.511c-.053-.076-.1-.154-.154-.226a10.031,10.031,0,0,0-1.889-1.9,6.926,6.926,0,0,1,1.561-1.164l3.458,3.925a.487.487,0,0,0,.737-.006l3.384-3.955a6.223,6.223,0,0,1,3.388,4.839Zm-6.965,3.035H26.12V51.191a.363.363,0,0,0-.015-.07.476.476,0,0,0-.945,0,.576.576,0,0,0-.015.07v1.991H15.97V51.191a.437.437,0,0,0-.015-.07.477.477,0,0,0-.946,0,.571.571,0,0,0-.014.07v1.991H10.822a7.522,7.522,0,0,1,.438-2.061c.059-.164.118-.327.188-.487h.015c0-.008,0-.014,0-.02.069-.156.142-.312.222-.467a8.306,8.306,0,0,1,.736-1.158,9.039,9.039,0,0,1,1.735-1.743c.13-.1.255-.2.391-.3s.273-.173.41-.257c.175-.108.352-.213.535-.31L20.2,51.733a.487.487,0,0,0,.365.164h0a.483.483,0,0,0,.367-.17l4.61-5.387c.213.11.419.228.621.354.138.084.278.166.411.257s.262.2.39.3A9.033,9.033,0,0,1,28.7,48.989a8.493,8.493,0,0,1,.737,1.158c.079.152.152.308.222.467a.143.143,0,0,0,0,.02h.015c.069.16.13.323.187.487A7.644,7.644,0,0,1,30.295,53.182ZM4.341,48.3a.487.487,0,0,0-.487.487v1.364H.992A6.211,6.211,0,0,1,4.313,45.34l3.461,3.925a.489.489,0,0,0,.365.166.589.589,0,0,0,.37-.172L11.892,45.3a7.1,7.1,0,0,1,1.623,1.2,10.039,10.039,0,0,0-1.889,1.9c-.056.072-.1.15-.156.226a9.118,9.118,0,0,0-.869,1.511H4.83V48.779A.486.486,0,0,0,4.341,48.3Zm.568-7.218-.234-.07a.868.868,0,0,1-.46-.607c-.194-.795-.1-1.19.061-1.294l.226-.15-.028-.91c0-.213,0-.417-.011-.607-.04-1.427-.065-2.368,2.185-2.721l.387-.062c.022,0,2.253-.229,2.82-.762l.183-.175.026.272a2.861,2.861,0,0,0,.176.771l.073.192.188.082c.954.413,1.341,1.313,1.289,3.027v1.006l.249.141c.054.03.212.207-.039,1.212a.992.992,0,0,1-.517.679l-.206.084-.07.212a5.641,5.641,0,0,1-1.318,2.175,3.209,3.209,0,0,1-.512.409,2.278,2.278,0,0,1-1.174.388c-.011,0-.02,0-.03,0l-.041,0-.036,0c-.036,0-.067-.016-.1-.017a2.3,2.3,0,0,1-1.129-.373,3.289,3.289,0,0,1-.5-.409A6.463,6.463,0,0,1,4.993,41.3Zm3.956,6.27L8.44,45.675l.512-.441a3.5,3.5,0,0,0,1.205-.607,7.457,7.457,0,0,1,.811.263ZM7.213,45.215l.537.461L7.338,47.3l-2.1-2.382a7.557,7.557,0,0,1,.861-.283A3.5,3.5,0,0,0,7.213,45.215Zm8.9-4.2-.234-.07a1.31,1.31,0,0,1-.729-.931c-.242-.988-.185-1.685.152-1.907l.225-.149L15.5,36.827c0-.253-.007-.495-.015-.809-.054-1.924-.093-3.31,3.063-3.807l.529-.084c.029,0,2.967-.312,3.674-.981l.491-.461.067.7a3.736,3.736,0,0,0,.226.989l.073.191.187.082c1.694.733,1.874,2.528,1.824,4.2V38.1l.249.142c.277.156.287.763.025,1.806a1.5,1.5,0,0,1-.791,1.022l-.206.084-.07.212a7.638,7.638,0,0,1-1.871,3.039,4.641,4.641,0,0,1-.489.4,3.7,3.7,0,0,1-.711.4,3.108,3.108,0,0,1-.935.232c-.09.008-.172.034-.264.034a3.637,3.637,0,0,1-.378-.028,3.218,3.218,0,0,1-.859-.232,3.723,3.723,0,0,1-.7-.4,4.846,4.846,0,0,1-.487-.4,8.712,8.712,0,0,1-1.936-3.161Zm5.47,8.452-.62-2.436.862-.739-.057-.05a4.657,4.657,0,0,0,1.46-.788,10.243,10.243,0,0,1,1.4.459Zm-2.322-3.247-.083.072.86.739-.6,2.366L16.4,45.952a11.239,11.239,0,0,1,1.471-.493A4.547,4.547,0,0,0,19.262,46.221Zm10.493-5.143-.234-.07a.872.872,0,0,1-.461-.607c-.194-.795-.1-1.19.06-1.294l.226-.15-.028-.91c0-.213,0-.417-.011-.609-.039-1.425-.063-2.366,2.185-2.719l.388-.062c.02,0,2.251-.229,2.818-.762l.183-.175.026.272a2.9,2.9,0,0,0,.175.771l.073.192.189.082c.954.413,1.341,1.313,1.288,3.027v1.006l.249.141c.054.03.212.207-.04,1.212a.99.99,0,0,1-.516.679l-.206.084-.07.212a5.641,5.641,0,0,1-1.318,2.175,3.258,3.258,0,0,1-.512.409,2.28,2.28,0,0,1-1.174.388l.006.006-.034,0-.042,0-.036,0c-.036,0-.067-.016-.1-.017a2.313,2.313,0,0,1-1.13-.373,3.307,3.307,0,0,1-.5-.409A6.45,6.45,0,0,1,29.835,41.3Zm3.954,6.27-.426-1.673.512-.441A3.553,3.553,0,0,0,35,44.626a7.42,7.42,0,0,1,.809.263Zm-1.65-2.133.536.461L32.182,47.3l-2.1-2.382a7.557,7.557,0,0,1,.861-.283A3.451,3.451,0,0,0,32.058,45.215Z" transform="translate(0 -28.615)" fill="#fff"/>
      </g>
    </g>
  </g>
</svg>
