<svg xmlns="http://www.w3.org/2000/svg" width="69" height="68" viewBox="0 0 69 68">
  <g id="Group_3080" data-name="Group 3080" transform="translate(0.283)">
    <ellipse id="Ellipse_25" data-name="Ellipse 25" cx="34.5" cy="34" rx="34.5" ry="34" transform="translate(-0.283)" fill="#d555d5"/>
    <path id="suitcase" d="M33.256,109.4a5.159,5.159,0,0,1-.227.565,2.043,2.043,0,0,1-1.928,1.141q-4.189,0-8.378,0H2.264A2.079,2.079,0,0,1,0,108.851q0-9.548,0-19.1a2.069,2.069,0,0,1,1.621-2.141,3.277,3.277,0,0,1,.71-.051q4.205,0,8.411,0h.328c.007-.134.018-.248.019-.362,0-.6-.009-1.191.007-1.786a2.017,2.017,0,0,1,1.985-2q3.539-.029,7.079,0a2.016,2.016,0,0,1,2,1.986c.02.7,0,1.4,0,2.144.139.007.253.018.367.019,2.717,0,5.434.027,8.151-.013a2.28,2.28,0,0,1,2.576,1.719Q33.256,99.337,33.256,109.4ZM22.165,97.282H11.091c0,1.126,0,2.23,0,3.333a.717.717,0,0,1-.8.8q-1.948,0-3.9,0c-.6,0-.852-.253-.854-.846,0-.985,0-1.97,0-2.955,0-.113-.01-.227-.016-.334H1.38v7.356c0,1.418,0,2.836,0,4.254,0,.58.258.832.828.838h28.8c.608,0,.863-.255.863-.87q0-5.633,0-11.267v-.316H27.718v.366c0,.985,0,1.97,0,2.955a.717.717,0,0,1-.814.819q-1.932,0-3.864,0c-.63,0-.873-.248-.874-.89C22.164,99.454,22.165,98.383,22.165,97.282Zm9.709-1.424v-.365q0-2.825,0-5.65c0-.659-.241-.9-.9-.9H2.334c-.733,0-.953.216-.954.942q0,2.825,0,5.65c0,.1.012.208.019.321Zm-19.4-8.345h8.311c0-.707.011-1.388,0-2.068a.666.666,0,0,0-.675-.654c-.357-.012-.714,0-1.072,0q-2.89,0-5.78,0a.683.683,0,0,0-.775.652C12.46,86.122,12.473,86.8,12.473,87.513Zm-2.8,9.768H6.959v2.733H9.677Zm16.629,0H23.589v2.729h2.716Z" transform="translate(17.749 -63.328)" fill="#fff"/>
  </g>
</svg>
