<?xml version="1.0" encoding="utf-8"?>
<!-- Generator: Adobe Illustrator 23.1.0, SVG Export Plug-In . SVG Version: 6.00 Build 0)  -->
<svg version="1.1" id="Layer_1" xmlns="http://www.w3.org/2000/svg" xmlns:xlink="http://www.w3.org/1999/xlink" x="0px" y="0px"
	 viewBox="0 0 400 400" style="enable-background:new 0 0 400 400;" xml:space="preserve">
<style type="text/css">
	.st0{enable-background:new    ;}
	.st1{fill:url(#SVGID_1_);}
	.st2{fill:url(#SVGID_2_);}
	.st3{fill:#FFFFFF;}
	.st4{fill:#878787;}
	.st5{fill:url(#SVGID_3_);}
	.st6{fill:#E6FFFA;}
	.st7{fill:url(#SVGID_4_);}
	.st8{fill:#D9FCF5;}
	.st9{fill:url(#SVGID_5_);}
	.st10{fill:url(#SVGID_6_);}
	.st11{fill:url(#SVGID_7_);}
	.st12{fill:url(#SVGID_8_);}
	.st13{fill:url(#SVGID_9_);}
	.st14{fill:url(#SVGID_10_);}
	.st15{fill:url(#SVGID_11_);}
	.st16{fill:#0E4772;}
	.st17{fill:url(#SVGID_12_);}
	.st18{fill:url(#SVGID_13_);}
	.st19{fill:url(#SVGID_14_);}
	.st20{fill:url(#SVGID_15_);}
	.st21{fill:url(#SVGID_16_);}
	.st22{fill:url(#SVGID_17_);}
	.st23{fill:url(#SVGID_18_);}
	.st24{fill:url(#SVGID_19_);}
	.st25{fill:url(#SVGID_20_);}
	.st26{fill:url(#SVGID_21_);}
	.st27{fill:url(#SVGID_22_);}
	.st28{fill:url(#SVGID_23_);}
	.st29{fill:url(#SVGID_24_);}
	.st30{fill:url(#SVGID_25_);}
	.st31{fill:url(#SVGID_26_);}
	.st32{opacity:0.33;}
	.st33{fill:url(#SVGID_27_);}
	.st34{fill:url(#SVGID_28_);}
	.st35{fill:#E8E8E8;}
	.st36{fill:url(#SVGID_29_);}
	.st37{fill:url(#SVGID_30_);}
	.st38{fill:url(#SVGID_31_);}
	.st39{fill:url(#SVGID_32_);}
	.st40{fill:url(#SVGID_33_);}
	.st41{fill:url(#SVGID_34_);}
	.st42{fill:url(#SVGID_35_);}
	.st43{fill:url(#SVGID_36_);}
	.st44{fill:url(#SVGID_37_);}
	.st45{fill:url(#SVGID_38_);}
	.st46{fill:url(#SVGID_39_);}
	.st47{fill:url(#SVGID_40_);}
	.st48{fill:url(#SVGID_41_);}
	.st49{fill:url(#SVGID_42_);}
	.st50{fill:none;}
	.st51{fill:#1D2635;}
	.st52{fill:url(#SVGID_43_);}
	.st53{fill:#2D2326;}
	.st54{fill:url(#SVGID_44_);}
	.st55{fill:url(#SVGID_45_);}
	.st56{fill:url(#SVGID_46_);}
	.st57{fill:url(#SVGID_47_);}
	.st58{fill:url(#SVGID_48_);}
	.st59{fill:url(#SVGID_49_);}
	.st60{fill:url(#SVGID_50_);}
	.st61{fill:url(#SVGID_51_);}
	.st62{fill:url(#SVGID_52_);}
	.st63{fill:url(#SVGID_53_);}
	.st64{fill:#67D6EF;}
	.st65{opacity:0.67;}
	.st66{fill:url(#SVGID_54_);}
	.st67{fill:url(#SVGID_55_);}
	.st68{fill:url(#SVGID_56_);}
	.st69{fill:url(#SVGID_57_);}
	.st70{fill:url(#SVGID_58_);}
	.st71{opacity:0.86;}
	.st72{fill:url(#SVGID_59_);}
	.st73{fill:#383660;}
	.st74{fill:#2B2844;}
	.st75{fill:#D3D3D3;}
	.st76{fill:url(#SVGID_60_);}
	.st77{fill:url(#SVGID_61_);}
	.st78{fill:url(#SVGID_62_);}
	.st79{fill:#3A5D9B;}
	.st80{fill:url(#SVGID_63_);}
	.st81{fill:url(#SVGID_64_);}
	.st82{fill:url(#SVGID_65_);}
	.st83{fill:url(#SVGID_66_);}
</style>
<g>
	<g>
		<g>
			<g class="st0">
				<g>
					<linearGradient id="SVGID_1_" gradientUnits="userSpaceOnUse" x1="195.1974" y1="77.5926" x2="211.9287" y2="252.4837">
						<stop  offset="0" style="stop-color:#195EC3"/>
						<stop  offset="1" style="stop-color:#35B9C7"/>
					</linearGradient>
					<path class="st1" d="M209.3,224.5l-6.2-3.6c2.7-1.6,5-5.4,4.9-8.6l6.2,3.6C214.2,219.1,212,222.9,209.3,224.5z"/>
				</g>
				<g>
					<linearGradient id="SVGID_2_" gradientUnits="userSpaceOnUse" x1="159.0676" y1="81.0489" x2="175.7991" y2="255.9409">
						<stop  offset="0" style="stop-color:#195EC3"/>
						<stop  offset="1" style="stop-color:#35B9C7"/>
					</linearGradient>
					<polygon class="st2" points="145.6,261.2 139.5,257.7 203.1,220.9 209.3,224.5 					"/>
				</g>
				<g>
					<polygon class="st3" points="163.6,246 157.4,242.4 185.2,226.4 191.3,229.9 					"/>
				</g>
				<g>
					<polygon class="st4" points="163.6,245.1 157.4,241.6 185.2,225.5 191.3,229.1 					"/>
				</g>
				<g>
					<path class="st3" d="M187.4,222.4c0.9,0.5,1.8,1,2.7,1.6c1.2,0.7,2.3,1.3,3.5,2c0,1.4-1,3.2-2.3,3.9l-6.2-3.6
						C186.4,225.6,187.4,223.9,187.4,222.4z"/>
				</g>
				<g>
					<path class="st4" d="M191.3,229.1l-6.2-3.6c0.9-0.5,1.5-1.7,1.5-2.7l6.2,3.6C192.9,227.4,192.2,228.6,191.3,229.1z"/>
				</g>
				<g>
					<polygon class="st3" points="193.6,226 187.4,222.4 187.4,220.5 193.6,224.1 					"/>
				</g>
				<g>
					<polygon class="st4" points="192.9,226.4 186.7,222.9 186.7,220.9 192.9,224.5 					"/>
				</g>
				<g>
					<path class="st4" d="M186.3,219.9l6.2,3.6c0.3,0.2,0.5,0.5,0.5,1l-6.2-3.6C186.7,220.4,186.5,220.1,186.3,219.9z"/>
				</g>
				<g>
					<path class="st3" d="M187.4,220.5c0-0.7-0.3-1.2-0.7-1.5l6.2,3.6c0.4,0.2,0.7,0.7,0.7,1.5C191.7,223,189.3,221.6,187.4,220.5z"
						/>
				</g>
				<g>
					<polygon class="st3" points="163.5,239.6 157.4,236.1 185.2,220 191.3,223.6 					"/>
				</g>
				<g>
					<polygon class="st4" points="163.5,238.8 157.4,235.2 185.1,219.2 191.3,222.8 					"/>
				</g>
				<g>
					<path class="st3" d="M186.3,219.9l6.2,3.6c-0.3-0.2-0.7-0.1-1.1,0.1l-6.2-3.6C185.6,219.8,186,219.8,186.3,219.9z"/>
				</g>
				<g>
					<path class="st4" d="M186.8,219.1l6.2,3.6c-0.4-0.2-1-0.2-1.6,0.2l-6.2-3.6C185.8,218.9,186.3,218.8,186.8,219.1z"/>
				</g>
				<g>
					<linearGradient id="SVGID_3_" gradientUnits="userSpaceOnUse" x1="204.4618" y1="76.7064" x2="221.1932" y2="251.5983">
						<stop  offset="0" style="stop-color:#195EC3"/>
						<stop  offset="1" style="stop-color:#35B9C7"/>
					</linearGradient>
					<polygon class="st5" points="214.2,215.9 208.1,212.4 207.7,73 213.8,76.6 					"/>
				</g>
				<g>
					<polygon class="st3" points="171.9,230.2 165.8,226.6 204.9,204.1 211.1,207.6 					"/>
				</g>
				<g>
					<polygon class="st3" points="211.1,207.6 204.9,204.1 204.8,159.1 210.9,162.7 					"/>
				</g>
				<g>
					<polygon class="st6" points="171.9,230.2 165.8,226.6 204.8,159.1 210.9,162.7 					"/>
				</g>
				<g>
					<polygon class="st6" points="210.9,162.7 211.1,207.6 171.9,230.2 					"/>
				</g>
				<g>
					<path class="st4" d="M162.5,245.2l-6.2-3.6c0.3,0.2,0.7,0.1,1.1-0.1l6.2,3.6C163.1,245.4,162.7,245.4,162.5,245.2z"/>
				</g>
				<g>
					<path class="st3" d="M161.9,246.1l-6.2-3.6c0.4,0.2,1,0.2,1.6-0.2l6.2,3.6C162.9,246.3,162.4,246.4,161.9,246.1z"/>
				</g>
				<g>
					<path class="st3" d="M162.5,245.2l-6.2-3.6c-0.3-0.2-0.5-0.5-0.5-1l6.2,3.6C162,244.7,162.2,245.1,162.5,245.2z"/>
				</g>
				<g>
					<path class="st4" d="M161.9,246.1l-6.2-3.6c-0.4-0.2-0.7-0.7-0.7-1.5l6.2,3.6C161.3,245.4,161.5,245.9,161.9,246.1z"/>
				</g>
				<g>
					<polygon class="st3" points="162,244.2 155.9,240.7 155.8,238.7 162,242.3 					"/>
				</g>
				<g>
					<polygon class="st4" points="161.3,244.7 155.1,241.1 155.1,239.2 161.3,242.7 					"/>
				</g>
				<g>
					<path class="st3" d="M191.3,223.6c0.9-0.5,1.6-0.1,1.6,0.9l0,1.9c0,1-0.7,2.2-1.5,2.7l-27.8,16c-0.9,0.5-1.6,0.1-1.6-0.9l0-1.9
						c0-1,0.7-2.2,1.5-2.7L191.3,223.6z"/>
				</g>
				<g>
					<path class="st3" d="M162,242.3l-6.2-3.6c0-1,0.7-2.2,1.5-2.7l6.2,3.6C162.7,240.1,162,241.3,162,242.3z"/>
				</g>
				<g>
					<path class="st4" d="M161.3,242.7l-6.2-3.6c0-1.4,1-3.2,2.3-3.9l6.2,3.6C162.3,239.5,161.3,241.3,161.3,242.7z"/>
				</g>
				<g>
					<linearGradient id="SVGID_4_" gradientUnits="userSpaceOnUse" x1="124.0322" y1="84.4" x2="140.7637" y2="259.2925">
						<stop  offset="0" style="stop-color:#195EC3"/>
						<stop  offset="1" style="stop-color:#35B9C7"/>
					</linearGradient>
					<path class="st7" d="M142.1,261.6L136,258c0.9,0.5,2.1,0.5,3.5-0.3l6.2,3.6C144.3,262,143,262.1,142.1,261.6z"/>
				</g>
				<g>
					<path class="st3" d="M142.1,261.6L136,258c-0.9-0.5-1.4-1.6-1.4-3.2l6.2,3.6C140.7,260,141.2,261.1,142.1,261.6z"/>
				</g>
				<g>
					<polygon class="st3" points="143.9,246.4 137.8,242.8 165.8,226.6 171.9,230.2 					"/>
				</g>
				<g>
					<polygon class="st8" points="143.9,246.4 137.8,242.8 137.7,233.6 143.9,237.2 					"/>
				</g>
				<g>
					<polygon class="st3" points="210.9,162.7 204.8,159.1 204.7,117.7 210.8,121.3 					"/>
				</g>
				<g>
					<polygon class="st8" points="143.9,237.2 137.7,233.6 204.7,117.7 210.8,121.3 					"/>
				</g>
				<g>
					<polygon class="st3" points="210.8,121.3 204.7,117.7 204.6,81.9 210.7,85.5 					"/>
				</g>
				<g>
					<polygon class="st6" points="143.9,237.2 137.7,233.6 137.6,189 143.8,192.5 					"/>
				</g>
				<g>
					<linearGradient id="SVGID_5_" gradientUnits="userSpaceOnUse" x1="120.3468" y1="84.7532" x2="137.0782" y2="259.6456">
						<stop  offset="0" style="stop-color:#195EC3"/>
						<stop  offset="1" style="stop-color:#35B9C7"/>
					</linearGradient>
					<path class="st9" d="M141.1,263.3l-6.2-3.6c-1.1-0.7-1.9-2.1-1.9-4.1l6.2,3.6C139.2,261.2,139.9,262.7,141.1,263.3z"/>
				</g>
				<g>
					<linearGradient id="SVGID_6_" gradientUnits="userSpaceOnUse" x1="143.7527" y1="161.3486" x2="210.8193" y2="161.3486">
						<stop  offset="0" style="stop-color:#D9FFFF"/>
						<stop  offset="1" style="stop-color:#81C8FF"/>
					</linearGradient>
					<polygon class="st10" points="210.7,85.5 210.8,121.3 143.9,237.2 143.8,192.5 203,90 					"/>
				</g>
				<g>
					<polygon class="st6" points="203,90 196.8,86.4 204.6,81.9 210.7,85.5 					"/>
				</g>
				<g>
					<linearGradient id="SVGID_7_" gradientUnits="userSpaceOnUse" x1="210.3171" y1="76.1462" x2="227.0485" y2="251.0377">
						<stop  offset="0" style="stop-color:#195EC3"/>
						<stop  offset="1" style="stop-color:#35B9C7"/>
					</linearGradient>
					<path class="st11" d="M206.2,69.9l6.2,3.6c0.9,0.5,1.4,1.6,1.4,3.2l-6.2-3.6C207.7,71.5,207.1,70.4,206.2,69.9z"/>
				</g>
				<g>
					<path class="st3" d="M206.2,69.8C206.2,69.8,206.2,69.9,206.2,69.8l6.2,3.6c0,0,0,0,0,0C210.3,72.2,208.3,71,206.2,69.8z"/>
				</g>
				<g>
					<polygon class="st8" points="174.1,106.6 168,103 196.8,86.4 203,90 					"/>
				</g>
				<g>
					<polygon class="st8" points="143.7,159.4 137.5,155.8 168,103 174.1,106.6 					"/>
				</g>
				<g>
					<polygon class="st6" points="143.6,124.3 137.4,120.7 168,103 174.1,106.6 					"/>
				</g>
				<g>
					<polygon class="st3" points="155.6,112.8 149.5,109.2 191.7,84.9 197.8,88.4 					"/>
				</g>
				<g>
					<polygon class="st4" points="155.6,111.9 149.5,108.4 191.7,84 197.8,87.6 					"/>
				</g>
				<g>
					<polygon class="st3" points="155.6,110.4 149.5,106.9 191.7,82.5 197.8,86.1 					"/>
				</g>
				<g>
					<path class="st4" d="M192.1,82.5l6.2,3.6c0.1,0.1,0.2,0.2,0.2,0.4c0,0.4-0.3,0.9-0.7,1.1l-6.2-3.6c0.4-0.2,0.7-0.7,0.7-1.1
						C192.3,82.7,192.2,82.5,192.1,82.5z"/>
				</g>
				<g>
					<polygon class="st4" points="155.6,109.6 149.5,106 191.7,81.7 197.8,85.3 					"/>
				</g>
				<g>
					<path class="st3" d="M198.8,85.2l-6.2-3.6c0.2,0.1,0.4,0.4,0.4,0.9c0,0.2,0,0.3-0.1,0.5l5.3,3.1c0.1,0.1,0.2,0.2,0.2,0.4
						c0,0.4-0.3,0.9-0.7,1.1l-5.6-3.2c-0.2,0.2-0.4,0.4-0.6,0.5l6.2,3.6c0.8-0.4,1.4-1.5,1.4-2.4C199.2,85.6,199,85.3,198.8,85.2z"
						/>
				</g>
				<g>
					<path class="st4" d="M192.6,81.6l6.2,3.6c-0.3-0.1-0.6-0.1-1,0.1l-6.2-3.6C192,81.5,192.4,81.4,192.6,81.6z"/>
				</g>
				<g>
					<linearGradient id="SVGID_8_" gradientUnits="userSpaceOnUse" x1="143.6587" y1="141.2534" x2="202.9809" y2="141.2534">
						<stop  offset="0" style="stop-color:#81C8FF"/>
						<stop  offset="1" style="stop-color:#D9FFFF"/>
					</linearGradient>
					<polygon class="st12" points="203,90 143.8,192.5 143.7,159.4 174.1,106.6 					"/>
				</g>
				<g>
					<path class="st4" d="M155.2,112l-6.2-3.6c0.1,0.1,0.3,0.1,0.5,0l6.2,3.6C155.5,112.1,155.3,112.1,155.2,112z"/>
				</g>
				<g>
					<path class="st3" d="M148.5,109.3c0.3,0.1,0.6,0.1,1-0.1l6.2,3.6c-0.4,0.2-0.7,0.2-1,0.1C152.8,111.8,150.4,110.4,148.5,109.3z
						"/>
				</g>
				<g>
					<path class="st3" d="M149,108.4c-0.1-0.1-0.2-0.2-0.2-0.4c2.1,1.2,4.1,2.4,6.2,3.6c0,0.2,0.1,0.4,0.2,0.4
						C153.3,110.9,150.9,109.5,149,108.4z"/>
				</g>
				<g>
					<path class="st3" d="M149.2,107.1c0.1-0.1,0.2-0.2,0.3-0.3l6.2,3.6c-0.1,0.1-0.2,0.2-0.3,0.3
						C153.3,109.5,151.2,108.3,149.2,107.1z"/>
				</g>
				<g>
					<path class="st3" d="M149.2,107.1c2.1,1.2,4.1,2.4,6.2,3.6c-0.2,0.2-0.4,0.6-0.4,0.9c-1.2-0.7-2.3-1.3-3.5-2
						c-0.7-0.4-1.3-0.8-2-1.1c-0.2-0.1-0.5-0.4-0.7-0.4C148.8,107.7,149,107.4,149.2,107.1z"/>
				</g>
				<g>
					<path class="st4" d="M154.7,112.9l-6.2-3.6c-0.2-0.1-0.4-0.4-0.4-0.9c0-0.9,0.6-1.9,1.4-2.4l6.2,3.6c-0.8,0.4-1.4,1.5-1.4,2.4
						C154.3,112.4,154.4,112.7,154.7,112.9z"/>
				</g>
				<g>
					<path class="st3" d="M146.1,109.7c0-0.4-0.2-0.7-0.4-0.9l6.2,3.6c0.3,0.1,0.4,0.5,0.4,0.9C150.2,112.1,148.2,110.9,146.1,109.7
						c2.1,1.2,4.1,2.4,6.2,3.6c0,0.9-0.6,2-1.4,2.4c-0.4,0.2-0.7,0.2-1,0.1l-6.2-3.6c0.3,0.1,0.6,0.1,1-0.1
						C145.5,111.7,146.1,110.6,146.1,109.7z"/>
				</g>
				<g>
					<path class="st4" d="M145.7,108.8l6.2,3.6c-0.3-0.1-0.6-0.1-1,0.1l-6.2-3.6C145.1,108.7,145.5,108.7,145.7,108.8z"/>
				</g>
				<g>
					<path class="st3" d="M191.7,82.5c0.2-0.1,0.3-0.1,0.5,0l6.2,3.6c-0.1-0.1-0.3-0.1-0.5,0C196,85,193.5,83.6,191.7,82.5z"/>
				</g>
				<g>
					<path class="st4" d="M145.2,109.7l6.2,3.6c0.1,0.1,0.2,0.2,0.2,0.4c0,0.4-0.3,1-0.7,1.2l-6.2-3.6c0.4-0.2,0.7-0.7,0.7-1.2
						C145.4,109.9,145.3,109.8,145.2,109.7z"/>
				</g>
				<g>
					<path class="st4" d="M150.4,114.9l-6.2-3.6c0.1,0.1,0.3,0.1,0.5,0l6.2,3.6C150.7,115,150.5,115,150.4,114.9z"/>
				</g>
				<g>
					<path class="st3" d="M144.7,109.7c0.2-0.1,0.4-0.1,0.5,0l6.2,3.6c-0.1-0.1-0.3-0.1-0.5,0c-0.4,0.2-0.7,0.7-0.7,1.2
						c-2.1-1.2-4.1-2.4-6.2-3.6C144,110.5,144.3,109.9,144.7,109.7z"/>
				</g>
				<g>
					<path class="st3" d="M144.2,111.3c-0.1-0.1-0.2-0.2-0.2-0.4c2.1,1.2,4.1,2.4,6.2,3.6c0,0.2,0.1,0.4,0.2,0.4
						C148.5,113.9,146.1,112.4,144.2,111.3z"/>
				</g>
				<g>
					<path class="st4" d="M149.9,115.8l-6.2-3.6c-0.3-0.1-0.4-0.5-0.4-0.9c0-0.9,0.6-2,1.4-2.4l6.2,3.6c-0.8,0.4-1.4,1.5-1.4,2.4
						C149.5,115.3,149.6,115.6,149.9,115.8z"/>
				</g>
				<g>
					<polygon class="st3" points="145.2,110.5 139.1,106.9 202.7,70.2 208.8,73.8 					"/>
				</g>
				<g>
					<path class="st3" d="M202.7,70.2c1.4-0.8,2.6-0.9,3.5-0.4c2.1,1.2,4.1,2.4,6.2,3.6c-0.9-0.5-2.1-0.4-3.5,0.4
						C207,72.7,204.5,71.3,202.7,70.2z"/>
				</g>
				<g>
					<polygon class="st8" points="143.8,192.5 137.6,189 137.5,155.8 143.7,159.4 					"/>
				</g>
				<g>
					<path class="st4" d="M150.9,112.5c0.8-0.4,1.4-0.1,1.4,0.8c0,0.9-0.6,2-1.4,2.4c-0.8,0.4-1.4,0.1-1.4-0.8
						C149.5,114,150.1,112.9,150.9,112.5z M150.9,114.9c0.4-0.2,0.7-0.7,0.7-1.2c0-0.4-0.3-0.6-0.7-0.4c-0.4,0.2-0.7,0.7-0.7,1.2
						C150.2,114.9,150.5,115.1,150.9,114.9"/>
				</g>
				<g>
					<path class="st3" d="M150.9,114.9c-0.4,0.2-0.7,0-0.7-0.4c0-0.4,0.3-1,0.7-1.2c0.4-0.2,0.7,0,0.7,0.4
						C151.6,114.1,151.2,114.7,150.9,114.9z"/>
				</g>
				<g>
					<path class="st3" d="M141.5,114.5c0.1-0.1,0.1-0.2,0.1-0.2c2.1,1.2,4.1,2.4,6.2,3.6c0,0.1-0.1,0.2-0.1,0.2
						C145.6,116.9,143.6,115.7,141.5,114.5z"/>
				</g>
				<g>
					<path class="st3" d="M142.5,114.5c1.8,1,3.6,2.1,5.4,3.1c0,0.1-0.1,0.1-0.1,0.2c-2.1-1.2-4.1-2.4-6.2-3.6
						c0-0.1,0.1-0.1,0.1-0.2C142,114.2,142.3,114.3,142.5,114.5z"/>
				</g>
				<g>
					<path class="st3" d="M142.3,114.9c1.8,1,3.6,2.1,5.4,3.1c0,0.1-0.1,0.1-0.1,0.2c-2.1-1.2-4.1-2.4-6.2-3.6
						c0-0.1,0.1-0.1,0.1-0.2C141.8,114.6,142,114.8,142.3,114.9z"/>
				</g>
				<g>
					<linearGradient id="SVGID_9_" gradientUnits="userSpaceOnUse" x1="143.5591" y1="133.0056" x2="174.1284" y2="133.0056">
						<stop  offset="0" style="stop-color:#D9FFFF"/>
						<stop  offset="1" style="stop-color:#81C8FF"/>
					</linearGradient>
					<polygon class="st13" points="174.1,106.6 143.7,159.4 143.6,124.3 					"/>
				</g>
				<g>
					<polygon class="st6" points="143.7,159.4 137.5,155.8 137.4,120.7 143.6,124.3 					"/>
				</g>
				<g>
					<path class="st3" d="M139.7,116.3c0.6-0.4,1.2-0.9,1.6-1.6c2.1,1.2,4.1,2.4,6.2,3.6c-0.5,0.7-1,1.2-1.6,1.6
						c-0.2,0.1-0.3,0.2-0.5,0.2c-2.1-1.2-4.1-2.4-6.2-3.6C139.4,116.4,139.6,116.4,139.7,116.3z"/>
				</g>
				<g>
					<path class="st3" d="M139,116.6c0.1,0,0.2,0,0.3-0.1c2.1,1.2,4.1,2.4,6.2,3.6c-0.1,0-0.2,0.1-0.3,0.1
						C143.1,119,141,117.8,139,116.6z"/>
				</g>
				<g>
					<path class="st3" d="M138.9,116.6C138.9,116.6,138.9,116.6,138.9,116.6c2.1,1.2,4.2,2.4,6.2,3.6c0,0,0,0-0.1,0
						C143,119,141,117.8,138.9,116.6z"/>
				</g>
				<g>
					<path class="st3" d="M142.4,111.6c0-0.8-0.2-1.3-0.6-1.6c2.1,1.2,4.1,2.4,6.2,3.6c0.4,0.3,0.6,0.9,0.6,1.6
						c0,0.8-0.2,1.6-0.7,2.4c-2.1-1.2-4.1-2.4-6.2-3.6C142.2,113.2,142.4,112.4,142.4,111.6z"/>
				</g>
				<g>
					<path class="st3" d="M138,116.5c0.3,0.1,0.6,0.1,0.9,0.1c2.1,1.2,4.1,2.4,6.2,3.6c-0.4,0.1-0.7,0-0.9-0.1
						C142.1,118.9,140,117.7,138,116.5z"/>
				</g>
				<g>
					<path class="st3" d="M138.7,117c1.8,1,3.6,2.1,5.4,3.1c0,0,0,0,0,0c-2.1-1.2-4.1-2.4-6.2-3.6c0,0,0,0,0,0
						C138.2,116.7,138.5,116.8,138.7,117z"/>
				</g>
				<g>
					<path class="st3" d="M141.8,109.9c2.1,1.2,4.1,2.4,6.2,3.6c-0.9-0.5-1.8-1-2.7-1.6c-0.9-0.5-1.8-1-2.7-1.6
						C142.3,110.2,142,110.1,141.8,109.9C141.8,109.9,141.8,109.9,141.8,109.9z"/>
				</g>
				<g>
					<path class="st3" d="M141.8,109.9c2.1,1.2,4.1,2.4,6.2,3.6c0,0,0,0,0,0C145.9,112.3,143.8,111.2,141.8,109.9
						C141.8,110,141.8,110,141.8,109.9z"/>
				</g>
				<g>
					<path class="st3" d="M137.8,116.5c0,0,0.1,0,0.1,0.1c2.1,1.2,4.1,2.4,6.2,3.6c0,0-0.1,0-0.1-0.1
						C142.1,119,139.7,117.5,137.8,116.5z"/>
				</g>
				<g>
					<path class="st4" d="M144.5,119.2l-6.2-3.6c0.4,0.2,0.9,0.2,1.4-0.1l6.2,3.6C145.3,119.3,144.8,119.4,144.5,119.2z"/>
				</g>
				<g>
					<path class="st4" d="M141.1,110.7l6.2,3.6c0.4,0.2,0.6,0.6,0.6,1.3c0,1.3-0.9,2.8-2,3.4l-6.2-3.6c1.1-0.6,2-2.2,2-3.4
						C141.7,111.4,141.5,110.9,141.1,110.7z"/>
				</g>
				<g>
					<path class="st3" d="M141.8,109.9c0,0-0.1-0.1-0.1-0.1l6.2,3.6c0,0,0.1,0.1,0.1,0.1C145.9,112.3,143.8,111.1,141.8,109.9z"/>
				</g>
				<g>
					<path class="st3" d="M145.9,114.5c-1.6-0.9-3.1-1.8-4.7-2.7C142.8,112.6,144.3,113.5,145.9,114.5L145.9,114.5z"/>
				</g>
				<g>
					<path class="st3" d="M139.7,110.9c0.5-0.3,1-0.3,1.4-0.1l6.2,3.6c-0.4-0.2-0.9-0.2-1.4,0.1
						C143.8,113.3,141.8,112.1,139.7,110.9c2.1,1.2,4.1,2.4,6.2,3.6c-1.1,0.6-2,2.2-2,3.4c-2.1-1.2-4.1-2.4-6.2-3.6
						c2.1,1.2,4.1,2.4,6.2,3.6c0,0.6,0.2,1.1,0.6,1.3l-6.2-3.6c-0.4-0.2-0.6-0.6-0.6-1.3C137.7,113,138.6,111.5,139.7,110.9z"/>
				</g>
				<g>
					<path class="st4" d="M141.6,109.9l6.2,3.6c-0.5-0.3-1.2-0.2-1.9,0.2l-6.2-3.6C140.5,109.6,141.2,109.6,141.6,109.9z"/>
				</g>
				<g>
					<path class="st4" d="M144,120l-6.2-3.6c-0.5-0.3-0.8-0.9-0.8-1.7c0-1.7,1.2-3.8,2.7-4.7l6.2,3.6c-1.5,0.9-2.7,3-2.7,4.7
						C143.2,119.2,143.5,119.8,144,120z"/>
				</g>
				<g>
					<path class="st4" d="M145.9,113.6c1.5-0.9,2.7-0.2,2.7,1.6c0,1.7-1.2,3.8-2.7,4.7c-1.5,0.9-2.7,0.2-2.7-1.5
						C143.2,116.6,144.4,114.5,145.9,113.6z M145.9,119c1.1-0.6,2-2.2,2-3.4c0-1.3-0.9-1.8-2-1.1c-1.1,0.6-2,2.2-2,3.4
						C143.9,119.1,144.8,119.7,145.9,119"/>
				</g>
				<g>
					<path class="st3" d="M145.9,119c-1.1,0.6-2,0.1-2-1.1c0-1.3,0.9-2.8,2-3.4c1.1-0.6,2-0.1,2,1.1
						C147.9,116.9,147,118.4,145.9,119z"/>
				</g>
				<g>
					<linearGradient id="SVGID_10_" gradientUnits="userSpaceOnUse" x1="123.105" y1="84.4898" x2="139.8364" y2="259.3819">
						<stop  offset="0" style="stop-color:#195EC3"/>
						<stop  offset="1" style="stop-color:#35B9C7"/>
					</linearGradient>
					<polygon class="st14" points="139.2,259.2 133.1,255.7 132.9,180.2 139,183.7 					"/>
				</g>
				<g>
					<linearGradient id="SVGID_11_" gradientUnits="userSpaceOnUse" x1="127.5424" y1="84.065" x2="144.2738" y2="258.9568">
						<stop  offset="0" style="stop-color:#195EC3"/>
						<stop  offset="1" style="stop-color:#35B9C7"/>
					</linearGradient>
					<polygon class="st15" points="139,183.7 132.9,180.2 132.8,159.2 139,162.8 					"/>
				</g>
				<g>
					<polygon class="st16" points="139,162.8 139,183.7 137.8,184.4 137.8,163.4 					"/>
				</g>
				<g>
					<polygon class="st16" points="137.8,163.4 131.6,159.9 132.8,159.2 139,162.8 					"/>
				</g>
				<g>
					<linearGradient id="SVGID_12_" gradientUnits="userSpaceOnUse" x1="128.6866" y1="83.9558" x2="145.418" y2="258.8473">
						<stop  offset="0" style="stop-color:#195EC3"/>
						<stop  offset="1" style="stop-color:#35B9C7"/>
					</linearGradient>
					<polygon class="st17" points="139,162.8 132.8,159.2 132.8,155.3 138.9,158.9 					"/>
				</g>
				<g>
					<linearGradient id="SVGID_13_" gradientUnits="userSpaceOnUse" x1="130.3318" y1="83.7984" x2="147.0632" y2="258.69">
						<stop  offset="0" style="stop-color:#195EC3"/>
						<stop  offset="1" style="stop-color:#35B9C7"/>
					</linearGradient>
					<polygon class="st18" points="138.9,158.9 132.8,155.3 132.7,123.4 138.8,127 					"/>
				</g>
				<g>
					<polygon class="st16" points="138.8,127 138.9,158.9 137.8,159.5 137.7,127.7 					"/>
				</g>
				<g>
					<path class="st3" d="M134.1,115.5c0-0.8,0.1-1.6,0.4-2.4c2.1,1.2,4.1,2.4,6.2,3.6c-0.2,0.8-0.4,1.7-0.4,2.4
						C138.4,118,136,116.6,134.1,115.5z"/>
				</g>
				<g>
					<path class="st3" d="M134.5,113.1c0.7-2.5,2.5-4.9,4.6-6.1l6.2,3.6c-2,1.2-3.8,3.6-4.6,6.1
						C138.6,115.4,136.5,114.3,134.5,113.1z"/>
				</g>
				<g>
					<polygon class="st3" points="138.8,127 138.9,158.9 139,162.8 139,162.8 139,162.8 139,183.7 139.2,257.6 140.7,258.4 
						140.3,119.1 134.1,115.5 134.1,124.3 					"/>
				</g>
				<g>
					<linearGradient id="SVGID_14_" gradientUnits="userSpaceOnUse" x1="168.8826" y1="80.11" x2="185.614" y2="255.0019">
						<stop  offset="0" style="stop-color:#195EC3"/>
						<stop  offset="1" style="stop-color:#35B9C7"/>
					</linearGradient>
					<path class="st19" d="M215.3,75.8c0-4.1-2.9-5.7-6.4-3.7l-63.6,36.7c-3.5,2-6.4,7-6.4,11l0,7.1l0.1,31.9l0,3.9l0.1,21l0.2,75.5
						c0,4.1,2.9,5.7,6.4,3.7l63.6-36.7c3.5-2,6.4-7,6.4-11L215.3,75.8z M209.3,224.5l-63.6,36.7c-2.7,1.6-5,0.3-5-2.8l-0.4-139.3
						c0-3.1,2.2-7,4.9-8.6l63.6-36.7c2.7-1.6,5-0.3,5,2.8l0.4,139.3C214.2,219.1,212,222.9,209.3,224.5"/>
				</g>
				<g>
					<linearGradient id="SVGID_15_" gradientUnits="userSpaceOnUse" x1="143.8792" y1="183.8343" x2="210.9367" y2="183.8343">
						<stop  offset="0" style="stop-color:#81C8FF"/>
						<stop  offset="1" style="stop-color:#D9FFFF"/>
					</linearGradient>
					<polygon class="st20" points="210.8,121.3 143.9,237.2 143.9,246.4 171.9,230.2 210.9,162.7 					"/>
				</g>
				<g>
					<path class="st3" d="M212.6,221.1c1-1.6,1.6-3.5,1.6-5.2l-0.4-139.3c0-1.2-0.3-2.1-0.9-2.7c0,0-0.1-0.1-0.1-0.1
						c-0.3-0.3-0.7-0.5-1.2-0.6c-0.8-0.2-1.7,0-2.8,0.6l-63.6,36.7c-0.7,0.4-1.3,0.9-1.9,1.6c-0.1,0.1-0.2,0.2-0.3,0.3
						c-0.1,0.1-0.2,0.2-0.3,0.3c-0.4,0.5-0.7,1-1,1.5c-0.2,0.4-0.5,0.9-0.7,1.3c-0.1,0.1-0.1,0.2-0.1,0.4c0,0.1-0.1,0.2-0.1,0.2
						c-0.2,0.6-0.4,1.2-0.5,1.7c-0.1,0.4-0.1,0.8-0.1,1.2l0.4,139.3c0,0.6,0.1,1.1,0.2,1.6c0.1,0.3,0.2,0.6,0.4,0.8
						c0.1,0.2,0.2,0.3,0.4,0.5c0.5,0.5,1.1,0.7,1.8,0.7c0,0,0,0,0,0c0.6,0,1.4-0.2,2.1-0.7l63.6-36.7c1-0.6,2-1.5,2.8-2.6
						c0.1-0.1,0.1-0.2,0.2-0.3C212.4,221.5,212.5,221.3,212.6,221.1z M155.6,109.6l42.2-24.3c0.8-0.4,1.4-0.1,1.4,0.8
						c0,0.9-0.6,1.9-1.4,2.4l-42.2,24.3c-0.8,0.4-1.4,0.1-1.4-0.8C154.3,111.1,154.9,110,155.6,109.6 M150.9,112.5
						c0.8-0.4,1.4-0.1,1.4,0.8c0,0.9-0.6,2-1.4,2.4c-0.8,0.4-1.4,0.1-1.4-0.8C149.5,114,150.1,112.9,150.9,112.5 M145.9,113.6
						c1.5-0.9,2.7-0.2,2.7,1.6c0,1.7-1.2,3.8-2.7,4.7c-1.5,0.9-2.7,0.2-2.7-1.5C143.2,116.6,144.4,114.5,145.9,113.6 M191.3,229.9
						l-27.8,16c-1.2,0.7-2.3,0.1-2.3-1.3l0-1.9c0-1.4,1-3.2,2.3-3.9l27.8-16c1.2-0.7,2.3-0.1,2.3,1.3l0,1.9
						C193.6,227.5,192.6,229.2,191.3,229.9 M171.9,230.2l-28,16.2l0-9.2l-0.1-44.7l-0.1-33.2l-0.1-35.1l30.6-17.6L203,90l7.7-4.5
						l0.1,35.8l0.1,41.4l0,0l0.1,44.9L171.9,230.2"/>
				</g>
				<g>
					<path class="st4" d="M191.3,222.8l-27.8,16c-1.2,0.7-2.3,2.5-2.3,3.9l0,1.9c0,1.4,1,2,2.3,1.3l27.8-16c1.2-0.7,2.3-2.5,2.3-3.9
						l0-1.9C193.6,222.7,192.6,222.1,191.3,222.8z M191.3,229.1l-27.8,16c-0.9,0.5-1.6,0.1-1.6-0.9l0-1.9c0-1,0.7-2.2,1.5-2.7
						l27.8-16c0.9-0.5,1.6-0.1,1.6,0.9l0,1.9C192.9,227.4,192.2,228.6,191.3,229.1"/>
				</g>
				<g>
					<linearGradient id="SVGID_16_" gradientUnits="userSpaceOnUse" x1="208.6358" y1="76.307" x2="225.3672" y2="251.1983">
						<stop  offset="0" style="stop-color:#195EC3"/>
						<stop  offset="1" style="stop-color:#35B9C7"/>
					</linearGradient>
					<path class="st21" d="M207.2,68.1l6.2,3.6c-1.2-0.7-2.8-0.6-4.6,0.4l-6.2-3.6C204.5,67.5,206.1,67.4,207.2,68.1z"/>
				</g>
				<g>
					<linearGradient id="SVGID_17_" gradientUnits="userSpaceOnUse" x1="133.7013" y1="182.3264" x2="139.7309" y2="122.754">
						<stop  offset="0" style="stop-color:#195EC3"/>
						<stop  offset="1" style="stop-color:#35B9C7"/>
					</linearGradient>
					<polygon class="st22" points="137.8,184.4 131.7,180.8 131.6,159.9 137.8,163.4 					"/>
				</g>
				<g>
					<path class="st4" d="M197.8,85.3c0.8-0.4,1.4-0.1,1.4,0.8c0,0.9-0.6,1.9-1.4,2.4l-42.2,24.3c-0.8,0.4-1.4,0.1-1.4-0.8
						c0-0.9,0.6-1.9,1.4-2.4L197.8,85.3z M197.8,87.6c0.4-0.2,0.7-0.7,0.7-1.1c0-0.4-0.3-0.6-0.7-0.4l-42.2,24.3
						c-0.4,0.2-0.7,0.7-0.7,1.1c0,0.4,0.3,0.6,0.7,0.4L197.8,87.6"/>
				</g>
				<g>
					<path class="st3" d="M155.6,111.9c-0.4,0.2-0.7,0-0.7-0.4c0-0.4,0.3-0.9,0.7-1.1l42.2-24.3c0.4-0.2,0.7,0,0.7,0.4
						c0,0.4-0.3,0.9-0.7,1.1L155.6,111.9z"/>
				</g>
				<g>
					<linearGradient id="SVGID_18_" gradientUnits="userSpaceOnUse" x1="130.5783" y1="182.0104" x2="136.6079" y2="122.4381">
						<stop  offset="0" style="stop-color:#195EC3"/>
						<stop  offset="1" style="stop-color:#35B9C7"/>
					</linearGradient>
					<polygon class="st23" points="137.8,159.5 131.6,156 131.5,124.1 137.7,127.7 					"/>
				</g>
				<g>
					<polygon class="st16" points="137.7,127.7 131.5,124.1 132.7,123.4 138.8,127 					"/>
				</g>
				<g>
					<linearGradient id="SVGID_19_" gradientUnits="userSpaceOnUse" x1="173.0847" y1="79.7081" x2="189.8161" y2="254.6001">
						<stop  offset="0" style="stop-color:#195EC3"/>
						<stop  offset="1" style="stop-color:#35B9C7"/>
					</linearGradient>
					<polygon class="st24" points="145.2,108.9 139,105.3 202.7,68.5 208.8,72.1 					"/>
				</g>
				<g>
					<linearGradient id="SVGID_20_" gradientUnits="userSpaceOnUse" x1="136.1302" y1="83.2434" x2="152.8616" y2="258.1352">
						<stop  offset="0" style="stop-color:#195EC3"/>
						<stop  offset="1" style="stop-color:#35B9C7"/>
					</linearGradient>
					<path class="st25" d="M138.8,119.9l-6.2-3.6c0-4.1,2.8-9,6.4-11l6.2,3.6C141.7,110.9,138.8,115.9,138.8,119.9z"/>
				</g>
				<g>
					<linearGradient id="SVGID_21_" gradientUnits="userSpaceOnUse" x1="132.1236" y1="83.6268" x2="148.855" y2="258.5187">
						<stop  offset="0" style="stop-color:#195EC3"/>
						<stop  offset="1" style="stop-color:#35B9C7"/>
					</linearGradient>
					<polygon class="st26" points="138.8,127 132.7,123.4 132.7,116.3 138.8,119.9 					"/>
				</g>
			</g>
		</g>
		<g>
			<g>
				<linearGradient id="SVGID_22_" gradientUnits="userSpaceOnUse" x1="170.8491" y1="120.7471" x2="168.6552" y2="99.9051">
					<stop  offset="0" style="stop-color:#211E28"/>
					<stop  offset="1" style="stop-color:#29146D"/>
				</linearGradient>
				<polygon class="st27" points="170,110.4 171.1,112.2 173.4,111.2 171.7,114 172.1,116.4 170.1,116.4 168,118.8 168.4,116 
					166.7,115 169,113.3 				"/>
			</g>
			<g>
				<linearGradient id="SVGID_23_" gradientUnits="userSpaceOnUse" x1="162.5929" y1="121.6161" x2="160.3991" y2="100.7743">
					<stop  offset="0" style="stop-color:#211E28"/>
					<stop  offset="1" style="stop-color:#29146D"/>
				</linearGradient>
				<polygon class="st28" points="162.2,114.9 163.2,116.7 165.5,115.8 163.8,118.6 164.2,121 162.2,120.9 160.1,123.3 160.5,120.5 
					158.9,119.6 161.2,117.9 				"/>
			</g>
			<g>
				<linearGradient id="SVGID_24_" gradientUnits="userSpaceOnUse" x1="179.1208" y1="119.8763" x2="176.9269" y2="99.0345">
					<stop  offset="0" style="stop-color:#211E28"/>
					<stop  offset="1" style="stop-color:#29146D"/>
				</linearGradient>
				<polygon class="st29" points="177.9,105.4 178.9,107.2 181.2,106.3 179.6,109.1 180,111.5 177.9,111.5 175.9,113.9 176.2,111 
					174.6,110.1 176.9,108.4 				"/>
			</g>
			<g>
				<linearGradient id="SVGID_25_" gradientUnits="userSpaceOnUse" x1="187.3069" y1="119.0147" x2="185.113" y2="98.1728">
					<stop  offset="0" style="stop-color:#211E28"/>
					<stop  offset="1" style="stop-color:#29146D"/>
				</linearGradient>
				<polygon class="st30" points="185.7,101.2 186.8,103 189,102.1 187.4,104.9 187.8,107.3 185.7,107.2 183.7,109.7 184.1,106.8 
					182.4,105.9 184.7,104.2 				"/>
			</g>
			<g>
				<linearGradient id="SVGID_26_" gradientUnits="userSpaceOnUse" x1="195.8627" y1="118.114" x2="193.6689" y2="97.2722">
					<stop  offset="0" style="stop-color:#211E28"/>
					<stop  offset="1" style="stop-color:#29146D"/>
				</linearGradient>
				<polygon class="st31" points="193.9,96.5 194.9,98.3 197.2,97.3 195.5,100.2 195.9,102.6 193.9,102.5 191.8,104.9 192.2,102.1 
					190.6,101.2 192.8,99.5 				"/>
			</g>
		</g>
	</g>
	<g>
		<g class="st32">
			<linearGradient id="SVGID_27_" gradientUnits="userSpaceOnUse" x1="97.4375" y1="300.4391" x2="220.8593" y2="265.007">
				<stop  offset="0" style="stop-color:#CCFAFF;stop-opacity:0"/>
				<stop  offset="1" style="stop-color:#202B7F"/>
			</linearGradient>
			<path class="st33" d="M219.6,294.4c-18.4,10.7-48.4,10.7-66.9,0c-18.5-10.7-18.6-28.1-0.2-38.8c16.7-9.7,42.9-10.6,61.4-2.7
				c1.9,0.8,3.8,1.7,5.5,2.7C237.9,266.3,238,283.7,219.6,294.4z"/>
		</g>
		<g class="st32">
			<linearGradient id="SVGID_28_" gradientUnits="userSpaceOnUse" x1="190.6844" y1="336.1779" x2="289.6529" y2="307.7659">
				<stop  offset="0" style="stop-color:#CCFAFF;stop-opacity:0"/>
				<stop  offset="1" style="stop-color:#202B7F"/>
			</linearGradient>
			<path class="st34" d="M288.7,331.3c-14.8,8.6-38.8,8.6-53.7,0c-14.9-8.6-14.9-22.5-0.2-31.1c13.4-7.8,34.4-8.5,49.3-2.2
				c1.5,0.6,3,1.4,4.4,2.2C303.4,308.8,303.4,322.7,288.7,331.3z"/>
		</g>
		<g id="XMLID_30_">
			<g>
				<path class="st35" d="M187.4,146.1c-0.5,1-1.1,1.3-1.1,1.3c0-0.4-0.1-0.8-0.3-1.2c-0.2-0.4-0.4-0.8-0.5-1c0.2,0,0.3-0.1,0.5-0.2
					c0,0,0.9-0.7,1.4-1.2l0.7,0.1C188,144.9,187.7,145.6,187.4,146.1z"/>
				
					<linearGradient id="SVGID_29_" gradientUnits="userSpaceOnUse" x1="206.1711" y1="130.9512" x2="217.2714" y2="130.9512" gradientTransform="matrix(-1 0 0 -1 429.7989 320.8142)">
					<stop  offset="0" style="stop-color:#FFF2D2"/>
					<stop  offset="1" style="stop-color:#FFCD9C"/>
				</linearGradient>
				<path class="st36" d="M223.5,191c0.3,1.3,0,2.4-1,3.2c-1.3,1-2.4,1.4-3.2,1.4c-1.5,0-2.2-1.2-2.5-1.7c-0.4-0.7-4.3-6-4.3-6
					c0.8-0.6,2-1.9,2.6-3.9C218.8,184.3,222.8,187.9,223.5,191z"/>
				<linearGradient id="SVGID_30_" gradientUnits="userSpaceOnUse" x1="256.4397" y1="210.1978" x2="289.2421" y2="210.1978">
					<stop  offset="0" style="stop-color:#12285A"/>
					<stop  offset="1" style="stop-color:#294F91"/>
				</linearGradient>
				<path class="st37" d="M288.7,233.1c0.1,0.9,0.2,1.6,0.3,2.2c0.1,0.8,0.2,1.2,0.2,1.2l-1.7,1.5v0l-6.2,5.5l-1.9-3.5l-1.9,4.9
					l-8.9-1.4l-12.2-3.5l0.5-33.7c5.9-5,11.4-11.7,11.8-14.7c0.7-5.3-1.4-8-6-7.9c2.2-1.9,4.4-3.3,6.5-4.4
					c6.2-3.3,11.3-3.7,11.3-3.7s10.9,5.8,8.2,25.3C286.8,215,288,227.4,288.7,233.1z"/>
				<linearGradient id="SVGID_31_" gradientUnits="userSpaceOnUse" x1="256.0823" y1="280.1672" x2="293.1631" y2="280.1672">
					<stop  offset="0" style="stop-color:#211E28"/>
					<stop  offset="1" style="stop-color:#29146D"/>
				</linearGradient>
				<path class="st38" d="M293.2,309.7c-0.7,2.1-3.9,3.3-6.7,4c-0.6,0.2-1.2,0.1-1.8,0c-1.3-0.4-2.4-1.7-2.4-3.2
					c-0.1-1.9-0.1-3.7-0.2-5.5c-0.8-16.4-3-29.6-5.1-38.9c-2.3-10.3-4.5-15.8-4.5-15.8c0,4.6-0.1,9-0.2,13.2
					c-0.3,17.7-1,30.9-1.7,40.2c-0.3,0.8-0.3,1.8-0.2,3c-0.9,10.5-1.6,15.2-1.6,15.2c0,0-0.1,0-0.1,0c-5.3,1.8-9.6-0.9-9.6-0.9
					s0-0.7,0-2.1c-0.2-8.8-1-42.9-2.2-50.3c-1.4-8.6-0.4-28.5-0.4-28.5l12.2,3.5l8.9,1.4l1.9-4.9l1.9,3.5l6.2-5.5
					c0.1,0.9,0.1,1.8,0.2,2.7c0.1,1.9,0.3,3.8,0.5,5.7c0.7,9.2,1.5,18.7,2.2,27.3c1.3,16.3,2.3,29.9,2.6,34.4
					C293.1,309.1,293.2,309.7,293.2,309.7z"/>
				<linearGradient id="SVGID_32_" gradientUnits="userSpaceOnUse" x1="223.7067" y1="198.0216" x2="268.8829" y2="198.0216">
					<stop  offset="0" style="stop-color:#211E28"/>
					<stop  offset="1" style="stop-color:#29146D"/>
				</linearGradient>
				<path class="st39" d="M244,199.4c8.2-8.6,18.7-15.8,18.7-15.8c0,0,0.1,0,0.1,0c4.6-0.1,6.7,2.6,6,7.9c-0.4,3-5.9,9.7-11.8,14.7
					c-4.5,3.8-9.2,6.7-12,6.1c-6.4-1.4-20.3-10.1-21.1-12.1c-0.6-1.6,1.3-5.3,3.5-6.2c0.4-0.2,0.9-0.3,1.3-0.2
					C231.3,194.3,244,199.4,244,199.4z"/>
				<linearGradient id="SVGID_33_" gradientUnits="userSpaceOnUse" x1="258.0984" y1="167.6182" x2="279.2152" y2="167.6182">
					<stop  offset="0" style="stop-color:#FFF2D2"/>
					<stop  offset="1" style="stop-color:#FFCD9C"/>
				</linearGradient>
				<path class="st40" d="M271.2,175.3c-0.2,0.2-3.2,2.8-5.5,2.6c-2.4-0.2-4.7-4.5-4.7-4.5s-2.1-2-2.8-2.8c-0.7-0.8,0.7-4.3,0.7-4.3
					c-0.5-3.6,0.4-7.7,0.8-9.1c1.4,1,3,2,3.5,3.2c1.2,2.7,0,6.9,1.5,6.9c1.4,0,2.4-4.1,4-3.2c1.6,0.9-0.2,3.8-0.9,5.1
					c-0.8,1.4,2.3,2.3,4.4,2.8c2.1,0.5,6.5-1.8,6.5-1.8l0.1,0.3l0.5,2.7C277.9,173,271.2,175.3,271.2,175.3
					C271.2,175.3,271.2,175.3,271.2,175.3z"/>
				<path class="st3" d="M280.6,175.5c0,0-5.1,0.4-11.3,3.7l1.9-4c0,0,0,0,0,0s6.6-2.2,8-1.9L280.6,175.5z"/>
				<linearGradient id="SVGID_34_" gradientUnits="userSpaceOnUse" x1="180.7834" y1="289.1625" x2="180.6255" y2="237.2317">
					<stop  offset="0" style="stop-color:#232C5E"/>
					<stop  offset="1" style="stop-color:#3F2B85"/>
				</linearGradient>
				<path class="st41" d="M172.8,136.1c-5.9-5.6-2.3-11.5,0.7-15.7c3.1-4.2,9.2-3.7,14.1-0.8c4.9,2.9,2.9,7.7,2.9,7.7
					c-5,5-8.1,0-10.4,0.2c-2.3,0.2-1.8,9.4-3.4,8.9c-1.6-0.5-0.1-1.9-1.5-3.6c-1.4-1.7-3.5-3-3.4,0.4
					C172,134.6,172.3,135.4,172.8,136.1z"/>
				<linearGradient id="SVGID_35_" gradientUnits="userSpaceOnUse" x1="274.688" y1="288.8774" x2="274.5301" y2="236.9466">
					<stop  offset="0" style="stop-color:#232C5E"/>
					<stop  offset="1" style="stop-color:#3F2B85"/>
				</linearGradient>
				<path class="st42" d="M277,266l-4.7-2.7c0.1-4.1,0.1-8.5,0.2-13.2C272.4,250.2,274.6,255.8,277,266z"/>
				<path class="st3" d="M185,175.8l-1.4,0.3c-0.7-4.1-1.8-7.3-3.3-8.8c-6.4-6.1-8.7-23-8.7-23l2.6-1.5c-0.1,0.7-0.1,1.6,0.1,2.5
					c0.9,3.1,3.9,6.2,3.9,6.2s2.1-4.5,4.1-5.9c0,0.2,0.7,3,1.9,3.6l0,21.5C184.2,170.8,184.5,173.1,185,175.8z"/>
				<linearGradient id="SVGID_36_" gradientUnits="userSpaceOnUse" x1="290.6013" y1="288.8288" x2="290.4434" y2="236.8982">
					<stop  offset="0" style="stop-color:#211E28"/>
					<stop  offset="1" style="stop-color:#29146D"/>
				</linearGradient>
				<path class="st43" d="M292.3,241c0,0.1,0,0.2,0,0.2c-0.2,2.6-2.8,2.8-2.7,0.8c0.1-1.6-0.6-2.3-0.9-2.4c1.2-1.2,2.7-1.4,2.7-1.4
					C292.2,239.6,292.3,240.6,292.3,241z"/>
				<path class="st3" d="M212.5,189.9c0.7-4.5,2.8-6.1,3.8-6.6l1.5,0.8c0,0-0.1,0.1-0.2,0.2c-0.8,0.8-3.8,3.9-4.2,6.3L212.5,189.9z"
					/>
				<path class="st35" d="M183.1,145.2c-0.3,0-0.6,0.2-0.9,0.4c0,0,0,0,0,0c-2,1.4-4.1,5.9-4.1,5.9s-3-3-3.9-6.2
					c-0.3-0.9-0.3-1.8-0.1-2.5c0.3-1.8,1.4-3,1.4-3C176.3,142.4,179.9,144.7,183.1,145.2z"/>
				<linearGradient id="SVGID_37_" gradientUnits="userSpaceOnUse" x1="171.8951" y1="136.4714" x2="190.556" y2="136.4714">
					<stop  offset="0" style="stop-color:#FFF2D2"/>
					<stop  offset="1" style="stop-color:#FFCD9C"/>
				</linearGradient>
				<path class="st44" d="M185,145.5c-0.7,0.1-1.4,0.1-2.2,0c-3-0.5-6.4-2.7-7.1-5.1c-0.6-2.1-1.9-3-2.8-4.2l0,0
					c-0.5-0.7-0.9-1.5-0.9-2.8c-0.2-3.5,2-2.1,3.4-0.4c1.4,1.7-0.2,3.1,1.5,3.6c1.6,0.5,1.1-8.7,3.4-8.9c2.3-0.2,5.4,4.8,10.4-0.2
					c0,0-0.6,7.3-0.3,9c0.3,1.4-1,5.8-3.2,8c-0.5,0.4-1,0.8-1.5,1C185.3,145.4,185.1,145.4,185,145.5z"/>
				<linearGradient id="SVGID_38_" gradientUnits="userSpaceOnUse" x1="294.8256" y1="288.8161" x2="294.6678" y2="236.8854">
					<stop  offset="0" style="stop-color:#3F2B85"/>
					<stop  offset="1" style="stop-color:#232C5E"/>
				</linearGradient>
				<path class="st45" d="M289.5,242c-0.1,2,2.5,1.8,2.7-0.8c0,0,0-0.1,0-0.2l9.3,5.9l-6.7,3.9l-0.1,0l-6.6-4.5h0
					c-0.2-1.9-0.3-3.8-0.5-5.7c0.2-0.4,0.5-0.8,0.8-1C288.9,239.8,289.6,240.4,289.5,242z"/>
				<linearGradient id="SVGID_39_" gradientUnits="userSpaceOnUse" x1="271.2485" y1="288.888" x2="271.0906" y2="236.9572">
					<stop  offset="0" style="stop-color:#232C5E"/>
					<stop  offset="1" style="stop-color:#3F2B85"/>
				</linearGradient>
				<path class="st46" d="M259.7,157.3c-1.7-1.2-3.2-2.2-2.4-3.5c1.4-2.4,2.3,0.7,5.6-1.7c3.4-2.4,6.4-4.4,11.8-3.2
					c5.4,1.1,6.1,5.5,6.1,5.5s5.1,3.2,3.2,8.2c-1.4,3.5-4.1,6.6-5.5,8.1l-0.1-0.3c0,0-4.4,2.3-6.5,1.8c-2.1-0.5-5.2-1.5-4.4-2.8
					c0.8-1.4,2.6-4.2,0.9-5.1c-1.6-0.9-2.6,3.2-4,3.2c-1.4,0-0.2-4.2-1.5-6.9C262.7,159.3,261.1,158.3,259.7,157.3z"/>
				<linearGradient id="SVGID_40_" gradientUnits="userSpaceOnUse" x1="182.5522" y1="238.1419" x2="222.4955" y2="238.1419">
					<stop  offset="0" style="stop-color:#211E28"/>
					<stop  offset="1" style="stop-color:#29146D"/>
				</linearGradient>
				<path class="st47" d="M219,216.7c7.6,6.3,0.5,55,0.5,55s-1.6-0.4-3.4-1.1c-1.9-0.7-4.1-1.8-5.1-3.3c-0.3-0.5-0.5-1-0.6-1.5
					l-1-36.7l-26.9-10.6c4.1-2.9,14.1-10.4,15.3-13.8l0-0.1C202.9,206.9,213.3,212,219,216.7z"/>
				<linearGradient id="SVGID_41_" gradientUnits="userSpaceOnUse" x1="187.3904" y1="176.327" x2="197.8179" y2="176.327">
					<stop  offset="0" style="stop-color:#12285A"/>
					<stop  offset="1" style="stop-color:#294F91"/>
				</linearGradient>
				<path class="st48" d="M193.7,163.4l4.1,35.8l-2.7,4.2l-3.6,5.4l-0.1-2.7l-1.2-26.6c0,0,2-11.7,1.8-13.9
					c-0.2-2.2-4.5-19.5-4.5-19.5c0.3-0.5-0.1-1.3,0-2.2l4.1,0L193.7,163.4C193.7,163.4,193.7,163.4,193.7,163.4z"/>
				<linearGradient id="SVGID_42_" gradientUnits="userSpaceOnUse" x1="164.5003" y1="217.905" x2="197.8588" y2="217.905">
					<stop  offset="0" style="stop-color:#211E28"/>
					<stop  offset="1" style="stop-color:#29146D"/>
				</linearGradient>
				<path class="st49" d="M185.5,216.4c-1.7,1.3-3,2.1-3,2.1v5.5l-17.8,10.3l-0.2-21.2l3.3-7.1l17.2,6c0,0,0.1-6.3,0.2-7.9l6-2.6
					l0,0l0.3,7.2l3.6-5.4c0,0,1.1,0.5,2.8,1.3l0,0.1C196.6,208,189.6,213.5,185.5,216.4z"/>
				<path class="st3" d="M222.8,197.4c0.6-2,1.8-3.3,2.6-3.9c0.4-0.4,0.7-0.5,0.7-0.5l1.2,1.1c-2.2,0.9-4.1,4.6-3.5,6.2l-1.3-0.8
					C222.5,198.7,222.6,198,222.8,197.4z"/>
				<path class="st50" d="M189.3,165.1c-1.2-6.3-4-15.9-4-15.9s0.7-1.1,0.7-3c0.2,0.4,0.3,0.8,0.3,1.2L189.3,165.1z"/>
				<path class="st51" d="M190.2,179.5l-0.7-6.3c0.1-1.3,0.2-2.4,0.3-3.5c0.1-0.8,0-2.1-0.3-3.6l-0.2-1l-3-17.7c0,0,1.3-1.3,1.1-3.5
					h1c0,0,3.3,19.6,3.5,21.7C192.2,167.8,190.2,179.5,190.2,179.5z"/>
				<path class="st51" d="M183.5,176c0.5,2.6,0.8,5.6,1.1,8.8c-2.4-9.7-14.4-21.1-14.4-21.1l-0.2,0c0.4-4.4,0.3-9.3-1.6-11.7
					l3.1-7.6c0,0,2.2,16.9,8.7,23C181.7,168.7,182.8,171.9,183.5,176z"/>
				<linearGradient id="SVGID_43_" gradientUnits="userSpaceOnUse" x1="280.5732" y1="204.318" x2="294.4731" y2="204.318">
					<stop  offset="0" style="stop-color:#211E28"/>
					<stop  offset="1" style="stop-color:#29146D"/>
				</linearGradient>
				<path class="st52" d="M293.7,188.4c1.8,11.1,0.5,34.8-5,44.8c-0.8-5.7-1.9-18.1,0.1-32.3c2.7-19.5-8.2-25.3-8.2-25.3
					S291.8,176.7,293.7,188.4z"/>
				<path class="st53" d="M222.2,276.9c5.6,2.1,6.4,6.5,2.5,8.1c-3.8,1.6-8.4-3-9.7-4.7c-1.3-1.7-7.1-5-7-6.1
					c0.1-1.2,2.9-6.9,2.9-6.9c1,1.5,3.2,2.6,5.1,3.3l2.5,0.8L222.2,276.9z"/>
				<linearGradient id="SVGID_44_" gradientUnits="userSpaceOnUse" x1="298.3603" y1="288.8055" x2="298.2024" y2="236.8747">
					<stop  offset="0" style="stop-color:#3F2B85"/>
					<stop  offset="1" style="stop-color:#232C5E"/>
				</linearGradient>
				<polygon class="st54" points="301.6,246.9 301.6,272.4 295,276.3 295,251 294.9,250.8 				"/>
				<linearGradient id="SVGID_45_" gradientUnits="userSpaceOnUse" x1="138.9741" y1="204.4532" x2="149.9831" y2="204.4532">
					<stop  offset="0" style="stop-color:#FFF2D2"/>
					<stop  offset="1" style="stop-color:#FFCD9C"/>
				</linearGradient>
				<path class="st55" d="M150,203.2c-2.1,3.3-3.6,5.5-3.6,5.6c0,0,0,0,0,0c-0.5,0.5-1,1-1.6,1.2c-2.6,1.3-6.1-0.6-5.8-3.9
					c0.3-3.3,7.1-7.6,7.1-7.6S149.7,198.6,150,203.2z"/>
				<linearGradient id="SVGID_46_" gradientUnits="userSpaceOnUse" x1="164.3481" y1="188.3529" x2="185.172" y2="188.3529">
					<stop  offset="0" style="stop-color:#12285A"/>
					<stop  offset="1" style="stop-color:#294F91"/>
				</linearGradient>
				<path class="st56" d="M184.6,184.8c0.7,9.5,0.6,20,0.5,24.7c0,1.6-0.1,2.5-0.1,2.5l-17.2-6l-3.3,7.1v-33.2l-0.2-0.1
					c2.6-4.6,4.5-8.3,4.8-10c0.3-1.5,0.6-3.7,0.8-6.1l0.2,0C170.2,163.7,182.2,175.1,184.6,184.8z"/>
				<path class="st3" d="M187.6,182.8c1.1-1.5,1.6-5.8,1.9-9.6l0.7,6.3l1,22.1l0,0l-6,2.6c0.1-4.7,0.2-9.8-0.6-19.3
					c-0.2-3.1-0.6-6.1-1.1-8.8l1.4-0.3C185.7,179.6,186.7,184,187.6,182.8z"/>
				<path class="st53" d="M268.6,321.7c0.1,1.3,0.3,5-1.3,6.4c-1.5,1.3-3.4,0.9-6.9-0.1c-3-0.9-5.8-2-8.6-3.5l-5.8-3
					c-0.6-4.2-0.9-7.3,5.2-6.3c1.3,0.2,5.2,2.2,7.8,3.6c0,1.3,0,2.1,0,2.1S263.3,323.6,268.6,321.7z"/>
				<path class="st53" d="M291.9,315c-1.6,1.4-3.6,0.9-7.5-0.3c-0.4-0.1-0.8-0.2-1.2-0.4c-1.8-0.6-3.6-1.3-5.3-2.1l-7.3-3.7
					c-0.1-0.7-0.2-1.3-0.2-1.9c0.1-0.9,0.2-1.9,0.2-3c0.6-1.3,2-1.9,5.2-1.4c1.1,0.2,3.9,1.5,6.3,2.7c0.1,1.8,0.2,3.6,0.2,5.5
					c0,1.5,1.1,2.8,2.4,3.2c0.6,0.2,1.2,0.2,1.8,0c2.7-0.7,6-1.9,6.7-4c0,0,0-0.6-0.1-1.6l0.1,0C293.1,308.1,293.9,313.2,291.9,315z
					"/>
				<linearGradient id="SVGID_47_" gradientUnits="userSpaceOnUse" x1="146.1382" y1="176.8516" x2="170.1659" y2="176.8516">
					<stop  offset="0" style="stop-color:#211E28"/>
					<stop  offset="1" style="stop-color:#29146D"/>
				</linearGradient>
				<path class="st57" d="M168.4,151.9c1.9,2.4,2,7.4,1.6,11.7c-0.2,2.4-0.6,4.6-0.8,6.1c-0.3,1.7-2.2,5.4-4.8,10
					c-4.3,7.6-10.5,17.3-14.4,23.4c-0.3-4.5-3.8-4.7-3.8-4.7s11.3-36.4,12.7-41.2c1.4-4.8,3.2-5.8,3.2-5.8
					C165.2,149.9,167.2,150.4,168.4,151.9z"/>
				<linearGradient id="SVGID_48_" gradientUnits="userSpaceOnUse" x1="270.2601" y1="305.0756" x2="270.5464" y2="305.0756">
					<stop  offset="0" style="stop-color:#211E28"/>
					<stop  offset="1" style="stop-color:#29146D"/>
				</linearGradient>
				<path class="st58" d="M270.3,306.6c-0.1-1.2-0.1-2.2,0.2-3C270.5,304.6,270.4,305.6,270.3,306.6z"/>
				<linearGradient id="SVGID_49_" gradientUnits="userSpaceOnUse" x1="291.7524" y1="288.8256" x2="291.5945" y2="236.8948">
					<stop  offset="0" style="stop-color:#232C5E"/>
					<stop  offset="1" style="stop-color:#3F2B85"/>
				</linearGradient>
				<path class="st59" d="M295,251v25.3l-4.6-2.6c-0.7-8.7-1.4-18.1-2.2-27.3h0l6.6,4.5l0.1,0L295,251z"/>
				<linearGradient id="SVGID_50_" gradientUnits="userSpaceOnUse" x1="287.5739" y1="237.9956" x2="291.3435" y2="237.9956">
					<stop  offset="0" style="stop-color:#FFF2D2"/>
					<stop  offset="1" style="stop-color:#FFCD9C"/>
				</linearGradient>
				<path class="st60" d="M288.6,239.6c-0.3,0.3-0.6,0.6-0.8,1c-0.1-0.9-0.2-1.8-0.2-2.7v0l1.7-1.5c0,0-0.1-0.4-0.2-1.2
					c0,0,2.2,0.1,2.3,2.9C291.3,238.2,289.9,238.4,288.6,239.6z"/>
				<linearGradient id="SVGID_51_" gradientUnits="userSpaceOnUse" x1="214.2577" y1="191.6211" x2="225.3581" y2="191.6211">
					<stop  offset="0" style="stop-color:#FFF2D2"/>
					<stop  offset="1" style="stop-color:#FFCD9C"/>
				</linearGradient>
				<path class="st61" d="M214.4,190.4c-0.3-1.3,0-2.4,1-3.2c1.3-1,2.4-1.4,3.2-1.4c1.5,0,2.2,1.2,2.5,1.7c0.4,0.7,4.3,6,4.3,6
					c-0.8,0.6-2,1.9-2.6,3.9C219.1,197.2,215,193.5,214.4,190.4z"/>
				<linearGradient id="SVGID_52_" gradientUnits="userSpaceOnUse" x1="191.5196" y1="166.6864" x2="216.8824" y2="166.6864">
					<stop  offset="0" style="stop-color:#12285A"/>
					<stop  offset="1" style="stop-color:#294F91"/>
				</linearGradient>
				<path class="st62" d="M212.5,189.9c0,0-15.9-14.1-18.8-26.5c0,0,0,0,0,0l-2.2-19.5c0,0,2.2-2.9,7.7,8.1
					c5.6,11,13,27.5,17.7,31.1c0,0-0.2,0.1-0.6,0.2C215.3,183.8,213.2,185.4,212.5,189.9z"/>
				<linearGradient id="SVGID_53_" gradientUnits="userSpaceOnUse" x1="162.0009" y1="148.1195" x2="171.5536" y2="148.1195">
					<stop  offset="0" style="stop-color:#12285A"/>
					<stop  offset="1" style="stop-color:#294F91"/>
				</linearGradient>
				<path class="st63" d="M162,151.5l9.6-7.2l-3.1,7.6C167.2,150.4,165.2,149.9,162,151.5z"/>
				<path class="st64" d="M186.1,146.2c0,1.9-0.7,3-0.7,3h-1.2c-1.2-0.7-1.8-3.5-1.9-3.6c0,0,0,0,0,0c0.3-0.2,0.6-0.4,0.9-0.4
					c0.8,0.1,1.7,0.1,2.4,0C185.7,145.4,185.9,145.8,186.1,146.2z"/>
				<path class="st64" d="M189.5,173.2c-0.3,3.8-0.8,8.1-1.9,9.6c-0.9,1.2-1.9-3.2-2.6-7c-0.5-2.6-0.8-5-0.8-5l0-21.5h1.2
					c0,0,4.9,16.4,4.4,20.5C189.7,170.8,189.6,172,189.5,173.2z"/>
			</g>
			<line class="st50" x1="189.5" y1="166.1" x2="189.3" y2="165.1"/>
		</g>
	</g>
	<g>
		<g class="st65">
			<g>
				<linearGradient id="SVGID_54_" gradientUnits="userSpaceOnUse" x1="143.849" y1="161.3487" x2="210.9156" y2="161.3487">
					<stop  offset="0" style="stop-color:#D9FFFF"/>
					<stop  offset="1" style="stop-color:#81C8FF"/>
				</linearGradient>
				<polygon class="st66" points="210.8,85.5 210.9,121.3 144,237.2 143.8,192.5 203.1,90 				"/>
			</g>
			<g>
				<linearGradient id="SVGID_55_" gradientUnits="userSpaceOnUse" x1="143.755" y1="141.2535" x2="203.0771" y2="141.2535">
					<stop  offset="0" style="stop-color:#81C8FF"/>
					<stop  offset="1" style="stop-color:#D9FFFF"/>
				</linearGradient>
				<polygon class="st67" points="203.1,90 143.8,192.5 143.8,159.4 174.2,106.6 				"/>
			</g>
			<g>
				<linearGradient id="SVGID_56_" gradientUnits="userSpaceOnUse" x1="143.6554" y1="133.0056" x2="174.2247" y2="133.0056">
					<stop  offset="0" style="stop-color:#D9FFFF"/>
					<stop  offset="1" style="stop-color:#81C8FF"/>
				</linearGradient>
				<polygon class="st68" points="174.2,106.6 143.8,159.4 143.7,124.3 				"/>
			</g>
			<g>
				<linearGradient id="SVGID_57_" gradientUnits="userSpaceOnUse" x1="143.9756" y1="183.8344" x2="211.033" y2="183.8344">
					<stop  offset="0" style="stop-color:#81C8FF"/>
					<stop  offset="1" style="stop-color:#D9FFFF"/>
				</linearGradient>
				<polygon class="st69" points="210.9,121.3 144,237.2 144,246.4 172,230.2 211,162.7 				"/>
			</g>
		</g>
		<linearGradient id="SVGID_58_" gradientUnits="userSpaceOnUse" x1="138.9741" y1="204.4532" x2="149.9831" y2="204.4532">
			<stop  offset="0" style="stop-color:#FFF2D2"/>
			<stop  offset="1" style="stop-color:#FFCD9C"/>
		</linearGradient>
		<path class="st70" d="M150,203.2c-2.1,3.3-3.6,5.5-3.6,5.6c0,0,0,0,0,0c-0.5,0.5-1,1-1.6,1.2c-2.6,1.3-6.1-0.6-5.8-3.9
			c0.3-3.3,7.1-7.6,7.1-7.6S149.7,198.6,150,203.2z"/>
	</g>
	<g>
		<g class="st71">
			<g>
				<linearGradient id="SVGID_59_" gradientUnits="userSpaceOnUse" x1="131.4113" y1="147.5373" x2="134.7194" y2="147.5373">
					<stop  offset="0" style="stop-color:#FFF2D2"/>
					<stop  offset="1" style="stop-color:#FFCD9C"/>
				</linearGradient>
				<path class="st72" d="M133.6,143.6c0.1,0,0.2-0.1,0.2-0.1c0.3-0.1,0.6,0,0.8,0.5c0,0.1,0.1,0.3,0.1,0.6c0,0.1,0,0.1,0,0.2
					c0,2.1-1.2,5.3-3.3,6.8c0-0.2,0.1-0.2,0.1-0.2l0.3-3.3c0.1,0,1.3-0.8,1.3-2.8c0-0.1,0-0.3,0-0.4c0-0.1,0-0.2,0-0.3
					c0-0.2,0-0.4,0-0.6l0.1,0C133.2,144,133.3,143.8,133.6,143.6C133.6,143.6,133.6,143.6,133.6,143.6z"/>
			</g>
			<g>
				<path class="st73" d="M141.7,162.4c1.4-0.1,2.5-0.1,2.7,0.1c0.4,0.3,0.5,0.9,0.5,1.5c0,0.5-0.1,1.1-0.1,1.4
					c0,0.7,0.8,14.7,0.8,15.4l-7.7,4.4c0-0.1,0.2-15.8,0.3-16.5C138.4,168.1,141.6,162.7,141.7,162.4z"/>
			</g>
			<g>
				<path class="st73" d="M104.4,183.9c0.2,0.1,3.4,1.8,3.5,2.4c0.1,0.5,0.4,15.3,0.4,16.1l-7.7,4.4l0-0.2c0-0.8,0.7-15.5,0.7-16.1
					c0-0.3-0.1-0.8-0.1-1.3c0-0.6,0.1-1.3,0.5-2.1C101.9,186.7,103,185.5,104.4,183.9z"/>
			</g>
			<g class="st0">
				<g>
					<path class="st74" d="M133,163.5c0.3,0,5.3-0.9,8.7-1.1c-0.2,0.3-3.4,5.7-3.4,6.4c-0.1,0.6-0.3,16.4-0.3,16.5l-14.9,8.6l0-0.2
						l10.8-16.2l-3.3-2.4l4.2-3.1L133,163.5z"/>
				</g>
				<g>
					<polygon class="st73" points="130.5,162.2 133,163.5 134.8,171.9 130.6,175.1 133.9,177.5 123.1,193.7 123.1,191.6 
						128.3,176.5 					"/>
				</g>
				<g>
					<polygon class="st3" points="129.5,161.1 130.5,162.2 126.3,174.2 123.9,170.7 					"/>
				</g>
				<g>
					<polygon class="st75" points="130.5,162.2 128.3,176.5 123.1,191.6 117.8,182.6 115.5,170.9 119.8,177.9 122.2,171.7 
						123,171.2 123.9,170.7 126.3,174.2 					"/>
				</g>
				<g>
					<polygon class="st73" points="115.5,170.9 117.8,182.6 123.1,191.6 123.1,193.7 112.3,190 115.6,183.7 111.3,185.5 113.1,175 
											"/>
				</g>
				<g>
					<polygon class="st3" points="116.6,168.6 122.2,171.7 119.8,177.9 115.5,170.9 					"/>
				</g>
				<g>
					<linearGradient id="SVGID_60_" gradientUnits="userSpaceOnUse" x1="116.562" y1="164.6107" x2="129.4797" y2="164.6107">
						<stop  offset="0" style="stop-color:#FFF2D2"/>
						<stop  offset="1" style="stop-color:#FFCD9C"/>
					</linearGradient>
					<path class="st76" d="M129.5,157.5l0,3.6l-5.5,9.5l-0.9,0.5l-0.9,0.5l-5.6-3.1l0-3.6c0.5,0.5,1,1,1.6,1.2
						c2.3,0.7,1.8,1.2,4.7-0.4l0.3-0.2c2.9-1.7,2.4-1.6,4.7-5C128.5,159.7,129,158.6,129.5,157.5z"/>
				</g>
				<g>
					<path class="st74" d="M113.1,175l-1.7,10.4l4.2-1.7l-3.3,6.2l10.8,3.7l0,0.2l-14.9,8.6c0-0.8-0.3-15.6-0.4-16.1
						c-0.1-0.5-3.3-2.3-3.5-2.4C107.8,180.3,112.8,175.3,113.1,175z"/>
				</g>
				<g>
					<linearGradient id="SVGID_61_" gradientUnits="userSpaceOnUse" x1="119.3421" y1="152.3669" x2="131.7837" y2="152.3669">
						<stop  offset="0" style="stop-color:#FFF2D2"/>
						<stop  offset="1" style="stop-color:#FFCD9C"/>
					</linearGradient>
					<path class="st77" d="M126.7,139.5c0.2-0.1,0.3-0.2,0.6-0.3c0,0,0,0,0.1,0c0,0,0.1,0,0.1,0c0,0,0.1,0,0.1,0
						c2.5-0.9,1.5,3.3,3,3.7c0.7,0.2,0.9,1.1,0.9,2.1c0,1-0.2,2.1-0.2,2.6c0,0.1,0,0.2,0,0.3c0.1,0.4,0.2,0.4,0.3,0.4
						c0.1-0.1,0.1-0.1,0.1-0.1l-0.3,3.3c0,0,0,0.1-0.1,0.2c-0.2,0.8-0.9,3.4-1.9,5.9c-0.5,1.1-1,2.2-1.6,3.1c-2.3,3.3-1.8,3.3-4.7,5
						l-0.3,0.2c0-0.2-0.3-3.7-0.3-6.3c0-0.1,0-0.1,0-0.2c0,0,0,0-0.1,0c-0.1,0-0.1,0.1-0.2,0.1c-0.1,0-0.2,0.1-0.3,0.1
						c-0.1,0-0.1,0-0.2,0c-0.2,0-0.3,0.1-0.5,0c0,0,0,0-0.1,0c-0.1-0.1-0.1-0.1-0.2-0.1c0,0,0-0.1-0.1-0.1c0,0-0.1-0.1-0.1-0.2
						c0-0.1-0.1-0.2-0.1-0.4c0,0,0,0,0-0.1c0-1.4,1.4-3.4,1.4-6c0-2.5-2.8-4.9-3-9c0.1,0,0.2-0.1,0.2-0.1c0.9-0.3,0.7,0.9,3.2-0.5
						c0,0,0,0,0.1,0c0,0,0.1,0,0.1-0.1c0,0,0.1-0.1,0.1-0.1c1.4-0.8,2-1.5,2.4-2C125.8,140.4,126,139.9,126.7,139.5z"/>
				</g>
				<g>
					<linearGradient id="SVGID_62_" gradientUnits="userSpaceOnUse" x1="111.2572" y1="158.6286" x2="114.5903" y2="158.6286">
						<stop  offset="0" style="stop-color:#FFF2D2"/>
						<stop  offset="1" style="stop-color:#FFCD9C"/>
					</linearGradient>
					<path class="st78" d="M112.3,155.9C112.4,155.9,112.4,155.9,112.3,155.9c0.2-0.1,0.4-0.2,0.4-0.2c0,0,0,0,0,0l0.1,0
						c0,0.2,0,0.3,0,0.5c0,0.1,0,0.2,0,0.3c0,0.2,0,0.3,0,0.4c0,2,1.3,1.3,1.3,1.2l0.3,2.9c0,0,0,0.1,0.1,0.2
						c-2.1,0.9-3.3-0.9-3.3-3c0-0.1,0-0.1,0-0.2c0-1.2,0.5-1.8,0.9-2.1C112.2,156,112.3,156,112.3,155.9z"/>
				</g>
				<g>
					<path class="st74" d="M122.8,134.1c0.1-0.1,0.1-0.1,0.2-0.1c0,0,0.1,0,0.1-0.1c6.5-3.7,8.1-2.1,8.3-1.2c0,0,0,0.1,0,0.1
						c0,0.9,2.8,2.4,3.3,4.6c0.1,0.2,0.1,0.4,0.1,0.6c0,1.8-1.4,4.1-1.7,6c0,0.2,0,0.4,0,0.6c0,0.1,0,0.2,0,0.3c0,0.1,0,0.3,0,0.4
						c0,2-1.2,2.7-1.3,2.8c0,0,0,0-0.1,0.1c-0.2,0.1-0.3,0.1-0.4-0.3c0-0.1,0-0.2,0-0.3c0-0.6,0.2-1.7,0.2-2.7c0-1-0.2-1.9-0.9-2.1
						c-1.5-0.4-0.5-4.6-3-3.7c0,0-0.1,0-0.1,0c0,0-0.1,0-0.1,0c0,0-0.1,0-0.1,0c-0.2,0.1-0.4,0.2-0.6,0.3c-0.7,0.4-0.9,0.8-1.3,1.4
						c-0.4,0.6-0.9,1.2-2.4,2c0,0-0.1,0.1-0.1,0.1c0,0-0.1,0-0.1,0.1c-2.5,1.4-2.4,0.3-3.2,0.6c-0.1,0-0.2,0.1-0.2,0.1
						c0,0-0.1,0-0.1,0.1c-0.1,0-0.2,0.1-0.3,0.2c-0.2,0.1-0.3,0.2-0.6,0.4c-2.5,2-1.5,5-3,7.1c-0.7,1-0.9,2.1-0.9,3.1
						c0,1,0.2,1.9,0.2,2.4c0,0.7-0.2,1-0.3,1.1c-0.1,0.1-0.1,0.1-0.1,0.1c-0.1,0-1.3,0.7-1.3-1.2c0-0.1,0-0.3,0-0.4
						c0-0.1,0-0.2,0-0.3c0-0.2,0-0.3,0-0.5c-0.3-1.6-1.7-2.2-1.7-4c0-0.2,0-0.5,0.1-0.8c0.5-2.7,3.3-7.5,3.3-8.4
						C114.6,141.7,116,138,122.8,134.1z"/>
				</g>
				<g>
					<path class="st79" d="M147.4,115.4l0.2,64.3l-1.9,1.1c0-0.7-0.8-14.8-0.8-15.4c0-0.3,0.1-0.9,0.1-1.4c0-0.6-0.1-1.2-0.5-1.5
						c-0.2-0.2-1.3-0.2-2.7-0.1c-3.4,0.3-8.4,1.1-8.7,1.1l-2.5-1.3l-1.1-1.1l0-3.6c1.1-2.5,1.8-5.1,1.9-5.9c2.1-1.5,3.3-4.7,3.3-6.8
						c0-0.1,0-0.1,0-0.2c0-0.2,0-0.4-0.1-0.6c-0.1-0.6-0.5-0.6-0.8-0.5c-0.1,0-0.2,0.1-0.2,0.1c-0.3,0.2-0.5,0.4-0.5,0.4
						c0.2-1.9,1.6-4.1,1.6-5.9c0-0.2,0-0.4-0.1-0.6c-0.5-2.1-3.3-3.7-3.3-4.6c-0.2-1.1-1.8-2.7-8.2,1c-7.1,4.1-8.5,7.7-8.6,8.7
						c0,0.9-2.8,5.7-3.3,8.4c-0.1,0.3-0.1,0.5-0.1,0.8c0,1.8,1.4,2.4,1.7,4c-0.2,0.1-0.3,0.1-0.5,0.2c-0.6,0.4-1.1,1-1.2,2.3
						c0,0.1,0,0.1,0,0.2c0,2.1,1.3,3.9,3.3,3c0.2,0.6,0.9,2.4,2,3.7l0,3.6l-1.1,2.3l-2.5,4.1c-0.3,0.3-5.3,5.3-8.7,8.9
						c-1.4,1.5-2.5,2.8-2.7,3.2c-0.4,0.8-0.5,1.5-0.5,2.1c0,0.6,0.1,1,0.1,1.3c0,0.7-0.7,15.3-0.7,16.1l-1.9,1.3l-0.2-64.3
						L147.4,115.4z"/>
				</g>
				<g>
					<linearGradient id="SVGID_63_" gradientUnits="userSpaceOnUse" x1="114.1992" y1="155.2959" x2="122.8927" y2="155.2959">
						<stop  offset="0" style="stop-color:#FFF2D2"/>
						<stop  offset="1" style="stop-color:#FFCD9C"/>
					</linearGradient>
					<path class="st80" d="M122.5,159.2C122.5,159.2,122.5,159.3,122.5,159.2c-0.1,0.1-0.2,0.1-0.3,0.2c-0.1,0-0.2,0.1-0.3,0.1
						c-0.1,0-0.1,0-0.2,0c-0.2,0-0.3,0.1-0.5,0c0,0,0,0-0.1-0.1c0,0-0.1,0-0.1-0.1c0,0,0,0-0.1-0.1c0,0-0.1-0.1-0.1-0.2
						c0-0.1-0.1-0.2-0.1-0.4c0,0,0,0,0-0.1c0-1.4,1.4-3.4,1.4-6c0-2.5-2.8-4.9-3-9c0,0,0,0-0.1,0c0,0,0,0,0,0c0,0,0,0-0.1,0
						c-0.1,0-0.1,0.1-0.2,0.1c0,0,0,0-0.1,0c0,0,0,0-0.1,0c-0.1,0-0.1,0.1-0.2,0.1c0,0,0,0-0.1,0.1c-0.1,0.1-0.1,0.1-0.2,0.2
						c-0.3,0.3-0.6,0.5-0.8,0.8c0,0-0.1,0.1-0.1,0.1s-0.1,0.1-0.1,0.1c0,0,0,0,0,0.1c-0.2,0.3-0.3,0.6-0.5,0.9c0,0.1,0,0.1-0.1,0.2
						c-0.1,0.3-0.2,0.6-0.3,0.9c0,0,0,0,0,0.1c0,0.1-0.1,0.2-0.1,0.4c0,0,0,0,0,0.1c0,0.1,0,0.2,0,0.2c0,0,0,0,0,0.1
						c0,0.1,0,0.1,0,0.2c0,0,0,0.1,0,0.1c0,0.1,0,0.2-0.1,0.3c0,0,0,0,0,0.1c0,0.1,0,0.2-0.1,0.3c0,0,0,0.1,0,0.1
						c-0.1,0.4-0.2,0.8-0.3,1.2c0,0,0,0,0,0.1c-0.1,0.4-0.3,0.7-0.5,1c-0.2,0.3-0.3,0.5-0.5,0.8c0,0,0,0.1,0,0.1
						c0,0.1-0.1,0.2-0.1,0.3c-0.2,0.7-0.3,1.3-0.3,1.9c0,0.1,0,0.1,0,0.2c0,0.9,0.2,1.7,0.2,2.2c0,0,0,0,0,0c0,0,0,0,0,0
						c0,0.3,0,0.5-0.1,0.6c-0.1,0.2-0.2,0.4-0.3,0.4c0,0,0,0,0,0c0,0,0,0,0,0c-0.1,0-0.1,0-0.1,0c0,0,0,0,0,0l0.3,2.9
						c0,0,0,0.1,0.1,0.2c0.2,0.6,0.9,2.4,2,3.7c0.5,0.5,1,1,1.6,1.2c2.3,0.7,1.8,1.2,4.7-0.4c0-0.2-0.3-3.7-0.3-6.3
						C122.5,159.4,122.5,159.3,122.5,159.2z"/>
				</g>
			</g>
		</g>
		<g>
			<g>
				<polygon class="st3" points="123,181.8 124,183.6 126.3,182.6 124.7,185.5 125,187.9 123,187.8 120.9,190.2 121.3,187.4 
					119.7,186.5 122,184.8 				"/>
			</g>
			<g>
				<polygon class="st3" points="115.1,186.3 116.1,188.1 118.4,187.2 116.8,190 117.2,192.4 115.1,192.4 113.1,194.8 113.5,191.9 
					111.8,191 114.1,189.3 				"/>
			</g>
			<g>
				<polygon class="st3" points="130.8,176.9 131.9,178.7 134.2,177.7 132.5,180.6 132.9,183 130.8,182.9 128.8,185.3 129.2,182.5 
					127.5,181.6 129.8,179.9 				"/>
			</g>
		</g>
	</g>
	<g>
		<g class="st71">
			<g class="st0">
				<g>
					<path class="st73" d="M247.4,113.9c1.2-0.1,2.2-0.1,2.4,0.1c0.4,0.3,0.5,0.8,0.5,1.3c0,0.5-0.1,0.9-0.1,1.2
						c0,0.6,1.8,11.5,1.9,12.1l0,0.5l-6.7,3.9l0-0.5c0-0.6-0.9-11.6-0.9-12.9c0,0,0-0.1,0-0.1C244.5,118.9,247.3,114.1,247.4,113.9z
						"/>
				</g>
				<g>
					<path class="st74" d="M239.9,114.9l5.2-0.7c0.6-0.1,1.2-0.1,1.7-0.2c0.2,0,0.4,0,0.6-0.1c0,0-2.9,5-3,5.5c0,0,0,0.1,0,0.1
						c0,1.3,0.9,12.3,0.9,12.9l0,0.5l-14.1,8.2l9.4-14l-2.9-2.1l3.7-2.7L239.9,114.9z"/>
				</g>
				<g>
					<polygon class="st73" points="237.7,113.8 239.9,114.9 241.4,122.2 237.7,124.9 240.6,127 231.3,141.1 231.3,139.2 
						235.8,126.2 					"/>
				</g>
				<g>
					<polygon class="st3" points="236.8,112.8 237.7,113.8 234,124.1 232,121.1 236.3,113.7 					"/>
				</g>
				<g>
					<polygon class="st75" points="237.7,113.8 235.8,126.2 231.3,139.2 226.7,131.4 224.7,121.3 228.4,127.4 230.4,122 
						231.2,121.5 232,121.1 234,124.1 					"/>
				</g>
				<g>
					<path class="st74" d="M222.5,124.9l-1.5,9.1l3.7-1.5l-2.8,5.4l9.4,3.2l-13.5,7.8l0-0.5c0-0.6,0.3-11.1,0.3-13.3
						c0-0.2,0-0.3,0-0.4c-0.1-0.5-2.9-2-3-2.1c0.4-0.4,0.9-0.9,1.3-1.4c0.2-0.3,0.5-0.5,0.8-0.8L222.5,124.9z"/>
				</g>
				<g>
					<polygon class="st73" points="226.7,131.4 231.3,139.2 231.3,141.1 221.9,137.8 224.7,132.4 221,133.9 222.5,124.9 
						224.7,121.3 					"/>
				</g>
				<g>
					<polygon class="st3" points="225.6,119.3 226.1,119.5 230.4,122 228.4,127.4 224.7,121.3 					"/>
				</g>
				<g>
					<path class="st73" d="M215,132.6c0.1,0.1,2.9,1.6,3,2.1c0,0,0,0.2,0,0.4c0,2.3-0.3,12.8-0.3,13.3l0,0.5l-6.7,3.9l0-0.5
						c0.1-0.7,1.2-13.3,1.2-13.9c0-0.3-0.1-0.7-0.1-1.1c0-0.5,0.1-1.1,0.4-1.8C212.8,135,213.8,133.9,215,132.6z"/>
				</g>
				<g>
					<linearGradient id="SVGID_64_" gradientUnits="userSpaceOnUse" x1="222.4929" y1="105.2642" x2="231.181" y2="105.2642">
						<stop  offset="0" style="stop-color:#FFF2D2"/>
						<stop  offset="1" style="stop-color:#FFCD9C"/>
					</linearGradient>
					<path class="st81" d="M228.8,95.8c0.9,2,2,3.5,2,5.1c0,2.6-1.4,4.5-1.4,6c0,0,0,0,0,0.1c0,0,0,0,0,0.1c0,0.1,0,0.2,0.1,0.3
						c0,0.1,0,0.1,0.1,0.2c0,0,0,0.1,0.1,0.1c0,0,0.1,0.1,0.1,0.1c0,0,0,0,0,0c0,0,0,0,0,0c0,0,0,0,0.1,0c0.1,0,0.3,0,0.5,0
						c0.1,0,0.1,0,0.2,0c0.1,0,0.2-0.1,0.3-0.1c0.1,0,0.1-0.1,0.2-0.1c0.1,0,0.1-0.1,0.1-0.1c0,0.1,0,0.2,0,0.3c0,2.7,0.2,7,0.2,7.2
						c-0.1,0-2.2,0.1-4.5-0.6c-0.6-0.2-1.2-0.6-1.6-1.2c-1.3-1.5-2-3.7-2-3.8l-0.3-2.4c-0.1-0.4-0.2-0.8-0.2-1.3
						c0-0.8,0.1-1.7,0.4-2.6c0.3-1.1,0.9-2.2,1.6-3.1c1.1-1.6,2.6-2.7,3.9-3.7C228.5,95.9,228.6,95.9,228.8,95.8z"/>
				</g>
				<g>
					<path class="st79" d="M256.3,62.2l0.2,64.3l-4.4,2.5l0-0.5c-0.1-0.6-1.9-11.5-1.9-12.1c0-0.3,0.1-0.7,0.1-1.2
						c0-0.5-0.1-1-0.5-1.3c-0.2-0.2-1.1-0.2-2.4-0.1c-0.2,0-0.4,0-0.6,0.1c0.8-1.4,1.1-2.6,1-3.7c0-1-0.3-2-0.7-2.6
						c-0.9-1.4-2.3-2.1-3.2-3.5c-0.9-1.5-1.1-3.5-1.2-5.8c0-0.7,0-1.4,0-2.1c0.1-1.8,0.2-3.7,0.2-5.4c0-1.1-0.1-2.2-0.2-3.2
						c-0.8-4.2-3.8-6.6-7.6-6.1c-0.1,0-0.2,0-0.3,0c-1.2,0.2-2.6,0.7-3.9,1.5c-2.8,1.7-5.5,4.2-7.6,7.3c-2.9,4.3-4.6,9.5-4.6,13.7
						c0,0.5,0,1,0.1,1.5c0.3,2.3,1.1,4.1,1.7,6.1c0.4,1.3,0.7,2.8,0.7,4.3c0,0.8-0.1,1.7-0.3,2.6c-0.9,4.1-3.8,8.5-4.8,12.6
						c-0.5,0.5-0.9,1-1.3,1.4c-1.2,1.3-2.2,2.4-2.4,2.8c-0.4,0.7-0.4,1.3-0.4,1.8c0,0.5,0.1,0.9,0.1,1.1c0,0.6-1.2,13.2-1.2,13.9
						l0,0.5l-3.6,2.1l-0.2-64.3L256.3,62.2z"/>
				</g>
				<g>
					<path class="st74" d="M231,83.1c1.4-0.8,2.7-1.3,3.9-1.5c0.1,0,0.2,0,0.3,0c3.9-0.5,6.9,1.8,7.6,6.1c0.2,1,0.2,2.1,0.2,3.2
						c0,1.8-0.1,3.6-0.2,5.4c0,0.7-0.1,1.4,0,2.1c0,2.2,0.3,4.3,1.2,5.8c0.9,1.4,2.3,2.1,3.2,3.5c0.4,0.7,0.7,1.6,0.7,2.6
						c0,1.1-0.3,2.3-1,3.5l-0.1,0.2c-0.5,0-1.1,0.1-1.7,0.2l-5.2,0.7l-2.2-1.1l-0.9-1l-0.5,0.9l-0.7-4.2c0.2-0.3,0.4-0.6,0.6-0.9
						c0.6-0.9,1.2-2,1.6-3.1c1.3-3,2-6,2-6.2l0.2-2c0-0.2,0-0.4,0-0.6c0-0.2,0-0.4,0-0.6c0-0.8-0.1-1.5-0.2-2.2
						c-0.2-1.2-0.6-2.2-1.4-2.8c-0.7-0.5-1.5-0.8-2.2-1.3c-0.6-0.5-1.2-1.3-1.2-2.4c-0.1,0.1-0.2,0.2-0.3,0.2
						c-0.1,1.6-1.1,3.5-2.4,4.9c-1.1,1.3-2.4,2.2-3.7,3.1c-0.1,0.1-0.2,0.2-0.4,0.3c-1.4,1-2.8,2.1-3.9,3.7c-0.7,1-1.2,2-1.6,3.1
						c-0.3,0.9-0.4,1.8-0.4,2.6c0,0.5,0.1,0.9,0.2,1.3l0.3,2.4c0,0.1,0.7,2.3,2,3.8c0.5,0.6,1,1,1.6,1.2l-0.5,5.4l-0.5-0.3l-0.9,2
						l-2.1,3.6l-5.5,5.6c-0.3,0.3-0.5,0.5-0.8,0.8c1-4.1,4-8.5,4.8-12.6c0.2-0.9,0.3-1.8,0.3-2.6c0-1.6-0.3-3-0.7-4.3
						c-0.6-2-1.4-3.8-1.7-6.1c-0.1-0.5-0.1-1-0.1-1.5c0-4.2,1.7-9.4,4.6-13.7c2.1-3.1,4.7-5.6,7.4-7.2C231,83.1,231,83.1,231,83.1z"
						/>
				</g>
			</g>
			<g>
				<linearGradient id="SVGID_65_" gradientUnits="userSpaceOnUse" x1="228.7617" y1="101.1483" x2="240.09" y2="101.1483">
					<stop  offset="0" style="stop-color:#FFF2D2"/>
					<stop  offset="1" style="stop-color:#FFCD9C"/>
				</linearGradient>
				<path class="st82" d="M235.1,87.5c0,1.1,0.5,1.9,1.2,2.4c0.7,0.5,1.5,0.8,2.2,1.3c0.7,0.5,1.1,1.6,1.4,2.8
					c0.1,0.7,0.2,1.5,0.2,2.2c0,0.2,0,0.4,0,0.6c0,0.2,0,0.4,0,0.6l-0.2,2c0,0.2-0.7,3.2-2,6.2c-0.5,1.1-1,2.2-1.6,3.1
					c-0.2,0.3-0.4,0.6-0.6,0.9c-2.1,2.9-4.1,5-4.2,5.1l-0.3,0.2c0-0.2-0.2-4.5-0.2-7.2c0-0.1,0-0.2,0-0.3c0,0,0,0-0.1,0
					c-0.1,0-0.1,0.1-0.2,0.1c-0.1,0-0.2,0.1-0.3,0.1c-0.1,0-0.1,0-0.2,0c-0.2,0-0.3,0.1-0.5,0c0,0,0,0-0.1,0
					c-0.1-0.1-0.1-0.1-0.2-0.1c0,0,0-0.1-0.1-0.1c0,0-0.1-0.1-0.1-0.2c0-0.1,0-0.2-0.1-0.3c0-0.1,0-0.1,0-0.1c0-1.4,1.4-3.4,1.4-6
					c0-1.6-1.1-3.1-2-5.1c1.3-0.9,2.5-1.8,3.7-3.1c1.2-1.4,2.3-3.3,2.4-4.9C234.9,87.7,235,87.6,235.1,87.5z"/>
			</g>
			<g>
				<linearGradient id="SVGID_66_" gradientUnits="userSpaceOnUse" x1="226.0893" y1="115.7472" x2="236.2832" y2="115.7472">
					<stop  offset="0" style="stop-color:#FFF2D2"/>
					<stop  offset="1" style="stop-color:#FFCD9C"/>
				</linearGradient>
				<path class="st83" d="M226.6,114.2c2.3,0.7,4.4,0.6,4.5,0.6l0.3-0.2c0.1-0.1,2.1-2.2,4.2-5.1l0.7,4.2l-4.3,7.4l-0.8,0.5
					l-0.8,0.4l-4.3-2.4L226.6,114.2z"/>
			</g>
		</g>
		<g>
			<g>
				<polygon class="st3" points="228.8,132.3 229.8,134.1 232.1,133.1 230.4,136 230.8,138.4 228.8,138.3 226.7,140.7 227.1,137.9 
					225.5,137 227.7,135.3 				"/>
			</g>
			<g>
				<polygon class="st3" points="220.9,136.8 221.9,138.6 224.2,137.7 222.6,140.5 223,142.9 220.9,142.9 218.9,145.3 219.3,142.4 
					217.6,141.5 219.9,139.8 				"/>
			</g>
			<g>
				<polygon class="st3" points="236.6,127.4 237.6,129.2 239.9,128.2 238.3,131.1 238.7,133.5 236.6,133.4 234.6,135.8 235,133 
					233.3,132.1 235.6,130.4 				"/>
			</g>
			<g>
				<polygon class="st3" points="244.4,123.2 245.5,125 247.8,124 246.1,126.8 246.5,129.2 244.5,129.2 242.4,131.6 242.8,128.7 
					241.1,127.8 243.4,126.1 				"/>
			</g>
		</g>
	</g>
</g>
<rect class="st50" width="400" height="400"/>
</svg>
