<svg xmlns="http://www.w3.org/2000/svg" xmlns:xlink="http://www.w3.org/1999/xlink" width="30.216" height="30.216" viewBox="0 0 30.216 30.216"><defs><style>.a{fill:#131313;}.b{filter:url(#a);}</style><filter id="a" x="0" y="0" width="30.216" height="30.216" filterUnits="userSpaceOnUse"><feOffset dy="3" input="SourceAlpha"/><feGaussianBlur stdDeviation="1" result="b"/><feFlood flood-opacity="0.161"/><feComposite operator="in" in2="b"/><feComposite in="SourceGraphic"/></filter></defs><g class="b" transform="matrix(1, 0, 0, 1, 0, 0)"><path class="a" d="M19.171,0H5.045A5.045,5.045,0,0,0,0,5.045V19.171a5.045,5.045,0,0,0,5.045,5.045H19.171a5.045,5.045,0,0,0,5.045-5.045V5.045A5.045,5.045,0,0,0,19.171,0ZM8.072,19.171H5.045V8.072H8.072ZM6.558,6.792a1.78,1.78,0,1,1,1.766-1.78A1.773,1.773,0,0,1,6.558,6.792ZM20.18,19.171H17.153V13.516c0-3.4-4.036-3.141-4.036,0v5.654H10.09V8.072h3.027V9.853c1.409-2.609,7.063-2.8,7.063,2.5Z" transform="translate(3)"/></g></svg>