<svg xmlns="http://www.w3.org/2000/svg" xmlns:xlink="http://www.w3.org/1999/xlink" width="35.301" height="30.216" viewBox="0 0 35.301 30.216"><defs><style>.a{fill:#131313;}.b{filter:url(#a);}</style><filter id="a" x="0" y="0" width="35.301" height="30.216" filterUnits="userSpaceOnUse"><feOffset dy="3" input="SourceAlpha"/><feGaussianBlur stdDeviation="1" result="b"/><feFlood flood-opacity="0.161"/><feComposite operator="in" in2="b"/><feComposite in="SourceGraphic"/></filter></defs><g class="b" transform="matrix(1, 0, 0, 1, 0, 0)"><path class="a" d="M29.3,5.115a11.846,11.846,0,0,1-3.453.962,6.106,6.106,0,0,0,2.643-3.382,11.921,11.921,0,0,1-3.818,1.484,5.955,5.955,0,0,0-4.388-1.931A6.094,6.094,0,0,0,14.43,9.753,16.973,16.973,0,0,1,2.04,3.367,6.185,6.185,0,0,0,3.9,11.529a5.91,5.91,0,0,1-2.721-.765A6.1,6.1,0,0,0,6,16.835a5.928,5.928,0,0,1-2.715.1A6.03,6.03,0,0,0,8.9,21.185,11.943,11.943,0,0,1,0,23.717a16.813,16.813,0,0,0,9.215,2.746c11.161,0,17.467-9.586,17.086-18.184a12.356,12.356,0,0,0,3-3.165Z" transform="translate(3 -2.25)"/></g></svg>