<svg xmlns="http://www.w3.org/2000/svg" width="120" height="120" viewBox="0 0 120 120">
  <g id="Group_3071" data-name="Group 3071" transform="translate(-749 -2114)">
    <rect id="Rectangle_1012" data-name="Rectangle 1012" width="120" height="120" transform="translate(749 2114)" fill="#fff"/>
    <g id="IT-services1" transform="translate(782 2142)">
      <g id="Group_43" data-name="Group 43" transform="translate(0 0)">
        <g id="Group_42" data-name="Group 42">
          <g id="Group_41" data-name="Group 41">
            <g id="Group_26" data-name="Group 26" transform="translate(0 11.206)">
              <path id="Path_3" data-name="Path 3" d="M69.253,63.049H22.334a3.47,3.47,0,0,1-3.41-3.518V25.417a3.467,3.467,0,0,1,3.41-3.514H31.6a.534.534,0,0,1,0,1.068h-9.27a2.4,2.4,0,0,0-2.342,2.446V59.531a2.4,2.4,0,0,0,2.342,2.45H69.253a2.465,2.465,0,0,0,2.415-2.45V25.417a2.433,2.433,0,0,0-2.415-2.446H60.121a.534.534,0,1,1,0-1.068h9.132a3.5,3.5,0,0,1,3.484,3.514V59.531A3.508,3.508,0,0,1,69.253,63.049Z" transform="translate(-18.924 -21.903)" fill="#8010ff" stroke="#8010ff" stroke-width="1"/>
            </g>
            <g id="Group_27" data-name="Group 27" transform="translate(0.001 42.56)">
              <path id="Path_4" data-name="Path 4" d="M69.742,41.085H21.915A3.041,3.041,0,0,1,18.925,38a.534.534,0,0,1,1.068,0,1.975,1.975,0,0,0,1.923,2.017H69.743A1.974,1.974,0,0,0,71.668,38a.534.534,0,0,1,1.068,0A3.044,3.044,0,0,1,69.742,41.085Z" transform="translate(-18.925 -37.468)" fill="#8010ff" stroke="#8010ff" stroke-width="1"/>
            </g>
            <g id="Group_28" data-name="Group 28" transform="translate(17.836 51.285)">
              <path id="Path_5" data-name="Path 5" d="M45.325,52.441a.062.062,0,0,1-.016,0h-17a.534.534,0,0,1-.517-.669L30.325,42.2a.535.535,0,0,1,.516-.4H42.848a.533.533,0,0,1,.517.4l2.428,9.452a.543.543,0,0,1,.064.253A.531.531,0,0,1,45.325,52.441Zm-16.32-1.068H44.622l-2.186-8.505H31.254Z" transform="translate(-27.778 -41.8)" fill="#8010ff" stroke="#8010ff" stroke-width="1"/>
            </g>
            <g id="Group_29" data-name="Group 29" transform="translate(25.277 47.025)">
              <path id="Path_6" data-name="Path 6" d="M33.065,43.026a1.635,1.635,0,0,1-1.592-1.671,1.624,1.624,0,1,1,3.246,0A1.643,1.643,0,0,1,33.065,43.026Zm0-2.273a.631.631,0,0,0-.522.6.556.556,0,1,0,1.109,0A.626.626,0,0,0,33.065,40.753Z" transform="translate(-31.473 -39.685)" fill="#8010ff" stroke="#8010ff" stroke-width="1"/>
            </g>
            <g id="Group_30" data-name="Group 30" transform="translate(12.426 60.858)">
              <path id="Path_7" data-name="Path 7" d="M53.51,50.672H25.627a.534.534,0,0,1-.534-.534V47.085a.533.533,0,0,1,.534-.533H53.51a.534.534,0,0,1,.534.533v3.053A.534.534,0,0,1,53.51,50.672ZM26.16,49.6H52.976V47.62H26.16Z" transform="translate(-25.093 -46.552)" fill="#8010ff" stroke="#8010ff" stroke-width="1"/>
            </g>
            <g id="Group_31" data-name="Group 31" transform="translate(11.727 0.001)">
              <path id="Path_8" data-name="Path 8" d="M39.888,46.914a15.288,15.288,0,1,1,15.14-15.29A15.234,15.234,0,0,1,39.888,46.914Zm0-29.509A14.221,14.221,0,1,0,53.96,31.623,14.163,14.163,0,0,0,39.888,17.406Z" transform="translate(-24.746 -16.34)" fill="#8010ff" stroke="#8010ff" stroke-width="1"/>
            </g>
            <g id="Group_33" data-name="Group 33" transform="translate(18.889 0.001)">
              <g id="Group_32" data-name="Group 32">
                <path id="Path_9" data-name="Path 9" d="M36.282,46.914c-2.685,0-5.158-2.493-6.616-6.669a.534.534,0,0,1,.291-.667,1.264,1.264,0,0,0,.746-.907,1,1,0,0,0-.238-.775,1.017,1.017,0,0,0-.786-.352.745.745,0,0,1-.351.077.535.535,0,0,1-.522-.425,27.264,27.264,0,0,1-.5-5.572,30.056,30.056,0,0,1,.572-5.849.535.535,0,0,1,.524-.43h.351a.988.988,0,0,0,1.011-.793v-.162a.986.986,0,0,0-.689-.981.535.535,0,0,1-.33-.7c1.544-4.049,3.929-6.372,6.542-6.372,2.819,0,5.28,2.561,6.754,7.028a3.948,3.948,0,0,1,.287.862c.005.014.009.027.013.042a26.377,26.377,0,0,1,1,7.353,27.533,27.533,0,0,1-.573,5.572.534.534,0,0,1-.8.35h-.075a.979.979,0,0,0-.941,1.032.857.857,0,0,0,.635.9.533.533,0,0,1,.389.694C41.5,44.454,39.065,46.914,36.282,46.914Zm-5.457-6.607c1.31,3.478,3.331,5.539,5.458,5.539,2.169,0,4.207-2.065,5.507-5.553a1.966,1.966,0,0,1-.915-1.717,2.037,2.037,0,0,1,1.935-2.1,26.591,26.591,0,0,0,.454-4.855A25.607,25.607,0,0,0,42.431,25a35.889,35.889,0,0,1-5.949.517h-.058a.062.062,0,0,1-.016,0h0a35.8,35.8,0,0,1-4.737-.32,2.035,2.035,0,0,1-1.828,1.215,29.051,29.051,0,0,0-.469,5.214,27.4,27.4,0,0,0,.383,4.855,2.077,2.077,0,0,1,2,2.39A2.377,2.377,0,0,1,30.825,40.307ZM36.4,24.448h.012a34.856,34.856,0,0,0,5.726-.482c-.026-.065-.052-.13-.083-.192-1.329-4.013-3.475-6.366-5.769-6.366-2.056,0-4,1.9-5.367,5.236a2.052,2.052,0,0,1,.9,1.494h0a35,35,0,0,0,4.543.311Z" transform="translate(-28.301 -16.34)" fill="#8010ff" stroke="#8010ff" stroke-width="1"/>
              </g>
            </g>
            <g id="Group_34" data-name="Group 34" transform="translate(11.727 14.75)">
              <path id="Path_10" data-name="Path 10" d="M54.494,24.73H25.28a.534.534,0,0,1,0-1.068H54.494a.534.534,0,0,1,0,1.068Z" transform="translate(-24.746 -23.662)" fill="#8010ff" stroke="#8010ff" stroke-width="1"/>
            </g>
            <g id="Group_35" data-name="Group 35" transform="translate(26.335)">
              <path id="Path_11" data-name="Path 11" d="M32.532,46.915A.534.534,0,0,1,32,46.381V16.873a.534.534,0,1,1,1.068,0V46.381A.534.534,0,0,1,32.532,46.915Z" transform="translate(-31.998 -16.339)" fill="#8010ff" stroke="#8010ff" stroke-width="1"/>
            </g>
            <g id="Group_36" data-name="Group 36" transform="translate(14.534 5.958)">
              <path id="Path_12" data-name="Path 12" d="M31.942,23.412a2.017,2.017,0,0,1-2.008-1.952c-1.119-.264-2.272-.594-3.431-.981a.534.534,0,0,1,.339-1.012c1.114.374,2.22.691,3.294.946A2.123,2.123,0,0,1,31.942,19.3a2.086,2.086,0,0,1,2.064,1.844,34.9,34.9,0,0,0,16.16-1.674.533.533,0,0,1,.344,1.01A35.946,35.946,0,0,1,33.86,22.2,2.041,2.041,0,0,1,31.942,23.412ZM31,21.1v.288a.95.95,0,0,0,.941.955.988.988,0,0,0,1.011-.793v-.162a1.033,1.033,0,0,0-1.011-1.027A1.054,1.054,0,0,0,31,21.1Z" transform="translate(-26.139 -19.297)" fill="#8010ff" stroke="#8010ff" stroke-width="1"/>
            </g>
            <g id="Group_37" data-name="Group 37" transform="translate(14.534 21.047)">
              <path id="Path_13" data-name="Path 13" d="M26.673,29.931a.534.534,0,0,1-.178-1.037,34.1,34.1,0,0,1,3.786-1.153.534.534,0,0,1,.235,1.042A33.342,33.342,0,0,0,26.851,29.9.494.494,0,0,1,26.673,29.931Zm23.665,0a.543.543,0,0,1-.2-.038,24.694,24.694,0,0,0-3.709-1.11.535.535,0,0,1,.238-1.042A26,26,0,0,1,50.536,28.9a.534.534,0,0,1-.2,1.031Zm-6.736-1.7a.542.542,0,0,1-.079-.005,34.488,34.488,0,0,0-10.029,0,.534.534,0,1,1-.156-1.057,35.523,35.523,0,0,1,10.339,0,.534.534,0,0,1-.075,1.062Z" transform="translate(-26.139 -26.788)" fill="#8010ff" stroke="#8010ff" stroke-width="1"/>
            </g>
            <g id="Group_38" data-name="Group 38" transform="translate(31.462 20.138)">
              <path id="Path_14" data-name="Path 14" d="M36.552,30.463a1.973,1.973,0,0,1-2.009-2.026,2.034,2.034,0,0,1,2.009-2.1,2.1,2.1,0,0,1,1.6.726,2.055,2.055,0,0,1-1.6,3.4Zm0-3.058a.979.979,0,0,0-.941,1.032.918.918,0,0,0,.941.958.988.988,0,0,0,.785-1.636A1.013,1.013,0,0,0,36.552,27.4Z" transform="translate(-34.543 -26.337)" fill="#8010ff" stroke="#8010ff" stroke-width="1"/>
            </g>
            <g id="Group_39" data-name="Group 39" transform="translate(18.26 20.138)">
              <path id="Path_15" data-name="Path 15" d="M30,30.534a2.1,2.1,0,0,1,0-4.2,2.1,2.1,0,0,1,1.6.725,2.078,2.078,0,0,1,.477,1.666A2.114,2.114,0,0,1,30,30.534Zm0-3.129a1.036,1.036,0,0,0,0,2.062,1.058,1.058,0,0,0,1.02-.915,1,1,0,0,0-.234-.794A1.017,1.017,0,0,0,30,27.405Z" transform="translate(-27.989 -26.337)" fill="#8010ff" stroke="#8010ff" stroke-width="1"/>
            </g>
            <g id="Group_40" data-name="Group 40" transform="translate(9.897 29.507)">
              <path id="Path_16" data-name="Path 16" d="M57.242,32.057H24.372a.534.534,0,1,1,0-1.068H57.242a.534.534,0,1,1,0,1.068Z" transform="translate(-23.837 -30.988)" fill="#8010ff" stroke="#8010ff" stroke-width="1"/>
            </g>
          </g>
        </g>
      </g>
    </g>
  </g>
</svg>
