<svg xmlns="http://www.w3.org/2000/svg" width="120" height="120" viewBox="0 0 120 120">
  <g id="Group_3074" data-name="Group 3074" transform="translate(-772 -2839)">
    <rect id="Rectangle_1014" data-name="Rectangle 1014" width="120" height="120" transform="translate(772 2839)" fill="#fff"/>
    <g id="mobileApp_icon" transform="translate(801 2874)">
      <g id="Group_959" data-name="Group 959" transform="translate(0 0)">
        <g id="Group_958" data-name="Group 958">
          <g id="Group_957" data-name="Group 957">
            <g id="Group_940" data-name="Group 940" transform="translate(0 20.861)">
              <path id="Path_254" data-name="Path 254" d="M65.576,75.415H27.99a3.3,3.3,0,0,1-3.259-3.338V49.638a3.3,3.3,0,0,1,3.259-3.331H59.928a.531.531,0,0,1,0,1.061H27.99a2.248,2.248,0,0,0-2.221,2.27V72.077a2.252,2.252,0,0,0,2.221,2.278H65.576a.53.53,0,0,1,0,1.06Z" transform="translate(-24.731 -46.307)" fill="#0379c4" stroke="#0379c4" stroke-width="1"/>
            </g>
            <g id="Group_941" data-name="Group 941" transform="translate(34.677)">
              <path id="Path_255" data-name="Path 255" d="M77.075,80.312h-21.9a3.3,3.3,0,0,1-3.258-3.338v-43.3a3.3,3.3,0,0,1,3.258-3.333h21.9a3.3,3.3,0,0,1,3.255,3.333v43.3A3.3,3.3,0,0,1,77.075,80.312Zm-21.9-48.907a2.248,2.248,0,0,0-2.221,2.27v43.3a2.252,2.252,0,0,0,2.221,2.278h21.9a2.252,2.252,0,0,0,2.218-2.278v-43.3a2.247,2.247,0,0,0-2.218-2.27h-21.9Z" transform="translate(-51.918 -30.343)" fill="#0379c4" stroke="#0379c4" stroke-width="1"/>
            </g>
            <g id="Group_942" data-name="Group 942" transform="translate(46.513 42.396)">
              <path id="Path_256" data-name="Path 256" d="M63.566,67.65a2.433,2.433,0,1,1,2.372-2.43A2.4,2.4,0,0,1,63.566,67.65Zm0-3.8A1.37,1.37,0,1,0,64.9,65.221,1.354,1.354,0,0,0,63.566,63.849Z" transform="translate(-61.197 -62.786)" fill="#0379c4" stroke="#0379c4" stroke-width="1"/>
            </g>
            <g id="Group_943" data-name="Group 943" transform="translate(37.141 6.676)">
              <path id="Path_257" data-name="Path 257" d="M76.817,69.378H54.368a.524.524,0,0,1-.519-.531V35.983a.524.524,0,0,1,.519-.531H76.817a.525.525,0,0,1,.52.531V68.846A.526.526,0,0,1,76.817,69.378ZM54.886,68.315H76.3v-31.8H54.886Z" transform="translate(-53.85 -35.452)" fill="#0379c4" stroke="#0379c4" stroke-width="1"/>
            </g>
            <g id="Group_944" data-name="Group 944" transform="translate(44.462 3.598)">
              <path id="Path_258" data-name="Path 258" d="M67.916,34.158H66.408a.531.531,0,0,1,0-1.061h1.508a.531.531,0,0,1,0,1.061Zm-2.59,0H60.108a.531.531,0,0,1,0-1.061h5.218a.531.531,0,0,1,0,1.061Z" transform="translate(-59.589 -33.096)" fill="#0379c4" stroke="#0379c4" stroke-width="1"/>
            </g>
            <g id="Group_945" data-name="Group 945" transform="translate(6.516 23.385)">
              <path id="Path_259" data-name="Path 259" d="M58.52,72.3H30.358a.526.526,0,0,1-.519-.531v-23a.524.524,0,0,1,.519-.531H58.519a.524.524,0,0,1,.519.531v23A.524.524,0,0,1,58.52,72.3ZM30.877,71.237H58V49.3H30.877Z" transform="translate(-29.84 -48.238)" fill="#0379c4" stroke="#0379c4" stroke-width="1"/>
            </g>
            <g id="Group_946" data-name="Group 946" transform="translate(3.513 30.884)">
              <path id="Path_260" data-name="Path 260" d="M28,63.04a.526.526,0,0,1-.519-.53V57.156a.519.519,0,1,1,1.037,0V62.51A.525.525,0,0,1,28,63.04Zm0-6.461a.525.525,0,0,1-.519-.53V54.508a.519.519,0,1,1,1.037,0v1.541A.524.524,0,0,1,28,56.579Z" transform="translate(-27.485 -53.976)" fill="#0379c4" stroke="#0379c4" stroke-width="1"/>
            </g>
            <g id="Group_947" data-name="Group 947" transform="translate(39.806 12.504)">
              <path id="Path_261" data-name="Path 261" d="M73.581,40.973H61.308a.531.531,0,0,1,0-1.061H73.581a.531.531,0,0,1,0,1.061Zm-14.984,0H56.456a.531.531,0,0,1,0-1.061H58.6a.531.531,0,0,1,0,1.061Z" transform="translate(-55.939 -39.911)" fill="#0379c4" stroke="#0379c4" stroke-width="1"/>
            </g>
            <g id="Group_948" data-name="Group 948" transform="translate(41.946 11.119)">
              <path id="Path_262" data-name="Path 262" d="M59.492,42.691a1.92,1.92,0,1,1,1.873-1.924A1.9,1.9,0,0,1,59.492,42.691Zm0-2.779a.859.859,0,1,0,.835.856A.848.848,0,0,0,59.492,39.912Z" transform="translate(-57.617 -38.852)" fill="#0379c4" stroke="#0379c4" stroke-width="1"/>
            </g>
            <g id="Group_949" data-name="Group 949" transform="translate(39.806 18.139)">
              <path id="Path_263" data-name="Path 263" d="M73.581,45.285H66.373a.531.531,0,0,1,0-1.061h7.209a.531.531,0,0,1,0,1.061Zm-9.92,0h-7.2a.531.531,0,0,1,0-1.061h7.2a.531.531,0,0,1,0,1.061Z" transform="translate(-55.939 -44.223)" fill="#0379c4" stroke="#0379c4" stroke-width="1"/>
            </g>
            <g id="Group_950" data-name="Group 950" transform="translate(47.01 16.756)">
              <path id="Path_264" data-name="Path 264" d="M63.459,47a1.92,1.92,0,1,1,1.875-1.924A1.9,1.9,0,0,1,63.459,47Zm0-2.781a.859.859,0,1,0,.838.856A.847.847,0,0,0,63.459,44.224Z" transform="translate(-61.587 -43.165)" fill="#0379c4" stroke="#0379c4" stroke-width="1"/>
            </g>
            <g id="Group_951" data-name="Group 951" transform="translate(40.862 21.645)">
              <path id="Path_265" data-name="Path 265" d="M64.787,63.341a8.22,8.22,0,1,1,8.025-8.221A8.132,8.132,0,0,1,64.787,63.341Zm0-15.375a7.157,7.157,0,1,0,6.988,7.153A7.077,7.077,0,0,0,64.787,47.966Z" transform="translate(-56.767 -46.906)" fill="#0379c4" stroke="#0379c4" stroke-width="1"/>
            </g>
            <g id="Group_952" data-name="Group 952" transform="translate(44.525 21.645)">
              <path id="Path_266" data-name="Path 266" d="M64,63.341c-2.444,0-4.357-3.612-4.357-8.221S61.553,46.906,64,46.906s4.365,3.608,4.365,8.214S66.444,63.341,64,63.341Zm0-15.375c-1.8,0-3.32,3.276-3.32,7.153S62.2,62.277,64,62.277,67.323,59,67.323,55.119,65.8,47.966,64,47.966Z" transform="translate(-59.639 -46.906)" fill="#0379c4" stroke="#0379c4" stroke-width="1"/>
            </g>
            <g id="Group_953" data-name="Group 953" transform="translate(40.862 29.328)">
              <path id="Path_267" data-name="Path 267" d="M72.293,53.847H57.286a.531.531,0,0,1,0-1.061H72.295a.531.531,0,0,1,0,1.061Z" transform="translate(-56.767 -52.785)" fill="#0379c4" stroke="#0379c4" stroke-width="1"/>
            </g>
            <g id="Group_954" data-name="Group 954" transform="translate(48.365 21.636)">
              <path id="Path_268" data-name="Path 268" d="M63.166,63.343a.525.525,0,0,1-.517-.531V47.431a.519.519,0,1,1,1.037,0v15.38A.526.526,0,0,1,63.166,63.343Z" transform="translate(-62.649 -46.899)" fill="#0379c4" stroke="#0379c4" stroke-width="1"/>
            </g>
            <g id="Group_955" data-name="Group 955" transform="translate(42.281 24.819)">
              <path id="Path_269" data-name="Path 269" d="M64.508,51.447a19.245,19.245,0,0,1-6.275-1.076.536.536,0,0,1-.327-.674.515.515,0,0,1,.656-.334,17.693,17.693,0,0,0,11.836,0,.513.513,0,0,1,.659.331.534.534,0,0,1-.324.674A18.783,18.783,0,0,1,64.508,51.447Z" transform="translate(-57.88 -49.335)" fill="#0379c4" stroke="#0379c4" stroke-width="1"/>
            </g>
            <g id="Group_956" data-name="Group 956" transform="translate(42.281 32.626)">
              <path id="Path_270" data-name="Path 270" d="M58.4,57.416a.521.521,0,0,1-.492-.363.536.536,0,0,1,.327-.674,18.772,18.772,0,0,1,12.5,0,.534.534,0,0,1,.324.674.517.517,0,0,1-.657.332,17.772,17.772,0,0,0-11.838,0A.508.508,0,0,1,58.4,57.416Z" transform="translate(-57.88 -55.309)" fill="#0379c4" stroke="#0379c4" stroke-width="1"/>
            </g>
          </g>
        </g>
      </g>
    </g>
  </g>
</svg>
