<?xml version="1.0" encoding="utf-8"?>
<!-- Generator: Adobe Illustrator 23.1.0, SVG Export Plug-In . SVG Version: 6.00 Build 0)  -->
<svg version="1.1" id="Layer_1" xmlns="http://www.w3.org/2000/svg" xmlns:xlink="http://www.w3.org/1999/xlink" x="0px" y="0px"
	 viewBox="0 0 500 500" style="enable-background:new 0 0 500 500;" xml:space="preserve">
<style type="text/css">
	.st0{clip-path:url(#SVGID_2_);}
	.st1{clip-path:url(#SVGID_4_);fill:#067A63;}
	.st2{clip-path:url(#SVGID_4_);}
	.st3{clip-path:url(#SVGID_6_);fill:#88DDFF;}
	.st4{clip-path:url(#SVGID_6_);fill:#12AD8F;}
	.st5{clip-path:url(#SVGID_6_);fill:#A3C4D4;}
	.st6{clip-path:url(#SVGID_6_);fill:#005C88;}
	.st7{clip-path:url(#SVGID_4_);fill:#ECF0F1;}
	.st8{font-family:'Lato-Black';}
	.st9{font-size:24px;}
	.st10{clip-path:url(#SVGID_4_);fill:#E5BEB5;}
	.st11{clip-path:url(#SVGID_4_);fill:#E2C3BC;}
	.st12{clip-path:url(#SVGID_8_);fill:#FFDED4;}
	.st13{clip-path:url(#SVGID_8_);fill:#8C734D;}
	.st14{clip-path:url(#SVGID_8_);fill:#4C493F;}
	.st15{clip-path:url(#SVGID_8_);fill:#FFFFFF;}
	.st16{clip-path:url(#SVGID_8_);fill:#E2C3BC;}
	.st17{clip-path:url(#SVGID_8_);fill:#172D3A;}
	.st18{clip-path:url(#SVGID_8_);fill:#0C181E;}
	.st19{clip-path:url(#SVGID_8_);fill:#EDB0B0;}
	.st20{opacity:0.2;clip-path:url(#SVGID_8_);}
	.st21{clip-path:url(#SVGID_10_);fill:#172D3A;}
	.st22{clip-path:url(#SVGID_8_);fill:#A07D70;}
	.st23{clip-path:url(#SVGID_12_);fill:#172D3A;}
	.st24{clip-path:url(#SVGID_8_);fill:#0C1416;}
	.st25{opacity:0.4;clip-path:url(#SVGID_8_);}
	.st26{clip-path:url(#SVGID_14_);fill:#845851;}
	.st27{clip-path:url(#SVGID_8_);fill:#EDC156;}
	.st28{opacity:0.1;clip-path:url(#SVGID_8_);}
	.st29{clip-path:url(#SVGID_16_);fill:#141D1F;}
	.st30{clip-path:url(#SVGID_18_);fill:#263D49;}
	.st31{opacity:0.15;clip-path:url(#SVGID_8_);}
	.st32{clip-path:url(#SVGID_20_);fill:#0E2735;}
	.st33{clip-path:url(#SVGID_8_);fill:#C99775;}
	.st34{clip-path:url(#SVGID_8_);fill:#0E2735;}
	.st35{clip-path:url(#SVGID_8_);fill:#525557;}
	.st36{opacity:0.5;clip-path:url(#SVGID_8_);}
	.st37{clip-path:url(#SVGID_22_);fill:#1C1E1F;}
	.st38{clip-path:url(#SVGID_24_);fill:#1C1E1F;}
	.st39{clip-path:url(#SVGID_8_);fill:none;stroke:#D2D8DB;stroke-width:0.524;stroke-miterlimit:10;}
	.st40{clip-path:url(#SVGID_8_);fill:#CCD6DB;}
	.st41{clip-path:url(#SVGID_8_);fill:#E7EEF3;}
	.st42{clip-path:url(#SVGID_8_);fill:#3F3E3D;}
	.st43{clip-path:url(#SVGID_8_);fill:#ADB8BC;}
	.st44{clip-path:url(#SVGID_26_);}
	.st45{clip-path:url(#SVGID_28_);fill:#FFFFFF;}
	.st46{clip-path:url(#SVGID_30_);fill:#0E2735;}
	.st47{clip-path:url(#SVGID_8_);fill:#FFDB8A;}
	.st48{clip-path:url(#SVGID_8_);fill:#FFCCCC;}
	.st49{clip-path:url(#SVGID_8_);fill:#3D3D3D;}
	.st50{clip-path:url(#SVGID_8_);fill:#F4D7A3;}
	.st51{clip-path:url(#SVGID_8_);fill:#4C5975;}
	.st52{clip-path:url(#SVGID_8_);fill:#B24D44;}
	.st53{clip-path:url(#SVGID_8_);fill:#3A2D7A;}
	.st54{clip-path:url(#SVGID_8_);fill:#2C2366;}
	.st55{clip-path:url(#SVGID_8_);fill:#E58383;}
	.st56{clip-path:url(#SVGID_8_);fill:#232323;}
	.st57{clip-path:url(#SVGID_8_);fill:#F0C75A;}
	.st58{clip-path:url(#SVGID_32_);}
	.st59{clip-path:url(#SVGID_34_);fill:#0E2735;}
	.st60{clip-path:url(#SVGID_8_);fill:#639E8A;}
	.st61{clip-path:url(#SVGID_8_);fill:#594847;}
	.st62{clip-path:url(#SVGID_36_);fill:#C19891;}
	.st63{clip-path:url(#SVGID_8_);fill:#D88F4E;}
	.st64{clip-path:url(#SVGID_8_);fill:#BC7942;}
	.st65{clip-path:url(#SVGID_38_);fill:#B57F74;}
	.st66{clip-path:url(#SVGID_8_);fill:#C7DDE2;}
	.st67{clip-path:url(#SVGID_40_);fill:#172D3A;}
	.st68{clip-path:url(#SVGID_42_);fill:#172D3A;}
	.st69{clip-path:url(#SVGID_8_);fill:#E2AFA6;}
	.st70{clip-path:url(#SVGID_8_);fill:#825248;}
	.st71{clip-path:url(#SVGID_8_);fill:#E2FF10;}
	.st72{clip-path:url(#SVGID_8_);fill:none;stroke:#FFFFFF;stroke-linecap:round;stroke-linejoin:round;}
	
		.st73{clip-path:url(#SVGID_8_);fill:none;stroke:#FFFFFF;stroke-linecap:round;stroke-linejoin:round;stroke-dasharray:3.062,3.062;}
</style>
<g>
	<g>
		<defs>
			<rect id="SVGID_1_" width="500" height="500"/>
		</defs>
		<clipPath id="SVGID_2_">
			<use xlink:href="#SVGID_1_"  style="overflow:visible;"/>
		</clipPath>
		<g class="st0">
			<defs>
				<rect id="SVGID_3_" width="500" height="500"/>
			</defs>
			<clipPath id="SVGID_4_">
				<use xlink:href="#SVGID_3_"  style="overflow:visible;"/>
			</clipPath>
			<polygon class="st1" points="460.4,116.2 429.4,143.2 387.4,105.2 449.4,105.2 			"/>
			<g class="st2">
				<defs>
					<path id="SVGID_5_" d="M31.4,250.2c0,120.9,98,219,219,219s219-98.1,219-219c0-121-98-219-219-219S31.4,129.2,31.4,250.2"/>
				</defs>
				<clipPath id="SVGID_6_">
					<use xlink:href="#SVGID_5_"  style="overflow:visible;"/>
				</clipPath>
				<rect x="31" y="31.2" class="st3" width="438.9" height="254"/>
				<rect x="31" y="291.4" class="st4" width="438.9" height="206.7"/>
				<path class="st4" d="M5,325.4c-5.2-13.8,28.6-72,92.7-56c3.8,1,34.5,8.6,34.3,19.4C131.7,312.9,12,344.2,5,325.4"/>
				<path class="st4" d="M304.8,354.8c-7.6-20.2,42.1-105.8,136.3-82.3c5.6,1.4,50.7,12.7,50.5,28.5
					C491.2,336.3,315.2,382.4,304.8,354.8"/>
				<path class="st5" d="M251.3,140.2c-12.5,29.2-46.3,42.6-75.5,30.1c-29.2-12.5-42.6-46.3-30.1-75.5
					c12.5-29.2,46.3-42.7,75.5-30.1C250.4,77.2,263.9,111,251.3,140.2"/>
				<path class="st6" d="M249.5,144c0.1-0.2,0.2-0.3,0.3-0.5c-0.1,0.1-0.2,0.2-0.3,0.3C249.5,143.8,249.5,143.9,249.5,144"/>
				<path class="st6" d="M242.7,81c-0.3,0.2-0.6,0.4-0.9,0.7c-0.2-0.4-0.3-0.9-0.5-1.3c-0.3-0.4-0.6-0.8-0.9-1.1
					c0,0-0.4,0.3-0.4,0.2c0-0.1,0.3-0.7,0.3-0.7c-0.2-0.1-0.4-0.3-0.6-0.4c-0.1-0.2-0.2-0.4-0.3-0.6c-0.1-0.1-0.3-0.1-0.4-0.2
					c0,0.1-0.1,0.3-0.1,0.4c-0.3-0.2-0.6-0.4-0.9-0.6c-0.1,0.1-0.1,0.2-0.2,0.2c-0.2-0.1-0.3-0.1-0.5-0.2c0,0.2,0.1,0.4,0.1,0.6
					c-0.1,0.2-0.1,0.5-0.2,0.7c-0.2,0-0.4,0-0.5-0.1c0-0.1-0.1-0.2-0.1-0.3c-0.1,0-0.2,0-0.3,0c-0.1,0.2-0.1,0.3-0.2,0.5
					c-0.1-0.2-0.2-0.5-0.4-0.7c0.2-0.1,0.3-0.3,0.5-0.4c-0.4,0-0.8-0.1-1.2-0.1c-0.1,0.1-0.2,0.2-0.3,0.2c-0.1-0.1-0.2-0.2-0.3-0.3
					c0-0.1,0-0.2,0.1-0.3c-0.2-0.1-0.4-0.2-0.7-0.3c-0.3,0-0.6-0.1-0.9-0.1c0,0.1,0.1,0.3,0.1,0.4c-0.1,0-0.2,0-0.3,0
					c0-0.1,0-0.3,0-0.4c-0.1,0-0.3,0.1-0.4,0.1c-0.2-0.1-0.4-0.3-0.6-0.4l0.1-0.2c0.2,0.1,0.3,0.1,0.5,0.2c0-0.2,0-0.3,0-0.5
					c-0.1-0.1-0.2-0.1-0.3-0.2c0.1-0.1,0.1-0.2,0.2-0.3l-0.5,0c-0.1,0.1-0.3,0.1-0.4,0.2c-0.2-0.1-0.4-0.1-0.5-0.2
					c-0.2,0-0.4,0-0.6,0.1c-0.4,0-0.9,0-1.3,0c-0.2-0.1-0.3-0.1-0.5-0.2c0,0.1,0.1,0.2,0.1,0.2c-0.3,0-0.5-0.1-0.8-0.1
					c-0.1,0.1-0.2,0.2-0.3,0.3c0,0.2,0,0.3-0.1,0.5c-0.5,0-0.9-0.1-1.4-0.1c0-0.3-0.1-0.5-0.1-0.8c0-0.1,0-0.3,0-0.4
					c0.2,0,0.3-0.1,0.5-0.1c0.3,0.1,0.6,0.2,0.9,0.3c-0.1-0.2-0.2-0.5-0.3-0.7c-0.1-0.3-0.2-0.5-0.2-0.8c-0.2-0.1-0.4-0.2-0.5-0.2
					c-0.3-0.2-0.5-0.5-0.8-0.7c0.1,0.2,0.1,0.5,0.1,0.7c-0.1,0.2-0.2,0.3-0.3,0.5c-0.2,0.1-0.3,0.2-0.5,0.4c0.1,0.2,0.1,0.3,0.2,0.5
					c-0.1,0.1-0.1,0.2-0.2,0.3c-0.1,0-0.2,0-0.4,0.1c-0.2,0.2-0.3,0.5-0.5,0.7c-0.1,0-0.2-0.1-0.2-0.1c0.1-0.1,0.1-0.3,0.2-0.4
					c-0.2-0.2-0.4-0.4-0.6-0.6c-0.2,0-0.4,0-0.6,0.1c-0.1-0.1-0.3-0.1-0.4-0.2c-0.1,0.1-0.1,0.2-0.2,0.3c-0.3,0-0.6,0.1-0.9,0.1
					c0,0.2,0,0.3,0,0.5c0.1,0.1,0.2,0.3,0.3,0.4c0,0.1,0,0.3,0,0.4c-0.3-0.1-0.6-0.3-0.8-0.4c-0.1-0.1-0.2-0.3-0.3-0.4
					c-0.3-0.3-0.5-0.7-0.8-1c-0.1,0.1-0.2,0.3-0.2,0.4l-0.3,0.2c0,0.2,0.1,0.3,0.1,0.5c0.2,0.1,0.3,0.3,0.5,0.4
					c0,0.2-0.1,0.4-0.1,0.7c-0.1,0-0.3,0-0.4,0c-0.3-0.2-0.7-0.4-1-0.7c0-0.1,0-0.3,0.1-0.4c-0.1-0.1-0.2-0.2-0.2-0.4
					c-0.1,0-0.2,0.1-0.3,0.1c0.1-0.4,0.1-0.9,0.2-1.3c0.1-0.2,0.1-0.4,0.2-0.5c-0.1-0.2-0.2-0.3-0.3-0.5c-0.2-0.1-0.4-0.3-0.7-0.4
					c0-0.1,0.1-0.2,0.1-0.4c-0.1-0.1-0.2-0.2-0.4-0.2c0.1-0.1,0.2-0.2,0.3-0.3c-0.1-0.3-0.3-0.7-0.4-1c0,0,0.7,0.9,0.8,1
					c0.1,0,0.4,0.6,0.4,0.6c0.1-0.1,0.2-0.2,0.3-0.3c0,0.2,0.1,0.4,0.1,0.5c0.2,0.1,0.4,0.2,0.6,0.3c0.2,0.2,0.4,0.5,0.6,0.7
					c0.4,0.2,0.7,0.3,1.1,0.5c0.3,0.1,0.6,0.1,0.9,0.2c0.4-0.2,0.8-0.3,1.2-0.5c0-0.3,0.1-0.5,0.1-0.8c-0.4-0.5-0.9-1.1-1.3-1.6
					c-0.7-0.7-1.4-1.4-2.1-2c-0.6-0.3-1.1-0.7-1.7-1c0.2-0.1,0.3-0.1,0.5-0.2c-0.2-0.2-0.3-0.3-0.5-0.5c-0.2,0-0.4-0.1-0.6-0.1
					c-0.2-0.1-0.5-0.2-0.7-0.3l-0.6,0c0-0.2,0-0.4,0-0.6c0.4,0.1,0.9,0.1,1.3,0.2c-0.1-0.2-0.3-0.4-0.4-0.6
					c-0.2-0.2-0.4-0.5-0.5-0.7c-0.1,0-0.3-0.1-0.4-0.1c0-0.2,0-0.4,0-0.6c-0.1,0-0.3-0.1-0.4-0.1c-0.1,0.2-0.2,0.4-0.3,0.7
					c-0.2,0.1-0.4,0.2-0.6,0.2c0,0-0.2-0.2-0.1-0.3c0.1-0.1,0.5-0.5,0.5-0.5c-0.3,0.1-0.6,0.2-0.8,0.3c0,0.1-0.1,0.2-0.1,0.3
					c-0.3,0.1-0.6,0.2-0.9,0.4c0.1-0.2,0.1-0.4,0.2-0.6c0.2,0,0.4-0.1,0.5-0.1c-0.2-0.2-0.3-0.4-0.5-0.6c-0.1,0.2-0.2,0.3-0.4,0.5
					c-0.1-0.1-0.2-0.2-0.3-0.3c-0.1,0-0.3-0.1-0.4-0.1c-0.2,0.1-0.5,0.2-0.7,0.2c-0.2-0.1-0.3-0.3-0.5-0.4c-0.2-0.1-0.4-0.2-0.6-0.3
					c0.1,0.1,0.1,0.3,0.2,0.4c0.1,0.2,0.2,0.3,0.2,0.5c-0.2-0.2-0.4-0.4-0.6-0.5c0,0.1-0.1,0.3-0.1,0.4c-0.1,0-0.2,0-0.3-0.1
					c0-0.1,0.1-0.3,0.1-0.4c-0.1,0.1-0.3,0.1-0.4,0.2c0-0.1,0-0.2-0.1-0.3c-0.3,0.1-0.5,0.2-0.8,0.4c0-0.2-0.1-0.4-0.1-0.6
					c-0.1,0.1-0.2,0.2-0.3,0.2c0.1,0.1,0.2,0.3,0.3,0.4c-0.2,0-0.3,0-0.5-0.1c-0.2,0-0.3,0-0.5,0c-0.2,0.2-0.4,0.4-0.6,0.6
					c-0.3,0.1-0.7,0.1-1,0.2c0.1,0.1,0.1,0.2,0.2,0.2c0.2,0,0.4,0,0.5,0c-0.2,0.1-0.4,0.2-0.6,0.3c-0.1,0.1-0.2,0.2-0.2,0.3
					c-0.1-0.2-0.2-0.5-0.4-0.7c-0.1,0.1-0.2,0.3-0.3,0.4c-0.1,0.2-0.1,0.3-0.2,0.5c-0.5,0.1-1,0.2-1.6,0.3c-0.1,0.1-0.3,0.2-0.4,0.3
					c0,0.1,0.1,0.2,0.1,0.3c-0.5,0.1-1,0.1-1.6,0.2c0,0.1,0,0.2,0,0.3c-0.2-0.1-0.4-0.2-0.6-0.3c-0.6,0.3-1.3,0.5-1.9,0.8
					c0,0.1,0,0.2,0,0.3c0.3-0.1,0.6-0.1,0.9-0.2c-0.2,0.2-0.4,0.4-0.6,0.5c-0.3,0-0.5-0.1-0.8-0.1c0-0.2,0.1-0.3,0.1-0.5
					c-0.2-0.1-0.3-0.1-0.5-0.2c-0.2-0.1-0.3-0.1-0.5-0.2c0,0.1,0,0.2,0,0.3c0.1,0.1,0.1,0.1,0.2,0.2c-0.2,0-0.5,0.1-0.7,0.1
					c-0.2-0.1-0.4-0.1-0.6-0.2c0,0.1,0,0.3,0.1,0.4c-0.2,0.1-0.4,0.1-0.6,0.2c-0.1-0.1-0.2-0.2-0.3-0.2c-0.1,0.1-0.2,0.2-0.3,0.3
					c0.1,0.1,0.3,0.2,0.4,0.2c-0.3,0-0.5,0-0.8,0.1c-0.2-0.1-0.4-0.3-0.5-0.4c-0.1,0.1-0.2,0.2-0.3,0.3c0.2,0.1,0.3,0.2,0.5,0.2
					c-0.2,0-0.4,0-0.7,0c0,0-0.2,0.3,0,0.4c0.1,0,0.6,0.3,0.6,0.3c0.2,0,0.3,0,0.5,0c0,0.1,0.1,0.2,0.1,0.2c-0.3-0.1-0.7-0.1-1-0.2
					c-0.2,0-0.3-0.1-0.5-0.1c-0.1,0.2-0.2,0.4-0.3,0.5c0.2,0.1,0.3,0.2,0.5,0.3c0,0-0.4,0.4-0.2,0.4c0.1,0,1.2-0.3,1.2-0.3
					c-0.2,0.1-0.4,0.2-0.6,0.4c-0.1,0.1-0.3,0.3-0.4,0.4c-0.2,0-0.4-0.1-0.6-0.1c-0.1,0-0.2,0-0.4,0.1c0,0.1,0.1,0.2,0.1,0.4
					c0.3,0,0.5,0,0.8,0c-0.1,0.2-0.2,0.3-0.3,0.5c0,0-0.6,0-0.5,0.1c0.1,0.1,0,0.6,0,0.6c0.2,0.1,0.4,0.2,0.6,0.3
					c0.1,0.1,0.1,0.2,0.2,0.3c0,0,2-0.3,2-0.2c0.1,0.1,0.4,0.3,0.4,0.3c0.3-0.1,0.7-0.2,1-0.4c-0.1,0.2-0.2,0.4-0.3,0.6
					c0.1,0.2,0.2,0.4,0.3,0.6c-0.1,0.2-0.2,0.3-0.4,0.5c0.1,0.5,0.2,1,0.4,1.5l-0.3,0.3c-0.1,0.3-0.2,0.7-0.3,1
					c0.2,0.1,0.4,0.2,0.7,0.3c0.2,0,0.4,0,0.6-0.1c0-0.1-0.1-0.3-0.1-0.4c0.2-0.1,0.5-0.1,0.7-0.2c0.3,0.1,0.5,0.2,0.8,0.3
					c0.2,0,0.3,0.1,0.5,0.1c0.2-0.2,0.4-0.4,0.6-0.6c-0.2,0.1-0.4,0.1-0.6,0.2c0.1-0.1,0.2-0.3,0.3-0.4c0.2-0.3,0.5-0.5,0.7-0.8
					c0.1-0.3,0.2-0.5,0.3-0.8c0.2,0,0.4,0,0.7,0c0.1,0.1,0.2,0.2,0.3,0.3c0.3-0.1,0.5-0.2,0.8-0.3c-0.1-0.1-0.2-0.2-0.3-0.3
					c0.2,0,0.4-0.1,0.6-0.1c0-0.2,0.1-0.4,0.1-0.6c-0.1-0.1-0.1-0.2-0.2-0.3v-0.4c-0.1-0.1-0.2-0.1-0.3-0.2c-0.2,0-0.3,0-0.5,0
					c0.2-0.4,0.3-0.8,0.5-1.3c0.1-0.1,0.3-0.2,0.4-0.3c0.1-0.2,0.1-0.4,0.2-0.6c0,0,0-0.2,0.3-0.1c0.3,0.1,0.3,0.1,0.3,0.1
					c0.1-0.2,0.1-0.3,0.2-0.5c0.2,0,0.4,0,0.6,0c0.1-0.1,0.2-0.2,0.3-0.3c0.3,0.1,0.6,0.2,0.9,0.3c0.3-0.1,0.7-0.2,1-0.3
					c0.1-0.2,0.2-0.3,0.2-0.5c0.1-0.2,0.1-0.3,0.2-0.5c0.2-0.1,0.5-0.2,0.7-0.3c0.2-0.1,0.4-0.1,0.6-0.2c0.2,0.1,0.4,0.2,0.6,0.3
					c0.2,0.1,0.5,0.2,0.7,0.3c0.1,0.2,0.3,0.3,0.4,0.5c-0.1,0.1-0.2,0.2-0.2,0.3c0,0.1,0,0.2,0,0.3c-0.2,0-0.3,0-0.5,0.1
					c-0.1,0-0.2,0-0.3,0c-0.1,0.2-0.3,0.4-0.4,0.6c-0.3,0.1-0.5,0.3-0.8,0.4c0,0-1.1,0.1-1.3,0.2c-0.2,0.1-0.3,0.2-0.3,0.2
					c-0.1,0.1-0.1,0.3-0.2,0.4c0,0.3-0.1,0.5-0.1,0.8c-0.1,0.2-0.3,0.4-0.4,0.5c0,0.2-0.1,0.5-0.1,0.7c0.2,0.1,0.4,0.2,0.6,0.3
					c0.1,0.2,0.2,0.4,0.3,0.6c-0.2,0-0.4,0-0.6,0c0,0.1-0.1,0.3-0.1,0.4c0.1,0.1,0.2,0.2,0.4,0.3c0,0,0.3-0.4,0.3-0.3
					c0,0.1,0.1,0.5,0.1,0.5c0.4,0,0.7,0,1.1,0c0.3-0.1,0.5-0.2,0.8-0.3c0.3,0.1,0.6,0.3,0.9,0.4c0.3,0,0.5,0,0.8,0
					c0,0.1-0.1,0.2-0.1,0.3c0.2,0.2,0.3,0.4,0.5,0.6c0.2,0.1,0.3,0.1,0.5,0.2c0.2,0.2,0.3,0.3,0.5,0.5c-0.4-0.1-0.7-0.3-1.1-0.4
					c-0.2,0-0.4,0.1-0.7,0.1c-0.2,0-0.3,0-0.5,0c-0.2-0.1-0.3-0.2-0.5-0.4c-0.2,0-0.3-0.1-0.5-0.1c0,0.1,0,0.2-0.1,0.2
					c-0.3-0.2-0.6-0.4-0.9-0.5c-0.3,0-0.6-0.1-1-0.1c-0.2,0-0.4,0-0.6,0c-0.1,0.3-0.2,0.6-0.3,0.9c0.1,0,0.2,0,0.4,0.1
					c-0.1,0.1-0.2,0.3-0.4,0.4c-0.1,0.1-0.2,0.2-0.3,0.3c0,0.2,0.1,0.3,0.1,0.5c-0.3,0-0.6,0.1-0.9,0.1c0-0.2,0-0.4-0.1-0.5
					c0-0.1,0-0.3,0.1-0.4c-0.3,0-0.7,0-1,0.1c-0.2,0.3-0.4,0.5-0.7,0.8c-0.2,0.3-0.4,0.6-0.6,0.8c0,0.1,0,0.3-0.1,0.4
					c-0.2,0.1-0.3,0.1-0.5,0.2l0.1-0.5c-0.2,0.1-0.4,0.2-0.6,0.3c0,0.1-0.1,0.3-0.1,0.4c-0.2,0.1-0.4,0.3-0.7,0.4
					c0-0.1-0.1-0.2-0.1-0.2c-0.2,0-0.5,0-0.7,0c0-0.2-0.1-0.3-0.1-0.5c0.1,0.1,0.3,0.2,0.4,0.3c0-0.1,0-0.2,0-0.3
					c-0.2,0-0.4-0.1-0.6-0.1l-0.6,0.2c-0.7-0.1-1.4-0.3-2.1-0.4c-0.4-0.3-0.8-0.6-1.2-0.9c-0.1,0.1-0.3,0.1-0.4,0.2
					c-0.2,0-0.3-0.1-0.5-0.1c-0.1,0.1-0.2,0.1-0.3,0.2c-0.1-0.1-0.1-0.3-0.2-0.4c-0.1-0.1-0.3-0.2-0.4-0.4c0-0.3-0.1-0.6-0.1-0.9
					c0.1-0.1,0.3-0.1,0.4-0.2c-0.1-0.1-0.2-0.1-0.3-0.2c0.2-0.2,0.4-0.4,0.5-0.6c0.2-0.2,0.4-0.4,0.6-0.5c0.1,0.1,0.2,0.2,0.3,0.3
					c0.1-0.1,0.2-0.2,0.3-0.3c-0.1-0.1-0.3-0.3-0.4-0.4c0.1-0.2,0.2-0.3,0.3-0.5c-0.1-0.1-0.2-0.2-0.3-0.3c0.1,0,0.3,0,0.4,0
					c0.1-0.1,0.1-0.1,0.2-0.2c0.1-0.1,0.1-0.2,0.2-0.4c-0.2,0-0.4,0-0.6,0.1c-0.1,0.1-0.2,0.2-0.3,0.4c-0.2-0.1-0.5-0.2-0.7-0.3
					c-0.2,0.1-0.4,0.2-0.6,0.4c0.1,0.1,0.7-0.1,0.7-0.1c0.1,0.1,0.2,0.1,0.3,0.2c0,0.1,0,0.3,0,0.4c-0.2,0-0.4,0-0.5,0
					c-0.1,0-0.3,0.1-0.4,0.1l-0.3-0.3c-0.1,0.2-0.2,0.4-0.3,0.7c0.1,0.1,0.2,0.2,0.4,0.3c-0.1,0.1-0.3,0.2-0.4,0.3
					c0,0.2-0.1,0.3-0.1,0.5c0.1,0,0.2,0.1,0.3,0.1c0,0.1-0.1,0.2-0.1,0.4c-0.1,0-0.2,0-0.2,0.1c0.1,0.1,0.1,0.3,0.2,0.4
					c0,0.1,0,0.1,0,0.2c-0.1,0.1-0.3,0.2-0.4,0.2c0.1,0.1,0.1,0.3,0.2,0.4c-0.1,0-0.4-0.2-0.4-0.2c0,0.2,0,0.3-0.1,0.5
					c-0.1-0.1-0.2-0.3-0.3-0.4c-0.2,0-0.3,0.1-0.5,0.1c0,0.1-0.1,0.2-0.1,0.3c-0.1,0-0.2,0-0.2,0c0-0.1,0-0.3,0-0.4
					c-0.2-0.1-0.4-0.1-0.5-0.2l-0.3-0.2c-0.3,0-0.6,0.1-0.8,0.1c-0.3,0.1-0.5,0.2-0.8,0.3c-0.1,0.2-0.3,0.4-0.4,0.5
					c-0.2,0.1-0.3,0.2-0.5,0.3c-0.3-0.1-0.5-0.2-0.8-0.3c-0.5,0-0.9,0-1.4,0c0,0.2-0.1,0.5-0.1,0.7c-0.3,0-0.7,0.1-1,0.1
					c-0.2,0.1-0.3,0.2-0.5,0.3c-0.3-0.1-0.5-0.2-0.8-0.3c0-0.2,0-0.3,0-0.5c-0.1,0-0.3,0-0.4,0c-0.1,0.4-0.2,0.7-0.3,1.1
					c-0.3-0.1-0.7-0.1-1-0.2c0-0.1-0.1-0.2-0.1-0.3c-0.4-0.1-0.9-0.2-1.3-0.3c-0.1,0.2-0.2,0.3-0.2,0.5c0.2,0.2,0.4,0.3,0.6,0.5
					c0.1,0.2,0.1,0.5,0.2,0.7c0.1,0,0.3-0.1,0.4-0.1c0.1,0.3,0.1,0.5,0.2,0.8c0,0-0.5,0.5-0.4,0.5c0.1,0,0.7,1,0.7,1
					c-0.2,0.5-0.3,0.9-0.5,1.4c-0.2,0.2-0.4,0.5-0.6,0.7c-0.4,0-0.7,0-1.1,0c-0.2-0.2-0.3-0.3-0.5-0.5c-0.4-0.2-0.8-0.3-1.2-0.5
					c-0.4-0.2-0.9-0.4-1.3-0.6l-0.2-0.3c-0.3,0-0.5-0.1-0.8-0.1c0,0.1-0.1,0.1-0.1,0.2c-0.1-0.1-0.3-0.1-0.4-0.2
					c-0.3,0-0.5,0.1-0.8,0.1c0.1,0.1,0.2,1.1,0.2,1.1c-0.1,0.1-0.2,0.2-0.4,0.2c0,0.3-0.1,0.6-0.1,0.9c-0.2,0.2-0.3,0.4-0.5,0.6
					c-0.3,0.3-0.6,0.6-0.9,0.8c-0.1,0.2-0.2,0.4-0.3,0.5c0.1,0,0.3,0,0.4,0c0,0.1-0.1,0.1-0.1,0.2c-0.1,0-0.2,0-0.3,0
					c0,0.1,0.1,0.2,0.1,0.3c-0.1,0.2-0.1,0.4-0.2,0.6c-0.2,0.2-0.3,0.4-0.5,0.6c0.2,0,0.3,0.1,0.5,0.1c0.1,0.1,0.2,0.1,0.3,0.2
					c0,0.1,0.1,0.3,0.1,0.4c0.3,0,0.6,0,0.9,0c0.1,0.3,0.2,0.5,0.2,0.8c0,0.2,0.1,0.4,0.1,0.6c0.5,0,0.9-0.1,1.4-0.1
					c0.4,0.2,0.8,0.4,1.2,0.5l1-0.6c0.3,0,0.7,0,1,0c0.1-0.2,0.3-0.4,0.4-0.6c0.3-0.1,0.7-0.3,1-0.4c-0.1-0.2-0.1-0.5-0.2-0.7
					c0.5-0.2,1-0.5,1.4-0.7c0.7-0.2,1.4-0.4,2.2-0.5c0.2-0.4,0.4-0.7,0.5-1.1c0.3,0,0.6-0.1,0.9-0.1c0.4,0.3,0.7,0.5,1.1,0.8
					c0.5,0,0.9,0,1.4,0.1c0.4-0.1,0.9-0.3,1.3-0.4c0.3,0.3,0.6,0.7,0.9,1c0,0.7-0.1,1.5-0.1,2.2c0.2,0.3,0.3,0.6,0.5,1
					c0.3,0.3,0.6,0.5,0.9,0.8c0.3,0.6,0.5,1.2,0.8,1.8c-0.1,0.4-0.1,0.7-0.2,1.1c-0.3,0.3-0.5,0.6-0.8,0.9c0.1,0.1,0.2,0.2,0.3,0.3
					c0.5-0.3,1-0.7,1.5-1c0-0.4,0-0.7,0-1.1c0.2-0.1,0.4-0.3,0.5-0.4c0.2,0.3,0.3,0.6,0.5,0.9l0.5-0.2c-0.2-0.4-0.4-0.7-0.6-1.1
					c-0.2-0.3-0.4-0.5-0.7-0.8c0.1-0.1,0.2-0.2,0.3-0.3c-0.3-0.3-0.7-0.5-1-0.8c-0.1-0.7-0.2-1.5-0.4-2.2c-0.2-0.3-0.4-0.6-0.6-0.8
					c0.2-0.2,0.4-0.5,0.6-0.7c0-0.2,0-0.4,0.1-0.6c0.4,0.1,0.7,0.2,1.1,0.3c-0.1,0.1-0.3,0.3-0.4,0.4c-0.1,0.2-0.1,0.5-0.2,0.7
					c0.2,0,0.4-0.1,0.6-0.1c0.2-0.2,0.4-0.4,0.6-0.5c0,0.2,0,0.4,0,0.6c-0.1,0.4-0.2,0.8-0.3,1.2c0.8,1.1,1.7,2.3,2.5,3.4
					c-0.1,0.2-0.2,0.4-0.3,0.6c-0.1,0.1-0.3,0.3-0.4,0.4c0.1,0.4,0.2,0.7,0.2,1.1c0.1,0.4,0.2,0.9,0.3,1.3c0,0.2-0.1,0.4-0.1,0.6
					c0.3,0.2,0.5,0.3,0.8,0.5c0.1,0.2,0.2,0.4,0.2,0.7c-0.2-0.2-0.3-0.5-0.5-0.7c-0.2,0-0.4,0-0.6,0c-0.1,0.4-0.1,0.8-0.2,1.2
					c0.3,0.2,0.6,0.3,0.9,0.5c0.2-0.1,0.5-0.2,0.7-0.2c0.1-0.2,0.2-0.3,0.3-0.5c0.2,0.1,0.4,0.2,0.6,0.3c0.2,0.1,0.4,0.1,0.6,0.2
					c-0.1,0-0.2-0.3-0.4-1.3c-0.2-1.4-0.2-1.4-0.2-1.4c0.1-0.3,0.2-0.6,0.3-0.8c0.1,0.3,0.1,0.6,0.2,0.9c0.3-0.1,0.6-0.1,0.9-0.2
					c0-0.2-0.1-0.4-0.1-0.6c0.5,0.2,1.1,0.5,1.6,0.7c0,0,0.3,0.4,0.2,0.5c0,0.1-0.5,0.3-0.5,0.3c0.4-0.1,0.8-0.1,1.2-0.2
					c0.4,0,0.9,0,1.3,0c-0.1-0.3-0.3-0.6-0.4-0.9c0-0.3,0-0.5,0-0.8c0.3-0.2,0.6-0.4,0.9-0.7c0.3-0.3,0.6-0.5,0.9-0.8
					c0.4-0.3,0.7-0.7,1.1-1c0,0,1.1-0.9,1.1-0.7s0.9,0.3,0.9,0.3c0.1,0.3,0.2,0.6,0.3,0.9c0.2,0,0.4,0,0.7,0
					c0.1,0.2,0.2,0.3,0.2,0.5c-0.4,0-0.8,0-1.2,0c0.2,0.2,0.4,0.5,0.6,0.7c-0.1,0.2-0.3,0.4-0.4,0.6c0.6,0,1.1,0,1.7,0
					c0.3,0.1,0.7,0.2,1,0.3c0.1-0.1,0.2-0.2,0.2-0.4c-0.4-0.1-0.7-0.3-1.1-0.4c0-0.1,0.1-0.3,0.1-0.4c0,0-0.5-1.1-0.4-1
					c0.1,0.1,1,0.8,1,0.8c0.7-0.1,1.3-0.2,2-0.3c0,0,1.6,0.4,1.5,0.4c-0.1,0-1.6,0.2-1.6,0.2c0,0.2,0.1,0.4,0.1,0.6
					c-0.4,0.1-0.9,0.3-1.3,0.4c0,0.1,0.1,0.2,0.1,0.4c0.2,0.4,0.4,0.9,0.7,1.3c0.2,0.5,0.5,1,0.7,1.4c0.2,0.3,0.5,0.6,0.7,0.8
					c0,0.3-0.1,0.7-0.1,1c-0.5,0.2-0.9,0.3-1.4,0.5c-0.2-0.1-0.3-0.3-0.5-0.4c-0.4-0.1-0.9-0.3-1.3-0.4c-0.4-0.4-0.8-0.9-1.3-1.3
					c-0.1-0.3-0.1-0.5-0.2-0.8c-0.3-0.1-0.7-0.1-1-0.2c-0.3-0.1-0.6-0.2-0.9-0.4c-0.5,0.1-1.1,0.1-1.6,0.2c-0.4-0.1-0.8-0.2-1.3-0.4
					c0,0.2,0,0.3,0.1,0.5c-0.3-0.1-0.5-0.1-0.8-0.2c-0.3-0.1-0.7-0.1-1-0.2c-0.3,0-0.6,0.1-0.9,0.1c-0.2,0.2-0.4,0.3-0.5,0.5
					c0.1,0.1,0.3,0.2,0.4,0.3c0,0.2-0.1,0.5-0.1,0.7c-0.2,0-0.4,0-0.6,0c0,0.2,0,0.5,0,0.7c0.1,0.3,0.1,0.6,0.2,0.8
					c0.1,0.3,0.3,0.6,0.4,0.9c0.2,0.1,0.5,0.3,0.7,0.4c0,0.3,0.1,0.6,0.1,0.9c0.2,0,0.4,0,0.6,0c0.2-0.2,0.3-0.3,0.5-0.5
					c0.2,0.2,0.4,0.5,0.6,0.7c0.2,0.2,0.3,0.5,0.5,0.7c0.6,0,1.2,0.1,1.8,0.1c0.1,0.1,0.2,0.2,0.3,0.2c0.1,0.1,0.3,0.1,0.4,0.2
					c-0.4,0.8-0.7,1.6-1.1,2.4c-0.7,0.7-1.4,1.5-2.1,2.2c-0.4-0.1-0.9-0.2-1.3-0.3c-0.3-0.1-0.6-0.1-0.9-0.2c0-0.2-0.1-0.4-0.1-0.5
					c-0.4-0.1-0.7-0.1-1.1-0.2c-0.1,0.1-0.2,0.2-0.2,0.3c-0.3-0.2-0.6-0.4-0.8-0.6c-0.5-0.3-1-0.6-1.5-0.9c-0.2-0.2-0.3-0.4-0.5-0.7
					c-0.2-0.1-0.4-0.1-0.6-0.2c0-0.1,0-0.2,0.1-0.4c-0.4-0.3-0.9-0.5-1.3-0.8c-0.1-0.2-0.1-0.5-0.2-0.7c-0.3-0.3-0.6-0.5-1-0.8
					l-1,0.1c-0.3,0.2-0.5,0.3-0.8,0.5c0.1,0.3,0.1,0.5,0.2,0.8c-0.3,0.2-0.6,0.4-0.9,0.5c-0.8-0.6-1.5-1.1-2.3-1.7
					c-0.2-0.5-0.3-1-0.5-1.5c-0.4-0.4-0.9-0.9-1.3-1.3c-0.2-0.2-0.5-0.3-0.7-0.5c-0.3-0.5-0.5-1-0.8-1.4c0.3-0.2,0.6-0.4,0.8-0.7
					c0.2-0.3,0.4-0.5,0.5-0.8c0-0.2,0-0.4,0-0.5c0.3-0.2,0.6-0.5,0.9-0.7c-0.2-0.1-0.4-0.2-0.5-0.3c-0.1-0.2-0.3-0.4-0.4-0.6
					c-0.3,0-0.6,0.1-0.9,0.1c-0.4-0.2-0.7-0.5-1.1-0.7c-0.1,0.1-0.2,0.2-0.4,0.2c0-0.2-0.1-0.4-0.1-0.6c-0.2,0-0.3,0.1-0.5,0.1
					c-0.6-0.3-1.3-0.6-1.9-0.9c-0.2,0-0.4,0.1-0.6,0.1c-0.3-0.2-0.6-0.4-0.9-0.6c-0.6,0.1-1.1,0.2-1.7,0.3c-0.3-0.1-0.6-0.1-0.8-0.2
					c-0.2,0.1-0.4,0.2-0.6,0.3c-0.2,0-0.4,0-0.7,0c0-0.2-0.1-0.3-0.1-0.5c-0.2,0-0.4,0-0.6,0.1l-0.5-0.3c-0.1,0-0.2,0-0.4-0.1
					c-0.1-0.2-0.2-0.3-0.3-0.5c0-0.1,0-0.3,0-0.4c-0.1,0-0.2,0-0.3-0.1c-0.2,0.1-0.4,0.2-0.6,0.3c-0.4,0.4-0.7,0.7-1.1,1.1
					c-0.6,0.1-1.1,0.2-1.7,0.3c-0.3,0.1-0.6,0.1-0.9,0.2c-0.3,0.3-0.6,0.6-0.8,0.9c-0.2,0.3-0.3,0.6-0.5,0.9c0,0.3-0.1,0.5-0.1,0.8
					c-0.4,0.3-0.8,0.6-1.3,0.9c-0.8,0.3-1.5,0.5-2.3,0.8c-0.5,0.2-1,0.5-1.6,0.7c-0.8,0.7-1.5,1.4-2.3,2.1c-0.4,0.3-0.9,0.7-1.3,1
					c-0.2,0.3-0.3,0.5-0.5,0.8c0,0.3,0.1,0.6,0.1,0.9c-0.1,0.2-0.2,0.4-0.4,0.5c-0.1,0.4-0.2,0.9-0.2,1.3c-0.4,0.7-0.8,1.5-1.3,2.2
					c-0.4,0.4-0.8,0.7-1.1,1.1c-0.1,0.8-0.2,1.6-0.4,2.4c0.2,0.3,0.3,0.5,0.5,0.8c0.1,0.7,0.3,1.3,0.5,2c0,1,0,1.9,0,2.9
					c0.2,0.5,0.4,1,0.6,1.5c0.2,0.5,0.5,0.9,0.7,1.4c0.3,0.6,0.6,1.2,0.9,1.8c0.7,0,1.4-0.1,2-0.1c0.4,0.2,0.8,0.5,1.2,0.7
					c0.1,0.2,0.3,0.3,0.4,0.5c0,0,1.9,0,2.1,0c0.1,0.1,1.7,0.5,1.7,0.5c0.6,0,1.1-0.1,1.7-0.1c0.3,0.3,0.7,0.5,1,0.8
					c0,0,0.5,1,0.4,1.1c-0.1,0.1-0.3,0.3-0.3,0.3c0.1,0.3,0.2,0.6,0.4,0.9c0.6,0.2,1.3,0.3,1.9,0.5c0.1,0.5,0.3,1.1,0.4,1.6
					c-0.5,0.8-1,1.6-1.5,2.4c-0.3,0.4-0.6,0.8-0.9,1.1c0.4,0.9,0.7,1.7,1.1,2.6c0,0,0.3,1.4,0.2,1.5c0,0.2-0.1,3.1-0.1,3.1
					c-0.1,0.1-0.3,0.2-0.4,0.3c-0.1,0.2-0.2,0.4-0.3,0.6c0,0.4-0.1,0.9-0.1,1.3c-0.1,0.2-0.3,0.4-0.4,0.6c-0.4,0.2-0.8,0.4-1.1,0.6
					c-0.5,0.5-1,1-1.5,1.6c-0.2,0.5-0.3,1-0.5,1.5c0.2,0.4,0.4,0.7,0.5,1.1c0,0.3-0.1,0.6-0.1,0.9c0.1,0.6,0.2,1.3,0.3,1.9
					c-0.3,1.1-0.6,2.2-0.9,3.3c0,0.4,0,0.9,0,1.3c0.1,0.2,0.3,0.3,0.4,0.5c0.1,0.5,0.1,1,0.2,1.5c0.1,0.6,0.1,1.2,0.2,1.8
					c0,0-0.7,0.4-0.7,0.4c0,0.1-0.1,1.1-0.1,1.1c0.3,0.3,0.7,0.5,1,0.8c0.5,0.1,1,0.1,1.5,0.2c0.6,0.2,1.1,0.3,1.7,0.5
					c0.4,0.2,0.7,0.4,1.1,0.6c0.8,0,1.6,0,2.4,0c1.2-0.5,2.4-1,3.7-1.6c0.2,0,0.4-0.1,0.6-0.1c0.4-0.6,0.9-1.2,1.3-1.8
					c0-0.1-0.1-0.2-0.1-0.3c0.4-0.1,0.7-0.1,1.1-0.2c0.5,0,1,0,1.5,0c0.2-0.6,0.4-1.2,0.7-1.7c0-0.6,0.1-1.3,0.1-1.9
					c0.4-0.1,0.8-0.2,1.3-0.3c0.2-0.1,0.4-0.3,0.5-0.4c0.3,0.1,0.5,0.1,0.8,0.2c0.8-0.1,1.6-0.1,2.4-0.2c0.4-0.3,0.7-0.6,1.1-0.8
					c0.5-1.1,1.1-2.3,1.6-3.5c-0.1-0.3-0.3-0.6-0.4-0.9c0.1-0.4,0.2-0.9,0.2-1.3c0.2-0.2,0.5-0.4,0.7-0.6c-0.1-0.3-0.2-0.6-0.3-0.9
					c0.4-0.4,0.8-0.8,1.1-1.3c0.3-0.3,0.6-0.6,1-0.9c0.5-0.1,0.9-0.1,1.4-0.2c0.5-0.4,1.1-0.8,1.6-1.2c1.5-0.5,3.1-0.9,4.6-1.4
					c0.1-0.1,0.2-0.3,0.3-0.4c0.2,0,0.4,0,0.6-0.1c0.5-0.4,1-0.9,1.5-1.3c0.4-0.5,0.8-1,1.3-1.4c0.6-0.6,1.1-1.1,1.7-1.7
					c0.3-0.5,0.6-1.1,0.9-1.6c-0.5,0-1,0-1.4,0.1c-0.3-0.1-0.5-0.3-0.7-0.4c-0.6,0-1.2,0.1-1.8,0.1c-0.1-0.1-0.2-0.3-0.3-0.4
					c-0.4-0.1-0.8-0.1-1.2-0.2c-0.2-0.6-0.5-1.1-0.7-1.7l0.5-0.2c0-0.2,0.1-0.4,0.1-0.6c-0.1-0.4-0.3-0.7-0.4-1.1
					c-0.1-0.6-0.1-1.1-0.2-1.7c-0.3-0.5-0.6-1-0.9-1.6c0.2-0.8,0.3-1.6,0.5-2.5c-0.2-0.6-0.4-1.3-0.5-1.9c0.2-0.5,0.5-1,0.7-1.4
					c0-0.5,0.1-0.9,0.1-1.4c-0.2-0.4-0.3-0.9-0.5-1.3c0.1-0.4,0.2-0.7,0.3-1.1c0-0.6,0-1.2-0.1-1.7c0-0.6,0-1.2,0-1.8
					c0-0.3,0-0.6,0.1-1c0,0,0.1-1.4,0.1-1.6c0,0.2,0.2,2,0.2,2c0.2,0,0.5,0,0.7-0.1c0.2,0.2,0.4,0.3,0.6,0.5
					c0.1,0.9,0.2,1.8,0.3,2.7c0,0.4,0,0.9-0.1,1.3c0.1,0.5,0.3,1,0.4,1.5c-0.2,0.5-0.4,1-0.6,1.5c-0.1,0.6-0.2,1.2-0.2,1.8
					c0.2,0.5,0.4,1.1,0.7,1.6c0,0.5-0.1,1-0.1,1.5c0.1,0.4,0.2,0.8,0.2,1.2c0,0-0.5,2.1-0.6,2.2c-0.1,0.1-0.5,1.8-0.5,1.8
					c0.1,0.2,0.1,0.3,0.2,0.5c0.3,0.1,0.7,0.2,1,0.4c0.2-0.1,0.3-0.2,0.5-0.4c0.3,0.1,0.6,0.2,0.9,0.4c0.3,0,0.7-0.1,1-0.1
					c0.3,0.1,0.5,0.1,0.8,0.2c0.4-0.1,0.9-0.2,1.3-0.3c0.7-0.1,1.3-0.1,2-0.2c0.1-0.2,0.3-0.4,0.4-0.7c0.8,0,1.6,0,2.3,0.1
					c0.2-0.2,0.3-0.3,0.5-0.5c0.3,0.1,0.6,0.2,0.9,0.3c0.1-0.2,0.2-0.4,0.4-0.5c0.4,0.1,0.8,0.1,1.2,0.2c0.1-0.3,0.2-0.6,0.3-1
					c0.3-0.2,0.6-0.4,0.9-0.6c0.5-0.5,1-0.9,1.5-1.4c0-0.1-0.1-0.3-0.1-0.4l0-0.8c0,0-0.3-0.7-0.5-0.7c-0.1,0-0.5-0.6-0.5-0.6
					c-0.1-0.4-0.2-0.9-0.4-1.3c0.1-0.4,0.3-0.7,0.4-1.1c-0.1,0-0.2,0-0.3,0l-0.4,0.4c-0.3,0.2-0.7,0.4-1,0.5c-0.3,0.1-0.7,0.1-1,0.2
					c-0.2-0.2-0.5-0.4-0.7-0.6c-0.2,0-0.4,0-0.6,0c-0.1-0.2-0.3-0.4-0.4-0.5c0.1-0.2,0.3-0.3,0.4-0.5c0.1-0.3,0.2-0.7,0.3-1
					c-0.2,0.1-0.3,0.3-0.5,0.4c-0.2,0-0.3,0-0.5,0c0.2-0.4,0.3-0.8,0.5-1.3c-0.2-0.3-0.3-0.6-0.5-0.9c0.1-0.1,0.1-0.3,0.2-0.4
					c-0.1-0.2-0.1-0.4-0.2-0.6c0-0.5-0.1-1-0.1-1.6c0.1-0.2,0.2-0.4,0.3-0.6c0.1,0.1,0.2,0.2,0.3,0.3c0-0.2,0.1-0.4,0.1-0.7
					c0.1,0.2,0.2,0.3,0.2,0.5c0.1,0,0.2,0,0.3,0c0.1,0.2,0.2,0.3,0.4,0.5c0.1,0,0.2,0,0.4,0c0.1,0.3,0.1,0.6,0.2,0.9
					c-0.1,0.2-0.1,0.4-0.2,0.5c0.2,0.9,0.4,1.9,0.6,2.8c0.3,0.4,0.7,0.7,1,1.1c0.5,0,1,0,1.5,0c0.1,0,0.3-0.1,0.4-0.1
					c0.1,0.3,0.2,0.5,0.2,0.8c0,0.3-0.1,0.5-0.1,0.8c0.1,0.3,0.2,0.6,0.3,0.8c0.3,0.1,0.5,0.2,0.8,0.3c0.3,0.1,0.6,0.3,0.9,0.4
					c0.1,0.2,0.3,0.4,0.4,0.6c0.3,0,0.6,0,0.9,0c0.2,0.1,0.3,0.2,0.5,0.3c0.8,0.2,1.7,0.5,2.5,0.7l-0.1,0.7c0.1,0.2,0.2,0.3,0.3,0.5
					c0,0.2,0,0.4,0.1,0.6c0.2,0.2,0.5,0.4,0.7,0.6c-0.1,0.2-0.2,0.4-0.4,0.6c0.1,0.1,0.2,0.3,0.3,0.4c0.2,0.1,0.5,0.2,0.7,0.2
					c0.2-0.1,0.5-0.1,0.7-0.2c0,0.1,0.1,0.1,0.1,0.2c-0.2,0.1-0.5,0.2-0.7,0.3c-0.5,0-0.9-0.1-1.4-0.1c0.1,0.4,0.3,0.9,0.4,1.3
					c0,0.3,0.1,0.5,0.1,0.8c0.2,0,0.4,0.1,0.7,0.1c0.3-0.1,0.6-0.2,0.8-0.3c0.2-0.3,0.4-0.6,0.6-0.9c0.2,0-0.2,1.1-0.2,1.1
					c0,0.2,0,0.3,0,0.5c-0.3,0.3-0.6,0.7-0.9,1c0,0.3,0,0.6,0,0.9c-0.2,0.6-0.5,1.3-0.7,1.9c-0.1,1.2-0.3,2.5-0.4,3.7
					c-0.1,0.3-0.2,0.6-0.3,0.8c0,0.9,0,1.8,0,2.7c-0.1,0.1-0.2,0.2-0.3,0.3c0.1,0.5,0.1,1.1,0.2,1.6c0.2,0.1,0.4,0.1,0.6,0.2
					c0.2-0.1,0.3-0.3,0.5-0.4c0.3-0.3,0.7-0.5,1-0.8c0.1,0,0.3,0.1,0.4,0.1c0.1-0.3,0.2-0.5,0.2-0.8c0.3-0.4,0.7-0.8,1-1.1
					c0.2-0.4,0.3-0.9,0.5-1.3c0.2-0.3,0.4-0.6,0.6-0.9c0.1-0.2,0.1-0.5,0.2-0.7l0.6-0.2c0.3,0,0.6-0.1,0.9-0.1
					c0.2,0,0.5-0.1,0.7-0.1c0.1-0.1,0.2-0.3,0.4-0.4c0.3,0,0.6,0,0.8,0c0.6-0.3,1.2-0.6,1.7-0.9c0.1-0.1,0.3-0.2,0.4-0.4
					c0.2,0.1,0.3,0.2,0.5,0.2c0.3-0.2,0.7-0.3,1-0.5c0.2-0.2,0.3-0.5,0.5-0.7c0.3,0,0.6-0.1,0.8-0.1c0,0.1,0,0.3,0,0.4
					c0.4,0,0.7-0.1,1.1-0.1c0.1,0.1,0.1,0.2,0.2,0.2c0.2-0.2,0.3-0.4,0.5-0.5c0,0,0.4-0.7,0.3-0.6c0,0.1,0.4,0.6,0.4,0.6
					c-0.1,0.5-0.2,1-0.3,1.5c0,0.4,0,0.8,0,1.2c0.2,0,0.5,0.1,0.7,0.1c-0.1,0.4-0.2,0.9-0.3,1.3c-0.1,0.2-0.2,0.3-0.2,0.5
					c0,0.1,0,0.2,0.1,0.3c-0.1,0.2-0.2,0.5-0.3,0.7c-0.2,0.2-0.3,0.4-0.5,0.6l-0.2,0.4c0.1,0.2,0.2,0.3,0.2,0.5
					c0.2,0,0.4,0.1,0.6,0.1c0.3-0.1,0.6-0.2,0.8-0.4c0,0,0.4-0.5,0.3-0.4s0.4,0.9,0.4,0.9c-0.1,0.2-0.2,0.5-0.3,0.7
					c-0.1,0.5-0.3,1.1-0.4,1.6c0,0.2,0,0.3,0.1,0.5c-0.1,0.3-0.2,0.6-0.3,1c-0.1,0.1-0.2,0.2-0.2,0.3c0,0.3-0.1,0.7-0.1,1
					c-0.1,0.1-0.2,0.3-0.3,0.4c-0.1,0.1-0.2,0.2-0.2,0.2c0,0.1,0,0.2,0,0.3c-0.1,0.1-0.2,0.2-0.3,0.3c-0.2,0.2-0.4,0.4-0.6,0.6
					c0,0.3,0.1,0.6,0.1,0.9c0.1,0.3,0.2,0.6,0.3,1c-0.1,0.4-0.3,0.9-0.4,1.3c-0.1,0.3-0.2,0.5-0.3,0.8c-0.1,0.3-0.1,0.6-0.2,0.8
					c0,0.2,0,0.3,0,0.5c-0.1,0.2-0.1,0.3-0.2,0.5c0.2,0.5,0.4,1,0.6,1.4c0,0,0.4-0.2,0.5-0.2c0.1,0,0.3,0.2,0.3,0.2
					c0-0.4,0.1-0.9,0.1-1.3c0,0,0.8-1.3,0.8-1.4c0-0.1,0-1.2,0-1.2c-0.1-0.4-0.2-0.8-0.3-1.1c-0.1-0.3-0.2-0.6-0.4-0.8
					c0-0.2,0-0.5,0.1-0.7c0-0.3,0-0.6,0-0.8c0.2-0.3,0.5-0.5,0.7-0.8c0.4-0.7,0.8-1.3,1.2-2c0.1-0.1,0.2-0.3,0.4-0.4
					c0.1,0.1,0.2,0.2,0.3,0.3c-0.1,0.2-0.1,0.4-0.2,0.7c0.2,0.1,0.3,0.1,0.5,0.2c0,0.2-0.1,0.4-0.1,0.7c0.1,0.1,0.1,0.2,0.2,0.4
					c0,0.3-0.1,0.7-0.1,1c0.1,0.1,0.2,0.1,0.3,0.2c0,0.1,0,0.2-0.1,0.3c0.1,0,0.2,0.1,0.4,0.1c0,0.2-0.1,0.4-0.1,0.6
					c-0.1,0.1-0.3,0.3-0.4,0.4c0,0.2-0.1,0.3-0.1,0.5c0,0-0.4,0.4-0.3,0.3c0.1-0.1,1-0.5,1-0.5c0.1,0,0.1,0.1,0.2,0.1
					c0.1-0.3,0.2-0.6,0.3-0.9c0,0.2,0.1,0.3,0.1,0.5c0.1,0,0.2,0,0.3,0c0-0.2,0-0.3-0.1-0.5c0-0.2-0.1-0.3-0.1-0.5
					c0.1,0.2,0.3,0.3,0.4,0.5c0.3,0,0.6,0,0.9,0c0.9-1.1,1.7-2.3,2.5-3.6c0-0.3,0-0.5,0-0.8l0.1-0.5c0-0.1-0.1-0.3-0.1-0.4
					c0-0.2,0-0.4,0-0.5c-0.1-0.2-0.2-0.5-0.3-0.7c0-0.1,0.1-0.3,0.1-0.4c0-0.2-0.1-0.5-0.1-0.7c0.1-0.1,0.2-0.3,0.3-0.4
					c0.1-0.2,0.1-0.3,0.2-0.5c0.2,0,0.3-0.1,0.5-0.1c0.3-0.2,0.6-0.4,0.8-0.6c0.2,0,0.3,0,0.5,0.1c0.2-0.1,0.4-0.2,0.6-0.4
					c0.2,0.1,0.3,0.1,0.5,0.2c0,0.1,0.1,0.1,0.1,0.2c0.5-1,0.9-1.9,1.4-2.9c8.1-18.9,5.3-39.7-5.6-55.5c-0.1,0-0.2,0.1-0.2,0.1
					c-0.1,0.1-0.2,0.1-0.3,0.2c-0.3,0-0.7-0.1-1-0.1c0.1,0.1,0.2,0.3,0.3,0.4c0,0.3-0.1,0.5-0.1,0.8c-0.1-0.1-0.2-0.1-0.3-0.2
					c0-0.2-0.1-0.5-0.1-0.7c-0.2-0.1-0.3-0.2-0.5-0.4c-0.1,0-0.3,0-0.4,0c-0.2-0.3-0.4-0.5-0.6-0.8c0-0.1,0.1-0.2,0.1-0.3L243,84
					c0.1,0.1,0.2,0.2,0.2,0.3c0.2,0,0.3,0.1,0.5,0.1c0.1-0.1,0.2-0.2,0.4-0.2c0.1,0.1,0.1,0.2,0.2,0.3c0.2-0.1,0.4-0.2,0.6-0.2
					c0.1,0,0.2-0.1,0.3-0.1c-0.9-1.3-1.9-2.5-2.9-3.7c0,0.2,0,0.3-0.1,0.5C242.4,80.9,242.5,80.9,242.7,81"/>
				<path class="st6" d="M177.7,75.4c0.1,0.2,0.2,0.4,0.3,0.5c0.2,0.1,0.3,0.3,0.5,0.4c0.4-0.1,0.8-0.1,1.2-0.2
					c0.4-0.1,0.8-0.2,1.2-0.3c0.1-0.3,0.3-0.5,0.4-0.8c-0.1-0.1-0.1-0.3-0.2-0.4c0,0,0.8-0.3,1.2-0.6c-0.1-0.2-0.2-0.4-0.3-0.6
					c0-0.1,0-0.2,0.1-0.3c-0.3-0.2-0.5-0.3-0.8-0.5c0,0.1,0,0.2-0.1,0.3c-0.3,0.2-0.5,0.4-0.8,0.6c-0.3-0.2-0.5-0.3-0.8-0.5
					c-0.1,0.2-0.2,0.4-0.3,0.5c-0.3,0.1-0.6,0.2-0.9,0.3c0.2,0.2,0.5,0.3,0.7,0.5c-0.1,0.2-0.2,0.4-0.3,0.7
					C178.4,75.3,178.1,75.3,177.7,75.4"/>
				<path class="st6" d="M183.4,76.2c-0.1-0.1-0.2-0.3-0.3-0.4c-0.2-0.1-0.4-0.1-0.6-0.2c0.1,0.2,0.2,0.4,0.3,0.6
					c-0.2,0-0.5,0.1-0.7,0.1c0.2,0.1,0.3,0.2,0.5,0.3c-0.1,0.1-0.1,0.3-0.2,0.4c-0.2,0-0.5,0-0.7-0.1c0,0.1-0.1,0.2-0.1,0.4
					c0.2,0.1,0.5,0.2,0.7,0.3c0.2,0.1,0.4,0.1,0.6,0.2l0.4,0.2c-0.2,0.2-0.3,0.3-0.5,0.5c-0.4-0.2-0.7-0.4-1.1-0.7
					c-0.5,0.2-1.1,0.5-1.6,0.7c0,0.2,0,0.4,0,0.6c0.3-0.1,0.7-0.2,1-0.3c0.3,0.1,0.6,0.2,0.9,0.4c0.2,0,0.4-0.1,0.7-0.1
					c0.2,0.1,0.5,0.2,0.7,0.4c0.3-0.1,0.6-0.2,0.9-0.3c0.2,0.1,0.5,0.2,0.7,0.3c0.3,0,0.5,0.1,0.8,0.1c0-0.1,0-0.3,0-0.4
					c0.3,0,0.6,0,0.9,0c0.1-0.3,0.2-0.6,0.2-0.9c-0.1-0.1-0.3-0.3-0.4-0.4c-0.2-0.1-0.3-0.3-0.5-0.4c0.1-0.1,0.3-0.1,0.5-0.2
					c-0.2-0.2-0.3-0.3-0.5-0.5c0-0.3,0-0.6,0.1-0.8c-0.1-0.3-0.3-0.6-0.4-0.9c-0.1-0.3-0.1-0.6-0.2-0.9c-0.2-0.2-0.3-0.4-0.5-0.6
					c0.2-0.1,0.4-0.2,0.6-0.3c0.2-0.2,0.3-0.4,0.5-0.6c0.1-0.2,0.3-0.4,0.4-0.5c-0.2-0.1-0.4-0.3-0.7-0.4c-0.2-0.1-0.4-0.3-0.5-0.4
					c0.2-0.1,0.5-0.2,0.7-0.3c0-0.2,0-0.5,0-0.7c-0.4,0-0.7,0-1.1,0c-0.3,0.2-0.6,0.5-0.9,0.7c0,0-0.1,0.4-0.4,0.4
					c-0.1-0.2-0.3-0.4-0.4-0.5c0,0,0,0.6,0,1.1c0.1,0.2,0.1,0.3,0.2,0.5c-0.2,0-0.4,0-0.5,0c0.2,0.1,0.4,0.2,0.6,0.4
					c-0.1,0.1-0.2,0.3-0.3,0.4c-0.1,0.3-0.2,0.6-0.3,0.9c0.3,0,0.5,0,0.8,0c0.1,0.2,0.3,0.3,0.4,0.5c-0.1,0.1-0.3,0.2-0.4,0.2
					c0.1,0.2,0.2,0.3,0.4,0.5c0,0.2-0.1,0.4-0.1,0.7C183.9,76,183.6,76.1,183.4,76.2"/>
				<path class="st6" d="M184.1,69.8c-0.1-0.2-0.2-0.4-0.3-0.6c-0.2,0.2-0.3,0.3-0.5,0.5c0.1,0.1,0.2,0.2,0.3,0.3
					C183.8,70,184,69.9,184.1,69.8"/>
				<path class="st6" d="M189,69.7c-0.1-0.3-0.1-0.5-0.2-0.8c-0.1,0.1-0.2,0.2-0.3,0.3c-0.2,0.2,0,0.6,0,0.6
					C188.7,69.7,188.9,69.7,189,69.7"/>
				<path class="st6" d="M182.1,91.5c0,0.1-0.1,0.2-0.1,0.3c-0.1,0.1-0.3,0.3-0.4,0.4c-0.1,0.1-0.2,0.2-0.2,0.3
					c0.3-0.1,0.5-0.1,0.8-0.2C182.5,92.1,182.1,91.5,182.1,91.5"/>
				<path class="st6" d="M187.7,91.5c0.1-0.3,0.3-0.7,0.4-1c-0.2,0.1-0.3,0.2-0.5,0.3l-0.6,0.2c-0.1,0.2-0.2,0.5-0.2,0.7
					c0,0.1-0.1,0.2-0.1,0.3c0.1,0.1,0.3,0.2,0.4,0.3C187.2,92,187.4,91.7,187.7,91.5"/>
				<path class="st6" d="M183.6,92.4l-0.6,0c0.2,0.1,0.3,0.2,0.5,0.4C183.5,92.6,183.5,92.5,183.6,92.4"/>
				<path class="st6" d="M180.3,91.9c-0.1,0.1-0.2,0.2-0.3,0.3c0,0,0.4,0,0.7-0.2C180.5,92,180.4,91.9,180.3,91.9"/>
				<path class="st6" d="M186.6,94.2c0.2-0.2,0.3-0.5,0.5-0.7c0,0,1.4-1,0-0.7c-1.4,0.3-0.3-0.6-0.8-0.1c-0.5,0.4-0.5,0.4-0.5,0.4
					c0,0.3,0,0.6,0,0.9c-0.1,0.2-0.2,0.5-0.3,0.7c0.2,0,0.4,0,0.6,0.1C186.2,94.5,186.4,94.4,186.6,94.2"/>
				<path class="st6" d="M188.1,98c0.3,0.4,0.7,0.8,1,1.1c0.2-0.3,0.4-0.6,0.5-0.8c0.1-0.2,0.1-0.4,0.2-0.6
					c-0.3-0.1-0.6-0.2-0.8-0.3c-0.3-0.2-0.6-0.4-0.8-0.5l-0.4,0.2C187.9,97.4,188,97.7,188.1,98"/>
				<path class="st6" d="M196.4,104.7c0.2,0.2,0.7-0.2,0.7-0.2c-0.2-0.2-0.3-0.3-0.5-0.5c-0.2-0.1-0.5-0.2-0.7-0.3
					c-0.2-0.2-0.4-0.3-0.6-0.5c-0.2-0.1-0.4-0.1-0.6-0.2c0.2,0.3,0.5,0.6,0.7,0.8C195.5,103.8,196.2,104.5,196.4,104.7"/>
				<path class="st6" d="M202.8,107.2c0.2-0.2,0.4-0.3,0.7-0.5c-0.3-0.1-0.6-0.2-1-0.2c-0.4,0.1-0.7,0.1-1.1,0.2
					c0.2,0.2,0.4,0.5,0.6,0.7C202.3,107.2,202.5,107.2,202.8,107.2"/>
				<path class="st6" d="M195,77.6c0.1,0.3,0.2,0.8,0.2,0.8c0.2,0.1,0.3,0.3,0.5,0.4c0.1-0.1,0.2-0.2,0.3-0.3
					c0.1-0.3,0.2-0.5,0.3-0.8C195.9,77.6,195,77.6,195,77.6"/>
				<path class="st6" d="M202.5,77.9c-0.1,0-0.2-0.1-0.4-0.1c-0.3,0.1-0.6,0.2-0.8,0.3c0,0.2,0,0.4-0.1,0.5c0.2,0,0.4-0.1,0.6-0.1
					C202,78.3,202.3,78.1,202.5,77.9"/>
				<path class="st6" d="M205.6,78c-0.1,0-0.3,0.1-0.4,0.1c-0.2-0.1-0.4-0.1-0.6-0.2c0,0.2,0,0.4-0.1,0.5c0.2,0,0.5,0.1,0.7,0.1
					C205.3,78.4,205.5,78.2,205.6,78"/>
				<path class="st6" d="M205.8,65.3c0.1-0.1,0.2-0.2,0.3-0.4c-0.2-0.1-0.5-0.2-0.7-0.3c-0.2,0.1-0.4,0.3-0.6,0.4
					c0.1,0.1,0.1,0.2,0.2,0.3L205.8,65.3z"/>
				<path class="st6" d="M207.3,64.2c0,0-0.5,0.2-0.7,0.3c0.3,0.1,0.5,0.2,0.8,0.2c0.1-0.1,0.2-0.2,0.3-0.3
					C207.5,64.4,207.4,64.3,207.3,64.2"/>
				<path class="st6" d="M209.3,64.1c-0.1-0.1-0.3-0.2-0.4-0.3c-0.1,0.1-0.3,0.2-0.4,0.2C208.4,64,209,64.1,209.3,64.1"/>
				<path class="st6" d="M211.6,64.3c0-0.1,0.1-0.3,0.1-0.4c-0.3,0-0.5-0.1-0.8-0.1c-0.1,0.1-0.3,0.1-0.4,0.2
					c0.1,0.1,0.2,0.2,0.4,0.3C211.1,64.2,211.4,64.2,211.6,64.3"/>
				<path class="st6" d="M232,71.6c0.2,0.2,0.4,0.5,0.5,0.7c0.2,0,0.4,0,0.7-0.1c0.1,0.3,0.1,0.6,0.2,0.9c-0.2,0.1-0.3,0.1-0.5,0.2
					c0.3,0.4,0.5,0.7,0.8,1.1c0.3,0.1,0.6,0.2,0.9,0.3c0.5,0,1,0.1,1.6,0.1c-0.3-0.4-0.5-0.8-0.8-1.2c0-0.1,0-0.2,0-0.3
					c-0.9-0.8-1.9-1.5-2.9-2.3c-0.1,0.1-0.1,0.2-0.2,0.3C232.2,71.5,232.1,71.6,232,71.6"/>
				<path class="st6" d="M237.5,77c0-0.1,0-0.3,0-0.4c-0.2-0.2-0.4-0.4-0.6-0.6c-0.1-0.1-0.2-0.3-0.3-0.4c-0.1,0.2-0.1,0.4-0.2,0.6
					c0.2,0.2,0.3,0.4,0.5,0.6C237,76.8,237.2,76.9,237.5,77"/>
				<path class="st6" d="M230,74.5c0.1-0.2,0.1-0.3,0.2-0.5c-0.2-0.2-0.4-0.3-0.6-0.5c-0.1,0.2-0.2,0.4-0.4,0.6
					c0.1,0.2,0.2,0.4,0.4,0.6C229.7,74.6,229.8,74.5,230,74.5"/>
				<path class="st6" d="M248.4,144.8l-0.3,0.3c0.1,0.2,0.1,0.3,0.2,0.5c0.1,0.1,0.1,0.3,0.2,0.4c0.2-0.4,0.4-0.8,0.6-1.2
					c0,0,0,0,0,0C248.8,144.8,248.6,144.8,248.4,144.8"/>
				<path class="st6" d="M225.7,146.1c-0.3-0.3-0.7,0.2-0.7,0.2c0,0.2-0.1,0.3-0.1,0.5c-0.1,0.1-0.3,0.3-0.4,0.4
					c-0.1,0.4-0.2,0.7-0.3,1.1c0,0,0.1,0.6,0.3,0.6c0.2,0.1,0.8-0.2,0.8-0.2c0.2-0.2,0.4-0.5,0.6-0.7c0-0.3,0-0.6-0.1-0.9
					C225.8,146.8,225.8,146.4,225.7,146.1"/>
				<path class="st6" d="M195,154.3c-0.2,0.3-0.5,0.6-0.7,0.9c-0.3,0.1-0.5,0.2-0.8,0.3c-0.2,0.1-0.4,0.2-0.6,0.3
					c-0.1,0.1-0.2,0.1-0.3,0.2c-0.3-0.1-0.6-0.2-0.9-0.3c-0.3,0.1-0.5,0.1-0.8,0.2c-0.3,0.1-0.7,0.2-1,0.3c-0.2,0.1-0.3,0.1-0.5,0.2
					c-0.1,0.3-0.2,0.6-0.3,0.8c0.1,0.3,0.3,0.6,0.4,0.9c-0.2,0.1-0.4,0.1-0.6,0.2c-0.3,0.2-0.6,0.4-0.9,0.6c-0.3,0.3-0.6,0.6-0.9,1
					c0.1,0.3,0.2,0.6,0.3,0.9c0,0.4-0.1,0.7-0.1,1.1c0.2,0.3,0.4,0.5,0.6,0.7c0.4,0,0.8,0,1.2,0c0.4-0.2,0.8-0.5,1.2-0.7
					c0.4-0.5,0.8-1,1.2-1.5c0.3-0.2,0.6-0.4,0.9-0.6c0.4-0.4,0.8-0.8,1.2-1.2c0.2-0.2,0.4-0.4,0.6-0.6c0,0,0.2-0.9,0.3-1.1
					c0.1-0.2,0.1,0.6,0.1,0.6c0.2-0.1,0.4-0.3,0.6-0.4c0,0,0.1-1,0.1-1.2c-0.1-0.3,0.1-1.2,0.1-1.2
					C195.3,154.5,195.2,154.4,195,154.3"/>
				<path class="st6" d="M236.9,159c-0.2-0.4-0.3-0.8-0.5-1.2c0-0.5,0-0.9,0-1.4c-0.1-0.7-0.3-1.4-0.4-2.2c-0.2-0.2-0.4-0.4-0.6-0.6
					c-0.2-0.1-0.3-0.2-0.5-0.4c-0.2-0.1-0.4-0.2-0.5-0.3c-0.2,0.3-0.3,0.7-0.5,1c0,0.3,0.1,0.6,0.1,0.9c0.1,0.3,0.3,0.6,0.4,0.9
					c0.1,0.4,0.2,0.7,0.3,1.1c-0.1,0.3-0.2,0.7-0.3,1c0.2,0.2,0.3,0.4,0.5,0.6c-0.1,0.5-0.2,1-0.3,1.5c0.1,0.6,0.2,1.1,0.3,1.7
					c0,0.2,0,0.4-0.1,0.6c0.8-0.7,1.7-1.4,2.5-2.1c0.1-0.2,0.1-0.4,0.2-0.6C237.2,159.3,237,159.1,236.9,159"/>
			</g>
			<rect x="331.4" y="67.2" class="st7" width="129" height="49"/>
			<g class="st2">
				<text transform="matrix(1 0 0 1 370.5469 100.4765)" class="st8 st9">2012</text>
			</g>
			<polygon class="st10" points="212,178.7 212.6,197.5 214,207.1 206.8,209.2 198.4,211.9 199.1,197.9 199.2,183.7 			"/>
			<polygon class="st11" points="212,178.7 212.6,197.5 214,207.1 206.8,209.2 198.4,211.9 199.1,197.9 199.2,183.7 			"/>
			<g class="st2">
				<defs>
					<rect id="SVGID_7_" width="500" height="500"/>
				</defs>
				<clipPath id="SVGID_8_">
					<use xlink:href="#SVGID_7_"  style="overflow:visible;"/>
				</clipPath>
				<path class="st12" d="M207.9,152.4c-9.9,1.2-10.3,7.7-10.3,7.7s-1,3.7-1.4,9.7c-0.8-1.3-2.2-1.9-3.9-1.4c-3.4,1.1-2,11.4,3.1,11
					c-0.1,2.8,0.8,6.4,1.1,7.2c1.1,3,6.6,6.8,12,8c5.4,1.2,13.7-3,14.8-9.3c1.6-8.6,2.1-29,2.1-29S224.3,150.4,207.9,152.4"/>
				<path class="st13" d="M203.8,157.4c-2.6-0.3-6.6-1.5-9.2-1.8c0-0.3-0.2,1.9-0.2,1.9c0.3,1.1-0.7,10.8-0.7,10.8
					c2.6,0.4,2.3,2.7,2.3,2.7l-0.1,4.6l2.6,0l1.1-9.7c1.9-0.7,2.6-2.2,2.6-2.2S203.3,159,203.8,157.4"/>
				<path class="st14" d="M203.5,164.7c0.6-0.7,1.3-1.2,2.2-1.6c0.8-0.4,1.8-0.5,2.7-0.5c0.9,0,1.9,0.3,2.7,0.8
					c0.8,0.4,1.5,1.1,1.9,1.9c-0.9-0.3-1.6-0.7-2.4-0.9c-0.8-0.2-1.5-0.3-2.3-0.4C206.8,164,205.2,164.3,203.5,164.7"/>
				<path class="st14" d="M216.9,166.4c0.4-0.7,1-1.2,1.7-1.6c0.7-0.4,1.5-0.6,2.4-0.5c0.8,0.1,1.7,0.5,2.2,1.1
					c0.3,0.3,0.5,0.6,0.7,0.9c0.2,0.4,0.3,0.7,0.4,1.1c-0.4-0.2-0.6-0.4-0.9-0.6c-0.3-0.2-0.6-0.4-0.9-0.5c-0.6-0.3-1.2-0.5-1.7-0.5
					C219.6,165.6,218.3,165.9,216.9,166.4"/>
				<path class="st15" d="M205.4,183l12.4,1.8C217.8,184.8,213.3,191,205.4,183"/>
				<polygon class="st16" points="212.6,180 215.1,169.3 217.3,179.8 				"/>
				<path class="st17" d="M185.2,253.1c0,0-11.2,62.6,8,125.3c0,0,6.4,4.5,12.3,0.1c0,0-5.5-59.9-2-95.1l4.5,0.8
					c0,0,10.4,30.9,11.3,39.3c0.9,8.4,7,53.9,8.7,57.7c0,0,9.3,2.7,12.1-2.1c0,0-1.2-34.9-1.6-49.7c-0.3-11-13.6-72.3-13.6-72.3
					L185.2,253.1z"/>
				<path class="st17" d="M260,253.1c0,0-11.2,62.6,8,125.3c0,0,6.4,4.5,12.3,0.1c0,0-5.5-59.9-2-95.1l4.5,0.8
					c0,0,10.4,30.9,11.3,39.3c0.9,8.4,7,53.9,8.7,57.7c0,0,9.3,2.7,12.1-2.1c0,0-1.2-34.9-1.6-49.7c-0.3-11-13.6-72.3-13.6-72.3
					L260,253.1z"/>
				<path class="st18" d="M219.9,171.8c-0.2,1,0.1,2,0.7,2.1c0.6,0.1,1.2-0.6,1.4-1.7c0.2-1-0.1-2-0.7-2.1
					C220.7,170,220.1,170.7,219.9,171.8"/>
				<path class="st18" d="M207.9,170c-0.2,1,0.1,2,0.7,2.1c0.6,0.1,1.2-0.6,1.4-1.7c0.2-1-0.1-2-0.7-2.1
					C208.7,168.3,208.1,169,207.9,170"/>
				<path class="st19" d="M197.5,199.5c0,0-2.4,10.2,7,10.1c9.3,0,10.4-10.4,10.4-10.4s14.8,1,19.4,3.1c4.6,2,18.6,36.5,17.7,43.2
					c-0.9,6.7-29.7,10.5-29.7,10.5l-3.2-7.4l16.9-9.3l-5.2-8.9l-3,35.4c0,0-13.2,8.7-45.4,0.6l-1-36.2l-27.4,34.5l-8.6-6.4
					c0,0,27.9-48.3,33.4-53C184.2,200.4,197.5,199.5,197.5,199.5"/>
				<g class="st20">
					<g>
						<defs>
							<rect id="SVGID_9_" x="181.4" y="232.8" width="51.4" height="36.8"/>
						</defs>
						<clipPath id="SVGID_10_">
							<use xlink:href="#SVGID_9_"  style="overflow:visible;"/>
						</clipPath>
						<path class="st21" d="M232.4,250.3c0.1-0.5,0.2-0.9,0.3-1.3c-6-0.8-12-2-18-3.9c-11.4-3.5-22.6-7.3-33.3-12.3l0.9,33.4
							c32.2,8.1,45.4-0.6,45.4-0.6l0.9-10.7c1.3-0.2,2.7-0.5,4.2-0.8C232.4,252.9,232.2,251.6,232.4,250.3"/>
					</g>
				</g>
				<path class="st12" d="M236.9,251.7c0,0-25.6,6.2-25.4,3.9c0.2-2.3-1.6-3.6,2.6-4.9c4.2-1.3,22.9-7.1,22.9-7.1L236.9,251.7z"/>
				<path class="st12" d="M216.3,255.9c0,0,0.8-3.8-0.7-5.4c-1.5-1.6-2.6-2.8-4.8-3c-2.2-0.1-3.9-2-4.3-1.6
					c-0.4,0.4-1.7,1.7,2.1,3.1c0,0,1.7,0.3,1.1,0.9c-0.5,0.5-2.8,0.2-5.7,0.3c-4.1,0.1-3.3,0.6-2.8,1.1c0.5,0.5,5,0.8,6.2,1.2
					c1,0.3-6.8,0.3-6.9,1.3c-0.1,1.6,8.1,0.6,7.4,1.2c-0.7,0.6-5.8,1.1-6.1,1.7c-0.9,1.9,7.4-0.1,7.4,0.4c0,0.4-3.7,1.3-3.8,2.2
					c0,0.8,1.9,0.3,3.1,0c1.4-0.4,1.9-0.7,3.3-1C213,257.8,215.2,257.5,216.3,255.9"/>
				<path class="st19" d="M244.9,221.7c-4.5,3.2-9.1,6.4-13.5,9.8l4.5,7.8l-17.5,8l3.9,8.8c0,0,28.8-3.8,29.7-10.5
					C252.4,242,249,231.5,244.9,221.7C244.9,221.6,244.9,221.6,244.9,221.7"/>
				<polygon class="st19" points="195.2,200.7 195.6,193.4 215.6,196 215.6,200.1 213.3,211.6 198.1,216.4 				"/>
				<path class="st13" d="M203.8,157.4c0,0,7.6,4.2,16.1,1.4l-3.6-0.8c0,0,15.6,2.2,16.7-9.7c0,0-4.9,2-12.2-0.2
					c0,0,3.1,0.6,5.9-0.3c0,0-5.4-0.9-11.5-4.2c-6.1-3.3-16.3-1.8-16.6,5.7c0,0-5.9-0.9-6.5,4.8c-0.6,5.7,1.4,14,1.4,14L203.8,157.4
					z"/>
				<polygon class="st22" points="260.4,181.8 262.4,198.1 262.5,206.4 269,207.4 276.5,208.6 274.1,196.7 272.2,184.5 				"/>
				<g class="st20">
					<g>
						<defs>
							<rect id="SVGID_11_" x="260.4" y="181.8" width="16.1" height="26.8"/>
						</defs>
						<clipPath id="SVGID_12_">
							<use xlink:href="#SVGID_11_"  style="overflow:visible;"/>
						</clipPath>
						<polygon class="st23" points="274.1,208.2 272.3,197 262,194.6 260.4,181.8 272.2,184.5 274.1,196.7 276.5,208.6 						"/>
					</g>
				</g>
				<path class="st22" d="M262.4,157.9c-8.2,2.8-7.3,8.4-7.3,8.4s-0.1,3.4,0.6,8.5c-0.9-1-2.1-1.2-3.3-0.3c-3,2.2,0.1,9.9,4.4,8.6
					c0.5,2.4,1.9,5.3,2.3,5.9c1.5,2.4,6.9,4.6,11.7,4.7c4.8,0.1,11-5,10.9-10.6c-0.3-7.6-3.4-23.8-3.4-23.8S276,153.3,262.4,157.9"
					/>
				<path class="st17" d="M259.1,160.3c-2.3,0.2-5.1,2.4-7.4,2.6c0-0.2,0.2,1.6,0.2,1.6c0.5,0.9,1.5,9.6,1.5,9.6
					c2.3-0.1,2.4,1.6,2.4,1.6l0.8,4l2.2-0.5l-0.9-8.5c1.4-1,1.8-2.4,1.8-2.4S260.1,164.4,259.1,160.3"/>
				<path class="st24" d="M271.7,167.3c0.1-0.7,0.5-1.3,1-1.8c0.5-0.5,1.2-0.8,2-0.9c0.8-0.1,1.6,0.1,2.2,0.6
					c0.3,0.2,0.5,0.5,0.8,0.7c0.2,0.3,0.4,0.6,0.5,0.9c-0.4-0.1-0.7-0.2-1-0.3c-0.3-0.1-0.6-0.2-0.9-0.2c-0.5-0.1-1-0.1-1.5-0.1
					C274,166.3,273,166.7,271.7,167.3"/>
				<path class="st24" d="M261.8,168.5c0.1-0.7,0.5-1.3,1-1.8c0.5-0.5,1.2-0.8,2-0.9c0.8-0.1,1.6,0.1,2.2,0.6
					c0.3,0.2,0.5,0.5,0.8,0.7c0.2,0.3,0.4,0.6,0.5,0.9c-0.4-0.1-0.7-0.2-1-0.3c-0.3-0.1-0.6-0.2-0.9-0.2c-0.5-0.1-1-0.1-1.5-0.1
					C264.1,167.5,263.1,167.9,261.8,168.5"/>
				<g class="st25">
					<g>
						<defs>
							<rect id="SVGID_13_" x="272.1" y="171.1" width="4.6" height="9.5"/>
						</defs>
						<clipPath id="SVGID_14_">
							<use xlink:href="#SVGID_13_"  style="overflow:visible;"/>
						</clipPath>
						<polygon class="st26" points="272.8,180.6 272.1,171.1 276.7,179.2 						"/>
					</g>
				</g>
				<path class="st27" d="M259.5,262.3c12.9,0.9,25.6,3.1,38.4,5.2c0.7-13.3-2.1-55.4-3.3-63.5c-0.8-5.3-15.4-7.5-23.4-7.1l-1.6,4.2
					l-2.7-3.5c-7.5,0.8-20.2,4.6-22.5,6.3c-1.8,1.4,0.8,5.9,3,13.4C250.1,226.8,257.5,255.8,259.5,262.3"/>
				<g class="st28">
					<g>
						<defs>
							<rect id="SVGID_15_" x="249.3" y="223.2" width="48.6" height="42.3"/>
						</defs>
						<clipPath id="SVGID_16_">
							<use xlink:href="#SVGID_15_"  style="overflow:visible;"/>
						</clipPath>
						<path class="st29" d="M264.8,263.5c5.5-0.1,8.4,1.3,13.9,1.9c5.2,0.6,14.1-2.2,19.2-1.4c0.1-2.9-3.4-20.8-3.3-24.4
							c-26.1-6.8-39.6-13-45.3-16.5c1.3,5.4,8.3,32.3,9.8,38.1C261.3,261.2,262.5,263.5,264.8,263.5"/>
					</g>
				</g>
				<path class="st22" d="M276.6,235.7c-1.6-1.8-7.9-0.2-7.9-0.2l-15.4,3.5c-1.8,0.9,3.9,2.8,2,3.3c0.6,1.3,10-2.8,10.5-2.2
					c2.4,3,4.8-0.5,4.8-0.5c1.6,11.4,1.9-1.5,1.9-1.5c1,12.8,2-0.3,2-0.3c3.2,12.5,1.8,0.3,1.8,0.3
					C283.6,248,276.6,235.7,276.6,235.7"/>
				<path class="st27" d="M278.5,197.2c0,0,52,4.4,63.8,6.6c7.7,1.5,0,13-4,10.6c-1.5-0.9-48.7-0.9-48.7-0.9L278.5,197.2z"/>
				<path class="st15" d="M270.3,207.5c-6.5,1.1-9.7-3.9-10.8-8.7c2.7-0.7,4.8-0.8,7.2-1.1l2.7,3.5l1.6-4.2c2.1-0.1,4.7,0,7.4,0.2
					C278.5,201.2,277.5,206.3,270.3,207.5"/>
				<g class="st28">
					<g>
						<defs>
							<rect id="SVGID_17_" x="259.5" y="196.9" width="19" height="10.7"/>
						</defs>
						<clipPath id="SVGID_18_">
							<use xlink:href="#SVGID_17_"  style="overflow:visible;"/>
						</clipPath>
						<path class="st30" d="M270.3,207.5c-6.5,1.1-9.7-3.9-10.8-8.7c2.7-0.7,4.8-0.8,7.2-1.1l2.7,3.5l1.6-4.2c2.1-0.1,4.7,0,7.4,0.2
							C278.5,201.2,277.5,206.3,270.3,207.5"/>
					</g>
				</g>
				<polygon class="st15" points="278.4,197.1 274.1,202.8 271.1,197 276,194.5 				"/>
				<polygon class="st15" points="259.3,198.6 263.5,204.5 266.8,197.7 261.2,196 				"/>
				<path class="st15" d="M261.8,235.4l2.7-0.7c0,0,1.4,4.3-0.3,5.6l-3.8-0.1l1.4-4.5"/>
				<path class="st27" d="M244,204.8c0,0-12.9,23.7-5.9,34.8c3.8,6.2,25.4,1.3,25.4,1.3s0.9-4.1-0.7-6c0,0-9.6,0.4-13-2.4
					c-1.3-1,3.6-14.5,3.6-14.5L244,204.8z"/>
				<path class="st15" d="M275.2,184.6c0,0-7,4.2-10.4-1.6"/>
				<path class="st18" d="M268.7,172.2c0.2,1-0.2,2-0.8,2c-0.6,0.1-1.2-0.7-1.4-1.7c-0.2-1,0.2-2,0.8-2
					C267.9,170.4,268.5,171.1,268.7,172.2"/>
				<path class="st18" d="M278,171.3c0.2,1-0.2,2-0.8,2c-0.6,0.1-1.2-0.7-1.4-1.7c-0.2-1,0.2-2,0.8-2
					C277.2,169.5,277.8,170.3,278,171.3"/>
				<path class="st17" d="M257.4,162.9c0,0,7.2,3.9,9.7-0.3c0,0,5.7,4.2,7.1-2.4c0,0,10.8,4.4,10.5-4.2c-0.3-8.6-9-5.4-9-5.4
					s3.9-4.5-2.5-6.5c-4.2-1.3-8.7,3.8-9.2,5.7c0,0,0.7-4.8-5.3-3.3c-5.9,1.5-4.4,5-4.4,5s-3.7-2.6-5.7,1.2
					c-1.8,3.3,2.8,4.5,2.8,4.5s-4.1-0.2-3.8,3c0.3,3.2,3.6,2.1,3.6,2.1s-2.6,4.1,1,5C255.8,168.2,257.4,162.9,257.4,162.9"/>
				<g class="st31">
					<g>
						<defs>
							<rect id="SVGID_19_" x="166" y="372.8" width="244" height="15.6"/>
						</defs>
						<clipPath id="SVGID_20_">
							<use xlink:href="#SVGID_19_"  style="overflow:visible;"/>
						</clipPath>
						<path class="st32" d="M410,380.6c0,4.3-54.6,7.8-122,7.8c-67.4,0-122-3.5-122-7.8c0-4.3,54.6-7.8,122-7.8
							C355.4,372.8,410,376.3,410,380.6"/>
					</g>
				</g>
				<rect x="183.3" y="294.1" class="st33" width="113.7" height="87.6"/>
				<rect x="183.3" y="294.1" class="st34" width="113.7" height="87.8"/>
				<polygon class="st33" points="174.7,292.8 174.7,381.7 183.3,381.7 183.3,294.1 297,294.1 297,381.7 400,381.7 400,292.8 				
					"/>
				<rect x="298.3" y="299.6" class="st33" width="101.5" height="79.3"/>
				<rect x="303.6" y="304.6" class="st35" width="89.8" height="68.7"/>
				<rect x="304.6" y="332.3" class="st33" width="87.6" height="39.6"/>
				<rect x="304.6" y="305.7" class="st33" width="87.6" height="25.3"/>
				<rect x="333.3" y="316.6" class="st35" width="30.4" height="3.7"/>
				<g class="st36">
					<g>
						<defs>
							<rect id="SVGID_21_" x="333.3" y="319.2" width="30.4" height="2.7"/>
						</defs>
						<clipPath id="SVGID_22_">
							<use xlink:href="#SVGID_21_"  style="overflow:visible;"/>
						</clipPath>
						<rect x="333.3" y="319.2" class="st37" width="30.4" height="2.7"/>
					</g>
				</g>
				<rect x="333.3" y="349.2" class="st35" width="30.4" height="3.7"/>
				<g class="st36">
					<g>
						<defs>
							<rect id="SVGID_23_" x="333.3" y="351.8" width="30.4" height="2.7"/>
						</defs>
						<clipPath id="SVGID_24_">
							<use xlink:href="#SVGID_23_"  style="overflow:visible;"/>
						</clipPath>
						<rect x="333.3" y="351.8" class="st38" width="30.4" height="2.7"/>
					</g>
				</g>
				<path class="st39" d="M348.8,273.4c0,0-3.9,6.2,4.3,6.1c8.2-0.1,4.3,12,19.1,6.3"/>
				<rect x="309.5" y="272.4" class="st40" width="32.5" height="11.6"/>
				<path class="st41" d="M368.9,273.5c0,1.8-1.5,3.2-3.3,3.2h-79.8c-1.8,0-3.3-1.4-3.3-3.2v-61.2c0-1.8,1.5-3.2,3.3-3.2h79.8
					c1.8,0,3.3,1.4,3.3,3.2V273.5z"/>
				<path class="st42" d="M365.8,261.3c0,1.7-1.4,3.1-3.1,3.1h-73.9c-1.7,0-3.1-1.4-3.1-3.1v-46.6c0-1.7,1.4-3.1,3.1-3.1h73.9
					c1.7,0,3.1,1.4,3.1,3.1V261.3z"/>
				<rect x="304.4" y="281.9" class="st43" width="42.5" height="2.1"/>
				<rect x="289.2" y="284" class="st41" width="73.7" height="3.5"/>
				<rect x="370.5" y="284.5" class="st41" width="9.9" height="2.6"/>
				<path class="st41" d="M380.3,284.6c0-1.5-2.2-2.6-4.9-2.6c-2.7,0-4.9,1.2-4.9,2.6s2.2,2.6,4.9,2.6
					C378.1,287.3,380.3,286.1,380.3,284.6"/>
				<g class="st28">
					<g>
						<defs>
							<rect id="SVGID_25_" x="279.8" y="163.2" width="99.5" height="123.1"/>
						</defs>
						<clipPath id="SVGID_26_">
							<use xlink:href="#SVGID_25_"  style="overflow:visible;"/>
						</clipPath>
						<g class="st44">
							<defs>
								<path id="SVGID_27_" d="M365.8,261.3c0,1.7-1.4,3.1-3.1,3.1h-73.9c-1.7,0-3.1-1.4-3.1-3.1v-46.6c0-1.7,1.4-3.1,3.1-3.1h73.9
									c1.7,0,3.1,1.4,3.1,3.1V261.3z"/>
							</defs>
							<clipPath id="SVGID_28_">
								<use xlink:href="#SVGID_27_"  style="overflow:visible;"/>
							</clipPath>
							<path class="st45" d="M379.2,163.3c-0.4-2-26.8,38.1-28.4,39.3c-6.1,4.7-11.8,10-17.4,15.3c-6.3,5.9-12.9,11.5-19.2,17.4
								c-1.9,1.7-3.7,3.5-5.6,5.2c3.4-5.7,7-11.3,10.6-16.9c3.4-5.4,8.6-10.5,8.5-17.1c0-3-4.4-7.5-6.2-9.7
								c-0.3-0.4-5.1-5.9-5.1-4.4c0.1,6.5-5.9,12.4-9.2,17.6c-4.1,6.5-8.3,12.9-12.1,19.6c-3.6,6.4-6.5,13.1-9.4,19.7
								c-2.6,5.9-5.2,11.8-5.9,18.2c-0.2,2.2,9.3,15.5,11.2,14.6c6.2-3.1,10.5-8.6,15.2-13.4c6.1-6.3,12.6-12.3,19.1-18.3
								c5.9-5.5,12.2-10.7,18.1-16.3c0.1-0.1,0.3-0.3,0.5-0.4c-0.1,0.2-0.1,0.4-0.2,0.6c-3.6,12.4-7.6,24.8-11.9,37
								c-0.7,2.1,3.5,6.8,4.6,8.2c0.3,0.4,6.4,7.3,6.6,6.8c4.5-12.8,8.6-25.7,12.4-38.7C358.1,237.9,381,173.7,379.2,163.3"/>
						</g>
					</g>
				</g>
				<g class="st20">
					<g>
						<defs>
							<rect id="SVGID_29_" x="174.7" y="292.5" width="225.3" height="4.6"/>
						</defs>
						<clipPath id="SVGID_30_">
							<use xlink:href="#SVGID_29_"  style="overflow:visible;"/>
						</clipPath>
						<polygon class="st46" points="174.7,292.5 174.7,297.1 183.3,297.1 183.3,294.1 297,294.1 297,297.1 400,297.1 400,292.5 
													"/>
					</g>
				</g>
				<rect x="165.4" y="287.1" class="st33" width="244.1" height="7.4"/>
				<rect x="341.8" y="262.6" class="st47" width="12.4" height="10.5"/>
				<rect x="326.9" y="262.6" class="st48" width="12.4" height="10.5"/>
				<path class="st49" d="M229.4,253.2c-0.2,0.1-0.3,0.2-0.4,0.3l0.1-1.1L229.4,253.2z"/>
				<path class="st50" d="M230.5,255.8c-0.2-0.3-0.4-0.2-0.4,0.4c-0.3-0.6-0.7-0.6-0.8,0.2c-0.2-0.6-0.5-0.4-0.5-0.2l0.2-2.6
					c0.1-0.1,0.3-0.2,0.4-0.3L230.5,255.8z"/>
				<path class="st51" d="M230.1,255.9c0,0.1,0,0.1,0,0.2c-0.3-0.6-0.7-0.6-0.8,0.2c-0.2-0.6-0.5-0.4-0.5-0.2l3.7,21.5l0.5-0.1
					l0.8-0.1l0.5-0.1l-3.7-21.5C230.3,255.6,230.1,255.6,230.1,255.9"/>
				<polygon class="st52" points="234.3,277.8 234.2,277.3 232.4,277.6 232.5,278.1 				"/>
				<polygon class="st52" points="234.3,277.8 234.2,277.3 233.3,277.4 233.4,278 				"/>
				<path class="st51" d="M229.6,255.7c-0.1,0-0.3,0.2-0.3,0.6c-0.2-0.6-0.5-0.4-0.5-0.2l3.7,21.5l0.5-0.1l0.4-0.1L229.6,255.7z"/>
				<polygon class="st52" points="232.5,278.1 232.9,280.7 233.4,280.6 234.2,280.4 234.7,280.3 234.2,277.8 				"/>
				<polygon class="st52" points="232.5,278.1 232.9,280.7 233.4,280.6 233.8,280.5 233.3,277.9 				"/>
				<path class="st49" d="M233.9,250.3c-0.2,0.1-0.3,0.2-0.4,0.2l0.2-1.1L233.9,250.3z"/>
				<path class="st50" d="M234.8,252.9c-0.2-0.3-0.4-0.2-0.5,0.4c-0.3-0.6-0.7-0.6-0.8,0.1c-0.1-0.6-0.5-0.4-0.5-0.3l0.4-2.6
					c0.1-0.1,0.3-0.2,0.4-0.2L234.8,252.9z"/>
				<path class="st49" d="M234.4,253.1c0,0.1,0,0.1,0,0.2c-0.3-0.6-0.7-0.6-0.8,0.1c-0.1-0.6-0.5-0.4-0.5-0.3l1.8,21.7l0.5,0
					l0.8-0.1l0.5,0l-1.8-21.7C234.7,252.7,234.5,252.7,234.4,253.1"/>
				<polygon class="st52" points="236.7,275.2 236.7,274.7 234.9,274.8 234.9,275.4 				"/>
				<polygon class="st52" points="236.7,275.2 236.7,274.7 235.7,274.8 235.8,275.3 				"/>
				<path class="st49" d="M233.9,252.8c-0.1,0-0.3,0.2-0.3,0.5c-0.1-0.6-0.5-0.4-0.5-0.3l1.8,21.7l0.5,0l0.4,0L233.9,252.8z"/>
				<polygon class="st52" points="234.9,275.3 235.1,277.9 235.6,277.9 236.4,277.8 236.9,277.8 236.7,275.2 				"/>
				<polygon class="st52" points="234.9,275.3 235.1,277.9 235.6,277.9 236,277.9 235.8,275.2 				"/>
				<path class="st15" d="M237.8,256.8l0.3,22.8c0,0.1,0.4,0.2,0.7,0.2h0c0,0,0.1,0,0.1,0c0,0,0,0,0,0c0,0,0.1,0,0.1,0c0,0,0,0,0,0
					c0,0,0.1,0,0.1,0c0,0,0,0,0,0c0,0,0.1,0,0.1,0c0,0,0,0,0,0c0,0,0,0,0.1,0c0,0,0,0,0,0c0,0,0,0,0,0c0,0,0,0,0,0c0,0,0,0,0,0
					c0,0,0,0,0,0c0,0,0,0,0,0l-0.3-22.8L237.8,256.8z"/>
				<path class="st53" d="M238.2,279.5l0-0.7l1.3,0l0,0.7C239.5,279.6,238.2,279.7,238.2,279.5"/>
				<path class="st54" d="M238.8,278.7l0.7,0l0,0.7c0,0.1-0.3,0.1-0.7,0.2L238.8,278.7z"/>
				<path class="st55" d="M237,256.8l0.1,0c0.1-2.6,0.4-5.6,0.7-6.4c0-0.1,0-0.2,0-0.2l0.1,0h0l0.4,0l0,0l0.3,0c0,0,0.7,3.1,0.6,6.6
					h0c0.1,0,0.1,0.1,0.1,0.2c0,0.1-0.1,0.2-0.1,0.2h0c0,0,0,0,0,0l-0.8,0l-0.8,0c-0.2,1.5-0.4,2.8-0.5,3.6
					c-0.2-0.1-0.2-1.7-0.1-3.6l-0.1,0c-0.1,0-0.1-0.1-0.1-0.2C236.9,256.8,237,256.8,237,256.8"/>
				<path class="st15" d="M242.9,258.8l-4.1,22.4c0,0.1,0.3,0.3,0.7,0.3c0,0,0,0,0,0c0,0,0.1,0,0.1,0c0,0,0,0,0,0c0,0,0.1,0,0.1,0
					c0,0,0,0,0,0c0,0,0.1,0,0.1,0c0,0,0,0,0,0c0,0,0.1,0,0.1,0c0,0,0,0,0,0c0,0,0,0,0.1,0c0,0,0,0,0,0c0,0,0,0,0.1,0c0,0,0,0,0,0
					c0,0,0,0,0,0c0,0,0,0,0,0c0,0,0,0,0,0l4.1-22.4L242.9,258.8z"/>
				<path class="st53" d="M238.9,281.1l0.1-0.7l1.3,0.2l-0.1,0.7C240.1,281.5,238.9,281.3,238.9,281.1"/>
				<path class="st54" d="M239.7,280.5l0.6,0.1l-0.1,0.7c0,0.1-0.4,0.1-0.7,0L239.7,280.5z"/>
				<path class="st56" d="M242.3,259l-0.1,0c-0.1,0-0.1-0.1-0.1-0.2c0-0.1,0.1-0.1,0.2-0.1l0.1,0c0.6-2.5,1.5-5.4,1.9-6.2
					c0-0.1,0.1-0.2,0.1-0.2l0.1,0h0l0.4,0.1l0.1,0l0.3,0.1c0,0,0.1,3.2-0.7,6.6h0c0.1,0,0.1,0.1,0.1,0.2c0,0.1-0.1,0.1-0.2,0.1l0,0
					c0,0,0,0,0,0l-0.8-0.1l-0.8-0.1c-0.5,1.4-0.9,2.7-1.2,3.4C241.5,262.4,241.8,260.8,242.3,259"/>
				<path class="st57" d="M244.3,270.1h-15v14.2c0,2,1.5,3.6,3.4,3.6h8.3c1.6,0,2.9-1.2,3.3-2.7V270.1z"/>
				<path class="st55" d="M244.3,270.1h-15v14.2c0,2,1.5,3.6,3.4,3.6h8.3c1.6,0,2.9-1.2,3.3-2.7V270.1z"/>
				<g class="st28">
					<g>
						<defs>
							<rect id="SVGID_31_" x="240.8" y="270.1" width="3.5" height="17.8"/>
						</defs>
						<clipPath id="SVGID_32_">
							<use xlink:href="#SVGID_31_"  style="overflow:visible;"/>
						</clipPath>
						<path class="st58" d="M240.8,270.1v17.8h0.2c1.6,0,2.9-1.2,3.3-2.7v-15.1H240.8z"/>
					</g>
				</g>
				<g class="st31">
					<g>
						<defs>
							<rect id="SVGID_33_" x="103.3" y="388.6" width="74.6" height="13.8"/>
						</defs>
						<clipPath id="SVGID_34_">
							<use xlink:href="#SVGID_33_"  style="overflow:visible;"/>
						</clipPath>
						<path class="st59" d="M177.8,395.5c0,3.8-16.7,6.9-37.3,6.9c-20.6,0-37.3-3.1-37.3-6.9s16.7-6.9,37.3-6.9
							C161.1,388.6,177.8,391.7,177.8,395.5"/>
					</g>
				</g>
				<polygon class="st60" points="145.6,363.9 156.5,374.8 161.8,371.5 150.7,359.2 				"/>
				<path class="st33" d="M151.3,375.2c0,0,2.9,4.8,2.4,10.3c-0.5,5.5-0.4,10.7,2.7,11.4c0,0,6.4-6.1,7.1-19.5l1.2,0.5l2.7-8
					l-10.2-3.7l-2.1,6.7l-0.8-0.9L151.3,375.2z"/>
				<path class="st61" d="M161.6,382.6c-1.5,11.7-5.5,13.4-6,13.9c0.2,0.2,0.5,0.3,0.7,0.3c0,0,6.4-6.1,7.1-19.5l1.2,0.5l2.7-8
					l-2-0.7C164.5,372,162.7,374,161.6,382.6"/>
				<polygon class="st12" points="138.7,180.5 137.5,199.4 135.8,209 142.9,211.3 151.3,214.3 151.1,200.3 151.5,186 				"/>
				<g class="st25">
					<g>
						<defs>
							<rect id="SVGID_35_" x="137.7" y="180.5" width="13.7" height="33.7"/>
						</defs>
						<clipPath id="SVGID_36_">
							<use xlink:href="#SVGID_35_"  style="overflow:visible;"/>
						</clipPath>
						<polygon class="st62" points="148.6,213.3 148.9,200.2 137.7,195.4 138.7,180.5 151.5,186 151.1,200.3 151.3,214.3 						"/>
					</g>
				</g>
				<path class="st12" d="M146.1,153.8c-9.9,1.5-10.1,8.1-10.1,8.1s-0.9,3.8-1.1,9.8c-0.8-1.3-2.3-1.9-3.9-1.3
					c-3.4,1.2-1.7,11.5,3.5,11c0,2.9,1,6.4,1.3,7.2c1.2,3,6.9,6.6,12.4,7.7c5.5,1,13.6-3.5,14.6-9.8c1.3-8.7,1.2-27.7,1.2-27.7
					S162.5,151.3,146.1,153.8"/>
				<path class="st63" d="M142.1,158.9c-2.6-0.2-6.7-1.3-9.3-1.6c0-0.3-0.2,1.9-0.2,1.9c0.4,1.1-0.4,11.2-0.4,11.2
					c2.6,0.3,2.4,2.4,2.4,2.4l0,4.6l2.7-0.1l0.8-9.8c1.8-0.8,2.5-2.3,2.5-2.3S141.6,160.6,142.1,158.9"/>
				<path class="st64" d="M142.5,166.7c0.3-0.8,1-1.5,1.7-2c0.8-0.5,1.7-0.8,2.6-0.8c1,0,1.9,0.3,2.7,0.9c0.8,0.5,1.3,1.3,1.5,2.2
					c-0.9-0.3-1.6-0.6-2.2-0.8c-0.7-0.2-1.3-0.3-1.9-0.3C145.5,166,144.2,166.3,142.5,166.7"/>
				<path class="st64" d="M156.3,168c0.2-0.8,0.7-1.4,1.4-1.9c0.6-0.5,1.5-0.7,2.4-0.6c0.9,0.1,1.7,0.5,2.2,1.1
					c0.3,0.3,0.5,0.7,0.6,1c0.1,0.4,0.2,0.7,0.3,1.1c-0.4-0.1-0.7-0.3-1-0.5c-0.3-0.1-0.6-0.3-0.9-0.4c-0.5-0.3-1-0.3-1.5-0.4
					C158.9,167.4,157.8,167.7,156.3,168"/>
				<g class="st25">
					<g>
						<defs>
							<rect id="SVGID_37_" x="152.2" y="170" width="4.9" height="10.8"/>
						</defs>
						<clipPath id="SVGID_38_">
							<use xlink:href="#SVGID_37_"  style="overflow:visible;"/>
						</clipPath>
						<polygon class="st65" points="152.2,180.8 154.4,170 157.2,179.1 						"/>
					</g>
				</g>
				<polygon class="st60" points="134.9,376 132.8,391.1 138.8,393.1 141.8,376.9 				"/>
				<path class="st33" d="M142.3,384.3c0,0,3.5,4.4,8.9,6c5.4,1.6,10.3,3.6,9.8,6.7c0,0-8.2,3.5-21.2-0.8l0,1.3l-8.6-0.5l0.2-10.6
					l7.2,0.6l-0.5-1.1L142.3,384.3z"/>
				<path class="st61" d="M145.5,396.4c11.7,3,14.8,0,15.5-0.2c0.1,0.3,0.1,0.5,0.1,0.8c0,0-8.2,3.5-21.2-0.8l0,1.3l-8.6-0.5l0-2.1
					C134.3,395,136.9,394.2,145.5,396.4"/>
				<path class="st66" d="M163.2,256.1l-40.1,2.7c0,0-12.6,44.7-16.5,65.2c2.4-0.7,4.9-0.9,7.7-0.6c3.8,0.5,7.4,2.2,10.4,4.7
					c0-0.1,0-0.2,0-0.3c1.2-8.4,14.6-41.3,14.6-41.3l4.3,1.3c-2.8,35.9-11.6,92.5-11.6,92.5c5.7,4.7,13.2,1.6,13.2,1.6
					C166.6,319.6,163.2,256.1,163.2,256.1"/>
				<path class="st66" d="M113.4,316.5c-3.1,3.3-1.4,2.7-5.9,2.6c-4,10,2.6,13.6,4.7,15.7c10.6,10.7,35.4,36.2,35.4,36.2
					c5.5,1.4,10.1-7,10.1-7c-1.6-3.9-30.7-40.2-36.2-46.8c-1.1-1.3-2.5-3.4-4.1-6C116.3,313.1,115,314.8,113.4,316.5"/>
				<path class="st18" d="M158.7,172.9c-0.2,1,0.2,2,0.8,2.1c0.6,0.1,1.2-0.7,1.4-1.7c0.2-1-0.2-2-0.8-2.1
					C159.5,171.1,158.9,171.8,158.7,172.9"/>
				<path class="st18" d="M146.6,171.5c-0.2,1,0.2,2,0.8,2.1c0.6,0.1,1.2-0.7,1.4-1.7c0.2-1-0.2-2-0.8-2.1
					C147.4,169.7,146.7,170.5,146.6,171.5"/>
				<g class="st20">
					<g>
						<defs>
							<rect id="SVGID_39_" x="117.1" y="227.3" width="49.8" height="44.8"/>
						</defs>
						<clipPath id="SVGID_40_">
							<use xlink:href="#SVGID_39_"  style="overflow:visible;"/>
						</clipPath>
						<path class="st67" d="M163.4,248.4c-17.7-2.5-33.3-9.4-46.3-21.1c0.6,2.7,1.1,4.4,1.1,4.4l1.9,35.6c0,0,13,9.1,45.6,2
							l1.2-20.6C165.7,248.7,164.5,248.6,163.4,248.4"/>
					</g>
				</g>
				<path class="st12" d="M182.8,261.1l6.2,20.7c0,0,5.7,0.1,6.6,1.1c0.9,1,6.2,18-0.3,4.1c0,0,2.7,13.7-2.5,0.7
					c0,0-0.1,11.7-2.5-0.1c0,0-1.6,12.6-2.7,0.1c0,0-2.3,0.1-4-0.3c-1.7-0.4-9-27.7-9-27.7L182.8,261.1z"/>
				<path class="st60" d="M115,203.9c0,0-14.7,18.1-21.8,28.3c0,0,5.9,7.2,12.2,9.3l13.4-17.4L115,203.9z"/>
				<path class="st60" d="M171.3,208.1c-1.6-1.4-3.4-2.5-5.1-3.3c-0.1,0-0.1-0.1-0.2-0.1c-0.6-0.3-1.3-0.5-2.1-0.8
					c-0.2-0.1-0.3-0.1-0.5-0.2c-0.1,0-0.2-0.1-0.4-0.1c-0.1,0-0.3-0.1-0.4-0.1c-4.3-1.3-9.5-2.3-9.5-2.3v-4l-18.6-2.2v6.1l-2.9,0.2
					c-2.5,0.1-12.1,0.5-16.1,2.2c-4.7,1.9,2.6,28.3,2.6,28.3l1.9,35.6c0,0,13,9.1,45.6,2l1.5-33.3c0,0,3.2,26.5,10.9,42
					c5.4,2.6,10.9-3,10.9-3S176.7,213,171.3,208.1"/>
				<g class="st28">
					<g>
						<defs>
							<rect id="SVGID_41_" x="116.2" y="223.4" width="50.4" height="48.7"/>
						</defs>
						<clipPath id="SVGID_42_">
							<use xlink:href="#SVGID_41_"  style="overflow:visible;"/>
						</clipPath>
						<path class="st68" d="M147.8,246.5c-11.2-5.5-24.3-12.8-31.6-23.1c1,4.7,2,8.3,2,8.3l1.9,35.6c0,0,13,9.1,45.6,2l1-16.4
							C160.1,251.5,153.8,249.4,147.8,246.5"/>
					</g>
				</g>
				<path class="st12" d="M110.4,248l10,13.7c0,0,5.7-1.6,6.9-0.9c1.2,0.7,11.8,16.1,1,4.2c0,0,7,12.9-2.3,1.4c0,0,3.6,11.7-2.6,0.6
					c0,0,2.4,13-2.7,0.9c0,0,0.4,1.2-1.4,1.4c-1.8,0.1-17-17.1-17-17.1L110.4,248z"/>
				<path class="st60" d="M118,256.2c0,0-1.8,5-7,6.9c0,0-14.4-15.9-19.8-23.5c0,0-1.2-5.2,5.7-12C99.6,225,112.8,249.6,118,256.2"
					/>
				<path class="st63" d="M141.2,158.4c0,0,6.5,4.2,15.1,3.8l-3.4-3c0,0,6.5,2.1,13.2,4.8c0,0,2.8-8.8-7.3-13.3c0,0,7,2.3,8.8,4.8
					c0,0-6.4-12.7-20.6-9.7c-11.5,2.4-9,8.9-9,8.9l2.6-3.6c0,0-3.7-2.7-7.9,2.7c-1.7,2.2-0.2,14.5-0.2,16c0.1,1.6,9-9.8,9-9.8l2-5.1
					l-4.2,0.2"/>
				<path class="st63" d="M152.5,180.8c0,0-6.9-1.8-8.2,0.3c-1.2,2.1-2,5.3-5,3.4c-2.8-1.7-0.7-18.1-0.7-18.1l-2.9,5.6
					c0,0-7,22.9,10.6,25.5c15.5,2.3,17.5-4.5,16.6-12.3c0,0-2,1.6-2.7-0.5C159.6,182.6,160.4,180.2,152.5,180.8"/>
				<path class="st69" d="M146.4,183.3l11.9,1.7c0,0-2.3,4.2-6.1,4C146.8,188.7,146.4,183.3,146.4,183.3"/>
				<path class="st70" d="M151.2,185.4c1.9,0.6,3.1,1.6,3.8,2.8c2-1.2,3.2-3.3,3.2-3.3l-11.9-1.6c0,0,0.1,0.9,0.5,2
					C148.2,184.9,149.7,184.9,151.2,185.4"/>
				<rect x="225.8" y="323.7" class="st71" width="4.2" height="1.9"/>
				<polygon class="st71" points="235.5,337.9 242.8,337.9 238.5,342.2 225.8,342.2 225.8,357.5 227.6,355.6 231.8,351.5 
					233.7,349.6 233.7,347.7 233.7,347 233.7,345.6 231.8,345.6 231.8,348.9 227.6,353.1 227.6,344 239.2,344 247.2,336 235.5,336 
									"/>
				<polygon class="st71" points="235.5,323.7 235.5,325.6 255.1,325.6 250.8,329.9 233.8,329.9 225.8,337.9 230.2,337.9 230.2,336 
					230.2,336 231.8,334.4 234.3,331.9 234.5,331.7 251.5,331.7 259.5,323.7 				"/>
				<polygon class="st71" points="233.7,317.7 231.8,317.7 231.8,329.9 233.7,328.1 				"/>
				<polygon class="st71" points="231.8,336.3 231.8,340.5 233.7,340.5 233.7,334.5 				"/>
				<path class="st72" d="M210.3,137.2c0.5,0.2,0.9,0.4,1.4,0.5"/>
				<path class="st73" d="M214.6,138.7c14.9,4.1,31.1-1.3,40.2-13.9c9.1-12.5,9.3-29.4,0.9-42.4"/>
				<path class="st72" d="M254.9,81.1c-0.3-0.4-0.6-0.8-0.9-1.2"/>
				<polygon class="st15" points="251.6,75.3 251.6,82.7 258,79 				"/>
			</g>
		</g>
	</g>
</g>
</svg>
