<?xml version="1.0" encoding="utf-8"?>
<!-- Generator: Adobe Illustrator 23.1.0, SVG Export Plug-In . SVG Version: 6.00 Build 0)  -->
<svg version="1.1" id="Layer_1" xmlns="http://www.w3.org/2000/svg" xmlns:xlink="http://www.w3.org/1999/xlink" x="0px" y="0px"
	 viewBox="0 0 500 500" style="enable-background:new 0 0 500 500;" xml:space="preserve">
<style type="text/css">
	.st0{fill:#067A63;}
	.st1{clip-path:url(#SVGID_2_);fill:#3A3A3A;}
	.st2{clip-path:url(#SVGID_2_);fill:#16A085;}
	.st3{clip-path:url(#SVGID_2_);}
	.st4{fill:#FFFFFF;}
	.st5{fill:#1C2E34;}
	.st6{fill:#FF6E65;}
	.st7{fill:#FF9184;}
	.st8{fill:#FFB0A0;}
	.st9{fill:#0B181B;}
	.st10{fill:#007BDE;}
	.st11{fill:#0086FF;}
	.st12{fill:#00B1FF;}
	.st13{fill:#F9A498;}
	.st14{fill:none;stroke:#E98980;stroke-width:0.5;stroke-miterlimit:10;}
	.st15{fill:#0077C9;}
	.st16{fill:none;stroke:#0B181B;stroke-width:0.5266;stroke-linecap:round;stroke-linejoin:round;stroke-miterlimit:10;}
	.st17{fill:#FFBA99;}
	.st18{fill:none;stroke:#312220;stroke-width:0.5575;stroke-linecap:round;stroke-linejoin:round;stroke-miterlimit:10;}
	.st19{fill:#CB9DA8;}
	.st20{fill:#EAC8CE;}
	.st21{fill:#F6DAE0;}
	.st22{fill:#F9B0A3;}
	.st23{fill:none;stroke:#FFFFFF;stroke-width:0.9579;stroke-linecap:round;stroke-linejoin:round;stroke-miterlimit:10;}
	.st24{fill:#E88E80;}
	.st25{fill:none;stroke:#55382C;stroke-width:0.7184;stroke-miterlimit:10;}
	.st26{fill:#0B0B0B;}
	.st27{fill:none;stroke:#021833;stroke-width:0.4606;stroke-linecap:round;stroke-linejoin:round;stroke-miterlimit:10;}
	.st28{fill:#EAEAEA;}
	.st29{fill:#F4F4F4;}
	.st30{fill:#131313;}
	.st31{fill:none;stroke:#0B181B;stroke-width:0.25;stroke-miterlimit:10;}
	.st32{fill:#E2FF10;}
	.st33{fill:#31CCFF;}
	.st34{clip-path:url(#SVGID_4_);fill:#4F1C06;}
	.st35{fill:#FFF933;}
	.st36{fill:#ECF0F1;}
	.st37{font-family:'Lato-Black';}
	.st38{font-size:24px;}
	.st39{font-family:'LexendDeca-Regular';}
	.st40{font-size:12px;}
</style>
<g>
	<g>
		<polygon class="st0" points="40,116 71,143 113,105 51,105 		"/>
		<g>
			<defs>
				<circle id="SVGID_1_" cx="250" cy="250" r="219"/>
			</defs>
			<clipPath id="SVGID_2_">
				<use xlink:href="#SVGID_1_"  style="overflow:visible;"/>
			</clipPath>
			<rect x="30.6" y="262.3" class="st1" width="438.9" height="206.7"/>
			<rect x="30.6" y="31" class="st2" width="438.9" height="254"/>
			<g class="st3">
				<g>
					<g>
						<rect x="130.1" y="130.4" class="st4" width="47.4" height="60.1"/>
						<rect x="130.1" y="196" class="st4" width="47.4" height="61.6"/>
						<rect x="182.6" y="130.4" class="st4" width="47.4" height="60.1"/>
						<rect x="182.6" y="196" class="st4" width="47.4" height="61.6"/>
					</g>
					<g>
						<g>
							<g>
								<rect x="248.4" y="311.7" class="st4" width="5" height="17.6"/>
								<path class="st5" d="M263.9,309.7h-25.6c-2.6,0-4.8-2.1-4.8-4.8l0,0c0-2.6,2.1-4.8,4.8-4.8h25.6c2.6,0,4.8,2.1,4.8,4.8l0,0
									C268.6,307.6,266.5,309.7,263.9,309.7z"/>
								<rect x="246.5" y="307.5" class="st5" width="9.1" height="6.2"/>
								<rect x="246.5" y="326.4" class="st5" width="9.1" height="27.3"/>
								<rect x="224.8" y="350.3" class="st5" width="51.3" height="3.8"/>
								<rect x="224.8" y="350.3" class="st5" width="3" height="11.8"/>
								<path class="st5" d="M230.8,362.1c0,2.6-2.1,4.7-4.7,4.7c-2.6,0-4.7-2.1-4.7-4.7s2.1-4.7,4.7-4.7
									C228.7,357.4,230.8,359.5,230.8,362.1z"/>
								<rect x="273.2" y="350.3" class="st5" width="3" height="11.8"/>
								<path class="st5" d="M279.1,362.1c0,2.6-2.1,4.7-4.7,4.7s-4.7-2.1-4.7-4.7s2.1-4.7,4.7-4.7S279.1,359.5,279.1,362.1z"/>
							</g>
							<g>
								<g>
									<path class="st6" d="M282.8,305.6c-19.4,0-35.2-15.8-35.2-35.2v-43.2c0-2.5,2-4.5,4.5-4.5c2.5,0,4.5,2,4.5,4.5v43.2
										c0,14.5,11.8,26.3,26.3,26.3c2.5,0,4.5,2,4.5,4.5C287.3,303.6,285.3,305.6,282.8,305.6z"/>
									<polygon class="st6" points="252,222.7 204.5,222.7 207.4,257.6 206,283.8 229.7,298.9 235.3,305.6 282.8,305.6 
										269.9,297.4 260.3,286.5 256.4,284.1 253.2,263 253,237.5 									"/>
								</g>
								<path class="st7" d="M235.3,305.6c-19.4,0-35.2-15.8-35.2-35.2v-43.2c0-2.5,2-4.5,4.5-4.5c2.5,0,4.5,2,4.5,4.5v43.2
									c0,14.5,11.8,26.3,26.3,26.3c2.5,0,4.5,2,4.5,4.5C239.7,303.6,237.7,305.6,235.3,305.6z"/>
							</g>
						</g>
						<g>
							<g>
								<g>
									<g>
										<polygon class="st8" points="311.8,356.3 311.4,330.8 298.4,330.1 298.8,357.5 311.3,357.6 										"/>
										<g>
											<path class="st9" d="M297,352.2c0,0,10.7,4.4,15.7-2.5l22,13.4l-41.1-0.3L297,352.2z"/>
											
												<rect x="312.3" y="344.3" transform="matrix(6.443136e-03 -1 1 6.443136e-03 -52.6172 676.6512)" class="st4" width="3.8" height="41.1"/>
											<path class="st4" d="M312.5,355.5c0.1,0,0.2-0.1,0.3-0.2c1.7-2.2,3.4-3.3,3.4-3.3c0.3-0.2,0.4-0.6,0.2-1
												c-0.2-0.3-0.7-0.4-1-0.2c-0.1,0-1.9,1.2-3.8,3.6c-0.2,0.3-0.2,0.7,0.2,1C312,355.6,312.2,355.6,312.5,355.5z"/>
											<path class="st4" d="M316,357.3c0.1,0,0.2-0.1,0.3-0.2c1.7-2.2,3.4-3.3,3.4-3.3c0.3-0.2,0.4-0.6,0.2-1
												c-0.2-0.3-0.7-0.4-1-0.2c-0.1,0-1.9,1.2-3.8,3.6c-0.2,0.3-0.2,0.7,0.2,1C315.5,357.4,315.8,357.4,316,357.3z"/>
											<path class="st4" d="M319.5,359c0.1,0,0.2-0.1,0.3-0.2c1.7-2.2,3.4-3.3,3.4-3.3c0.3-0.2,0.4-0.6,0.2-1
												c-0.2-0.3-0.7-0.4-1-0.2c-0.1,0-1.9,1.2-3.8,3.6c-0.2,0.3-0.2,0.7,0.2,1C319,359.1,319.3,359.1,319.5,359z"/>
										</g>
									</g>
									<g>
										<g>
											<g>
												<path class="st10" d="M264.5,271.5l6.1,5.1c-1.8,10.9-7.6,20.7,3.4,20.7h19.5v44.9l21.9,0.3l1.2-55
													c0.2-8.7-6.9-15.9-15.6-15.9L264.5,271.5z"/>
												
													<rect x="292.1" y="334" transform="matrix(-1 -1.224647e-16 1.224647e-16 -1 609.2927 676.5001)" class="st11" width="25.2" height="8.5"/>
											</g>
										</g>
									</g>
								</g>
								<g>
									<g>
										<polygon class="st8" points="276.7,356.3 276.3,330.8 263.4,330.1 263.7,357.5 276.2,357.6 										"/>
										<g>
											<path class="st9" d="M261.9,352.2c0,0,10.7,4.4,15.7-2.5l22,13.4l-41.1-0.3L261.9,352.2z"/>
											
												<rect x="277.2" y="344.3" transform="matrix(6.443115e-03 -1 1 6.443115e-03 -87.4598 641.5834)" class="st4" width="3.8" height="41.1"/>
											<path class="st4" d="M277.4,355.5c0.1,0,0.2-0.1,0.3-0.2c1.7-2.2,3.4-3.3,3.4-3.3c0.3-0.2,0.4-0.6,0.2-1
												c-0.2-0.3-0.7-0.4-1-0.2c-0.1,0-1.9,1.2-3.8,3.6c-0.2,0.3-0.2,0.7,0.2,1C276.9,355.6,277.2,355.6,277.4,355.5z"/>
											<path class="st4" d="M280.9,357.3c0.1,0,0.2-0.1,0.3-0.2c1.7-2.2,3.4-3.3,3.4-3.3c0.3-0.2,0.4-0.6,0.2-1
												c-0.2-0.3-0.7-0.4-1-0.2c-0.1,0-1.9,1.2-3.8,3.6c-0.2,0.3-0.2,0.7,0.2,1C280.4,357.4,280.7,357.4,280.9,357.3z"/>
											<path class="st4" d="M284.5,359c0.1,0,0.2-0.1,0.3-0.2c1.7-2.2,3.4-3.3,3.4-3.3c0.3-0.2,0.4-0.6,0.2-1
												c-0.2-0.3-0.7-0.4-1-0.2c-0.1,0-1.9,1.2-3.8,3.6c-0.2,0.3-0.2,0.7,0.2,1C284,359.1,284.2,359.1,284.5,359z"/>
										</g>
									</g>
									<g>
										<g>
											<g>
												<path class="st11" d="M236.9,271.5l-0.8,5.1c-1.8,10.9,6.6,20.7,17.6,20.7h5.3v44.9l21.9,0.3l1.2-55
													c0.2-8.7-6.9-15.9-15.6-15.9L236.9,271.5z"/>
												
													<rect x="257.6" y="334" transform="matrix(-1 -1.224647e-16 1.224647e-16 -1 540.3863 676.5001)" class="st12" width="25.2" height="8.5"/>
											</g>
										</g>
									</g>
								</g>
							</g>
							<g>
								<g>
									<g>
										<polygon class="st13" points="291.4,252.2 320.9,258.4 322.5,264.4 283.8,264.9 280.8,248.9 										"/>
										<path class="st13" d="M316.4,258.1c0,0,6-3.7,12-2.1c3.9,1,7.8,4.8,7.5,8.9l0,0l-24-0.3L316.4,258.1z"/>
									</g>
									<g>
										<path class="st13" d="M293.1,230.9l3.4,25.3c0,0-14.7,7.8-14.4,6.8c0.3-0.9-3.3-32.1-3.3-32.1H293.1z"/>
										<path class="st9" d="M279.9,210c0,0,10.8,1.7,13.3,10.9c3.2,12,4.4,13.8,4.4,13.8l-16.4,2.4L279.9,210z"/>
									</g>
								</g>
								<g>
									<g>
										<path class="st9" d="M259.1,207l20.8,3.1c2.1,0.3,3.7,2.1,3.7,4.2l0.5,49.3l-46.4,0.1l-3.1-43l1.7-5.8
											c0.8-2.7,3.1-4.8,5.9-5.2L259.1,207z"/>
									</g>
								</g>
								<g>
									<g>
										<polygon class="st8" points="245.5,234.6 236.8,257 223.4,245.4 228.6,229.2 										"/>
										<path class="st9" d="M253.9,208.7c0,0-16.2-0.1-20.2,4.6c-5.1,6-11.1,21.4-11.1,21.4l26.3,5.8L253.9,208.7z"/>
									</g>
									<g>
										<g>
											<path class="st8" d="M238.3,253.3l30.3,6.8l-1.2,6.7l-35.8,0.2c0,0-16-3.2-8.1-21.6L238.3,253.3z"/>
											<path class="st8" d="M268.6,260c0,0,7.1-2.8,13-1.7c4,0.7,6.7,4.6,6.4,8.6l0,0l-23.8-0.2L268.6,260z"/>
										</g>
										<line class="st14" x1="238.3" y1="253.3" x2="230.8" y2="252.2"/>
									</g>
								</g>
							</g>
							<g>
								<path class="st9" d="M273,170.2c0,0,8.2,7.7,0.1,10.6L273,170.2z"/>
								<path class="st15" d="M268.1,184c-0.1,3.1,2.3,5.8,5.4,5.9c3,0.1,5.6-2.4,5.7-5.5c0.1-3.1-2.3-5.8-5.4-5.9
									C270.7,178.4,268.2,180.9,268.1,184z"/>
								<path class="st8" d="M266.6,196.2l0.4,11c0.2,3.9-2.1,6-5.7,6.1l0,0c-3.1,0.1-6.7-1.3-6.6-4.7l0.1-17.3L266.6,196.2z"/>
								<path class="st9" d="M266.9,203.5c0,0-8.9,1.1-12.1-8.9c-1-3.1,11.8,0.4,11.8,0.4L266.9,203.5z"/>
								<path class="st8" d="M263.4,199.5L263.4,199.5c6.3-0.2,11.3-5.5,11.2-10.8l-0.1-11.1c0-6.6-5.2-12.1-11.6-12.3l0,0
									c-6.6-0.2-13.2,5.1-13.4,11.9l0.2,8.6C249.9,193.6,255.9,199.3,263.4,199.5z"/>
								<g>
									<polyline class="st16" points="268,185.7 268.3,187.8 266.8,187.9 									"/>
									<path class="st9" d="M261.1,179.2c0,0,2.6-0.3,2.6,0.8c0,0,0,0.7-2.2,1c-2.2,0.2-2.8,0.1-3.1-0.6
										C258.2,179.6,259.9,179.2,261.1,179.2z"/>
									<path class="st9" d="M271.4,178.8c0,0-2.1-0.1-2.3,0.9c0,0-0.1,0.7,1.8,0.8c1.9,0.1,2.5-0.2,2.6-0.7
										C273.8,179.1,272.4,178.8,271.4,178.8z"/>
									<path class="st9" d="M270.1,183.4c0,0.6,0.5,1.1,1.1,1.1c0.6,0,1.1-0.5,1.1-1.1c0-0.6-0.5-1.1-1.1-1.1
										C270.6,182.3,270.1,182.8,270.1,183.4z"/>
									<path class="st9" d="M260.6,183.4c0,0.6,0.5,1.1,1.1,1.1c0.6,0,1.1-0.5,1.1-1.1c0-0.6-0.5-1.1-1.1-1.1
										C261.1,182.3,260.6,182.8,260.6,183.4z"/>
									<line class="st16" x1="265.6" y1="191.7" x2="268.5" y2="191.3"/>
								</g>
								<path class="st9" d="M281.1,166.5l-4.8-0.7c1.4-0.9,2.8-1.8,2.8-1.8s-3.2-1.1-7.6-1.1c-2.8-1.5-6.4-2.6-10.2-2.6
									c-5.5-0.1-10.2,2.9-12,6.2l0,0c0,0-4.6-0.3-5.2,4.9c-0.8,6.7,7.3,17.9,7.3,17.9l0.9-8.8c5-0.4,5.3-4.8,4.9-7.7
									c2.3,0.2,10.1,0.7,16.1-0.7c0.7-0.1,1.6-0.3,2.3-0.6C278.6,170.6,280.7,169,281.1,166.5z"/>
								<g>
									<path class="st17" d="M243.9,185.8c-0.1,2.5,1.9,4.6,4.3,4.7c2.4,0.1,4.5-1.9,4.5-4.4c0.1-2.5-1.9-4.6-4.3-4.7
										C246,181.3,244,183.3,243.9,185.8z"/>
									<path class="st18" d="M249.8,187.1c0,0,0.1-3.3-3-2.9"/>
								</g>
								<g>
									<path class="st15" d="M265.5,160.2l0.1,0.6c0,0-8,0.8-11.6,5.7c-4.1,5.4-4.1,12.7-4.1,12.7l-1.7,0.1l0.1-11.6l3.5-3.6
										l5.5-3.3l3.9-1.2L265.5,160.2z"/>
									<g>
										<path class="st15" d="M254.7,183.4c0.8,3.8-1.6,7.6-6.4,8.6c-3.4,0.7-5.1-2.1-5.9-5.9c-0.8-3.8,1.3-7.5,4.7-8.2
											C250.4,177.1,253.9,179.6,254.7,183.4z"/>
										<path class="st11" d="M252.9,183.8c0.8,3.8-1.3,7.5-4.7,8.2c-3.4,0.7-6.8-1.7-7.7-5.5c-0.8-3.8,1.3-7.5,4.7-8.2
											C248.7,177.5,252.1,180,252.9,183.8z"/>
									</g>
									<path class="st11" d="M245.7,179c0,0-0.7-4.2,0.3-8.8c1.3-5.8,5.9-10,11.8-11.1c0.4-0.1,0.9-0.2,1.4-0.2
										c1.7-0.2,3.6-0.2,5.1,0.6c0.4,0.2,0.8,0.4,1.1,0.7c0,0-7.7,0.3-11.5,4.5c-4.2,4.7-5.3,10.9-5,15.1L245.7,179z"/>
								</g>
								<path class="st8" d="M250.4,208.4l8.7-1.4l11.6,1.7c0,0,0.7,6.8-9.1,7.1C251.8,216,250.4,208.4,250.4,208.4z"/>
							</g>
						</g>
					</g>
					<g>
						<g>
							<g>
								<g>
									<polygon class="st19" points="303.2,242 307.3,245 336.6,220.3 407.9,180.9 404,178.1 355.1,193.1 									"/>
									<path class="st19" d="M313.3,180.4L301.7,238c-0.5,2.5,1.4,4.8,3.9,4.8h83.5c1.9,0,3.5-1.3,3.9-3.2l12.3-57.7
										c0.5-2.5-1.4-4.8-3.9-4.8h-84.3C315.3,177.2,313.7,178.5,313.3,180.4z"/>
									<path class="st20" d="M317.1,183.1l-11.6,57.7c-0.5,2.5,1.4,4.8,3.9,4.8h83.5c1.9,0,3.5-1.3,3.9-3.2l12.3-57.7
										c0.5-2.5-1.4-4.8-3.9-4.8H321C319.1,179.9,317.4,181.3,317.1,183.1z"/>
									<polygon class="st19" points="347.5,230.3 345.9,245.5 352.7,245.5 									"/>
									<polygon class="st21" points="347.5,230 354.4,264.1 379.6,264.1 367.8,230 									"/>
									<circle class="st4" cx="360.7" cy="203.7" r="5.6"/>
									<path class="st20" d="M394.5,260.9h-59.4c-0.9,0-1.6,0.7-1.6,1.6l0,0c0,0.9,0.7,1.6,1.6,1.6h59.4c0.9,0,1.6-0.7,1.6-1.6
										l0,0C396.2,261.7,395.4,260.9,394.5,260.9z"/>
									<path class="st20" d="M320.4,260.9h-31.5c-0.9,0-1.6,0.7-1.6,1.6l0,0c0,0.9,0.7,1.6,1.6,1.6h31.5c0.9,0,1.6-0.7,1.6-1.6
										l0,0C322.1,261.7,321.3,260.9,320.4,260.9z"/>
								</g>
							</g>
						</g>
					</g>
				</g>
				<g>
					<g>
						<g>
							<g>
								<g>
									<path class="st9" d="M125.1,264.2c-0.9,0.8-13.4,7.5-21,17.2l15.1,13.9l24.9-6l1.5-25.1H125.1z"/>
									<g>
										<g>
											<polygon class="st22" points="121.1,354.7 118.5,340.6 127.6,340.6 128.7,354.7 											"/>
											<g>
												<path d="M128.7,353.4h-7.5c0,0-5.2,3.3-6.6,9.1h21.2C135.7,362.5,132.2,355,128.7,353.4z"/>
												<rect x="114.5" y="362.5" class="st4" width="21.2" height="2.6"/>
												<path class="st23" d="M120.9,357c0,0,4.5-2.3,7.8,0"/>
											</g>
										</g>
										<path class="st9" d="M124,286.5c3,20.8,8.1,59.9,8.1,59.9l-17.6,0.3l-12.2-56.3c-1.3-6.1,2.6-12.1,8.8-13.2l0,0
											C117.2,276.1,123.1,280.3,124,286.5z"/>
									</g>
								</g>
								<g>
									<path class="st9" d="M163,264.2c0.9,0.8,13.4,7.5,21,17.2l-15.1,13.9l-24.9-6l-1.5-25.1H163z"/>
									<g>
										<g>
											<polygon class="st22" points="165.9,354.7 168.6,340.6 159.5,340.6 158.4,354.7 											"/>
											<g>
												<path d="M158.4,353.4h7.5c0,0,5.2,3.3,6.6,9.1h-21.2C151.4,362.5,154.9,355,158.4,353.4z"/>
												
													<rect x="151.4" y="362.5" transform="matrix(-1 -1.224647e-16 1.224647e-16 -1 323.9099 727.665)" class="st4" width="21.2" height="2.6"/>
												<path class="st23" d="M166.2,357c0,0-4.5-2.3-7.8,0"/>
											</g>
										</g>
										<path class="st9" d="M164.1,286.5c-3,20.8-9.4,59.9-9.4,59.9l17.6,0.3l13.4-56.3c1.3-6.1-2.6-12.1-8.8-13.2l0,0
											C170.9,276.1,165,280.3,164.1,286.5z"/>
									</g>
								</g>
							</g>
							<g>
								<g>
									<path class="st11" d="M141.8,206.6c0,0-15.9,0-27.7,11.5v32.3c0,0,56.1,0.9,56.1,0s0-34.5,0-34.5S158.8,206.6,141.8,206.6z
										"/>
									<g>
										<g>
											<path class="st24" d="M118.1,248.6h-16c-4.2,0-7.6,3.4-7.6,7.6l0,0c0,4.2,3.4,7.6,7.6,7.6h18.8L118.1,248.6z"/>
											<polygon class="st24" points="95.4,252.5 106.2,235.1 120.9,237.1 118.7,256.2 											"/>
											<line class="st25" x1="114.1" y1="248.6" x2="104.6" y2="248.6"/>
										</g>
										<path class="st11" d="M116.5,216c0,0-8.7,7-17.8,22.4c0,0,2,8.9,19,10.3L116.5,216z"/>
									</g>
									<g>
										<g>
											<path class="st24" d="M168.2,248.6h16c4.2,0,7.6,3.4,7.6,7.6l0,0c0,4.2-3.4,7.6-7.6,7.6h-18.8L168.2,248.6z"/>
											<polygon class="st24" points="190.8,252.5 177.3,231.9 165.3,237.1 167.5,256.2 											"/>
											<line class="st25" x1="169.1" y1="248.6" x2="181.6" y2="248.6"/>
										</g>
										<path class="st11" d="M170.3,216c0,0,8.7,7,17.8,22.4c0,0-2,8.9-19,10.3L170.3,216z"/>
									</g>
								</g>
								<g>
									<path class="st20" d="M168.3,263.8h-52.3c-1.1,0-1.9-0.9-1.9-1.9v-33.5c0-1.1,0.9-1.9,1.9-1.9h52.3c1.1,0,1.9,0.9,1.9,1.9
										v33.5C170.2,263,169.4,263.8,168.3,263.8z"/>
									<path class="st4" d="M145.6,245.2c0,1.9-1.5,3.4-3.4,3.4c-1.9,0-3.4-1.5-3.4-3.4c0-1.9,1.5-3.4,3.4-3.4
										C144.1,241.7,145.6,243.3,145.6,245.2z"/>
								</g>
							</g>
							<g>
								<path class="st24" d="M145.1,212.1h-5.8c-1.8,0-3.3-1.5-3.3-3.3v-9.1h12.3v9.1C148.3,210.6,146.9,212.1,145.1,212.1z"/>
								<path class="st26" d="M136,200.3c0,0,1.8,5.5,12.3,5.3V198l0,0c0,0-0.7,1.4-5.4,1.2C138.2,199,136,200.3,136,200.3z"/>
								<ellipse class="st9" cx="142.1" cy="179.1" rx="15.3" ry="15.7"/>
								<g>
									<g>
										<path class="st24" d="M155.3,184.8c0,0,1.1-1.8,3.4-0.9c2.3,0.9,1.2,6.4-2.2,7.1c0,0-1.2,0.3-2.2-0.6
											C154.3,190.4,155.2,186.3,155.3,184.8z"/>
										<g>
											<g>
												<path class="st27" d="M158.2,185.8c0,0-1.9-0.6-3.3,2.2"/>
											</g>
										</g>
									</g>
									<g>
										<path class="st24" d="M129.2,184.8c0,0-1.1-1.8-3.4-0.9c-2.3,0.9-1.2,6.4,2.2,7.1c0,0,1.2,0.3,2.2-0.6
											C130.2,190.4,129.3,186.3,129.2,184.8z"/>
										<g>
											<g>
												<path class="st27" d="M126.3,185.8c0,0,1.9-0.6,3.3,2.2"/>
											</g>
										</g>
									</g>
									<path class="st24" d="M155.5,180c0,3.5-0.4,10.9-2.7,15.3c-2.2,4.1-5.7,6.3-10.4,6.5c-4.7,0.1-8.1-1.6-10.9-6.9
										c-2.8-5.4-2.7-14.8-2.7-14.8s0-12.6,13.2-12.6C155.9,167.5,155.5,180,155.5,180z"/>
								</g>
								<path class="st9" d="M129.2,184.8c0,0,5-11.4,1-13.3C130.2,171.5,127.3,181.3,129.2,184.8z"/>
								<path class="st9" d="M155.3,184.8c0,0-2.8-6.2-0.3-10.6C154.9,174.2,157.2,181.3,155.3,184.8z"/>
								<g>
									<g>
										<path class="st9" d="M137.6,187.6c0,0.7-0.5,1.2-1.2,1.2s-1.2-0.5-1.2-1.2c0-0.7,0.5-1.2,1.2-1.2S137.6,186.9,137.6,187.6
											z"/>
										<path class="st9" d="M148.7,187.6c0,0.7-0.5,1.2-1.2,1.2c-0.7,0-1.2-0.5-1.2-1.2c0-0.7,0.5-1.2,1.2-1.2
											C148.2,186.4,148.7,186.9,148.7,187.6z"/>
									</g>
									<path class="st27" d="M141.3,190.2l0,1.6c0,0.4,0.4,0.7,0.8,0.6l0.9-0.2"/>
									<path class="st9" d="M139.9,183.8l-7.3,0.9c0,0,0.6-1.9,3.6-2.3C139.2,182.1,139.9,183.8,139.9,183.8z"/>
									<path class="st9" d="M144.2,183.8l7.3,0.9c0,0-0.6-1.9-3.6-2.3C144.9,182.1,144.2,183.8,144.2,183.8z"/>
									<path class="st4" d="M138.3,194.3h7.4c0,0,0.1,2.7-3.7,2.6C138.2,196.7,138.3,194.3,138.3,194.3z"/>
								</g>
								<path class="st9" d="M130.2,171.5c0,0,8.2,10,25.6,6.7c0,0,1.5-9-7.5-11.8C139.3,163.6,132.3,170.1,130.2,171.5z"/>
								<path class="st9" d="M130.2,171.5c0,0-0.2-8.2,7.4-9.4c7.6-1.2,7.8,2.8,13.2,3.1c8,0.5,11.7,8.4,5.1,12.9l-11.1-6.7H130.2z"
									/>
								<path class="st9" d="M130.5,169.1c0,0-8.2,1-3.2,14.1L130.5,169.1z"/>
								<g>
									<polygon class="st4" points="136,205.3 142.1,212.1 137.6,216.7 131.8,207.9 									"/>
									<polygon class="st4" points="148.3,205.6 142.1,212.1 146.6,216.7 153,207.9 									"/>
								</g>
							</g>
						</g>
						<g>
							<g>
								<rect x="53.7" y="263.8" class="st4" width="393.4" height="9.7"/>
								<g>
									<rect x="81" y="273.5" class="st28" width="6.1" height="3.1"/>
								</g>
								<g>
									<rect x="200.3" y="273.5" class="st4" width="6.1" height="91.9"/>
									<rect x="200.3" y="273.5" class="st28" width="6.1" height="3.1"/>
								</g>
							</g>
						</g>
					</g>
				</g>
				<rect x="81" y="273.5" class="st29" width="326.8" height="96.4"/>
				<rect x="105.5" y="290.3" class="st30" width="280.3" height="62.9"/>
				<path class="st31" d="M137.9,190.1H135c-1.6,0-2.9-1.3-2.9-2.9l0,0c0-1.6,1.3-2.9,2.9-2.9h2.9c1.6,0,2.9,1.3,2.9,2.9l0,0
					C140.8,188.8,139.5,190.1,137.9,190.1z"/>
				<path class="st31" d="M149.5,190.1h-2.9c-1.6,0-2.9-1.3-2.9-2.9l0,0c0-1.6,1.3-2.9,2.9-2.9h2.9c1.6,0,2.9,1.3,2.9,2.9l0,0
					C152.4,188.8,151.1,190.1,149.5,190.1z"/>
				<line class="st31" x1="152.4" y1="186.2" x2="155.3" y2="184.3"/>
				<line class="st31" x1="132.1" y1="186.2" x2="129.2" y2="184.3"/>
				<path class="st31" d="M140.8,187.2c0.2-0.6,0.8-1,1.4-1c0.6,0,1.2,0.4,1.4,1"/>
				<g>
					<rect x="140.9" y="306.6" class="st32" width="4.2" height="1.9"/>
					<polygon class="st32" points="150.7,320.7 158,320.7 153.7,325 140.9,325 140.9,340.4 142.8,338.5 146.9,334.3 148.8,332.5 
						148.8,330.6 148.8,329.9 148.8,328.5 146.9,328.5 146.9,331.7 142.8,335.9 142.8,326.9 154.4,326.9 162.4,318.9 150.7,318.9 
											"/>
					<polygon class="st32" points="150.7,306.6 150.7,308.5 170.2,308.5 166,312.7 148.9,312.7 140.9,320.7 145.3,320.7 
						145.3,318.9 145.3,318.9 146.9,317.3 149.4,314.8 149.6,314.6 166.7,314.6 174.7,306.6 					"/>
					<polygon class="st32" points="148.8,300.6 146.9,300.6 146.9,312.8 148.8,310.9 					"/>
					<polygon class="st32" points="146.9,319.2 146.9,323.4 148.8,323.4 148.8,317.3 					"/>
				</g>
				<g>
					<path class="st32" d="M215,307.3v5.6h-12.9v8h10.7v5.6h-10.7v12.2h-7.3v-31.4H215z"/>
					<path class="st32" d="M226.7,338.8h-7.3v-31.4h7.3V338.8z"/>
					<path class="st32" d="M250.1,313.7c-0.2,0.3-0.4,0.6-0.7,0.8c-0.2,0.2-0.5,0.3-0.9,0.3c-0.3,0-0.7-0.1-1.1-0.3
						c-0.4-0.2-0.8-0.4-1.3-0.7c-0.5-0.3-1-0.5-1.7-0.7c-0.6-0.2-1.3-0.3-2.1-0.3c-1.4,0-2.4,0.3-3.1,0.9s-1,1.4-1,2.4
						c0,0.6,0.2,1.2,0.6,1.6c0.4,0.4,0.9,0.8,1.6,1.1c0.7,0.3,1.4,0.6,2.2,0.8c0.8,0.3,1.7,0.5,2.6,0.8c0.9,0.3,1.7,0.7,2.6,1.1
						c0.8,0.4,1.6,0.9,2.2,1.6c0.7,0.6,1.2,1.4,1.6,2.4c0.4,0.9,0.6,2,0.6,3.4c0,1.5-0.3,2.8-0.8,4.1c-0.5,1.3-1.2,2.4-2.2,3.3
						c-1,0.9-2.1,1.7-3.5,2.2c-1.4,0.5-3,0.8-4.8,0.8c-1,0-2-0.1-3-0.3c-1-0.2-2-0.5-2.9-0.9c-0.9-0.4-1.8-0.8-2.7-1.3
						c-0.8-0.5-1.6-1.1-2.2-1.7l2.2-3.4c0.2-0.3,0.4-0.5,0.7-0.6c0.3-0.2,0.6-0.2,0.9-0.2c0.4,0,0.9,0.1,1.3,0.4
						c0.4,0.3,0.9,0.6,1.5,0.9c0.6,0.3,1.2,0.6,1.9,0.9c0.7,0.3,1.6,0.4,2.5,0.4c1.3,0,2.4-0.3,3.1-0.9c0.7-0.6,1.1-1.5,1.1-2.8
						c0-0.7-0.2-1.3-0.6-1.8c-0.4-0.5-0.9-0.8-1.6-1.1c-0.7-0.3-1.4-0.6-2.2-0.8c-0.8-0.2-1.7-0.5-2.6-0.8c-0.9-0.3-1.7-0.6-2.6-1
						c-0.8-0.4-1.6-0.9-2.2-1.6c-0.7-0.7-1.2-1.5-1.6-2.5c-0.4-1-0.6-2.2-0.6-3.7c0-1.2,0.2-2.3,0.7-3.5c0.5-1.1,1.2-2.1,2.1-3
						s2.1-1.6,3.4-2.1c1.3-0.5,2.9-0.8,4.6-0.8c1,0,1.9,0.1,2.8,0.2c0.9,0.2,1.8,0.4,2.6,0.7c0.8,0.3,1.6,0.6,2.3,1.1
						c0.7,0.4,1.3,0.9,1.9,1.4L250.1,313.7z"/>
					<path class="st32" d="M273.5,313.7c-0.2,0.3-0.4,0.6-0.7,0.8c-0.2,0.2-0.5,0.3-0.9,0.3c-0.3,0-0.7-0.1-1.1-0.3
						c-0.4-0.2-0.8-0.4-1.3-0.7c-0.5-0.3-1-0.5-1.7-0.7c-0.6-0.2-1.3-0.3-2.1-0.3c-1.4,0-2.4,0.3-3.1,0.9c-0.7,0.6-1,1.4-1,2.4
						c0,0.6,0.2,1.2,0.6,1.6c0.4,0.4,0.9,0.8,1.6,1.1c0.7,0.3,1.4,0.6,2.2,0.8c0.8,0.3,1.7,0.5,2.6,0.8c0.9,0.3,1.7,0.7,2.6,1.1
						c0.8,0.4,1.6,0.9,2.2,1.6c0.7,0.6,1.2,1.4,1.6,2.4c0.4,0.9,0.6,2,0.6,3.4c0,1.5-0.3,2.8-0.8,4.1c-0.5,1.3-1.2,2.4-2.2,3.3
						c-1,0.9-2.1,1.7-3.5,2.2c-1.4,0.5-3,0.8-4.8,0.8c-1,0-2-0.1-3-0.3c-1-0.2-2-0.5-2.9-0.9c-0.9-0.4-1.8-0.8-2.7-1.3
						c-0.8-0.5-1.6-1.1-2.2-1.7l2.2-3.4c0.2-0.3,0.4-0.5,0.7-0.6c0.3-0.2,0.6-0.2,0.9-0.2c0.4,0,0.9,0.1,1.3,0.4
						c0.4,0.3,0.9,0.6,1.5,0.9c0.6,0.3,1.2,0.6,1.9,0.9c0.7,0.3,1.6,0.4,2.5,0.4c1.3,0,2.4-0.3,3.1-0.9c0.7-0.6,1.1-1.5,1.1-2.8
						c0-0.7-0.2-1.3-0.6-1.8s-0.9-0.8-1.6-1.1c-0.7-0.3-1.4-0.6-2.2-0.8c-0.8-0.2-1.7-0.5-2.6-0.8c-0.9-0.3-1.7-0.6-2.6-1
						c-0.8-0.4-1.6-0.9-2.2-1.6c-0.7-0.7-1.2-1.5-1.6-2.5c-0.4-1-0.6-2.2-0.6-3.7c0-1.2,0.2-2.3,0.7-3.5c0.5-1.1,1.2-2.1,2.1-3
						c0.9-0.9,2.1-1.6,3.4-2.1c1.3-0.5,2.9-0.8,4.6-0.8c1,0,1.9,0.1,2.8,0.2c0.9,0.2,1.8,0.4,2.6,0.7c0.8,0.3,1.6,0.6,2.3,1.1
						c0.7,0.4,1.3,0.9,1.9,1.4L273.5,313.7z"/>
					<path class="st32" d="M287.3,338.8H280v-31.4h7.3V338.8z"/>
					<path class="st32" d="M324.2,323c0,2.3-0.4,4.4-1.2,6.3c-0.8,2-1.9,3.7-3.3,5.1c-1.4,1.4-3.1,2.6-5.1,3.4
						c-2,0.8-4.2,1.2-6.7,1.2c-2.4,0-4.7-0.4-6.7-1.2c-2-0.8-3.7-2-5.2-3.4c-1.4-1.4-2.5-3.1-3.3-5.1c-0.8-2-1.2-4.1-1.2-6.3
						c0-2.3,0.4-4.4,1.2-6.3c0.8-2,1.9-3.7,3.3-5.1c1.4-1.4,3.2-2.6,5.2-3.4c2-0.8,4.2-1.2,6.7-1.2c2.4,0,4.7,0.4,6.7,1.2
						s3.7,2,5.1,3.4s2.5,3.1,3.3,5.1C323.8,318.7,324.2,320.8,324.2,323z M316.7,323c0-1.6-0.2-3-0.6-4.2c-0.4-1.2-1-2.3-1.7-3.2
						c-0.8-0.9-1.7-1.5-2.8-2c-1.1-0.5-2.3-0.7-3.7-0.7c-1.4,0-2.7,0.2-3.8,0.7c-1.1,0.5-2,1.1-2.8,2c-0.8,0.9-1.3,1.9-1.7,3.2
						c-0.4,1.2-0.6,2.6-0.6,4.2c0,1.6,0.2,3,0.6,4.2c0.4,1.2,1,2.3,1.7,3.2c0.8,0.9,1.7,1.5,2.8,2c1.1,0.5,2.4,0.7,3.8,0.7
						c1.4,0,2.6-0.2,3.7-0.7s2-1.1,2.8-2c0.8-0.9,1.3-1.9,1.7-3.2C316.5,326,316.7,324.6,316.7,323z"/>
					<path class="st32" d="M332.3,307.4c0.2,0,0.4,0.1,0.6,0.2c0.2,0.1,0.3,0.2,0.5,0.3c0.2,0.1,0.3,0.3,0.5,0.6l14.9,18.9
						c-0.1-0.6-0.1-1.2-0.1-1.8s0-1.1,0-1.6v-16.6h6.4v31.4h-3.8c-0.6,0-1-0.1-1.4-0.3c-0.4-0.2-0.8-0.5-1.1-0.9L334,318.8
						c0,0.5,0.1,1.1,0.1,1.6c0,0.5,0,1,0,1.5v16.9h-6.4v-31.4h3.8C331.9,307.3,332.1,307.3,332.3,307.4z"/>
				</g>
			</g>
		</g>
		<rect x="292" y="81" class="st33" width="59" height="59"/>
		<g>
			<defs>
				<rect id="SVGID_3_" x="292" y="81" width="59" height="59"/>
			</defs>
			<clipPath id="SVGID_4_">
				<use xlink:href="#SVGID_3_"  style="overflow:visible;"/>
			</clipPath>
			<polygon class="st34" points="291,141 316.5,115.5 327.5,126.5 343,111 359,127 352,144 303,148 291,146 			"/>
		</g>
		<circle class="st35" cx="312" cy="100" r="8"/>
		<rect x="40" y="67" class="st36" width="129" height="49"/>
		<text transform="matrix(1 0 0 1 71.8936 100.2979)" class="st37 st38">2009</text>
	</g>
	<g>
		<path class="st4" d="M376,192c-0.7,0-1.3,0.1-2,0.2c-2.8-3.2-6.9-5.2-11.5-5.2c-0.1,0-0.2,0-0.3,0c-3.5-4.9-9.3-8-15.7-8
			c-8.5,0-15.7,5.5-18.4,13.1c-0.4,0-0.7-0.1-1.1-0.1c-7.2,0-13,5.8-13,13s5.8,13,13,13c3.3,0,6.3-1.3,8.6-3.3
			c3.1,2.1,6.8,3.3,10.9,3.3c3,0,5.9-0.7,8.5-2c2.2,1.2,4.8,2,7.5,2c2.5,0,4.9-0.6,7.1-1.7c1.9,1.1,4.1,1.7,6.4,1.7
			c7.2,0,13-5.8,13-13S383.2,192,376,192z"/>
	</g>
	<g>
		<path class="st4" d="M101,186c-0.7,0-1.3,0.1-2,0.2c-2.8-3.2-6.9-5.2-11.5-5.2c-0.1,0-0.2,0-0.3,0c-3.5-4.9-9.3-8-15.7-8
			c-8.5,0-15.7,5.5-18.4,13.1c-0.4,0-0.7-0.1-1.1-0.1c-7.2,0-13,5.8-13,13s5.8,13,13,13c3.3,0,6.3-1.3,8.6-3.3
			c3.1,2.1,6.8,3.3,10.9,3.3c3,0,5.9-0.7,8.5-2c2.2,1.2,4.8,2,7.5,2c2.5,0,4.9-0.6,7.1-1.7c1.9,1.1,4.1,1.7,6.4,1.7
			c7.2,0,13-5.8,13-13S108.2,186,101,186z"/>
	</g>
	<path class="st4" d="M102.5,233.2c-3.2,0.5-6.5-0.1-9.3-1.4c-1.4-0.7-2.7-1.6-3.8-2.6c-1.2-1-2.2-2.2-3-3.5
		c-0.8-1.3-1.5-2.6-2.1-4.1c-0.1-0.3-0.2-0.6-0.3-0.8l3.4-1.3l-9.4-7.7l-1.9,12l3.5-1.3c0.2,0.3,0.3,0.7,0.5,1
		c0.9,1.7,1.9,3.2,3.1,4.6c1.2,1.4,2.6,2.6,4.1,3.7c1.5,1,3.2,1.9,4.9,2.5c3.5,1.2,7.2,1.2,10.6,0.3c3.4-1,6.4-2.8,8.8-5.2
		C108.9,231.3,105.7,232.7,102.5,233.2z"/>
	<path class="st4" d="M289.2,235.6c3.1,1.2,6.4,1.3,9.4,0.6c1.5-0.4,3-1,4.3-1.7c1.3-0.8,2.6-1.7,3.7-2.8c1.1-1.1,2.1-2.3,2.9-3.5
		c0.2-0.3,0.3-0.5,0.4-0.8l-3-2l10.9-5.5l-0.7,12.1l-3.2-2.1c-0.2,0.3-0.5,0.6-0.7,0.9c-1.2,1.4-2.6,2.7-4,3.8
		c-1.5,1.1-3.1,2-4.8,2.7c-1.7,0.7-3.5,1.2-5.3,1.4c-3.6,0.4-7.3-0.3-10.4-2c-3.1-1.7-5.6-4.1-7.5-7
		C283.4,232.4,286.1,234.5,289.2,235.6z"/>
	<text transform="matrix(1 0 0 1 51.562 199.085)" class="st39 st40">Sandeep</text>
	<text transform="matrix(1 0 0 1 325.562 208.085)" class="st39 st40">Bhargav</text>
</g>
</svg>
