<?xml version="1.0" encoding="utf-8"?>
<!-- Generator: Adobe Illustrator 23.1.0, SVG Export Plug-In . SVG Version: 6.00 Build 0)  -->
<svg version="1.1" id="Layer_1" xmlns="http://www.w3.org/2000/svg" xmlns:xlink="http://www.w3.org/1999/xlink" x="0px" y="0px"
	 viewBox="0 0 500 500" style="enable-background:new 0 0 500 500;" xml:space="preserve">
<style type="text/css">
	.st0{clip-path:url(#SVGID_2_);}
	.st1{clip-path:url(#SVGID_4_);fill:#86A8E2;}
	.st2{clip-path:url(#SVGID_4_);}
	.st3{clip-path:url(#SVGID_6_);fill:#AFC6F5;}
	.st4{clip-path:url(#SVGID_6_);fill:#86A8E2;}
	.st5{clip-path:url(#SVGID_4_);fill:#ECF0F1;}
	.st6{clip-path:url(#SVGID_8_);}
	.st7{clip-path:url(#SVGID_8_);fill:#F4F4F4;}
	.st8{clip-path:url(#SVGID_10_);fill:url(#SVGID_11_);}
	.st9{clip-path:url(#SVGID_13_);fill:#3878FF;}
	.st10{clip-path:url(#SVGID_13_);fill:#F76D59;}
	.st11{clip-path:url(#SVGID_13_);fill:#1F1F89;}
	.st12{clip-path:url(#SVGID_13_);fill:#F7F5EF;}
	.st13{clip-path:url(#SVGID_13_);fill:#8E574A;}
	.st14{opacity:0.5;clip-path:url(#SVGID_13_);}
	.st15{clip-path:url(#SVGID_15_);fill:none;stroke:#0A5DE2;stroke-width:2;stroke-linecap:round;stroke-miterlimit:10;}
	.st16{clip-path:url(#SVGID_13_);fill:#AFC6F5;}
	.st17{clip-path:url(#SVGID_17_);fill:none;stroke:#0A5DE2;stroke-width:2;stroke-linecap:round;stroke-miterlimit:10;}
	.st18{clip-path:url(#SVGID_13_);fill:#0A5DE2;}
	.st19{clip-path:url(#SVGID_13_);fill:#2B159B;}
	.st20{opacity:0.4;clip-path:url(#SVGID_13_);}
	.st21{clip-path:url(#SVGID_19_);fill:#AFC6F5;}
	.st22{clip-path:url(#SVGID_21_);fill:none;stroke:#0A5DE2;stroke-width:2;stroke-linecap:round;stroke-miterlimit:10;}
	.st23{clip-path:url(#SVGID_13_);fill:#D64536;}
	.st24{clip-path:url(#SVGID_23_);fill:url(#SVGID_24_);}
	.st25{clip-path:url(#SVGID_26_);fill:#F76D59;}
	.st26{clip-path:url(#SVGID_26_);fill:#1F1F89;}
	.st27{clip-path:url(#SVGID_26_);fill:#3878FF;}
	.st28{clip-path:url(#SVGID_26_);fill:#AFC6F5;}
	.st29{clip-path:url(#SVGID_26_);fill:#F7F5EF;}
	.st30{clip-path:url(#SVGID_26_);fill:#BCCCFD;}
	.st31{opacity:0.5;clip-path:url(#SVGID_26_);}
	.st32{clip-path:url(#SVGID_28_);fill:none;stroke:#0A5DE2;stroke-width:2;stroke-linecap:round;stroke-miterlimit:10;}
	.st33{clip-path:url(#SVGID_26_);fill:#0A5DE2;}
	.st34{filter:url(#Adobe_OpacityMaskFilter);}
	.st35{clip-path:url(#SVGID_30_);fill:url(#SVGID_32_);}
	.st36{clip-path:url(#SVGID_30_);mask:url(#SVGID_31_);fill:url(#SVGID_33_);}
	.st37{clip-path:url(#SVGID_35_);fill:#F7F5EF;}
	.st38{opacity:0.5;clip-path:url(#SVGID_35_);}
	.st39{clip-path:url(#SVGID_37_);fill:none;stroke:#0A5DE2;stroke-width:2;stroke-linecap:round;stroke-miterlimit:10;}
	.st40{clip-path:url(#SVGID_39_);fill:none;stroke:#0A5DE2;stroke-width:2;stroke-linecap:round;stroke-miterlimit:10;}
	.st41{clip-path:url(#SVGID_35_);fill:#0A5DE2;}
	.st42{clip-path:url(#SVGID_35_);fill:#F76D59;}
	.st43{clip-path:url(#SVGID_35_);fill:#1F1F89;}
	.st44{clip-path:url(#SVGID_35_);fill:#3878FF;}
	.st45{clip-path:url(#SVGID_41_);fill:none;stroke:#0A5DE2;stroke-width:2;stroke-linecap:round;stroke-miterlimit:10;}
	.st46{clip-path:url(#SVGID_35_);fill:#80392E;}
</style>
<g>
	<g>
		<defs>
			<rect id="SVGID_1_" width="500" height="500"/>
		</defs>
		<clipPath id="SVGID_2_">
			<use xlink:href="#SVGID_1_"  style="overflow:visible;"/>
		</clipPath>
		<g class="st0">
			<defs>
				<rect id="SVGID_3_" width="500" height="500"/>
			</defs>
			<clipPath id="SVGID_4_">
				<use xlink:href="#SVGID_3_"  style="overflow:visible;"/>
			</clipPath>
			<polygon class="st1" points="460.4,116.2 429.4,143.2 387.4,105.2 449.4,105.2 			"/>
			<g class="st2">
				<defs>
					<path id="SVGID_5_" d="M31.4,250.2c0,120.9,98,219,219,219s219-98.1,219-219c0-121-98-219-219-219S31.4,129.2,31.4,250.2"/>
				</defs>
				<clipPath id="SVGID_6_">
					<use xlink:href="#SVGID_5_"  style="overflow:visible;"/>
				</clipPath>
				<rect x="31" y="31.2" class="st3" width="438.9" height="254"/>
				<rect x="31" y="279.4" class="st4" width="438.9" height="206.7"/>
				<path class="st4" d="M5,313.4c-5.2-13.8,28.6-72,92.7-56c3.8,1,34.5,8.6,34.3,19.4C131.7,300.9,12,332.2,5,313.4"/>
				<path class="st4" d="M304.8,342.8c-7.6-20.2,42.1-105.8,136.3-82.3c5.6,1.4,50.7,12.7,50.5,28.5
					C491.2,324.3,315.2,370.4,304.8,342.8"/>
			</g>
			<rect x="331.4" y="67.2" class="st5" width="129" height="49"/>
			<g class="st2">
				<defs>
					<rect id="SVGID_7_" width="500" height="500"/>
				</defs>
				<clipPath id="SVGID_8_">
					<use xlink:href="#SVGID_7_"  style="overflow:visible;"/>
				</clipPath>
				<path class="st6" d="M377.8,82.8c0.9,0,1.6,0.1,2.3,0.4c0.7,0.3,1.3,0.6,1.8,1c0.5,0.4,0.9,1,1.1,1.6c0.3,0.6,0.4,1.3,0.4,2
					c0,0.6-0.1,1.2-0.3,1.8c-0.2,0.5-0.4,1.1-0.7,1.6c-0.3,0.5-0.7,1-1.1,1.4c-0.4,0.5-0.8,0.9-1.3,1.4l-3.4,3.5
					c0.4-0.1,0.9-0.2,1.3-0.3c0.4-0.1,0.8-0.1,1.2-0.1h3.3c0.4,0,0.7,0.1,0.9,0.3c0.2,0.2,0.3,0.5,0.3,0.9v2.2h-12.3v-1.2
					c0-0.2,0-0.5,0.1-0.7c0.1-0.3,0.3-0.5,0.5-0.7l5-5.1c0.4-0.4,0.8-0.8,1.1-1.2c0.3-0.4,0.6-0.8,0.8-1.2c0.2-0.4,0.4-0.8,0.5-1.1
					c0.1-0.4,0.2-0.8,0.2-1.2c0-0.7-0.2-1.2-0.5-1.6c-0.3-0.4-0.8-0.6-1.5-0.6c-0.3,0-0.5,0-0.8,0.1c-0.2,0.1-0.4,0.2-0.6,0.3
					c-0.2,0.1-0.3,0.3-0.5,0.5c-0.1,0.2-0.2,0.4-0.3,0.6c-0.1,0.4-0.3,0.6-0.5,0.8c-0.2,0.2-0.5,0.2-0.8,0.2c-0.1,0-0.2,0-0.3,0
					c-0.1,0-0.2,0-0.3,0l-2-0.3c0.1-0.9,0.4-1.6,0.7-2.3c0.4-0.6,0.8-1.2,1.4-1.6c0.5-0.4,1.2-0.8,1.9-1
					C376.2,82.9,377,82.8,377.8,82.8"/>
				<path class="st6" d="M397.9,91.7c0,1.5-0.2,2.9-0.5,4c-0.3,1.1-0.8,2-1.4,2.8c-0.6,0.7-1.3,1.3-2.1,1.6
					c-0.8,0.4-1.7,0.5-2.6,0.5c-0.9,0-1.8-0.2-2.6-0.5c-0.8-0.4-1.5-0.9-2-1.6c-0.6-0.7-1-1.7-1.4-2.8c-0.3-1.1-0.5-2.4-0.5-4
					c0-1.5,0.2-2.9,0.5-4c0.3-1.1,0.8-2,1.4-2.8c0.6-0.7,1.3-1.3,2-1.6c0.8-0.4,1.6-0.5,2.6-0.5c0.9,0,1.8,0.2,2.6,0.5
					c0.8,0.4,1.5,0.9,2.1,1.6c0.6,0.7,1,1.7,1.4,2.8C397.7,88.9,397.9,90.2,397.9,91.7 M394.1,91.7c0-1.2-0.1-2.2-0.2-3
					c-0.2-0.8-0.4-1.4-0.6-1.8s-0.5-0.7-0.9-0.9c-0.3-0.2-0.6-0.2-1-0.2c-0.3,0-0.6,0.1-1,0.2c-0.3,0.2-0.6,0.5-0.8,0.9
					c-0.2,0.4-0.4,1-0.6,1.8c-0.1,0.8-0.2,1.8-0.2,3c0,1.2,0.1,2.2,0.2,3c0.1,0.8,0.3,1.4,0.6,1.8c0.2,0.4,0.5,0.7,0.8,0.9
					c0.3,0.2,0.6,0.2,1,0.2c0.3,0,0.7-0.1,1-0.2c0.3-0.2,0.6-0.5,0.9-0.9s0.5-1,0.6-1.8C394,93.9,394.1,92.9,394.1,91.7"/>
				<path class="st6" d="M401.4,97.8h3.4V89c0-0.4,0-0.9,0-1.4l-2,1.6c-0.1,0.1-0.3,0.2-0.4,0.2c-0.1,0-0.3,0.1-0.4,0.1
					c-0.2,0-0.4,0-0.6-0.1s-0.3-0.2-0.4-0.3l-1.2-1.6l5.4-4.6h3.1v14.8h2.9v2.7h-10V97.8z"/>
				<path class="st6" d="M419.3,100.7c-0.9,0-1.8-0.1-2.5-0.4c-0.8-0.2-1.4-0.6-2-1c-0.5-0.5-1-1-1.3-1.6c-0.3-0.6-0.5-1.4-0.5-2.1
					c0-0.5,0.1-0.9,0.2-1.3c0.1-0.4,0.3-0.8,0.5-1.2s0.5-0.7,0.9-0.9c0.4-0.3,0.8-0.5,1.4-0.7c-0.8-0.4-1.4-0.9-1.8-1.5
					c-0.4-0.6-0.6-1.4-0.6-2.3c0-0.7,0.1-1.3,0.4-1.9c0.3-0.6,0.7-1.1,1.2-1.5s1.1-0.8,1.8-1c0.7-0.2,1.4-0.4,2.3-0.4
					c0.8,0,1.6,0.1,2.3,0.4c0.7,0.2,1.3,0.6,1.8,1s0.9,0.9,1.2,1.5c0.3,0.6,0.4,1.2,0.4,1.9c0,0.9-0.2,1.7-0.6,2.3
					c-0.4,0.6-1,1.1-1.8,1.5c0.5,0.2,1,0.4,1.3,0.7c0.4,0.3,0.7,0.6,0.9,0.9s0.4,0.7,0.5,1.2c0.1,0.4,0.2,0.9,0.2,1.3
					c0,0.8-0.1,1.5-0.5,2.1c-0.3,0.6-0.7,1.2-1.3,1.6c-0.5,0.5-1.2,0.8-2,1C421,100.5,420.2,100.7,419.3,100.7 M419.3,97.9
					c0.4,0,0.8-0.1,1.1-0.2c0.3-0.1,0.6-0.3,0.8-0.5c0.2-0.2,0.3-0.5,0.4-0.8c0.1-0.3,0.1-0.6,0.1-1c0-0.4,0-0.7-0.1-1
					c-0.1-0.3-0.2-0.6-0.4-0.8c-0.2-0.2-0.4-0.4-0.7-0.5c-0.3-0.1-0.7-0.2-1.1-0.2c-0.5,0-0.8,0.1-1.1,0.2c-0.3,0.1-0.6,0.3-0.7,0.5
					c-0.2,0.2-0.3,0.5-0.4,0.8c-0.1,0.3-0.1,0.7-0.1,1c0,0.3,0,0.7,0.1,1c0.1,0.3,0.2,0.6,0.4,0.8c0.2,0.2,0.4,0.4,0.7,0.5
					C418.5,97.8,418.8,97.9,419.3,97.9 M419.3,90c0.4,0,0.8-0.1,1-0.2c0.3-0.1,0.5-0.3,0.6-0.5c0.2-0.2,0.3-0.5,0.3-0.8
					s0.1-0.6,0.1-0.9c0-0.3,0-0.5-0.1-0.8c-0.1-0.3-0.2-0.5-0.4-0.7c-0.2-0.2-0.4-0.4-0.6-0.5c-0.3-0.1-0.6-0.2-0.9-0.2
					c-0.4,0-0.7,0.1-0.9,0.2c-0.3,0.1-0.5,0.3-0.6,0.5c-0.2,0.2-0.3,0.4-0.4,0.7c-0.1,0.3-0.1,0.5-0.1,0.8c0,0.3,0,0.6,0.1,0.9
					s0.2,0.5,0.3,0.8c0.2,0.2,0.4,0.4,0.6,0.5C418.5,90,418.8,90,419.3,90"/>
				<polygon class="st7" points="120.5,302.4 119.6,310.1 114.2,324.3 119.2,325.8 123,311.1 123.5,302.8 				"/>
			</g>
			<g class="st2">
				<defs>
					<polygon id="SVGID_9_" points="111.3,364.3 110.5,385.9 118.9,385.9 119.3,384.3 113.6,383.5 116.7,364.4 119.4,340.6 
						108.9,339.7 					"/>
				</defs>
				<clipPath id="SVGID_10_">
					<use xlink:href="#SVGID_9_"  style="overflow:visible;"/>
				</clipPath>
				
					<linearGradient id="SVGID_11_" gradientUnits="userSpaceOnUse" x1="22.3008" y1="1.3145" x2="23.3008" y2="1.3145" gradientTransform="matrix(1.2822 22.3472 -22.3472 1.2822 114.0597 -152.7366)">
					<stop  offset="0" style="stop-color:#241084"/>
					<stop  offset="3.252340e-03" style="stop-color:#241084"/>
					<stop  offset="0.9896" style="stop-color:#0A5DE2"/>
					<stop  offset="1" style="stop-color:#0A5DE2"/>
				</linearGradient>
				<polygon class="st8" points="106.3,339.9 108.9,386.5 122.1,385.8 119.4,339.1 				"/>
			</g>
			<g class="st2">
				<defs>
					<rect id="SVGID_12_" width="500" height="500"/>
				</defs>
				<clipPath id="SVGID_13_">
					<use xlink:href="#SVGID_12_"  style="overflow:visible;"/>
				</clipPath>
				<polygon class="st9" points="106.1,339.5 104.2,360.4 91.4,377.4 93,385.4 96.8,385.4 94.5,383.7 94.1,378.6 106.3,364.8 
					117.4,340.1 				"/>
				<polygon class="st10" points="123.5,302.8 123.3,295 121.8,294.8 120.5,302.4 				"/>
				<path class="st10" d="M108.3,313.5c-0.6,2.8-0.6,7.2,3.6,7.8c4.2,0.7,6.8-2,7.4-4.8c0.6-2.8-0.4-6.5-4.8-7
					C111.6,309.2,108.7,311.3,108.3,313.5"/>
				<path class="st11" d="M111.3,321.2c-3-0.8-4.2-3.7-3.7-6.7c0.5-3.6,4.1-5.6,6.9-4.9c0.2,0,0.3,0.1,0.5,0.2
					c0.1,0.4,0,0.9-0.1,1.2c-0.5,1.4-1.7,2.6-3.1,3C111.7,313.9,110.9,320.3,111.3,321.2"/>
				<path class="st10" d="M111,314.4c-0.4-0.1-0.9,0-1.3,0.3c-1.2,0.7-0.8,2.5,0.3,3.1c0.3,0.2,0.7,0.3,1.1,0.3c0.3,0,0.7,0,1-0.2
					c0.3-0.2,0.5-0.5,0.5-0.8c0.1-0.3,0-0.7,0-1C112.5,315.4,111.7,314.5,111,314.4"/>
				<path class="st12" d="M115.6,312.7c0.4,1,1.3,1.6,2.1,1.3c0.8-0.3,1.1-1.4,0.7-2.4c-0.4-1-1.3-1.6-2.1-1.3
					C115.5,310.6,115.2,311.7,115.6,312.7"/>
				<path class="st13" d="M120.9,293.9c0,1,0.8,1.8,1.8,1.8s1.8-0.8,1.8-1.8c0-1-0.8-1.8-1.8-1.8S120.9,292.9,120.9,293.9"/>
				<path class="st12" d="M129.2,305.7l-2.7,0.9c-1.1,3.1-2.9,6-5.3,8.3l-5,4.9l-6.2,4.2l-4.6,17l14.3,1.4l0.5-18.7l5.3-6.6
					c2.2-2.7,3.7-6,4.3-9.4L129.2,305.7z"/>
				<path class="st12" d="M135.9,263.4H116c-3.4,0-6.2,2.8-6.2,6.2v19.9c0,3.4,2.8,6.2,6.2,6.2h19.9c3.4,0,6.2-2.8,6.2-6.2v-19.9
					C142.1,266.2,139.3,263.4,135.9,263.4"/>
				<path class="st10" d="M129.7,295.1c0,1,0.8,1.8,1.8,1.8c1,0,1.8-0.8,1.8-1.8c0-1-0.8-1.8-1.8-1.8
					C130.5,293.3,129.7,294.1,129.7,295.1"/>
				<polygon class="st10" points="126.2,307.5 129.7,308.8 132.6,295.9 130.5,295.4 				"/>
				<path class="st10" d="M133.8,275.5c0,4.5-8.2,16.5-8.2,16.5s-8.2-12-8.2-16.5c0-4.5,3.7-8.2,8.2-8.2
					C130.1,267.3,133.8,271,133.8,275.5"/>
				<path class="st12" d="M129.5,274.8c0,2.2-1.8,3.9-3.9,3.9s-3.9-1.8-3.9-3.9s1.8-3.9,3.9-3.9S129.5,272.7,129.5,274.8"/>
				<g class="st14">
					<g>
						<defs>
							<rect id="SVGID_14_" x="83.5" y="384.7" width="65.3" height="2"/>
						</defs>
						<clipPath id="SVGID_15_">
							<use xlink:href="#SVGID_14_"  style="overflow:visible;"/>
						</clipPath>
						<line class="st15" x1="84.5" y1="385.7" x2="147.9" y2="385.7"/>
					</g>
				</g>
				<path class="st12" d="M282.9,146.6h-70c-4,0-7.2,3.2-7.2,7.2v167.3c0,4,3.2,7.2,7.2,7.2h70c4,0,7.2-3.2,7.2-7.2V153.7
					C290,149.8,286.8,146.6,282.9,146.6"/>
				<path class="st11" d="M282.9,146.6h-70c-4,0-7.2,3.2-7.2,7.2v7.3H290v-7.3C290,149.8,286.8,146.6,282.9,146.6"/>
				<path class="st11" d="M205.7,312v9.1c0,4,3.2,7.2,7.2,7.2h70c4,0,7.2-3.2,7.2-7.2V312H205.7z"/>
				<path class="st10" d="M276.8,165.9h-19.9c-3.4,0-6.2,2.8-6.2,6.2V192c0,3.4,2.8,6.2,6.2,6.2h19.9c3.4,0,6.2-2.8,6.2-6.2v-19.9
					C282.9,168.7,280.2,165.9,276.8,165.9"/>
				<path class="st16" d="M276.8,263.9h-19.9c-3.4,0-6.2,2.8-6.2,6.2V290c0,3.4,2.8,6.2,6.2,6.2h19.9c3.4,0,6.2-2.8,6.2-6.2V270
					C282.9,266.6,280.2,263.9,276.8,263.9"/>
				<path class="st10" d="M238.6,263.9h-19.9c-3.4,0-6.2,2.8-6.2,6.2V290c0,3.4,2.8,6.2,6.2,6.2h19.9c3.4,0,6.2-2.8,6.2-6.2V270
					C244.8,266.6,242.1,263.9,238.6,263.9"/>
				<g class="st14">
					<g>
						<defs>
							<rect id="SVGID_16_" x="204.4" y="328.1" width="92.8" height="2"/>
						</defs>
						<clipPath id="SVGID_17_">
							<use xlink:href="#SVGID_16_"  style="overflow:visible;"/>
						</clipPath>
						<line class="st17" x1="205.4" y1="329.1" x2="296.2" y2="329.1"/>
					</g>
				</g>
				
					<rect x="316.2" y="265.6" transform="matrix(0.9865 -0.164 0.164 0.9865 -44.788 55.9565)" class="st11" width="0.8" height="67.5"/>
				
					<rect x="295.8" y="265.6" transform="matrix(0.9865 -0.164 0.164 0.9865 -45.0666 52.6303)" class="st11" width="0.8" height="67.5"/>
				<rect x="293.1" y="279.7" class="st11" width="20.5" height="0.8"/>
				<rect x="294.5" y="288.6" class="st11" width="20.5" height="0.8"/>
				<rect x="296" y="297.5" class="st11" width="20.5" height="0.8"/>
				<rect x="297.4" y="306.4" class="st11" width="20.5" height="0.8"/>
				<rect x="298.9" y="315.3" class="st11" width="20.5" height="0.8"/>
				<rect x="300.3" y="324.2" class="st11" width="20.5" height="0.8"/>
				
					<rect x="250.9" y="298.9" transform="matrix(0.1644 -0.9864 0.9864 0.1644 -57.4124 530.8185)" class="st9" width="67.5" height="0.8"/>
				
					<rect x="271.2" y="298.9" transform="matrix(0.1646 -0.9864 0.9864 0.1646 -40.4856 550.7901)" class="st9" width="67.5" height="0.8"/>
				<rect x="287.6" y="279.7" class="st9" width="20.5" height="0.8"/>
				<rect x="286.1" y="288.6" class="st9" width="20.5" height="0.8"/>
				<rect x="284.7" y="297.5" class="st9" width="20.5" height="0.8"/>
				<rect x="283.2" y="306.4" class="st9" width="20.5" height="0.8"/>
				<rect x="281.8" y="315.3" class="st9" width="20.5" height="0.8"/>
				<rect x="280.3" y="324.2" class="st9" width="20.5" height="0.8"/>
				<rect x="288.5" y="265" class="st18" width="25" height="2.5"/>
				<polygon class="st12" points="335.3,253.7 332.8,228.6 329.7,201.7 332.1,201.3 337.7,226.8 346.5,227.5 355.6,201.7 358,202 
					351.4,229.6 351.7,253 				"/>
				<path class="st10" d="M338.4,219.4c-0.7,2.4,0.4,6.3,2.8,6.9c2.4,0.7,5.3-2.1,5.9-4.6c0.7-2.4-0.8-4.9-3.2-5.6
					C341.6,215.5,339.1,216.9,338.4,219.4"/>
				<path class="st19" d="M341.6,218c-0.5-0.1-1.2-0.5-1.4-0.9c0,0,0-0.1-0.1-0.1c1.1-0.8,2.5-1.1,3.8-0.7c2.4,0.7,3.8,3.2,3.2,5.6
					c-0.5,1.7-2.1,3.6-3.8,4.4c0-0.5,0.2-1,0.3-1.4c0.5-1.9,1.1-3.8,1.7-5.7C344,218.7,342.8,218.4,341.6,218"/>
				<path class="st10" d="M344.4,221.6c0.3-0.2,0.8-0.3,1.1-0.2c0.1,0,0.2,0.1,0.2,0.2c0.2,0.2,0.2,0.5,0.2,0.7
					c-0.1,0.7-0.6,1.3-1.3,1.5c-0.2,0.1-0.4,0.1-0.6,0.1c-0.2,0-0.4-0.1-0.5-0.3C343.2,223,344,222,344.4,221.6"/>
				<polygon class="st9" points="351.7,253 349.3,291.7 346.6,291.7 344.4,253.4 342,253.5 340.5,292.6 338.5,292.6 335.3,253.7 
					334.8,249 351.7,249.2 				"/>
				<polygon class="st9" points="349.3,291.7 355.2,292.3 355,293.2 346.4,293.2 346.6,291.7 				"/>
				<polygon class="st9" points="340.5,292.6 340.5,293.7 332.4,294 332.4,293 338.5,292.6 				"/>
				<path class="st19" d="M342.7,222.6c-1.5,0.2-2.6-1.3-4.1-1.5c-0.1,0-0.2,0-0.3,0c-0.1,0.1-0.2,0.2-0.2,0.3
					c-0.2,0.4-0.4,0.7-0.6,1.1c-0.2,0.4-0.4,0.7-0.5,1.2c-0.1,0.5,0,1,0,1.5c0.1,0.4,0.1,0.8,0.3,1.1c0.3,0.6,0.9,1.1,1.6,1.3
					c0.7,0.2,1.4,0.3,2.1,0.2c0.5,0,1-0.1,1.4-0.3c1-0.5,1.5-1.6,1.4-2.7c0-0.3-0.1-0.5-0.1-0.8c0-0.3,0.2-0.5,0.3-0.7
					c0.1-0.3,1.1-1.5,0.4-1.5c-0.2,0-0.6,0.4-0.8,0.5C343.4,222.5,343.1,222.6,342.7,222.6"/>
				<g class="st20">
					<g>
						<defs>
							<rect id="SVGID_18_" x="329.7" y="201.3" width="28.3" height="9.3"/>
						</defs>
						<clipPath id="SVGID_19_">
							<use xlink:href="#SVGID_18_"  style="overflow:visible;"/>
						</clipPath>
						<polygon class="st21" points="352.4,210.6 356,210.6 358,202 355.6,201.7 						"/>
						<polygon class="st21" points="332.1,201.3 329.7,201.7 330.7,210.6 334.2,210.6 						"/>
					</g>
				</g>
				<path class="st9" d="M391.9,174.1h-81.5c-4,0-7.2,3.2-7.2,7.2v12.1c0,4,3.2,7.2,7.2,7.2h81.5c4,0,7.2-3.2,7.2-7.2v-12.1
					C399.2,177.3,395.9,174.1,391.9,174.1"/>
				<path class="st12" d="M389.5,174.1H308c-4,0-7.2,3.2-7.2,7.2v12.1c0,4,3.2,7.2,7.2,7.2h81.5c4,0,7.2-3.2,7.2-7.2v-12.1
					C396.8,177.3,393.5,174.1,389.5,174.1"/>
				<path class="st16" d="M390.7,194.5l-3.9-4.1c1-1.2,1.6-2.7,1.6-4.3c0-3.7-3-6.6-6.6-6.6c-3.7,0-6.6,3-6.6,6.6
					c0,3.7,3,6.6,6.6,6.6c1.4,0,2.7-0.4,3.8-1.2l3.9,4.1c0.2,0.2,0.4,0.3,0.6,0.3c0.2,0,0.4-0.1,0.6-0.2
					C391,195.4,391,194.9,390.7,194.5 M381.7,181.3c2.7,0,4.9,2.2,4.9,4.9c0,2.7-2.2,4.9-4.9,4.9c-2.7,0-4.9-2.2-4.9-4.9
					C376.8,183.5,379,181.3,381.7,181.3"/>
				<g class="st14">
					<g>
						<defs>
							<rect id="SVGID_20_" x="307.7" y="293.1" width="88.7" height="2"/>
						</defs>
						<clipPath id="SVGID_21_">
							<use xlink:href="#SVGID_20_"  style="overflow:visible;"/>
						</clipPath>
						<line class="st22" x1="308.7" y1="294.1" x2="395.4" y2="294.1"/>
					</g>
				</g>
				<path class="st10" d="M332.7,200.3c0,1.2-0.9,2.1-2.1,2.1c-1.2,0-2.1-0.9-2.1-2.1c0-1.2,0.9-2.1,2.1-2.1
					C331.8,198.2,332.7,199.1,332.7,200.3"/>
				<path class="st10" d="M358,200.8c0,1.2-0.9,2.1-2.1,2.1c-1.2,0-2.1-0.9-2.1-2.1c0-1.2,0.9-2.1,2.1-2.1
					C357.1,198.7,358,199.7,358,200.8"/>
				<path class="st16" d="M255.8,207c0.5,1.2-0.1,2.5-1.3,3s-2.5-0.1-3-1.3c-0.5-1.2,0.1-2.5,1.3-3C254,205.2,255.3,205.8,255.8,207
					"/>
				<path class="st9" d="M248.8,197l-19.6-3.4c-3.4-0.6-6.6,1.7-7.1,5l-3.4,19.6c-0.6,3.4,1.7,6.6,5,7.1l19.6,3.4
					c3.4,0.6,6.6-1.7,7.1-5l3.4-19.6C254.4,200.8,252.2,197.6,248.8,197"/>
				<path class="st9" d="M153.8,308.4h14.4c0.3,0,0.6-0.2,0.8-0.5c0.1-0.3,0.1-0.7-0.2-0.9l-13.9-15l-1.2,1.1l12.6,13.6h-12.5V308.4
					z"/>
				<polygon class="st23" points="255.2,207.3 261.4,209.7 279.5,211.4 273.4,215.6 260.8,212.6 254.3,209.6 				"/>
				<path class="st16" d="M277,204.5c1,2.6-0.3,5.5-2.9,6.5c-2.6,1-5.5-0.3-6.5-2.9c-1-2.6,0.3-5.5,2.9-6.5
					C273.1,200.6,276,201.9,277,204.5"/>
			</g>
			<g class="st2">
				<defs>
					<polygon id="SVGID_22_" points="286.9,226.2 289.3,246.6 291.9,262.9 287,263.6 287.4,265 294.6,265 293.9,246.5 295.9,225.4 
											"/>
				</defs>
				<clipPath id="SVGID_23_">
					<use xlink:href="#SVGID_22_"  style="overflow:visible;"/>
				</clipPath>
				
					<linearGradient id="SVGID_24_" gradientUnits="userSpaceOnUse" x1="21.7362" y1="3.5596" x2="22.7362" y2="3.5596" gradientTransform="matrix(-3.6418 22.4113 22.4113 3.6418 292.16 -263.1096)">
					<stop  offset="0" style="stop-color:#241084"/>
					<stop  offset="3.252340e-03" style="stop-color:#241084"/>
					<stop  offset="0.9896" style="stop-color:#0A5DE2"/>
					<stop  offset="1" style="stop-color:#0A5DE2"/>
				</linearGradient>
				<polygon class="st24" points="302.2,226.4 295.7,266.4 280.7,263.9 287.2,224 				"/>
			</g>
			<g class="st2">
				<defs>
					<rect id="SVGID_25_" width="500" height="500"/>
				</defs>
				<clipPath id="SVGID_26_">
					<use xlink:href="#SVGID_25_"  style="overflow:visible;"/>
				</clipPath>
				<path class="st25" d="M252.4,209.4c2.6,1.1,11.5,3.4,14.4,3.2l6-0.5l6.2-1.6l13.5,6.6l-7.2,10l-12.3-10.2l-7.3-0.3
					c-3-0.1-11.5-3.4-14.1-4.9L252.4,209.4z"/>
				<path class="st26" d="M277.8,203.2c-1.1-2.4-5.3-3-7.6-1.9c-0.1,0.1-0.3,0.2-0.4,0.2c0,0.4,0.2,0.8,0.3,1.1c0.7,1.1,2,1.9,3.4,2
					c0,0,0.1,0.3,0.2,0.7c0.2-0.2,0.3-0.3,0.5-0.4c0.4-0.1,0.8-0.1,1.2,0c1.2,0.3,1.2,2,0.4,2.8c-0.3,0.2-0.6,0.4-0.9,0.5
					c0,0-0.1,0-0.1,0c-0.1,1.6,0,1.8,0.3,2.3C277,209.2,279.2,206.4,277.8,203.2"/>
				<polygon class="st27" points="318,222.6 305.9,227.9 292,217.2 284.8,227 305.9,233.5 318.4,225.1 321,228.1 321.9,227.2 				
					"/>
				<path class="st28" d="M253.1,209.4c0.5,1.2-0.1,2.5-1.3,3c-1.2,0.5-2.5-0.1-3-1.3c-0.5-1.2,0.1-2.5,1.3-3
					C251.3,207.6,252.6,208.2,253.1,209.4"/>
				<path class="st27" d="M153,151.2h16.3v163.9H153V151.2z M167.7,152.9h-13v160.6h13V152.9z"/>
				<rect x="150.8" y="306.4" class="st29" width="20.8" height="14.9"/>
				<path class="st27" d="M153.8,246.8h14.4c0.3,0,0.6-0.2,0.8-0.5c0.1-0.3,0.1-0.7-0.2-0.9l-13.9-15l-1.2,1.1l12.6,13.6h-12.5
					V246.8z"/>
				<path class="st27" d="M153.8,262.2h14.4c0.3,0,0.6-0.2,0.8-0.5c0.1-0.3,0.1-0.7-0.2-0.9l-13.9-15l-1.2,1.1l12.6,13.6h-12.5
					V262.2z"/>
				<path class="st27" d="M153.8,277.6h14.4c0.3,0,0.6-0.2,0.8-0.5c0.1-0.3,0.1-0.7-0.2-0.9l-13.9-15l-1.2,1.1l12.6,13.6h-12.5
					V277.6z"/>
				<path class="st27" d="M153.8,293h14.4c0.3,0,0.6-0.2,0.8-0.5c0.1-0.3,0.1-0.7-0.2-0.9l-13.9-15l-1.2,1.1l12.6,13.6h-12.5V293z"
					/>
				<path class="st27" d="M153.8,231.8h14.4c0.3,0,0.6-0.2,0.8-0.5c0.1-0.3,0.1-0.7-0.2-0.9l-13.9-15l-1.2,1.1l12.6,13.6h-12.5
					V231.8z"/>
				<path class="st27" d="M153.8,216.7h14.4c0.3,0,0.6-0.2,0.8-0.5c0.1-0.3,0.1-0.7-0.2-0.9l-13.9-15l-1.2,1.1l12.6,13.6h-12.5
					V216.7z"/>
				<path class="st27" d="M153.8,201.7h14.4c0.3,0,0.6-0.2,0.8-0.5c0.1-0.3,0.1-0.7-0.2-0.9l-13.9-15l-1.2,1.1l12.6,13.6h-12.5
					V201.7z"/>
				<path class="st27" d="M153.8,186.7h14.4c0.3,0,0.6-0.2,0.8-0.5c0.1-0.3,0.1-0.7-0.2-0.9l-13.9-15l-1.2,1.1l12.6,13.6h-12.5
					V186.7z"/>
				<path class="st27" d="M153.8,171.6h14.4c0.3,0,0.6-0.2,0.8-0.5c0.1-0.3,0.1-0.7-0.2-0.9l-13.9-15l-1.2,1.1l12.6,13.6h-12.5
					V171.6z"/>
				<path class="st27" d="M153.8,156.6h14.4c0.3,0,0.6-0.2,0.8-0.5c0.1-0.3,0.1-0.7-0.2-0.9l-13.9-15l-1.2,1.1l12.6,13.6h-12.5
					V156.6z"/>
				<rect x="153.1" y="134.6" class="st26" width="26.4" height="22.3"/>
				<rect x="113.3" y="134.6" class="st26" width="26.4" height="12.8"/>
				<path class="st27" d="M113.8,136.2h130.6c0.5,0,0.8-0.4,0.8-0.8c0-0.5-0.4-0.8-0.8-0.8H113.8c-0.5,0-0.8,0.4-0.8,0.8
					C112.9,135.9,113.3,136.2,113.8,136.2"/>
				<rect x="237.4" y="139.3" class="st27" width="0.8" height="54.2"/>
				<rect x="143.7" y="318.6" class="st27" width="34.9" height="6.5"/>
				<path class="st27" d="M166.2,136c0.1,0,0.2,0,0.3-0.1l7-7h63.8l6.5,6.5c0.2,0.2,0.4,0.2,0.6,0c0.2-0.2,0.2-0.4,0-0.6l-6.8-6.8
					h-64.5l-7.2,7.2c-0.2,0.2-0.2,0.4,0,0.6C166,136,166.1,136,166.2,136"/>
				<path class="st27" d="M113.2,136c0.1,0,0.3-0.1,0.4-0.2l7-13.3h16.9l6.6,12.9c0.1,0.2,0.4,0.3,0.6,0.2c0.2-0.1,0.3-0.4,0.2-0.6
					l-6.8-13.3H120l-7.2,13.8c-0.1,0.2,0,0.5,0.2,0.6C113.1,136,113.1,136,113.2,136"/>
				<path class="st29" d="M234.8,139.3c0,1.7,1.4,3.1,3.1,3.1c1.7,0,3.1-1.4,3.1-3.1c0-1.7-1.4-3.1-3.1-3.1
					C236.2,136.2,234.8,137.6,234.8,139.3"/>
				<path class="st27" d="M219.8,128.9c0.2,0,0.3-0.1,0.4-0.3c0.1-0.2-0.1-0.5-0.3-0.5l-61.7-18.8c-0.1,0-0.2,0-0.3,0l-29.2,12.3
					c-0.2,0.1-0.3,0.3-0.2,0.5c0.1,0.2,0.3,0.3,0.5,0.2l29.1-12.3l61.5,18.8C219.7,128.9,219.7,128.9,219.8,128.9"/>
				<path class="st27" d="M167.8,136.1c0.1,0,0.2,0,0.3-0.1c0.4-0.2,0.6-0.6,0.5-1.1l-9.7-25.6c-0.1-0.3-0.5-0.6-0.8-0.5
					c-0.4,0-0.7,0.3-0.7,0.7l-5,24.9c-0.1,0.5,0.2,0.9,0.7,1c0.4,0.1,0.9-0.2,1-0.7l4.5-22.1l8.7,22.9
					C167.1,135.9,167.5,136.1,167.8,136.1"/>
				<path class="st30" d="M156.4,109.7c0,0.9,0.8,1.7,1.7,1.7c0.9,0,1.7-0.8,1.7-1.7c0-0.9-0.8-1.7-1.7-1.7
					C157.1,108,156.4,108.8,156.4,109.7"/>
				<path class="st27" d="M228.6,136.1c0.1,0,0.2,0,0.3-0.1l8.2-6.6v6.2c0,0.2,0.2,0.4,0.4,0.4s0.4-0.2,0.4-0.4v-7.1
					c0-0.2-0.1-0.3-0.2-0.4c-0.1-0.1-0.3,0-0.4,0.1l-8.9,7.2c-0.2,0.1-0.2,0.4-0.1,0.6C228.3,136,228.4,136.1,228.6,136.1"/>
				<path class="st27" d="M220.6,136.1c0.1,0,0.2,0,0.3-0.1l8.2-6.6v6.2c0,0.2,0.2,0.4,0.4,0.4c0.2,0,0.4-0.2,0.4-0.4v-7.1
					c0-0.2-0.1-0.3-0.2-0.4c-0.1-0.1-0.3,0-0.4,0.1l-8.9,7.2c-0.2,0.1-0.2,0.4-0.1,0.6C220.4,136,220.5,136.1,220.6,136.1"/>
				<path class="st27" d="M212.7,136.1c0.1,0,0.2,0,0.3-0.1l8.2-6.6v6.2c0,0.2,0.2,0.4,0.4,0.4c0.2,0,0.4-0.2,0.4-0.4v-7.1
					c0-0.2-0.1-0.3-0.2-0.4c-0.1-0.1-0.3,0-0.4,0.1l-8.9,7.2c-0.2,0.1-0.2,0.4-0.1,0.6C212.5,136,212.6,136.1,212.7,136.1"/>
				<path class="st27" d="M204.8,136.1c0.1,0,0.2,0,0.3-0.1l8.2-6.6v6.2c0,0.2,0.2,0.4,0.4,0.4s0.4-0.2,0.4-0.4v-7.1
					c0-0.2-0.1-0.3-0.2-0.4c-0.1-0.1-0.3,0-0.4,0.1l-8.9,7.2c-0.2,0.1-0.2,0.4-0.1,0.6C204.6,136,204.7,136.1,204.8,136.1"/>
				<path class="st27" d="M196.9,136.1c0.1,0,0.2,0,0.3-0.1l8.2-6.6v6.2c0,0.2,0.2,0.4,0.4,0.4c0.2,0,0.4-0.2,0.4-0.4v-7.1
					c0-0.2-0.1-0.3-0.2-0.4c-0.1-0.1-0.3,0-0.4,0.1l-8.9,7.2c-0.2,0.1-0.2,0.4-0.1,0.6C196.7,136,196.8,136.1,196.9,136.1"/>
				<path class="st27" d="M189,136.1c0.1,0,0.2,0,0.3-0.1l8.2-6.6v6.2c0,0.2,0.2,0.4,0.4,0.4c0.2,0,0.4-0.2,0.4-0.4v-7.1
					c0-0.2-0.1-0.3-0.2-0.4c-0.1-0.1-0.3,0-0.4,0.1l-8.9,7.2c-0.2,0.1-0.2,0.4-0.1,0.6C188.8,136,188.9,136.1,189,136.1"/>
				<path class="st27" d="M181.1,136.1c0.1,0,0.2,0,0.3-0.1l8.2-6.6v6.2c0,0.2,0.2,0.4,0.4,0.4s0.4-0.2,0.4-0.4v-7.1
					c0-0.2-0.1-0.3-0.2-0.4c-0.1-0.1-0.3,0-0.4,0.1l-8.9,7.2c-0.2,0.1-0.2,0.4-0.1,0.6C180.8,136,181,136.1,181.1,136.1"/>
				<path class="st27" d="M173.2,136.1c0.1,0,0.2,0,0.3-0.1l8.2-6.6v6.2c0,0.2,0.2,0.4,0.4,0.4c0.2,0,0.4-0.2,0.4-0.4v-7.1
					c0-0.2-0.1-0.3-0.2-0.4c-0.1-0.1-0.3,0-0.4,0.1l-8.9,7.2c-0.2,0.1-0.2,0.4-0.1,0.6C172.9,136,173,136.1,173.2,136.1"/>
				<path class="st27" d="M126.4,136.1c0.1,0,0.2,0,0.3-0.1l10.6-12.5v12.2c0,0.2,0.2,0.4,0.4,0.4c0.2,0,0.4-0.2,0.4-0.4v-13.3
					c0-0.2-0.1-0.3-0.3-0.4c-0.2-0.1-0.3,0-0.5,0.1l-11.4,13.4c-0.1,0.2-0.1,0.4,0,0.6C126.2,136.1,126.3,136.1,126.4,136.1"/>
				<path class="st27" d="M118.2,136.1c0.1,0,0.3-0.1,0.3-0.2l8.1-12.3v11.9c0,0.2,0.2,0.4,0.4,0.4c0.2,0,0.4-0.2,0.4-0.4v-13.3
					c0-0.2-0.1-0.3-0.3-0.4c-0.2-0.1-0.4,0-0.5,0.2l-8.9,13.4c-0.1,0.2-0.1,0.5,0.1,0.6C118.1,136.1,118.1,136.1,118.2,136.1"/>
				<path class="st26" d="M235.2,194.6c0,1.4,1.2,2.6,2.6,2.6s2.6-1.2,2.6-2.6c0-1.4-1.2-2.6-2.6-2.6S235.2,193.1,235.2,194.6"/>
				<g class="st31">
					<g>
						<defs>
							<rect id="SVGID_27_" x="127.7" y="324.7" width="65.3" height="2"/>
						</defs>
						<clipPath id="SVGID_28_">
							<use xlink:href="#SVGID_27_"  style="overflow:visible;"/>
						</clipPath>
						<line class="st32" x1="128.7" y1="325.7" x2="192" y2="325.7"/>
					</g>
				</g>
				<polygon class="st25" points="392.3,352.7 391.4,339.6 392.8,330 397.8,301.7 395.4,301.3 389.9,326.3 381.4,327 372.5,301.7 
					370.1,302 376.6,329.1 378.9,339.4 378.6,352 				"/>
				<polygon class="st26" points="380.5,317.8 379.7,325.2 384.8,325.6 387.9,317.8 				"/>
				<path class="st29" d="M389.9,320.5c0,2.8-2.3,5.1-5.1,5.1c-2.8,0-5.1-2.3-5.1-5.1c0-2.8,2.3-5.1,5.1-5.1
					C387.6,315.4,389.9,317.7,389.9,320.5"/>
				<path class="st33" d="M394.3,270.1h-19.9c-3.4,0-6.2,2.8-6.2,6.2v19.9c0,3.4,2.8,6.2,6.2,6.2h19.9c3.4,0,6.2-2.8,6.2-6.2v-19.9
					C400.4,272.9,397.7,270.1,394.3,270.1"/>
				<path class="st26" d="M386.7,320.2c0.1,0,0.2,0.1,0.3,0.1c0.1,0,0.2-0.2,0.2-0.2c0.3-0.3,0.8-0.3,1.2,0c0.3,0.3,0.3,0.8,0.1,1.2
					c-0.2,0.4-0.6,0.6-1.1,0.7c-0.3,1-0.4,2.1-0.3,3.1c0.7,0.1,1.4,0.1,2.1,0.2c0.1,0,0.3,0,0.4-0.1c0.1-0.1,0.1-0.2,0.2-0.3
					c0.3-1.2,0.4-2.4,0.4-3.7c0-1.2-0.1-2.5-0.8-3.5c-0.7-1.2-3.8-3.3-5.3-2.1C382.4,316.7,385.5,319.6,386.7,320.2"/>
				<path class="st26" d="M382.4,318.4c-0.9,0.9-2,1.5-3.2,1.6c-0.1-1.4,0.5-2.7,1.6-3.6c0.6-0.5,2.5-1.6,3.3-1.1
					C384.9,315.8,383,317.8,382.4,318.4"/>
				<polygon class="st33" points="391.8,343.4 378.7,342.8 368.7,387.9 364,385.1 369.7,392 383.1,354.8 382.9,371.7 392,383.7 
					392.6,388.1 392.8,389.9 394.4,389.7 394.7,383.1 387.7,371.7 392.6,352.7 				"/>
				<polygon class="st29" points="392.7,313.9 395.5,314.9 397.8,301.7 395.4,301.3 				"/>
				<polygon class="st29" points="376.1,312.1 372.8,313.4 370.1,302 372.5,301.7 				"/>
				<polygon class="st29" points="387.3,326.5 384.8,330.9 383.6,326.8 				"/>
				<path class="st29" d="M369,300.3c0,1.1,0.9,2.1,2.1,2.1c1.1,0,2.1-0.9,2.1-2.1s-0.9-2.1-2.1-2.1
					C369.9,298.2,369,299.2,369,300.3"/>
				<path class="st29" d="M394.8,300.7c0,1.1,0.9,2.1,2.1,2.1s2.1-0.9,2.1-2.1c0-1.1-0.9-2.1-2.1-2.1S394.8,299.6,394.8,300.7"/>
			</g>
			<g class="st2">
				<defs>
					<path id="SVGID_29_" d="M374.4,362.4c1.9,1,3.7,1.9,5,2.6l3.2-8.8l0.3-2.8l-4.1-10.7L374.4,362.4z"/>
				</defs>
				<clipPath id="SVGID_30_">
					<use xlink:href="#SVGID_29_"  style="overflow:visible;"/>
				</clipPath>
				<defs>
					<filter id="Adobe_OpacityMaskFilter" filterUnits="userSpaceOnUse" x="366.7" y="339.9" width="23.8" height="28.1">
						<feColorMatrix  type="matrix" values="1 0 0 0 0  0 1 0 0 0  0 0 1 0 0  0 0 0 1 0"/>
					</filter>
				</defs>
				<mask maskUnits="userSpaceOnUse" x="366.7" y="339.9" width="23.8" height="28.1" id="SVGID_31_">
					<g class="st34">
						
							<linearGradient id="SVGID_32_" gradientUnits="userSpaceOnUse" x1="24.1133" y1="9.6231" x2="25.1133" y2="9.6231" gradientTransform="matrix(-7.1502 17.8754 17.8754 7.1502 380.4203 -149.4663)">
							<stop  offset="0" style="stop-color:#CCCCCC"/>
							<stop  offset="0.9896" style="stop-color:#000000"/>
							<stop  offset="1" style="stop-color:#000000"/>
						</linearGradient>
						<polygon class="st35" points="390.5,345.9 381.7,368 366.7,362 375.5,339.9 						"/>
					</g>
				</mask>
				
					<linearGradient id="SVGID_33_" gradientUnits="userSpaceOnUse" x1="24.1133" y1="9.6231" x2="25.1133" y2="9.6231" gradientTransform="matrix(-7.1502 17.8754 17.8754 7.1502 380.4203 -149.4663)">
					<stop  offset="0" style="stop-color:#241084"/>
					<stop  offset="0.9896" style="stop-color:#0A5DE2"/>
					<stop  offset="1" style="stop-color:#0A5DE2"/>
				</linearGradient>
				<polygon class="st36" points="390.5,345.9 381.7,368 366.7,362 375.5,339.9 				"/>
			</g>
			<g class="st2">
				<defs>
					<rect id="SVGID_34_" width="500" height="500"/>
				</defs>
				<clipPath id="SVGID_35_">
					<use xlink:href="#SVGID_34_"  style="overflow:visible;"/>
				</clipPath>
				<path class="st37" d="M388.4,280.7c0,2.3-1.9,4.2-4.2,4.2c-2.3,0-4.2-1.9-4.2-4.2c0-2.3,1.9-4.2,4.2-4.2
					C386.6,276.5,388.4,278.4,388.4,280.7"/>
				<path class="st37" d="M392.5,293.5c-0.1-4.4-3.7-8-8.1-8c-4.4,0-8,3.5-8.1,8H392.5z"/>
				<g class="st38">
					<g>
						<defs>
							<rect id="SVGID_36_" x="351.1" y="390.2" width="65.3" height="2"/>
						</defs>
						<clipPath id="SVGID_37_">
							<use xlink:href="#SVGID_36_"  style="overflow:visible;"/>
						</clipPath>
						<line class="st39" x1="352.1" y1="391.2" x2="415.5" y2="391.2"/>
					</g>
				</g>
				<g class="st38">
					<g>
						<defs>
							<rect id="SVGID_38_" x="266.1" y="331.4" width="65.3" height="2"/>
						</defs>
						<clipPath id="SVGID_39_">
							<use xlink:href="#SVGID_38_"  style="overflow:visible;"/>
						</clipPath>
						<line class="st40" x1="267.1" y1="332.4" x2="330.5" y2="332.4"/>
					</g>
				</g>
				<path class="st41" d="M201.8,229.3h-19.9c-3.4,0-6.2,2.8-6.2,6.2v19.9c0,3.4,2.8,6.2,6.2,6.2h19.9c3.4,0,6.2-2.8,6.2-6.2v-19.9
					C207.9,232,205.2,229.3,201.8,229.3"/>
				<polygon class="st37" points="183.4,313.9 181,288.9 177.8,262.2 180.3,261.8 185.8,287.2 194.5,287.9 203.5,262.2 206,262.5 
					199.4,290 199.7,313.2 				"/>
				<path class="st42" d="M181.7,260.8c0,1.2-0.9,2.1-2.1,2.1s-2.1-0.9-2.1-2.1c0-1.1,0.9-2.1,2.1-2.1S181.7,259.6,181.7,260.8"/>
				<path class="st42" d="M206,261.5c0,1.2-0.9,2.1-2.1,2.1s-2.1-0.9-2.1-2.1c0-1.1,0.9-2.1,2.1-2.1S206,260.3,206,261.5"/>
				<path class="st42" d="M195.7,279.6c0,2.9-2.4,5.3-5.3,5.3c-2.9,0-5.3-2.4-5.3-5.3c0-2.9,2.4-5.3,5.3-5.3
					C193.3,274.3,195.7,276.7,195.7,279.6"/>
				<path class="st43" d="M195.7,280.4c0,2.9-2.4,5.3-5.3,5.3c-2.9,0-5.3-2.4-5.3-5.3c0-2.9,2.4-5.3,5.3-5.3
					C193.3,275.1,195.7,277.5,195.7,280.4"/>
				<polygon class="st44" points="199.7,313.2 197.3,351.6 194.6,351.6 192.4,313.5 190,313.6 188.6,352.5 186.5,352.5 183.4,313.9 
					182.9,309.2 199.7,309.4 				"/>
				<polygon class="st44" points="197.3,351.6 203.1,352.2 202.9,353.1 194.4,353.1 194.6,351.6 				"/>
				<polygon class="st44" points="188.6,352.5 188.6,353.6 180.6,353.9 180.6,352.9 186.5,352.5 				"/>
				<g class="st38">
					<g>
						<defs>
							<rect id="SVGID_40_" x="170.3" y="352.7" width="48.7" height="2"/>
						</defs>
						<clipPath id="SVGID_41_">
							<use xlink:href="#SVGID_40_"  style="overflow:visible;"/>
						</clipPath>
						<line class="st45" x1="171.3" y1="353.7" x2="218" y2="353.7"/>
					</g>
				</g>
				<path class="st46" d="M262.4,362.9c0,0.1,0,0.1,0,0.2c0,0,0,0,0,0c0,0.1,0,0.1-0.1,0.2c0,0,0,0,0,0c0,0.1-0.1,0.1-0.1,0.2
					c0,0,0,0,0,0c0,0.1-0.1,0.1-0.2,0.2c0,0,0,0,0,0c-0.1,0.1-0.1,0.1-0.2,0.2c0,0,0,0-0.1,0c-0.1,0-0.1,0.1-0.2,0.1
					c0,0-0.1,0-0.1,0c-0.1,0-0.2,0.1-0.3,0.1c0,0-0.1,0-0.1,0c-0.1,0.1-0.3,0.1-0.4,0.2l-14.2,4.9c-0.1,0-0.3,0.1-0.4,0.1
					c-0.2,0.1-0.4,0.1-0.6,0.2c-0.3,0.1-0.6,0.1-0.8,0.2c-0.2,0-0.4,0-0.5,0.1c-0.2,0-0.4,0.1-0.7,0.1c0,0-0.1,0-0.1,0
					c-0.4,0-0.7,0-1.1,0h0c-0.4,0-0.8,0-1.2,0c0,0,0,0,0,0c-0.4,0-0.8-0.1-1.1-0.1c0,0,0,0,0,0c-0.4,0-0.7-0.1-1-0.2c0,0,0,0,0,0
					c-0.3-0.1-0.7-0.2-1-0.3l-14-4.8c-0.1,0-0.1-0.1-0.2-0.1c-0.1,0-0.1,0-0.2-0.1c-0.1,0-0.1-0.1-0.2-0.1c-0.1,0-0.1-0.1-0.2-0.1
					c-0.1,0-0.1-0.1-0.1-0.1c-0.1,0-0.1-0.1-0.2-0.1c0,0-0.1-0.1-0.1-0.1c0,0-0.1-0.1-0.1-0.1c0,0-0.1-0.1-0.1-0.1
					c0,0-0.1-0.1-0.1-0.1c0,0-0.1-0.1-0.1-0.1c0,0,0-0.1-0.1-0.1c0,0,0-0.1,0-0.1c0-0.1-0.1-0.2-0.1-0.3l0.1,6.3
					c0,0.1,0,0.2,0.1,0.3c0,0,0,0.1,0,0.1c0,0,0,0.1,0.1,0.1c0,0,0.1,0.1,0.1,0.1c0,0,0.1,0.1,0.1,0.1c0,0,0.1,0.1,0.1,0.1
					c0,0,0.1,0,0.1,0.1c0.1,0,0.1,0.1,0.2,0.1c0,0,0.1,0,0.1,0.1c0.1,0,0.1,0.1,0.2,0.1c0,0,0.1,0,0.1,0.1c0.1,0,0.2,0.1,0.2,0.1
					c0.1,0,0.1,0,0.2,0.1c0.1,0,0.2,0.1,0.2,0.1c0,0,0,0,0,0l14,4.8c0.2,0.1,0.3,0.1,0.5,0.2c0.1,0,0.3,0.1,0.4,0.1c0,0,0,0,0,0
					c0,0,0,0,0,0c0.1,0,0.2,0,0.3,0.1c0.1,0,0.3,0,0.4,0.1c0.1,0,0.2,0,0.3,0c0,0,0,0,0,0c0,0,0,0,0,0c0.1,0,0.2,0,0.4,0
					c0.1,0,0.2,0,0.4,0c0.1,0,0.2,0,0.3,0c0,0,0,0,0,0c0,0,0,0,0,0c0.1,0,0.3,0,0.4,0c0.1,0,0.3,0,0.4,0c0.1,0,0.2,0,0.4,0h0h0
					c0.1,0,0.3,0,0.4,0c0.2,0,0.3,0,0.5,0c0.1,0,0.1,0,0.2,0c0,0,0.1,0,0.1,0c0.1,0,0.2,0,0.3,0c0.1,0,0.3,0,0.4-0.1
					c0.2,0,0.4,0,0.5-0.1c0.1,0,0.1,0,0.2,0c0.2,0,0.4-0.1,0.6-0.1c0,0,0.1,0,0.1,0c0.2-0.1,0.4-0.1,0.6-0.2c0.1,0,0.2-0.1,0.3-0.1
					c0,0,0.1,0,0.1,0l14.2-4.9c0.1,0,0.3-0.1,0.4-0.2c0,0,0,0,0,0c0,0,0.1,0,0.1,0c0.1,0,0.1-0.1,0.2-0.1c0,0,0,0,0,0
					c0,0,0.1,0,0.1,0c0,0,0.1,0,0.1-0.1c0,0,0.1,0,0.1-0.1c0,0,0,0,0.1,0c0,0,0,0,0,0c0.1,0,0.1-0.1,0.2-0.1c0,0,0,0,0,0
					c0,0,0,0,0,0c0,0,0.1-0.1,0.1-0.1c0,0,0,0,0.1-0.1c0,0,0,0,0,0c0,0,0,0,0,0c0,0,0.1-0.1,0.1-0.1c0,0,0,0,0,0c0,0,0,0,0,0
					c0,0,0-0.1,0-0.1c0,0,0,0,0-0.1c0,0,0,0,0,0c0,0,0,0,0,0c0-0.1,0-0.1,0-0.1v0L262.4,362.9z"/>
				<path class="st42" d="M260.6,361.4c2.4,0.8,2.4,2.2-0.1,3l-14.2,4.9c-2.4,0.8-6.3,0.9-8.7,0l-14-4.8c-2.4-0.8-2.4-2.2,0.1-3
					l14.2-4.9c2.4-0.8,6.3-0.9,8.7,0L260.6,361.4z"/>
				<path class="st43" d="M317.5,357.5c0,0.1,0,0.1,0,0.2c0,0,0,0,0,0c0,0.1,0,0.1-0.1,0.2c0,0,0,0,0,0c0,0.1-0.1,0.1-0.1,0.2
					c0,0,0,0,0,0c0,0.1-0.1,0.1-0.2,0.2c0,0,0,0,0,0c-0.1,0.1-0.1,0.1-0.2,0.2c0,0,0,0-0.1,0c-0.1,0-0.1,0.1-0.2,0.1
					c0,0-0.1,0-0.1,0c-0.1,0-0.2,0.1-0.3,0.1c0,0-0.1,0-0.1,0c-0.1,0.1-0.3,0.1-0.4,0.2l-14.2,4.9c-0.1,0-0.3,0.1-0.4,0.1
					c-0.2,0.1-0.4,0.1-0.6,0.2c-0.3,0.1-0.6,0.1-0.8,0.2c-0.2,0-0.4,0-0.5,0.1c-0.2,0-0.4,0.1-0.7,0.1c0,0-0.1,0-0.1,0
					c-0.4,0-0.7,0-1.1,0h0c-0.4,0-0.8,0-1.2,0c0,0,0,0,0,0c-0.4,0-0.8-0.1-1.1-0.1c0,0,0,0,0,0c-0.4,0-0.7-0.1-1-0.2c0,0,0,0,0,0
					c-0.3-0.1-0.7-0.2-1-0.3l-14-4.8c-0.1,0-0.1-0.1-0.2-0.1c-0.1,0-0.1,0-0.2-0.1c-0.1,0-0.1-0.1-0.2-0.1c-0.1,0-0.1-0.1-0.2-0.1
					c-0.1,0-0.1-0.1-0.1-0.1c-0.1,0-0.1-0.1-0.2-0.1c0,0-0.1-0.1-0.1-0.1c0,0-0.1-0.1-0.1-0.1c0,0-0.1-0.1-0.1-0.1
					c0,0-0.1-0.1-0.1-0.1c0,0-0.1-0.1-0.1-0.1c0,0,0,0-0.1-0.1c0,0,0-0.1,0-0.1c0-0.1-0.1-0.2-0.1-0.3l0,6.3c0,0.1,0,0.2,0.1,0.3
					c0,0,0,0.1,0,0.1c0,0,0,0,0.1,0.1c0,0,0.1,0.1,0.1,0.1c0,0,0.1,0.1,0.1,0.1c0,0,0.1,0.1,0.1,0.1c0,0,0.1,0,0.1,0.1
					c0.1,0,0.1,0.1,0.2,0.1c0,0,0.1,0,0.1,0.1c0.1,0,0.1,0.1,0.2,0.1c0,0,0.1,0,0.1,0.1c0.1,0,0.2,0.1,0.2,0.1c0.1,0,0.1,0,0.2,0.1
					c0.1,0,0.2,0.1,0.2,0.1c0,0,0,0,0,0l14,4.8c0.2,0.1,0.3,0.1,0.5,0.2c0.1,0,0.3,0.1,0.4,0.1c0,0,0,0,0,0c0,0,0,0,0,0
					c0.1,0,0.2,0,0.3,0.1c0.1,0,0.3,0,0.4,0.1c0.1,0,0.2,0,0.3,0c0,0,0,0,0,0c0,0,0,0,0,0c0.1,0,0.2,0,0.4,0c0.1,0,0.2,0,0.4,0
					c0.1,0,0.2,0,0.3,0c0,0,0,0,0,0s0,0,0,0c0.1,0,0.3,0,0.4,0c0.1,0,0.3,0,0.4,0c0.1,0,0.2,0,0.4,0h0h0c0.1,0,0.3,0,0.4,0
					c0.2,0,0.3,0,0.5,0c0.1,0,0.1,0,0.2,0c0,0,0.1,0,0.1,0c0.1,0,0.2,0,0.3,0c0.1,0,0.3,0,0.4-0.1c0.2,0,0.4,0,0.5-0.1
					c0.1,0,0.1,0,0.2,0c0.2,0,0.4-0.1,0.6-0.1c0,0,0,0,0.1,0c0.2,0,0.4-0.1,0.6-0.2c0.1,0,0.2-0.1,0.3-0.1c0,0,0.1,0,0.1,0l14.2-4.9
					c0.1,0,0.3-0.1,0.4-0.2c0,0,0,0,0,0c0,0,0.1,0,0.1,0c0.1,0,0.1-0.1,0.2-0.1c0,0,0,0,0,0c0,0,0.1,0,0.1,0c0,0,0.1,0,0.1-0.1
					c0,0,0.1,0,0.1-0.1c0,0,0,0,0.1,0c0,0,0,0,0,0c0.1,0,0.1-0.1,0.2-0.1l0,0c0,0,0,0,0,0c0,0,0.1-0.1,0.1-0.1c0,0,0,0,0.1-0.1
					c0,0,0,0,0,0c0,0,0,0,0,0c0,0,0.1-0.1,0.1-0.1c0,0,0,0,0,0c0,0,0,0,0,0c0,0,0-0.1,0-0.1c0,0,0,0,0-0.1c0,0,0,0,0,0c0,0,0,0,0,0
					c0,0,0-0.1,0-0.1v0L317.5,357.5z"/>
				<path class="st44" d="M315.7,356c2.4,0.8,2.4,2.2-0.1,3l-14.2,4.9c-2.4,0.8-6.3,0.9-8.7,0l-14-4.8c-2.4-0.8-2.4-2.2,0.1-3
					l14.2-4.9c2.4-0.8,6.3-0.9,8.7,0L315.7,356z"/>
			</g>
		</g>
	</g>
</g>
</svg>
