<?xml version="1.0" encoding="utf-8"?>
<!-- Generator: Adobe Illustrator 23.1.0, SVG Export Plug-In . SVG Version: 6.00 Build 0)  -->
<svg version="1.1" id="Layer_1" xmlns="http://www.w3.org/2000/svg" xmlns:xlink="http://www.w3.org/1999/xlink" x="0px" y="0px"
	 viewBox="0 0 500 500" style="enable-background:new 0 0 500 500;" xml:space="preserve">
<style type="text/css">
	.st0{fill:#DDED98;}
	.st1{clip-path:url(#SVGID_2_);fill:#515151;}
	.st2{clip-path:url(#SVGID_2_);fill:#F6FFD4;}
	.st3{clip-path:url(#SVGID_2_);}
	.st4{fill:#5C81FE;}
	.st5{fill:url(#SVGID_3_);}
	.st6{filter:url(#Adobe_OpacityMaskFilter);}
	.st7{filter:url(#Adobe_OpacityMaskFilter_1_);}
	.st8{mask:url(#SVGID_4_);fill:url(#SVGID_5_);}
	.st9{fill:url(#SVGID_6_);}
	.st10{filter:url(#Adobe_OpacityMaskFilter_2_);}
	.st11{filter:url(#Adobe_OpacityMaskFilter_3_);}
	.st12{mask:url(#SVGID_7_);fill:url(#SVGID_8_);}
	.st13{fill:url(#SVGID_9_);}
	.st14{filter:url(#Adobe_OpacityMaskFilter_4_);}
	.st15{filter:url(#Adobe_OpacityMaskFilter_5_);}
	.st16{mask:url(#SVGID_10_);fill:url(#SVGID_11_);}
	.st17{fill:url(#SVGID_12_);}
	.st18{fill:#E0E0E0;}
	.st19{fill:#1487E3;}
	.st20{fill:#78C2FF;}
	.st21{fill:#FF8761;}
	.st22{fill:#323657;}
	.st23{fill:url(#SVGID_13_);}
	.st24{fill:url(#SVGID_14_);}
	.st25{fill:url(#SVGID_15_);}
	.st26{fill:#FFD770;}
	.st27{fill:#FFFFFF;}
	.st28{fill:url(#SVGID_16_);}
	.st29{fill:url(#SVGID_17_);}
	.st30{fill:#609AE8;}
	.st31{fill:#9CC7FF;}
	.st32{fill:#D7D7E6;}
	.st33{fill:#2A6993;}
	.st34{fill:#5B83C2;}
	.st35{fill:#5478B3;}
	.st36{fill:#EEA886;}
	.st37{fill:#C5CDDB;}
	.st38{fill:#E55353;}
	.st39{fill:#DCE6FA;}
	.st40{fill:#434343;}
	.st41{fill:#49699C;}
	.st42{fill:#525252;}
	.st43{fill:#6E6E6E;}
	.st44{fill:#A77860;}
	.st45{fill:#35527A;}
	.st46{fill:#FFD670;}
	.st47{fill:#293F5E;}
	.st48{fill:#3A3F47;}
	.st49{fill:#A88D4A;}
	.st50{fill:#444C94;}
	.st51{fill:#303669;}
	.st52{fill:#518AFA;}
	.st53{fill:#EAD8CF;}
	.st54{fill:#DA9B5B;}
	.st55{fill:#424773;}
	.st56{fill:#292C47;}
	.st57{fill:#754836;}
	.st58{fill:#E2D2CA;}
	.st59{fill:#EFAA88;}
	.st60{fill:#E8734D;}
	.st61{fill:#EEA987;}
	.st62{fill:#1D3B54;}
	.st63{fill:#857B77;}
	.st64{fill:#918682;}
	.st65{fill:#ECF0F1;}
</style>
<g>
	<g>
		<polygon class="st0" points="40.4,116.2 71.4,143.2 113.4,105.2 51.4,105.2 		"/>
		<g>
			<defs>
				<circle id="SVGID_1_" cx="250.4" cy="250.2" r="219"/>
			</defs>
			<clipPath id="SVGID_2_">
				<use xlink:href="#SVGID_1_"  style="overflow:visible;"/>
			</clipPath>
			<rect x="31" y="333.4" class="st1" width="438.9" height="206.7"/>
			<rect x="31" y="24" class="st2" width="438.9" height="323.2"/>
			<g class="st3">
				<polygon class="st4" points="436.2,348.6 397.8,319 397.8,335.5 393.1,335.5 356.1,335.5 137.5,335.5 137.5,362 379.4,362 
					393.1,362 397.8,362 397.8,378.1 				"/>
				<linearGradient id="SVGID_3_" gradientUnits="userSpaceOnUse" x1="413.4922" y1="149.9369" x2="322.7154" y2="210.4548">
					<stop  offset="0" style="stop-color:#40D5E6"/>
					<stop  offset="1" style="stop-color:#4B69E0"/>
				</linearGradient>
				<path class="st5" d="M378.3,130.8l-26.3,5.7l12.2,24l4.3-9.1c19.5,9.3,27.8,32.7,18.5,52.2c-9.3,19.5-32.7,27.8-52.2,18.5
					c-19.5-9.3-27.8-32.7-18.5-52.2l-11.5-5.5c-12.3,25.8-1.3,56.8,24.5,69.1c25.8,12.3,56.8,1.3,69.1-24.5
					c12.3-25.8,1.3-56.8-24.5-69.1L378.3,130.8z"/>
				<g>
					<defs>
						<filter id="Adobe_OpacityMaskFilter" filterUnits="userSpaceOnUse" x="85.6" y="113" width="249" height="249">
							<feFlood  style="flood-color:white;flood-opacity:1" result="back"/>
							<feBlend  in="SourceGraphic" in2="back" mode="normal"/>
						</filter>
					</defs>
					<mask maskUnits="userSpaceOnUse" x="85.6" y="113" width="249" height="249" id="SVGID_4_">
						<g class="st6">
							<defs>
								<filter id="Adobe_OpacityMaskFilter_1_" filterUnits="userSpaceOnUse" x="85.6" y="113" width="249" height="249">
									<feFlood  style="flood-color:white;flood-opacity:1" result="back"/>
									<feBlend  in="SourceGraphic" in2="back" mode="normal"/>
								</filter>
							</defs>
							<mask maskUnits="userSpaceOnUse" x="85.6" y="113" width="249" height="249" id="SVGID_4_">
								<g class="st7">
								</g>
							</mask>
							<linearGradient id="SVGID_5_" gradientUnits="userSpaceOnUse" x1="85.5714" y1="237.476" x2="334.5234" y2="237.476">
								<stop  offset="0" style="stop-color:#000000"/>
								<stop  offset="1" style="stop-color:#FFFFFF"/>
							</linearGradient>
							<path class="st8" d="M210,362c-16.8,0-33.1-3.3-48.5-9.8c-14.8-6.3-28.1-15.2-39.6-26.7c-11.4-11.4-20.4-24.7-26.7-39.6
								c-6.5-15.4-9.8-31.7-9.8-48.5c0-16.8,3.3-33.1,9.8-48.5c6.3-14.8,15.2-28.1,26.7-39.6c11.4-11.4,24.7-20.4,39.6-26.7
								c15.4-6.5,31.7-9.8,48.5-9.8c16.8,0,33.1,3.3,48.5,9.8c14.8,6.3,28.1,15.2,39.6,26.7c11.4,11.4,20.4,24.7,26.7,39.6
								c6.5,15.4,9.8,31.7,9.8,48.5c0,16.8-3.3,33.1-9.8,48.5c-6.3,14.8-15.2,28.1-26.7,39.6c-11.4,11.4-24.7,20.4-39.6,26.7
								C243.1,358.7,226.8,362,210,362z M210,139.4c-54.1,0-98,44-98,98c0,54.1,44,98,98,98c54.1,0,98-44,98-98
								C308.1,183.4,264.1,139.4,210,139.4z"/>
						</g>
					</mask>
					<linearGradient id="SVGID_6_" gradientUnits="userSpaceOnUse" x1="85.5714" y1="237.476" x2="334.5234" y2="237.476">
						<stop  offset="0" style="stop-color:#40D5E6"/>
						<stop  offset="1" style="stop-color:#5577FF"/>
					</linearGradient>
					<path class="st9" d="M210,362c-16.8,0-33.1-3.3-48.5-9.8c-14.8-6.3-28.1-15.2-39.6-26.7c-11.4-11.4-20.4-24.7-26.7-39.6
						c-6.5-15.4-9.8-31.7-9.8-48.5c0-16.8,3.3-33.1,9.8-48.5c6.3-14.8,15.2-28.1,26.7-39.6c11.4-11.4,24.7-20.4,39.6-26.7
						c15.4-6.5,31.7-9.8,48.5-9.8c16.8,0,33.1,3.3,48.5,9.8c14.8,6.3,28.1,15.2,39.6,26.7c11.4,11.4,20.4,24.7,26.7,39.6
						c6.5,15.4,9.8,31.7,9.8,48.5c0,16.8-3.3,33.1-9.8,48.5c-6.3,14.8-15.2,28.1-26.7,39.6c-11.4,11.4-24.7,20.4-39.6,26.7
						C243.1,358.7,226.8,362,210,362z M210,139.4c-54.1,0-98,44-98,98c0,54.1,44,98,98,98c54.1,0,98-44,98-98
						C308.1,183.4,264.1,139.4,210,139.4z"/>
				</g>
				<defs>
					<filter id="Adobe_OpacityMaskFilter_2_" filterUnits="userSpaceOnUse" x="116.8" y="290.7" width="187.7" height="37.1">
						<feFlood  style="flood-color:white;flood-opacity:1" result="back"/>
						<feBlend  in="SourceGraphic" in2="back" mode="normal"/>
					</filter>
				</defs>
				<mask maskUnits="userSpaceOnUse" x="116.8" y="290.7" width="187.7" height="37.1" id="SVGID_7_">
					<g class="st10">
						<defs>
							<filter id="Adobe_OpacityMaskFilter_3_" filterUnits="userSpaceOnUse" x="116.8" y="290.7" width="187.7" height="37.1">
								<feFlood  style="flood-color:white;flood-opacity:1" result="back"/>
								<feBlend  in="SourceGraphic" in2="back" mode="normal"/>
							</filter>
						</defs>
						<mask maskUnits="userSpaceOnUse" x="116.8" y="290.7" width="187.7" height="37.1" id="SVGID_7_">
							<g class="st11">
							</g>
						</mask>
						<linearGradient id="SVGID_8_" gradientUnits="userSpaceOnUse" x1="210.6582" y1="296.8203" x2="210.6582" y2="349.4857">
							<stop  offset="0" style="stop-color:#000000"/>
							<stop  offset="1" style="stop-color:#FFFFFF"/>
						</linearGradient>
						<rect x="116.8" y="290.7" class="st12" width="187.7" height="37.1"/>
					</g>
				</mask>
				<linearGradient id="SVGID_9_" gradientUnits="userSpaceOnUse" x1="210.6582" y1="296.8203" x2="210.6582" y2="349.4857">
					<stop  offset="0" style="stop-color:#40D5E6"/>
					<stop  offset="1" style="stop-color:#5577FF"/>
				</linearGradient>
				<rect x="116.8" y="290.7" class="st13" width="187.7" height="37.1"/>
				<g>
					<defs>
						<filter id="Adobe_OpacityMaskFilter_4_" filterUnits="userSpaceOnUse" x="40" y="335.5" width="170" height="26.4">
							<feFlood  style="flood-color:white;flood-opacity:1" result="back"/>
							<feBlend  in="SourceGraphic" in2="back" mode="normal"/>
						</filter>
					</defs>
					<mask maskUnits="userSpaceOnUse" x="40" y="335.5" width="170" height="26.4" id="SVGID_10_">
						<g class="st14">
							<defs>
								<filter id="Adobe_OpacityMaskFilter_5_" filterUnits="userSpaceOnUse" x="40" y="335.5" width="170" height="26.4">
									<feFlood  style="flood-color:white;flood-opacity:1" result="back"/>
									<feBlend  in="SourceGraphic" in2="back" mode="normal"/>
								</filter>
							</defs>
							<mask maskUnits="userSpaceOnUse" x="40" y="335.5" width="170" height="26.4" id="SVGID_10_">
								<g class="st15">
								</g>
							</mask>
							<linearGradient id="SVGID_11_" gradientUnits="userSpaceOnUse" x1="40" y1="348.7267" x2="210.0475" y2="348.7267">
								<stop  offset="0" style="stop-color:#000000"/>
								<stop  offset="1" style="stop-color:#FFFFFF"/>
							</linearGradient>
							<rect x="40" y="335.5" class="st16" width="170" height="26.4"/>
						</g>
					</mask>
					<linearGradient id="SVGID_12_" gradientUnits="userSpaceOnUse" x1="40" y1="348.7267" x2="210.0475" y2="348.7267">
						<stop  offset="0" style="stop-color:#40D5E6"/>
						<stop  offset="1" style="stop-color:#5577FF"/>
					</linearGradient>
					<rect x="40" y="335.5" class="st17" width="170" height="26.4"/>
				</g>
				<g>
					<rect x="140.9" y="194.2" class="st18" width="30.5" height="3.1"/>
				</g>
				<g>
					<rect x="179.9" y="217.7" class="st18" width="22" height="3.1"/>
				</g>
				<g>
					<rect x="205.4" y="217.7" class="st19" width="14.6" height="3.1"/>
				</g>
				<g>
					<rect x="235.2" y="312.1" class="st19" width="14.6" height="3.1"/>
				</g>
				<g>
					<rect x="141.3" y="276.8" class="st19" width="14.6" height="3.1"/>
				</g>
				<g>
					<rect x="222.9" y="217.7" class="st18" width="35.3" height="3.1"/>
				</g>
				<g>
					<rect x="141.3" y="265" class="st18" width="22.7" height="3.1"/>
				</g>
				<g>
					<rect x="202.2" y="288.6" class="st18" width="22.7" height="3.1"/>
				</g>
				<g>
					<rect x="172.8" y="288.6" class="st18" width="13.8" height="3.1"/>
				</g>
				<g>
					<rect x="141.3" y="288.6" class="st19" width="27.4" height="3.1"/>
				</g>
				<g>
					<rect x="141.3" y="300.3" class="st18" width="15.1" height="3.1"/>
				</g>
				<g>
					<rect x="177.3" y="194.2" class="st20" width="21.6" height="3.1"/>
				</g>
				<g>
					<rect x="177.3" y="229.4" class="st19" width="21.6" height="3.1"/>
				</g>
				<g>
					<rect x="166.5" y="241.2" class="st18" width="9.2" height="3.1"/>
				</g>
				<g>
					<rect x="157.3" y="253.1" class="st20" width="20.8" height="3.1"/>
				</g>
				<g>
					<rect x="181.2" y="253.1" class="st19" width="28.7" height="3.1"/>
				</g>
				<g>
					<rect x="141.3" y="241.3" class="st19" width="21.6" height="3.1"/>
				</g>
				<g>
					<rect x="141.3" y="253.1" class="st19" width="12.8" height="3.1"/>
				</g>
				<g>
					<rect x="180.1" y="241.3" class="st21" width="12.1" height="3.1"/>
				</g>
				<g>
					<rect x="141.6" y="312.1" class="st21" width="12.1" height="3.1"/>
				</g>
				<g>
					<rect x="141.2" y="217.7" class="st20" width="21.6" height="3.1"/>
				</g>
				<g>
					<rect x="160.3" y="276.8" class="st20" width="21.6" height="3.1"/>
				</g>
				<g>
					<rect x="160.6" y="300.3" class="st20" width="21.6" height="3.1"/>
				</g>
				<g>
					<rect x="199" y="300.3" class="st20" width="21.6" height="3.1"/>
				</g>
				<g>
					<rect x="141.2" y="229.4" class="st20" width="30.9" height="3.1"/>
				</g>
				<g>
					<rect x="208.6" y="312.1" class="st20" width="21.6" height="3.1"/>
				</g>
				<g>
					<rect x="204.8" y="194.2" class="st19" width="27.6" height="3.1"/>
				</g>
				<g>
					<rect x="158.3" y="312.1" class="st19" width="27.6" height="3.1"/>
				</g>
				<g>
					<rect x="254.5" y="312.1" class="st19" width="27.6" height="3.1"/>
				</g>
				<g>
					<rect x="250.2" y="288.6" class="st19" width="27.6" height="3.1"/>
				</g>
				<g>
					<rect x="242.5" y="229.4" class="st19" width="27.6" height="3.1"/>
				</g>
				<g>
					<rect x="191" y="288.6" class="st21" width="5.9" height="3.1"/>
				</g>
				<g>
					<rect x="252.8" y="194.2" class="st21" width="27.6" height="3.1"/>
				</g>
				<g>
					<rect x="221.3" y="229.4" class="st21" width="16.2" height="3.1"/>
				</g>
				<g>
					<rect x="208.6" y="277" class="st21" width="16.2" height="3.1"/>
				</g>
				<g>
					<rect x="237.5" y="194.2" class="st18" width="10.1" height="3.1"/>
				</g>
				<g>
					<rect x="204.8" y="229.4" class="st18" width="10.1" height="3.1"/>
				</g>
				<g>
					<rect x="140.9" y="205.9" class="st19" width="15.8" height="3.1"/>
				</g>
				<g>
					<rect x="183" y="265" class="st19" width="12.5" height="3.1"/>
				</g>
				<g>
					<rect x="160.6" y="205.9" class="st19" width="5.1" height="3.1"/>
				</g>
				<g>
					<rect x="224.8" y="300.3" class="st18" width="42.1" height="3.1"/>
				</g>
				<g>
					<rect x="169.4" y="205.9" class="st21" width="5.2" height="3.1"/>
				</g>
				<g>
					<rect x="247.6" y="205.9" class="st19" width="13.8" height="3.1"/>
				</g>
				<g>
					<rect x="261.4" y="217.7" class="st21" width="13.8" height="3.1"/>
				</g>
				<g>
					<rect x="230.6" y="288.6" class="st21" width="13.8" height="3.1"/>
				</g>
				<g>
					<rect x="190.5" y="312.1" class="st21" width="13.8" height="3.1"/>
				</g>
				<g>
					<rect x="214.6" y="205.9" class="st19" width="29.3" height="3.1"/>
				</g>
				<g>
					<rect x="187.3" y="277" class="st19" width="17.1" height="3.1"/>
				</g>
				<g>
					<rect x="186.2" y="300.3" class="st19" width="8.6" height="3.1"/>
				</g>
				<g>
					<rect x="200.3" y="205.9" class="st20" width="10.1" height="3.1"/>
				</g>
				<g>
					<rect x="166.4" y="217.7" class="st21" width="10.1" height="3.1"/>
				</g>
				<g>
					<rect x="168.4" y="265" class="st21" width="10.1" height="3.1"/>
				</g>
				<g>
					<rect x="178.9" y="205.9" class="st19" width="17.6" height="3.1"/>
				</g>
				<g>
					<g>
						<g>
							<path class="st22" d="M137,324.2C137,324.2,137,324.2,137,324.2C137.1,324.3,137.1,324.3,137,324.2z"/>
						</g>
					</g>
				</g>
				<linearGradient id="SVGID_13_" gradientUnits="userSpaceOnUse" x1="260.5919" y1="167.1752" x2="267.1358" y2="167.1752">
					<stop  offset="0" style="stop-color:#FFAE70"/>
					<stop  offset="1" style="stop-color:#FFD970"/>
				</linearGradient>
				<polygon class="st23" points="262.1,168.8 267.1,168.8 265.6,165.6 260.6,165.6 				"/>
				<linearGradient id="SVGID_14_" gradientUnits="userSpaceOnUse" x1="258.2472" y1="167.1752" x2="260.9748" y2="167.1752">
					<stop  offset="0" style="stop-color:#FFAE70"/>
					<stop  offset="1" style="stop-color:#FFD970"/>
				</linearGradient>
				<polygon class="st24" points="259.8,168.8 261,168.8 259.4,165.6 258.2,165.6 				"/>
				<linearGradient id="SVGID_15_" gradientUnits="userSpaceOnUse" x1="241.7964" y1="164.1822" x2="262.7585" y2="164.1822">
					<stop  offset="0" style="stop-color:#FFAE70"/>
					<stop  offset="1" style="stop-color:#FFD970"/>
				</linearGradient>
				<polygon class="st25" points="242.5,165 262.8,165 262.1,163.4 241.8,163.4 				"/>
				
					<rect x="345.4" y="247.4" transform="matrix(-1 -1.224647e-16 1.224647e-16 -1 706.7046 495.8727)" class="st26" width="16" height="1.1"/>
				
					<rect x="345.4" y="249.5" transform="matrix(-1 -1.224647e-16 1.224647e-16 -1 706.7046 503.6732)" class="st26" width="16" height="4.7"/>
				
					<rect x="337.9" y="255.8" transform="matrix(-1 -1.224647e-16 1.224647e-16 -1 685.1696 512.2409)" class="st26" width="9.4" height="0.7"/>
				
					<rect x="337.9" y="256.8" transform="matrix(-1 -1.224647e-16 1.224647e-16 -1 685.1696 515.462)" class="st26" width="9.4" height="1.9"/>
				
					<rect x="342.7" y="240.2" transform="matrix(-1 -1.224647e-16 1.224647e-16 -1 686.0032 493.5663)" class="st26" width="0.7" height="13.2"/>
				
					<rect x="138.6" y="150.4" transform="matrix(-1 -1.224647e-16 1.224647e-16 -1 289.7933 303.1046)" class="st27" width="12.6" height="2.3"/>
				
					<rect x="138.6" y="149.4" transform="matrix(-1 -1.224647e-16 1.224647e-16 -1 289.7933 299.1309)" class="st27" width="12.6" height="0.4"/>
				<g>
					<polygon class="st21" points="263.2,195.3 279.6,179 346.6,179 346.6,178.1 279.2,178.1 262.7,194.7 					"/>
				</g>
				<linearGradient id="SVGID_16_" gradientUnits="userSpaceOnUse" x1="210.6582" y1="296.3666" x2="210.6582" y2="357.6794">
					<stop  offset="0" style="stop-color:#40D5E6"/>
					<stop  offset="1" style="stop-color:#4B69E0"/>
				</linearGradient>
				<rect x="116.8" y="327.3" class="st28" width="187.7" height="37.1"/>
				<g>
					<polygon class="st20" points="159.5,232.6 160.1,232 128.9,200.8 69.9,200.8 69.9,201.6 128.6,201.6 					"/>
				</g>
				<g>
					<polygon class="st19" points="221.7,195.1 222.3,194.5 195.9,168.1 158.9,168.1 158.9,169 195.6,169 					"/>
				</g>
				<linearGradient id="SVGID_17_" gradientUnits="userSpaceOnUse" x1="251.9884" y1="294.0973" x2="251.9884" y2="344.6407">
					<stop  offset="0" style="stop-color:#40D5E6"/>
					<stop  offset="1" style="stop-color:#4B69E0"/>
				</linearGradient>
				<polygon class="st29" points="304.5,364.4 304.5,327.3 236.2,327.3 199.5,364 				"/>
				<g>
					<g>
						<rect x="310.3" y="156.6" class="st30" width="5.9" height="18"/>
					</g>
					<g>
						<path class="st31" d="M322.5,165.3H304c-9,0-16.3-7.3-16.3-16.3v-3.4c0-9,7.3-16.3,16.3-16.3h18.5c9,0,16.3,7.3,16.3,16.3v3.4
							C338.8,158,331.5,165.3,322.5,165.3z"/>
					</g>
					<g>
						<rect x="289.7" y="131.3" class="st27" width="47.1" height="28.4"/>
					</g>
					
						<rect x="299.9" y="173.9" transform="matrix(-1 -1.224647e-16 1.224647e-16 -1 626.4271 349.1585)" class="st31" width="26.6" height="1.4"/>
					
						<rect x="319.1" y="139.9" transform="matrix(-1 -1.224647e-16 1.224647e-16 -1 653.4012 297.222)" class="st32" width="15.1" height="17.5"/>
					
						<rect x="301.2" y="139.9" transform="matrix(-1 -1.224647e-16 1.224647e-16 -1 617.9732 281.8974)" class="st32" width="15.6" height="2.2"/>
					
						<rect x="301.2" y="144.3" transform="matrix(-1 -1.224647e-16 1.224647e-16 -1 617.9732 290.8596)" class="st32" width="15.6" height="2.2"/>
					
						<rect x="301.2" y="148.4" transform="matrix(-1 -1.224647e-16 1.224647e-16 -1 617.9732 305.7265)" class="st32" width="15.6" height="9"/>
					
						<rect x="292.4" y="139.4" transform="matrix(-1 -1.224647e-16 1.224647e-16 -1 591.3394 296.7241)" class="st32" width="6.6" height="18"/>
					
						<rect x="292.5" y="133.4" transform="matrix(-1 -1.224647e-16 1.224647e-16 -1 626.94 271.3673)" class="st32" width="41.9" height="4.5"/>
				</g>
				<g>
					<path class="st31" d="M177.2,164.2L177.2,164.2c7.2,0,13-5.8,13-13v-10.7c0-7.2-5.8-13-13-13h0c-7.2,0-13,5.8-13,13v10.7
						C164.2,158.4,170,164.2,177.2,164.2z"/>
					
						<rect x="165.6" y="129.2" transform="matrix(-1 -1.224647e-16 1.224647e-16 -1 354.3438 288.5877)" class="st27" width="23.1" height="30.1"/>
					
						<rect x="167.2" y="131.4" transform="matrix(-1 -1.224647e-16 1.224647e-16 -1 354.4532 266.8138)" class="st32" width="20.1" height="4"/>
					
						<rect x="179" y="137" transform="matrix(-1 -1.224647e-16 1.224647e-16 -1 366.276 293.5799)" class="st32" width="8.3" height="19.6"/>
					
						<rect x="167.2" y="137" transform="matrix(-1 -1.224647e-16 1.224647e-16 -1 344.6467 276.2066)" class="st32" width="10.3" height="2.3"/>
					
						<rect x="167.2" y="140.9" transform="matrix(-1 -1.224647e-16 1.224647e-16 -1 344.6467 284.0744)" class="st32" width="10.3" height="2.3"/>
					
						<rect x="167.2" y="144.8" transform="matrix(-1 -1.224647e-16 1.224647e-16 -1 344.6467 291.9422)" class="st32" width="10.3" height="2.3"/>
					
						<rect x="167.2" y="148.8" transform="matrix(-1 -1.224647e-16 1.224647e-16 -1 344.6467 305.3815)" class="st32" width="10.3" height="7.8"/>
				</g>
				<g>
					<path class="st30" d="M79.2,195.8h40.5v-16c0-6.3-5.1-11.4-11.4-11.4H90.6c-6.3,0-11.4,5.1-11.4,11.4V195.8z"/>
					
						<rect x="80.3" y="169.8" transform="matrix(-1 -1.224647e-16 1.224647e-16 -1 198.8825 364.0916)" class="st27" width="38.2" height="24.5"/>
					<path class="st31" d="M77.3,195.8h44.4l0,0c0,1.1-0.9,2-2,2H79.3C78.2,197.8,77.3,196.9,77.3,195.8L77.3,195.8z"/>
					
						<rect x="81.9" y="171.6" transform="matrix(-1 -1.224647e-16 1.224647e-16 -1 198.8431 346.524)" class="st32" width="35" height="3.4"/>
					
						<rect x="104.9" y="176.9" transform="matrix(-1 -1.224647e-16 1.224647e-16 -1 221.8226 369.4337)" class="st32" width="12" height="15.6"/>
					
						<rect x="91.4" y="176.9" transform="matrix(-1 -1.224647e-16 1.224647e-16 -1 194.7714 369.4337)" class="st32" width="12" height="15.6"/>
					
						<rect x="81.9" y="176.9" transform="matrix(-1 -1.224647e-16 1.224647e-16 -1 171.1853 356.029)" class="st32" width="7.3" height="2.2"/>
					
						<rect x="81.9" y="180.4" transform="matrix(-1 -1.224647e-16 1.224647e-16 -1 171.1853 362.9382)" class="st32" width="7.3" height="2.2"/>
					
						<rect x="81.9" y="183.8" transform="matrix(-1 -1.224647e-16 1.224647e-16 -1 171.1853 376.3429)" class="st32" width="7.3" height="8.7"/>
				</g>
				<g>
					<polygon class="st33" points="94.5,235.1 85.5,229.9 85.5,233.4 72.1,233.4 72.1,236.9 85.5,236.9 85.5,240.3 					"/>
					<polygon class="st33" points="72.1,223.7 81.1,228.9 81.1,225.5 94.5,225.5 94.5,222 81.1,222 81.1,218.5 					"/>
				</g>
				<g>
					<polygon class="st33" points="226.1,161.1 219.4,157.2 219.4,159.7 209.3,159.7 209.3,162.4 219.4,162.4 219.4,164.9 					"/>
					<polygon class="st33" points="209.3,152.5 216.1,156.4 216.1,153.8 226.1,153.8 226.1,151.2 216.1,151.2 216.1,148.6 					"/>
				</g>
				<g>
					<g>
						<path class="st27" d="M317.3,222.9c-0.9-0.1-1.7-0.4-2.4-1c-0.7-0.6-1.1-1.5-1.1-2.3c-0.1-1.7-0.7-3.6-1.1-4.8
							c-2.1-1.7-3.3-4.3-3.1-7.1c0.3-4.5,4.3-7.9,8.8-7.6c4.5,0.3,7.9,4.3,7.6,8.8c-0.2,2.5-1.5,4.7-3.5,6.1c-0.6,1.7-1,3.2-1.1,4.6
							c0,1.8-1.7,3.3-3.9,3.3C317.5,222.9,317.4,222.9,317.3,222.9z M318.4,200.8c-4.2-0.3-7.8,2.8-8.1,7c-0.2,2.5,0.9,5,2.9,6.5
							l0.1,0.1l0,0.1c0.5,1.3,1.1,3.2,1.2,5.1l0,0c0,0.7,0.3,1.3,0.9,1.8c0.6,0.5,1.4,0.8,2.2,0.8c1.7,0,3.2-1.2,3.2-2.6v0l0,0
							c0.1-1.4,0.5-3.1,1.2-4.8l0-0.1l0.1-0.1c1.9-1.3,3.1-3.4,3.3-5.7C325.7,204.8,322.5,201.1,318.4,200.8z"/>
					</g>
					<g>
						<polygon class="st27" points="315.7,220.1 314.7,211.1 316.5,212.7 317.7,211.4 318.7,212.6 320.5,211.1 319.4,220.1 
							318.7,220 319.6,212.7 318.6,213.5 317.7,212.4 316.6,213.6 315.5,212.7 316.4,220 						"/>
					</g>
					<g>
						
							<rect x="314.7" y="222.1" transform="matrix(1 6.710545e-03 -6.710545e-03 1 1.5054 -2.1261)" class="st27" width="5.8" height="2.4"/>
					</g>
					<g>
						
							<rect x="313.7" y="219.7" transform="matrix(1 6.709597e-03 -6.709597e-03 1 1.4938 -2.1259)" class="st27" width="7.7" height="3.8"/>
					</g>
				</g>
				<g>
					<path class="st34" d="M335.9,358.6c-0.2,1.2-7.4,6.2-8.8,7.2c-1.1,0.8-2.1,1.2-3.8,1.8c0,0,0,0,0,0c-3.9,1-28.4,8.3-28.4,8.3
						c-0.1-0.2-0.1-0.5-0.2-0.7c-0.9,0.4-1.9,0.6-2.5,0.8c-0.9,0.3-8.2,0.5-9.6,0.8c-1.5,0.3-4.4,0.7-5.6-0.4
						c-1.2-1.1,0.7-3.6,2.4-4.2c1.7-0.6,7.7-0.8,8.8-0.9c1.1-0.1,2.5-0.5,3.2-0.3c0.2,0.1,1.2-0.2,2.4-0.6c0-0.4,0-0.7,0-0.7
						l6.4-1.9l-1.2-11.4c0,0,2.8-10.6,14-2.5c0,0,2.5,0.7,3.4,1c0.1,0,0.2,0,0.3,0c1.7-0.1,9-2.3,11.7-2.3c2.9,0,3.8-0.2,4.8,0.3
						C334,353.4,336.1,357.4,335.9,358.6z"/>
					<path class="st34" d="M324.5,376.5c-1.2,1.1-4.2,0.7-5.6,0.4c-1.5-0.3-8.7-0.5-9.6-0.8c-0.9-0.3-2.6-0.7-3.8-1.5
						c-0.1-0.1-0.3-0.2-0.6-0.3c0,0,0,0,0,0l-1.8,1.3l-25.2-8c-1.5-0.4-2.7-1-3.5-1.7c-1.3-1.1-8.6-6-8.8-7.2
						c-0.2-1.2,1.9-5.2,3-5.7c1-0.5,1.9-0.3,4.8-0.3c2.9,0,11.1,2.6,12,2.3c0.4-0.1,1.2-0.5,2-0.9c0.9-0.5,1.8-1,1.8-1
						c12.3-5.5,13.6,3.5,13.6,3.5l-0.7,11c0,0,1,0.5,2.3,1.1l6.1,1.7l-0.8,0.6c0.3,0.1,0.6,0.2,0.7,0.1c0.7-0.2,2.1,0.2,3.2,0.3
						c1.1,0.1,7.1,0.3,8.8,0.9C323.7,372.9,325.7,375.3,324.5,376.5z"/>
					<path class="st35" d="M287.1,354c0.8,0.1,6.6,3.4,7.9,4.2c-2.1-1.1-9.9-3.2-9.9-3.2C285.6,354.8,286.4,354.4,287.1,354z"/>
					<path class="st35" d="M316.5,354.9c0,0-9.8,2.4-11.6,3.4c0.1-0.1,5.2-3.9,7.9-4.5c0,0,2.6,0.8,3.5,1.1
						C316.3,354.9,316.3,354.9,316.5,354.9C316.5,354.9,316.5,354.9,316.5,354.9z"/>
					<path class="st36" d="M324.5,376.5c-1.2,1.1-4.2,0.7-5.6,0.4c-1.5-0.3-8.7-0.5-9.6-0.8c-0.3-0.1-0.6-0.2-1-0.3c0,0,0,0,0,0
						c-0.9-0.3-2-0.6-2.9-1.2c-0.1-0.1-0.3-0.2-0.6-0.3l4.6-3.3l0.1-0.1c0.3,0.1,0.6,0.2,0.7,0.1c0.7-0.2,2.1,0.2,3.2,0.3
						c1.1,0.1,7.1,0.3,8.8,0.9C323.7,372.9,325.7,375.3,324.5,376.5z"/>
					<path class="st37" d="M324.5,376.5c-1.2,1.1-4.2,0.7-5.6,0.4c-1.5-0.3-8.7-0.5-9.6-0.8c-0.3-0.1-0.6-0.2-1-0.3c0,0,0,0,0,0
						c0,0,0,0,0,0s2-2,1.1-4.8l0.1-0.1c0.3,0.1,0.6,0.2,0.7,0.1c0.7-0.2,2.1,0.2,3.2,0.3c1.1,0.1,7.1,0.3,8.8,0.9
						C323.7,372.9,325.7,375.3,324.5,376.5z"/>
					<path class="st38" d="M289.6,356.5C289.6,356.5,289.6,356.6,289.6,356.5C289.5,356.7,289.5,356.6,289.6,356.5z"/>
					<path class="st39" d="M322.6,343.2c-0.1-0.2-5.3-8.4-6.7-12.1c-1.4-3.7-4.8-5.4-6.4-6c-0.6-0.2-1.6-0.5-2.7-0.9
						c-1.9-0.6-4-1.3-4-1.3h-6.7c0,0-2.3,0.8-4.8,1.6c0,0,0,0,0,0c-2.3,0.8-4.6,1.7-5.4,2.1c-1.7,0.8-4.5,6.8-5.1,7.5
						c-0.6,0.7-5,8.8-5.6,11.9c-0.5,2.4,13.9,9.5,14.3,10.4c0.5-0.5,2.6-2.5,2.6-2.5s-0.7-0.4-1.6-1c3.9,0.2,13.3-0.2,14.6-0.1
						c0.3,0,0.6,0,0.9,0c0,0,0,0,0,0c0.4,0.3,3.1,2.7,3.1,2.7s6.7-2.8,9.7-5.9C323.3,345.3,323.1,344.1,322.6,343.2z M284.8,348.6
						c-1.4-1.7-3.4-2.7-2.9-3.5c0.5-0.8,4.7-8,4.7-8s2.2,4.8,2.8,7.2c0.6,2.5,0.6,3.6,0.3,4.4c-0.2,0.7-0.4,1.2-0.6,3.2
						C287.3,350.7,285.4,349.4,284.8,348.6z M314.2,347.8c-0.6,0.6-2.8,2-4.8,3.2c-0.2-1.4-0.4-3.5-0.4-4.3c0-1.2,0.5-4.6,1.1-5.9
						c0.6-1.3,1-4.8,1-4.8s5,6.8,5.8,7.6C317.7,344.2,316.1,345.6,314.2,347.8z"/>
					<g>
						<path class="st36" d="M300.3,304.6c0,0,5.2,0.8,4.4,9c-0.8,8.1-5.4,7.5-5.7,7.5c-0.3,0-4.6,0.1-4.9-9.8
							C294,311.3,293.9,303.9,300.3,304.6z"/>
					</g>
					<g>
						<path class="st36" d="M304.8,311.3c0,0,0.6-0.6,0.8,0c0.2,0.6-0.8,3.4-0.8,3.5c0,0-0.1,0.2-0.2,0.1
							C304.4,314.8,304.8,311.3,304.8,311.3z"/>
					</g>
					<g>
						<path class="st36" d="M294.2,311.2c0,0-0.6-0.6-0.8,0c-0.2,0.6,0.7,3.4,0.7,3.5c0,0,0.1,0.2,0.2,0.1
							C294.5,314.7,294.2,311.2,294.2,311.2z"/>
					</g>
					<g>
						<path class="st40" d="M304.8,312.6l-0.7,1c0,0,0-2.2-0.1-2.5c-0.1-0.3-0.3-1.4-0.4-1.6c-0.1-0.2-4.5-1.5-8.3,0.4
							c0,0,0.2,1.6-0.2,1.7c-0.4,0.1-0.2,2.6-0.2,2.6l-0.6-0.7c0,0-0.9-6.3-0.7-6.9c0.2-0.7,1-4.6,8.9-2.2c0,0,2.5-0.5,3,1.2
							C305.8,307,304.8,312.6,304.8,312.6z"/>
					</g>
					<path class="st41" d="M292.6,364.6c0,0-8-4.8-11.4-5.5c-3.3-0.7-4.5-1.9-4.5-1.9s5.2,0,8.7,2.5
						C287.8,361.3,292.6,364.6,292.6,364.6z"/>
					<path class="st41" d="M299.7,368c0,0,13.9-7.3,19.5-8.9c3.2-0.9,4.5-1.9,4.5-1.9s-8.6,0.8-13.8,4
						C307.4,362.6,299.7,368,299.7,368z"/>
					<path class="st36" d="M294.6,375.3c-0.9,0.4-1.9,0.6-2.5,0.8c-0.9,0.3-8.2,0.5-9.6,0.8c-1.5,0.3-4.4,0.7-5.6-0.4
						c-1.2-1.1,0.7-3.6,2.4-4.2c1.7-0.6,7.7-0.8,8.8-0.9c1.1-0.1,2.5-0.5,3.2-0.3c0.2,0.1,1.2-0.2,2.4-0.6
						C293.7,371.2,294.6,375.3,294.6,375.3z"/>
					<path class="st34" d="M299.7,374.6l13.6-4l-2.7-0.8C310.6,369.7,299.7,373.7,299.7,374.6z"/>
					<polygon class="st41" points="299.7,374.6 306.1,372.7 301.6,375.2 					"/>
					<path class="st42" d="M295.3,358.3c0,0-0.1-0.1-0.3-0.2C295.1,358.2,295.2,358.3,295.3,358.3z"/>
					<path class="st37" d="M292.2,376.1c-0.9,0.3-8.2,0.5-9.6,0.8c-1.5,0.3-4.4,0.7-5.6-0.4c-1.2-1.1,0.7-3.6,2.4-4.2
						c1.7-0.6,7.7-0.8,8.8-0.9c1.1-0.1,2.5-0.5,3.2-0.3C291.3,371.1,289.4,373.9,292.2,376.1z"/>
					<path class="st39" d="M306.8,324.2c0,0-2.2,9.6-7.4,9.6c-5.2,0-8.1-9.3-8.1-9.3s0,0,0,0c2.4-0.9,4.8-1.6,4.8-1.6h6.7
						C302.8,322.9,304.9,323.6,306.8,324.2z"/>
					<path class="st42" d="M287.7,357.2l-2.1-11.9l27.1-0.6l-1.7,11.8c0,0-8.7,3.2-11.6,5C299.4,361.4,291.9,358.3,287.7,357.2z"/>
					<path class="st43" d="M301,352.4c0,1-0.7,1.8-1.5,1.8c-0.8,0-1.5-0.8-1.5-1.8s0.7-1.8,1.5-1.8C300.3,350.6,301,351.4,301,352.4
						z"/>
					<path class="st36" d="M302.9,323C302.9,323,302.9,322.9,302.9,323c-0.3-0.7-0.2-4.3-0.2-4.3s-6.6-1.7-6.4-0.4
						c0.2,1.3-0.6,4.8-0.6,4.8l-3.4,1.2c0,0,3.6,9.7,7.8,8.5c4.2-1.3,5.7-8.8,5.7-8.8L302.9,323z"/>
					<path class="st44" d="M296.3,319.6c0,0,1.2,1.5,3,1.5c1.2,0,2.2-0.4,3.4-1.6c0,0-0.6,2.3-3.4,2.5
						C299.3,322,297.2,322.2,296.3,319.6z"/>
				</g>
				<g>
					<polygon class="st20" points="279,248.6 251.8,248.6 251.8,268.3 251.8,272.5 256,268.3 279,268.3 					"/>
				</g>
				<g>
					<g>
						<path class="st45" d="M238.3,363.2c0,0,0.3,2.3,0.7,3.3c0.4,1,2.4,3.4,1.6,5.6c-0.9,2.5-5,0.1-6.7-0.7
							c-1.7-0.7-1.3-2.1-1.5-3.8c-0.2-1.7-1-1.7-0.7-2.9c0.3-1.2,2.1-3.4,2.1-3.4L238.3,363.2z"/>
					</g>
					<g>
						<g>
							<path class="st36" d="M234.6,360.3c0,0-1,1.5-1,1.5c0,0,4.5,2.7,4.8,1.9c0.2-0.7,0.3-1.7,0.3-1.7L234.6,360.3z"/>
						</g>
					</g>
					<g>
						<path class="st45" d="M219.5,364.9c0,0-1.4,1.2-2.6,3c-1.2,1.8-4.5,1.9-4.6,4.4c-0.1,2.5,4.4,2.6,6.8,1.8
							c2.4-0.8,2.7-3.3,4.2-3.9c1.4-0.6,2.2-1.1,2.1-2.3c-0.1-1.2-0.9-3.1-0.9-3.1s-0.9,0.3-1.4,0.3
							C222.6,365.2,220.8,365.2,219.5,364.9z"/>
					</g>
					<g>
						<path class="st46" d="M235.9,297.2c0,0-0.9,5.4-1.6,9c0,0,0,0,0,0c-0.3,1.5-0.6,2.6-0.7,3c-0.2,0.5-1.9,2.3-4,4.5
							c-3.7,3.8-8.5,8.6-8.5,8.6l-1.9-3.6c0,0,4.3-5.1,7.2-8.4c1.4-1.6,2.4-2.8,2.6-2.9c0.6-0.5,1.3-5.9,2.3-10.4c1-4.4,3-6.9,3-6.9
							L235.9,297.2z"/>
					</g>
					<g>
						<path class="st36" d="M229.5,313.7c-3.7,3.8-8.5,8.6-8.5,8.6l-1.9-3.6c0,0,4.3-5.1,7.2-8.4
							C227.2,310.6,228.8,311.7,229.5,313.7z"/>
					</g>
					<g>
						<path class="st36" d="M219.8,363.2l-0.2,1.7c0,0,2.4,0.8,5-0.1l0.1-1.5L219.8,363.2z"/>
					</g>
					<g>
						<path class="st46" d="M253.3,321.5c0.1,0.5-25,0-25,0s7-5.1,7.4-6.4c0.5-1.4-1.8-9.5-2.1-12.1c-0.2-2.1-0.8-11.6,0.6-13
							c1.5-1.5,6.7-3.1,6.7-3.1l7.6,0.3c0,0,1.3,0.3,2.2,0.7c0.9,0.4,6.1,2.3,6.9,4.8c0.8,2.6-5.1,10.9-5.1,10.9s0,0.4,0,1
							c0,0,0,0,0,0c0,0.8-0.1,2.1-0.1,3.4c0,1.7-0.1,3.7-0.1,5C252.3,316.2,253.2,321,253.3,321.5z"/>
					</g>
					<g>
						<path class="st47" d="M253.3,321.5c0,0,3.4,5,3.5,8.5c0,3.4-6.1,14.9-7,16.6c-2.8,4.9-10.4,15.6-10.4,15.6s-1.3,0-5.4-1.6
							c0,0,5.1-14.1,5.7-15.5c2.7-6.2,4.3-10.6,3.3-11.7c-0.9-1.1-3.4-2.1-4.1-2.8c-0.7-0.6-13.4,2.4-14.7,2.7
							c-3.4,0.9-1.9,6.9-1.1,9.5c1.3,4.5,2.4,20.6,2.4,20.6s-2.4,1-6.5,0.2c0,0-8-29.2-8.3-32.1c-0.3-2.9-0.4-7.7,19.4-11.3
							L253.3,321.5z"/>
					</g>
					<g>
						<path class="st36" d="M243,270.3c0,0-6.6-1.5-5.1,6.9c1.5,8.4,3.1,9,7.1,7.3c4-1.7,3.6-7.1,3.8-9.7
							C249,272.1,245.1,270.3,243,270.3z"/>
					</g>
					<g>
						<path class="st36" d="M241.2,289c0,0,2.9,3.1,7.6,0.3c0,0-1-6.8-0.5-10c0.5-3.3-6.1,5.1-6.1,5.1c0.1,0,0.1,0.4,0.2,0.8
							c0,0.4,0,0.9-0.1,1.3C242.2,287.6,241.9,288.7,241.2,289z"/>
					</g>
					<g>
						<path class="st48" d="M248.5,279c0,0-0.2-2.6-1.1-2.7c-1-0.1-1.1,1-1.1,1l-1,0.2c0,0,0.3-2.3-0.7-2.7c-1-0.4-6.2,1.3-7,0.6
							c-0.8-0.7-0.4-5.4,1-6c1.4-0.6,5.2-2.1,8.1-0.2c0,0,2.2-0.3,2.5,1.5C249.6,272.4,249.1,277.7,248.5,279z"/>
					</g>
					<g>
						<path class="st44" d="M242.4,286.5c4.8-1.5,5.2-4.4,5.2-4.4c-1.6,2.7-5.1,3.1-5.1,3.1C242.4,285.5,242.4,286,242.4,286.5z"/>
					</g>
					<g>
						<path class="st36" d="M250.8,287.9c0,0-3.5,7-9.2,6.5c-5.7-0.5-1-7.5-0.7-7.5C241.2,286.8,246.7,285.4,250.8,287.9z"/>
					</g>
					<g>
						<path class="st46" d="M225.4,321.2c0,0,17.4,2.1,27.9,0.4l-20.1-2.5C233.2,319,233.1,319.5,225.4,321.2z"/>
					</g>
					<g>
						<path class="st36" d="M238.4,318.2l-1.3,0.7c0,0,0.3,2.1,1,2.7l1.5-0.4C239.5,321.2,239.2,318.9,238.4,318.2z"/>
					</g>
					<g>
						<path class="st46" d="M258.5,314c-0.3,0.3-3.7,1.7-7.5,3.2l0,0c-5.3,2-11.2,4-11.2,4l-1.4-2.9c0,0,6.2-3.4,10.4-5.8
							c2-1.1,3.5-2,3.7-2.2c0.7-0.6,0.9-1.7,0.4-3.5c-0.5-1.8-1.6-10.1-1.8-11.1c-0.1-1,0.3-3.5,2.7-3.7c2.4-0.1,3.6,0.6,3.6,0.6
							s0.6,0.3,1.1,6.1C259,304.6,259.1,313.3,258.5,314z"/>
					</g>
					<g>
						<path class="st49" d="M252.4,304.5C252.4,304.5,252.4,304.5,252.4,304.5c0,0.8-0.1,2.1-0.1,3.4c-2.4-5.8-1-10.4-1-10.5
							C251.1,299,252.4,304.4,252.4,304.5z"/>
					</g>
					<g>
						<path class="st49" d="M234.2,306.3C234.2,306.3,234.2,306.3,234.2,306.3c-0.3,1.5-0.6,2.6-0.7,3c-0.8-3.9-0.1-8.9-0.1-8.9
							C233.5,302.7,234.2,306.3,234.2,306.3z"/>
					</g>
					<g>
						<path class="st36" d="M251,317.2L251,317.2c-5.3,2-11.4,4-11.4,4l-1.2-3c0,0,6.2-3.4,10.4-5.8
							C248.8,312.4,250.3,313.2,251,317.2z"/>
					</g>
					<g>
						<polygon class="st50" points="238,321.3 213.3,321 225.8,327.3 						"/>
					</g>
					<g>
						<polygon class="st51" points="225.8,327.3 238,322.6 238,321.3 224.8,326.1 						"/>
					</g>
					<g>
						<g>
							<path class="st36" d="M237.4,318.9c0,0-1.5-0.2-2.6-0.5c-0.8-0.2-2.9,0.1-3.4,0.6c-0.5,0.5-2.2,4.2-2.5,4.4
								c-0.3,0.2,0.2,0.7,0.7,0.5c0,0,0.5,1.6,1.8,1c1.3-0.6,2.1-1.9,2.8-2.2c0.7-0.2,4.5-1.4,4.5-1.4S238.4,318.5,237.4,318.9z"/>
						</g>
					</g>
					<g>
						<g>
							<path class="st36" d="M231.7,318.8c0,0-1,0.5-1.2,0.7c-0.3,0.2-1.3,1-1.6,1.2c-0.3,0.2,0.4,0.7,2.3-0.1
								C233.1,319.7,231.7,318.8,231.7,318.8z"/>
						</g>
					</g>
					<g>
						<polygon class="st51" points="225.8,327.3 218.4,307.3 194.8,307.6 201.8,326.1 						"/>
					</g>
					<g>
						<path class="st52" d="M210.9,316.1c0.7,1.4,0.5,3-0.5,3.5c-1,0.5-2.4-0.3-3.1-1.7c-0.7-1.4-0.5-3,0.5-3.5
							C208.7,313.9,210.1,314.7,210.9,316.1z"/>
					</g>
					<g>
						<path class="st36" d="M246.3,276.1c0.1-0.7,1.5-1,1.7,0.1c0.1,1.1-0.7,3-1.2,2.9C246.2,278.9,246.2,277.1,246.3,276.1z"/>
					</g>
				</g>
				<g>
					<path class="st22" d="M141.1,281.6c0,0-0.9,12.1,1.5,13.5c1.5,0.9,7.4,4,7.2,4.5c-0.2,0.6-3.3,5.1-3.3,5.1s-11.3-7.5-11.7-9.8
						c-0.4-2.3,0.6-17.7,2.1-18.4c1.2-0.5,1.8-0.1,3.3,1C142.2,279.1,141.1,281.6,141.1,281.6z"/>
					<g>
						<g>
							<path class="st53" d="M161.7,285.1l1-0.4c0,0-1.2-2.9-1.8-2.9c-0.6,0.1-1.4,0.3-1.4,0.3L161.7,285.1z"/>
						</g>
					</g>
					<g>
						<g>
							<path class="st54" d="M162,285.6c-0.1-0.1-2.1-3.9-2.1-3.9l-4.3,0.6l2.3,4.5L162,285.6z"/>
						</g>
					</g>
					<g>
						<g>
							<path class="st55" d="M139.7,369.7c0,0-0.4,2.4-0.4,2.8c0,0.4-3.9-0.2-3.9-0.2l-0.3-2.9C135.1,369.4,139.3,369.3,139.7,369.7
								z"/>
						</g>
					</g>
					<g>
						<g>
							<path class="st56" d="M139.4,372.2c0,0,1.2,1.5,2.4,2.1c1.2,0.6,3.1,0.9,3.8,1.6c0.5,0.5,1.8,2.5-3.1,2.5
								c-4.9,0-7.3,0.3-7.8-0.5c-0.5-0.8,0.8-5.9,0.8-5.9S136.6,372.4,139.4,372.2z"/>
						</g>
					</g>
					<g>
						<g>
							<path class="st55" d="M159.2,369.7c0,0-0.4,2.4-0.4,2.8c0,0.4-3.9-0.2-3.9-0.2l-0.3-2.9C154.5,369.4,158.7,369.3,159.2,369.7
								z"/>
						</g>
					</g>
					<g>
						<g>
							<path class="st56" d="M158.8,372.2c0,0,1.2,1.5,2.4,2.1c1.2,0.6,5.6,1.2,6.3,1.8c0.5,0.5,1.4,2.4-5.6,2.2
								c-4.9-0.1-7.3,0.3-7.8-0.5c-0.5-0.8,0.8-5.9,0.8-5.9S155.9,372.5,158.8,372.2z"/>
						</g>
					</g>
					<g>
						<g>
							<path class="st56" d="M141.1,306.8c0,0-3.6,5.8-3.4,11c0.3,5.2-0.3,10.8-0.9,16.3c-0.6,6.1-2.3,18.8-2.4,22
								c-0.1,3.3,0.1,15.5,0.1,15.5l6.3,0c0,0,2.2-24.8,3.3-27.4c1.1-2.6,5.6-21.2,5.7-23.3C150.2,318.9,141.1,306.8,141.1,306.8z"
								/>
						</g>
					</g>
					<g>
						<g>
							<path class="st56" d="M160.3,307.6c0,0,1.4,14.2,1.8,17.4c0.4,3.2,0.1,17.1,0.3,19.1c0.2,2-1.2,23.2-1.6,27.2l-6.9,0
								c0,0-0.5-17.1-0.5-25.5c0-8.3-2.1-18-4.6-23.5c-2.4-5.5-8-5.6-9.6-15.8C139.3,306.5,158.3,304.3,160.3,307.6z"/>
						</g>
					</g>
					<g>
						<g>
							<path class="st36" d="M145,258c0,0,4.3-2.9,7.4,0.2c3,3.1,4.5,10.4,2.4,11.9c-2.2,1.5-5.9,1.8-7.7-0.1c-1.8-2-3.6-5-4.1-7.2
								C142.5,260.5,143.9,258.9,145,258z"/>
						</g>
					</g>
					<g>
						<g>
							<path class="st36" d="M153.3,270.5c0,0-0.1,3.1,0.3,3.7c0.3,0.7-6.3,0.7-6.3,0.7s-0.5-3.5-1.6-6.5
								C144.6,265.4,153.3,270.5,153.3,270.5z"/>
						</g>
					</g>
					<g>
						<g>
							<path class="st57" d="M145.8,268.3c0,0,0.6,0.6,2.4-0.1c1.8-0.7,3.4-3.7,4.1-4.1c0.7-0.4,0.6-0.9,0.6-0.9l0.6,0.6l0.8-0.1
								c0,0-1.3-2-0.3-3.2c0.9-1.2-2.8-6.8-8.2-3.3c0,0-4.2,2.3-3.4,4.8C143.1,264.5,144.5,267.3,145.8,268.3z"/>
						</g>
					</g>
					<g>
						<g>
							<path class="st58" d="M153.9,274.2c0,0,0-1.2-0.6-1.4c-0.6-0.1-6.2-0.7-6.9-0.4v1.4C146.4,273.9,147.8,274.7,153.9,274.2z"/>
						</g>
					</g>
					<g>
						<g>
							<path class="st36" d="M152.6,262.3c-0.2-0.4-1.6-1.4-1.7,0s1.4,2.9,1.9,2.6C153.3,264.7,153.1,263.3,152.6,262.3z"/>
						</g>
					</g>
					<g>
						<g>
							<path class="st22" d="M176.4,288.8C176.4,288.8,176.4,288.8,176.4,288.8C176.4,288.9,176.4,288.9,176.4,288.8z"/>
						</g>
					</g>
					<g>
						<g>
							<path class="st22" d="M162.2,275.9c-4-0.7-8.3-1.7-8.3-1.7l-7.5-0.3c0,0-6.9,1.5-9.6,2.7c-0.3,0.1-0.3,6.1-1,7.7l2.2,4.7
								c0,0,1.3,9.4,1.6,13.6c0.1,1.9-2.7,18-2.7,18s3,0.9,8.1,1.4c5.1,0.6,17.9-0.2,18-0.8c0.1-0.6-2.5-22.5-2.6-23.6
								c-0.2-1.7,0.5-9.8,0.5-9.8c1,1.3,5.5,6.9,8.1,9.7c1.5,1.6,7,4.5,8.3,5.1c2.8,1.2,7.2,4.1,7.4,3.8c0.1-0.2,3.1-5.2,2.8-5.3
								c-0.3-0.1-9.6-5.8-12.3-7.2c-1-0.5-4.8-7-4.8-7S164.4,276.9,162.2,275.9z"/>
						</g>
					</g>
					<g>
						<g>
							<path class="st57" d="M143.7,258.7c0,0-6.2,1.7,1.8,9.4L143.7,258.7z"/>
						</g>
					</g>
					<path class="st59" d="M191.2,307.5c0,0-0.5,0-0.8-0.1c0,0-0.4-0.2-0.7-0.4c-0.1,0-0.2-0.1-0.2-0.1c-0.2-0.1-0.8-0.2-1.4-0.5
						c-0.5-0.4-2.3-1.8-2.3-1.8l1-1.7l0.4-1.7c0,0,3.9,0.1,4.5,0.4c0.1,0,0.1,0.1,0.1,0.1c0.4,0.3,0.6,0.7,0.9,0.8
						c0.1,0.1,0.8,0.7,0.8,1c0,0.4-0.2,0.7-0.5,0.8c0,0-0.1,0.8-0.5,1.2c0,0-0.1,0.7-0.7,1.1C191.7,306.6,191.6,307.4,191.2,307.5z"
						/>
				</g>
				<g>
					<path class="st60" d="M99.8,266.6c0.6,2-0.2,4-1.7,4.5c-1.6,0.5-3.3-0.7-3.9-2.7c-0.6-2,0.2-4,1.7-4.5
						C97.4,263.4,99.2,264.7,99.8,266.6z"/>
					<path class="st22" d="M107.4,277.4c0,0,2.2,0.7,3.5,2.4c1.3,1.7,1.5,4.2,1.5,5.4c0.1,1.2,0.4,6.1,0.4,6.1l-3.8,1.1L107.4,277.4
						z"/>
					<g>
						<path class="st56" d="M123.4,373.9c0,0,2.8,3.8,2.4,4.4c-0.4,0.6-3.4,0.7-5.2,0c-1.8-0.7-1.8-5.1-2.7-7
							c-0.3-0.8,0.4-3.2,1.4-3.3c1-0.2,2.1,0.3,2.1,0.3S120.5,371,123.4,373.9z"/>
					</g>
					<g>
						<g>
							<path class="st36" d="M121.6,368.2c0,0,0.6,1.6,0.8,3.2c0.2,1.3,2,4,1.9,4.3c-0.1,0.3-2.4,0.7-3.4-0.2
								c-0.9-0.9-1.6-3.5-1.8-5c-0.2-1.4-0.4-2.1-0.4-2.1S120.7,367.3,121.6,368.2z"/>
						</g>
					</g>
					<g>
						<path class="st56" d="M98.8,374c0,0,2.7,3.7,2.3,4.3c-0.4,0.6-3.4,0.7-5.2,0c-1.8-0.7-1.8-5.1-2.7-7c-0.3-0.8,0.4-3.2,1.4-3.3
							c1-0.2,2.2,0.4,2.2,0.4S95.9,371,98.8,374z"/>
					</g>
					<g>
						<g>
							<path class="st36" d="M97,368.3c0,0,0.2,1.8,0.6,3c0.3,1.2,2.2,4.1,2.1,4.4c-0.1,0.3-2.4,0.7-3.4-0.2c-0.9-0.9-1.7-3.5-1.8-5
								c-0.1-1.6,0.2-2.6,0.2-2.6S96.1,367.4,97,368.3z"/>
						</g>
					</g>
					<g>
						<g>
							<path class="st36" d="M110.6,306.5c0,0,2.4,11.3,3,14.1c0.6,2.8,2.1,16.6,2.3,18.9c0.2,2.3,2.5,11.1,2.4,12
								c-0.1,0.8,3.5,17.6,3.5,17.6s-1.2,1-2.5,0.1c-0.7-0.5-7.9-15.7-7.9-19.8c0-5.8-4.3-13.3-4.8-14.6c-5.1-12-4.1-15.6-4.8-16.4
								c-0.7-0.8-0.7,0.5-1.1,2.2c-0.4,1.7-1.2,16.6-1.7,18.5c-0.5,1.9-0.1,8.3-0.4,11.5c-0.3,3.2-1.5,17.8-1.5,17.8s-0.9,1.5-2.3,0
								c-0.3-0.3-2.3-16.2-2.3-20.1c-0.1-3.8-0.1-9.1-0.2-10.8c-1-15.9-3.6-18.2,0.4-29.4C100,287,110.6,306.5,110.6,306.5z"/>
						</g>
					</g>
					<g>
						<path class="st22" d="M94.3,303.4c0,0-6.9,9.6-3.9,30.2c0,0,16.4,2.2,25.1-2.6c0,0-3.6-21.2-4.9-24.5
							C109.3,303.2,94.3,303.4,94.3,303.4z"/>
					</g>
					<g>
						<polygon class="st56" points="117.9,370.9 117.9,374.9 118.4,374.9 118.4,371.9 						"/>
					</g>
					<g>
						<polygon class="st56" points="93.3,370.9 93.3,374.9 93.8,374.9 93.8,371.9 						"/>
					</g>
					<g>
						<path class="st22" d="M103.6,275.9c0,0,3,1.2,3.9,1.4c0.9,0.2,3.9,4.6,4.5,6.2c0.6,1.6,0,4.1-1.2,6.9
							c-1.2,2.9-0.1,3.8-0.6,6.7c-0.6,2.9,1.3,9,1.4,10.5c0.1,1.6-16.6,1.8-19.9-1c0,0,3.3-4.9,3.7-5.6c0.4-0.7,0.1-4.6-0.3-5.5
							c-0.4-1-3-9.4-3-9.4s-2.1-6.5-0.2-7.9c1.7-1.3,6.2-1.7,7-2C99.6,275.8,101.9,275.7,103.6,275.9z"/>
					</g>
					<g>
						<path class="st36" d="M104.8,273c0,0-0.1,0.6-0.2,1.5c0,0.4-0.1,0.8-0.1,1.3c-0.1,1.3-0.2,2.7-0.1,3.4c0,0-2.6,2.6-5.6-3.1
							c0,0,1.3-2.4,0.3-5.6C98.1,267.3,104.8,273,104.8,273z"/>
					</g>
					<polygon class="st36" points="111.4,294.3 111.9,295.4 110.9,294.7 					"/>
					<g>
						<g>
							<g>
								<path class="st61" d="M105.7,258.4c0,0,5.9,1.9,2.7,12.1c-3.2,10.2-11.3-1.2-10.4-7.4C98.8,256.8,105.7,258.4,105.7,258.4z"
									/>
							</g>
						</g>
					</g>
					<g>
						<g>
							<g>
								<path class="st60" d="M109,264.3c0,0-2.9,2.9-7.9,3.2c0,0-1.9,2.2-2,3.1c0,0-5.1-8.6,1-12C106.6,255.1,111,262.5,109,264.3z
									"/>
							</g>
						</g>
					</g>
					<g>
						<g>
							<g>
								<path class="st61" d="M101.1,267.5c0-0.7-0.5-2.4-1.6-2c-1.1,0.5,0.1,3.9,0.8,3.7C100.3,269.3,101.2,269.3,101.1,267.5z"/>
							</g>
						</g>
					</g>
					<path class="st44" d="M104.6,274.5c0,0.4-0.1,0.8-0.1,1.3h0c-3.4-1.7-3.9-4.1-4-4.2C103.2,274.5,104.6,274.5,104.6,274.5z"/>
					<path class="st62" d="M112.2,285.1c0,0,0.2,3.6-0.6,5.7l-0.7-0.4C110.8,290.4,112.2,286.8,112.2,285.1z"/>
					<g>
						<g>
							<path class="st36" d="M99.4,296.8c0,0,1.4-0.9,1.6-1c0.2-0.1,1-0.1,1.7,0.2c0.7,0.2,1.6,0.6,1.8,0.7c0.1,0.1,0.2,0.1,0.2,0.4
								c-0.1,0.4-0.3,0.6-0.3,0.6s0.1,0.5-0.2,0.8c0,0,0.1,0.4-0.3,0.7c0,0,0.1,0.4-0.2,0.6c0,0-0.7,0.1-1,0
								c-0.4-0.1-2.3-0.5-3.7-0.9C99,299,98.5,298.7,99.4,296.8z"/>
						</g>
					</g>
					<g>
						<path class="st36" d="M104.1,296.5c0,0,3.5,0.8,3.5,1.1c-0.1,0.4-0.9,0.5-3.6-0.2C101.3,296.7,104.1,296.5,104.1,296.5z"/>
					</g>
					<path class="st22" d="M95.4,277.5c-0.8-0.5-3.5-0.4-4.5,2.1c-1,2.5-1.9,5.4-2.6,6.7c-0.7,1.3-3.2,7.3-2.5,8
						c0.7,0.7,2.3,1.6,4.6,2.1c2.4,0.6,9.2,3.1,9.2,3.1l0.9-3.7c0,0-3-1.4-4.8-2.1c-1.5-0.6-1.4-0.8-3.9-1.7c0,0,1.5-3.7,2.1-4.7
						S99,279.7,95.4,277.5z"/>
					<g>
						<path class="st63" d="M104.7,303.2l9.2-0.7c0.4,0,0.8-0.3,1-0.6l9.5-15.4c0.5-0.9-0.1-2-1.1-2l-9.8-0.1
							c-0.5,0-0.9,0.3-1.2,0.7l-8.9,16.3C103,302.2,103.7,303.2,104.7,303.2z"/>
					</g>
					<g>
						<g>
							<path class="st36" d="M117.6,297.5c0,0,0.6-0.5,1.1-1.3c0.5-0.8,2.2-3.6,2-3.8c-0.2-0.2-2.7-0.2-3.1,0.2
								c-0.5,0.4,0.4,0.6,0.4,0.6s-1.4,0.1-1.3,0.5c0.1,0.4,0.9,0.3,0.9,0.3s-1.1,0.2-0.9,0.5c0.2,0.3,0.7,0.3,0.7,0.3
								s-1,0.1-0.9,0.5c0.1,0.4,1.7,0.7,1.5,1C117.8,296.7,117.6,297.5,117.6,297.5z"/>
						</g>
					</g>
					<path class="st36" d="M98.3,276.2c0,0,3.3,5.4,5.9,5.3c2.6-0.1,0.8-5,0.8-5S103.1,274.9,98.3,276.2z"/>
					<path class="st64" d="M115.6,294.3c-0.9,0.9-2.1,1.1-2.7,0.5c-0.6-0.6-0.4-1.8,0.5-2.7s2.1-1.1,2.7-0.5
						C116.7,292.2,116.5,293.4,115.6,294.3z"/>
					<path class="st60" d="M109.5,262.9c0,0,0.4,1.4-0.3,3.9c0,0,0.1-2.3-0.4-3C108.3,263.2,109.5,262.9,109.5,262.9z"/>
				</g>
			</g>
		</g>
		<rect x="40.4" y="67.2" class="st65" width="129" height="49"/>
		<g>
			<path d="M79.6,82.8c0.9,0,1.6,0.1,2.3,0.4c0.7,0.3,1.3,0.6,1.8,1c0.5,0.4,0.9,1,1.1,1.6c0.3,0.6,0.4,1.3,0.4,2
				c0,0.6-0.1,1.2-0.3,1.8c-0.2,0.5-0.4,1.1-0.7,1.6s-0.7,1-1.1,1.4c-0.4,0.5-0.9,0.9-1.3,1.4l-3.4,3.5c0.4-0.1,0.9-0.2,1.3-0.3
				c0.4-0.1,0.8-0.1,1.2-0.1h3.3c0.4,0,0.7,0.1,0.9,0.3c0.2,0.2,0.3,0.5,0.3,0.9v2.2H73.1v-1.2c0-0.2,0-0.5,0.1-0.7
				c0.1-0.3,0.3-0.5,0.5-0.7l5-5.1c0.4-0.4,0.8-0.8,1.1-1.2c0.3-0.4,0.6-0.8,0.8-1.2s0.4-0.8,0.5-1.1c0.1-0.4,0.2-0.8,0.2-1.2
				c0-0.7-0.2-1.2-0.5-1.6s-0.8-0.6-1.5-0.6c-0.3,0-0.5,0-0.8,0.1c-0.2,0.1-0.4,0.2-0.6,0.3c-0.2,0.1-0.3,0.3-0.5,0.5
				c-0.1,0.2-0.2,0.4-0.3,0.6c-0.1,0.4-0.3,0.6-0.5,0.8c-0.2,0.2-0.5,0.2-0.8,0.2c-0.1,0-0.2,0-0.3,0c-0.1,0-0.2,0-0.3,0l-2-0.3
				c0.1-0.9,0.4-1.6,0.7-2.3c0.4-0.6,0.8-1.2,1.4-1.6s1.2-0.8,1.9-1S78.8,82.8,79.6,82.8z"/>
			<path d="M99.7,91.7c0,1.5-0.2,2.9-0.5,4c-0.3,1.1-0.8,2-1.4,2.8c-0.6,0.7-1.3,1.3-2.1,1.6c-0.8,0.4-1.7,0.5-2.6,0.5
				c-0.9,0-1.8-0.2-2.6-0.5c-0.8-0.4-1.5-0.9-2-1.6c-0.6-0.7-1-1.7-1.4-2.8c-0.3-1.1-0.5-2.4-0.5-4c0-1.5,0.2-2.9,0.5-4
				c0.3-1.1,0.8-2,1.4-2.8c0.6-0.7,1.3-1.3,2-1.6s1.6-0.5,2.6-0.5c0.9,0,1.8,0.2,2.6,0.5s1.5,0.9,2.1,1.6s1,1.7,1.4,2.8
				C99.5,88.9,99.7,90.2,99.7,91.7z M95.9,91.7c0-1.2-0.1-2.2-0.2-3c-0.2-0.8-0.4-1.4-0.6-1.8c-0.3-0.4-0.5-0.7-0.9-0.9
				c-0.3-0.2-0.6-0.2-1-0.2s-0.6,0.1-1,0.2c-0.3,0.2-0.6,0.5-0.8,0.9c-0.2,0.4-0.4,1-0.6,1.8s-0.2,1.8-0.2,3c0,1.2,0.1,2.2,0.2,3
				s0.3,1.4,0.6,1.8c0.2,0.4,0.5,0.7,0.8,0.9c0.3,0.2,0.6,0.2,1,0.2s0.7-0.1,1-0.2c0.3-0.2,0.6-0.5,0.9-0.9c0.3-0.4,0.5-1,0.6-1.8
				C95.8,93.9,95.9,92.9,95.9,91.7z"/>
			<path d="M103.2,97.8h3.4V89c0-0.4,0-0.9,0-1.4l-2,1.6c-0.1,0.1-0.3,0.2-0.4,0.2c-0.1,0-0.3,0.1-0.4,0.1c-0.2,0-0.4,0-0.6-0.1
				c-0.2-0.1-0.3-0.2-0.4-0.3l-1.2-1.6l5.4-4.6h3.1v14.8h2.9v2.7h-10V97.8z"/>
			<path d="M127.4,83v1.6c0,0.4,0,0.8-0.1,1.1c-0.1,0.3-0.2,0.5-0.3,0.7l-6.1,12.9c-0.2,0.3-0.4,0.6-0.7,0.9s-0.7,0.4-1.2,0.4h-2.7
				l6.2-12.5c0.2-0.3,0.3-0.7,0.5-0.9c0.2-0.3,0.4-0.5,0.6-0.8h-7.7c-0.1,0-0.2,0-0.3-0.1c-0.1,0-0.2-0.1-0.3-0.2
				c-0.1-0.1-0.1-0.2-0.2-0.3c0-0.1-0.1-0.2-0.1-0.3V83H127.4z"/>
		</g>
	</g>
</g>
</svg>
