<?xml version="1.0" encoding="utf-8"?>
<!-- Generator: Adobe Illustrator 23.1.0, SVG Export Plug-In . SVG Version: 6.00 Build 0)  -->
<svg version="1.1" id="Layer_1" xmlns="http://www.w3.org/2000/svg" xmlns:xlink="http://www.w3.org/1999/xlink" x="0px" y="0px"
	 viewBox="0 0 500 500" style="enable-background:new 0 0 500 500;" xml:space="preserve">
<style type="text/css">
	.st0{clip-path:url(#SVGID_2_);}
	.st1{clip-path:url(#SVGID_4_);fill:#5BC8CE;}
	.st2{clip-path:url(#SVGID_4_);}
	.st3{clip-path:url(#SVGID_6_);fill:#9BF0F9;}
	.st4{clip-path:url(#SVGID_6_);fill:#B2C67F;}
	.st5{clip-path:url(#SVGID_4_);fill:#ECF0F1;}
	.st6{clip-path:url(#SVGID_8_);}
	.st7{filter:url(#Adobe_OpacityMaskFilter);}
	.st8{enable-background:new    ;}
	.st9{filter:url(#Adobe_OpacityMaskFilter_1_);}
	.st10{clip-path:url(#SVGID_11_);mask:url(#SVGID_9_);fill:url(#SVGID_12_);}
	.st11{opacity:0.72;clip-path:url(#SVGID_8_);}
	.st12{clip-path:url(#SVGID_14_);}
	.st13{clip-path:url(#SVGID_16_);fill:url(#SVGID_17_);}
	.st14{clip-path:url(#SVGID_8_);fill:#4A3E46;}
	.st15{clip-path:url(#SVGID_8_);fill:#B07042;}
	.st16{clip-path:url(#SVGID_8_);fill:#EEA886;}
	.st17{clip-path:url(#SVGID_8_);fill:#CF8C6C;}
	.st18{clip-path:url(#SVGID_8_);fill:#D88A51;}
	.st19{clip-path:url(#SVGID_8_);fill:#EB4747;}
	.st20{clip-path:url(#SVGID_8_);fill:#DB9C7C;}
	.st21{clip-path:url(#SVGID_8_);fill:#BD7947;}
	.st22{clip-path:url(#SVGID_8_);fill:#EDDAD3;}
	.st23{clip-path:url(#SVGID_8_);fill:#1D3B54;}
	.st24{clip-path:url(#SVGID_8_);fill:#A77860;}
	.st25{clip-path:url(#SVGID_8_);fill:#6B5A65;}
	.st26{filter:url(#Adobe_OpacityMaskFilter_2_);}
	.st27{filter:url(#Adobe_OpacityMaskFilter_3_);}
	.st28{clip-path:url(#SVGID_20_);mask:url(#SVGID_18_);fill:url(#SVGID_21_);}
	.st29{clip-path:url(#SVGID_23_);}
	.st30{clip-path:url(#SVGID_25_);fill:url(#SVGID_26_);}
	.st31{clip-path:url(#SVGID_8_);fill:#FFD255;}
	.st32{clip-path:url(#SVGID_8_);fill:#FFD078;}
	.st33{clip-path:url(#SVGID_8_);fill:#FFFFFF;}
	.st34{clip-path:url(#SVGID_28_);fill:url(#SVGID_29_);}
	.st35{clip-path:url(#SVGID_31_);fill:#FFD179;}
	.st36{clip-path:url(#SVGID_31_);fill:#FFD887;}
	.st37{clip-path:url(#SVGID_31_);fill:#FFD989;}
	.st38{clip-path:url(#SVGID_31_);fill:#FFD785;}
	.st39{clip-path:url(#SVGID_31_);fill:#FFD078;}
	.st40{clip-path:url(#SVGID_31_);fill:#FFFFFF;}
	.st41{opacity:8.000180e-02;clip-path:url(#SVGID_31_);}
	.st42{clip-path:url(#SVGID_33_);}
	.st43{clip-path:url(#SVGID_35_);fill:url(#SVGID_36_);}
	.st44{filter:url(#Adobe_OpacityMaskFilter_4_);}
	.st45{clip-path:url(#SVGID_31_);}
	.st46{filter:url(#Adobe_OpacityMaskFilter_5_);}
	.st47{clip-path:url(#SVGID_39_);mask:url(#SVGID_37_);fill:url(#SVGID_40_);}
	.st48{clip-path:url(#SVGID_42_);}
	.st49{clip-path:url(#SVGID_44_);fill:url(#SVGID_45_);}
	.st50{filter:url(#Adobe_OpacityMaskFilter_6_);}
	.st51{filter:url(#Adobe_OpacityMaskFilter_7_);}
	.st52{clip-path:url(#SVGID_48_);mask:url(#SVGID_46_);fill:url(#SVGID_49_);}
	.st53{clip-path:url(#SVGID_51_);}
	.st54{clip-path:url(#SVGID_53_);fill:url(#SVGID_54_);}
	.st55{filter:url(#Adobe_OpacityMaskFilter_8_);}
	.st56{filter:url(#Adobe_OpacityMaskFilter_9_);}
	.st57{clip-path:url(#SVGID_57_);mask:url(#SVGID_55_);fill:url(#SVGID_58_);}
	.st58{clip-path:url(#SVGID_60_);}
	.st59{clip-path:url(#SVGID_62_);fill:url(#SVGID_63_);}
	.st60{clip-path:url(#SVGID_31_);fill:#D46946;}
	.st61{clip-path:url(#SVGID_65_);fill:url(#SVGID_66_);}
	.st62{clip-path:url(#SVGID_68_);fill:url(#SVGID_69_);}
	.st63{clip-path:url(#SVGID_71_);fill:url(#SVGID_72_);}
	.st64{clip-path:url(#SVGID_74_);fill:#706865;}
	.st65{clip-path:url(#SVGID_74_);fill:#BDAFAA;}
	.st66{clip-path:url(#SVGID_74_);fill:#FFFFFF;}
	.st67{clip-path:url(#SVGID_74_);fill:#B5DEFF;}
	.st68{clip-path:url(#SVGID_74_);fill:#EEA886;}
	.st69{clip-path:url(#SVGID_74_);fill:#DB9C7C;}
	.st70{clip-path:url(#SVGID_74_);fill:#FFC655;}
	.st71{clip-path:url(#SVGID_74_);fill:#4DA8F2;}
	.st72{clip-path:url(#SVGID_74_);fill:#EFAA88;}
	.st73{clip-path:url(#SVGID_74_);fill:#424773;}
	.st74{clip-path:url(#SVGID_74_);fill:#292C47;}
	.st75{clip-path:url(#SVGID_74_);fill:#E2D2CA;}
	.st76{clip-path:url(#SVGID_74_);fill:#DFE1E8;}
	.st77{clip-path:url(#SVGID_74_);fill:#518AFA;}
	.st78{clip-path:url(#SVGID_74_);fill:#202338;}
	.st79{clip-path:url(#SVGID_74_);fill:#323657;}
	.st80{clip-path:url(#SVGID_74_);fill:#E2E3ED;}
	.st81{clip-path:url(#SVGID_74_);fill:#AAB1E0;}
	.st82{clip-path:url(#SVGID_74_);fill:#81807E;}
	.st83{clip-path:url(#SVGID_74_);fill:#DBD8E3;}
	.st84{clip-path:url(#SVGID_74_);fill:#1D2033;}
	.st85{clip-path:url(#SVGID_74_);fill:#434343;}
	.st86{clip-path:url(#SVGID_74_);fill:#EEA987;}
	.st87{clip-path:url(#SVGID_74_);fill:#A77860;}
	.st88{clip-path:url(#SVGID_74_);fill:#5282FC;}
	.st89{clip-path:url(#SVGID_74_);fill:#C4C1CC;}
	.st90{clip-path:url(#SVGID_74_);fill:#5C5049;}
	.st91{clip-path:url(#SVGID_74_);fill:#FAB46C;}
	.st92{clip-path:url(#SVGID_74_);fill:#FCCCA2;}
	.st93{clip-path:url(#SVGID_74_);fill:#D4C3BD;}
	.st94{clip-path:url(#SVGID_74_);fill:#DE9673;}
	.st95{clip-path:url(#SVGID_74_);fill:#1B4D8F;}
	.st96{clip-path:url(#SVGID_74_);fill:#E6D3CC;}
	.st97{clip-path:url(#SVGID_74_);fill:#DED1C5;}
	.st98{clip-path:url(#SVGID_74_);fill:#BC8551;}
	.st99{clip-path:url(#SVGID_74_);fill:#23344A;}
	.st100{clip-path:url(#SVGID_74_);fill:#807066;}
	.st101{clip-path:url(#SVGID_74_);fill:#E64053;}
	.st102{clip-path:url(#SVGID_74_);fill:#5F8CC9;}
	.st103{clip-path:url(#SVGID_74_);fill:#3A3F47;}
	.st104{clip-path:url(#SVGID_74_);fill:#A32D3B;}
	.st105{clip-path:url(#SVGID_74_);fill:#5E5853;}
	.st106{clip-path:url(#SVGID_74_);fill:#91887F;}
	.st107{clip-path:url(#SVGID_74_);fill:#6E6760;}
</style>
<g>
	<g>
		<defs>
			<rect id="SVGID_1_" width="500" height="500"/>
		</defs>
		<clipPath id="SVGID_2_">
			<use xlink:href="#SVGID_1_"  style="overflow:visible;"/>
		</clipPath>
		<g class="st0">
			<defs>
				<rect id="SVGID_3_" width="500" height="500"/>
			</defs>
			<clipPath id="SVGID_4_">
				<use xlink:href="#SVGID_3_"  style="overflow:visible;"/>
			</clipPath>
			<polygon class="st1" points="460.4,116.2 429.4,143.2 387.4,105.2 449.4,105.2 			"/>
			<g class="st2">
				<defs>
					<path id="SVGID_5_" d="M31.4,250.2c0,120.9,98,219,219,219s219-98.1,219-219c0-121-98-219-219-219S31.4,129.2,31.4,250.2"/>
				</defs>
				<clipPath id="SVGID_6_">
					<use xlink:href="#SVGID_5_"  style="overflow:visible;"/>
				</clipPath>
				<rect x="31" y="31.2" class="st3" width="438.9" height="254"/>
				<rect x="31" y="291.4" class="st4" width="438.9" height="206.7"/>
				<path class="st4" d="M5,325.4c-5.2-13.8,28.6-72,92.7-56c3.8,1,34.5,8.6,34.3,19.4C131.7,312.9,12,344.2,5,325.4"/>
				<path class="st4" d="M304.8,354.8c-7.6-20.2,42.1-105.8,136.3-82.3c5.6,1.4,50.7,12.7,50.5,28.5
					C491.2,336.3,315.2,382.4,304.8,354.8"/>
			</g>
			<rect x="331.4" y="67.2" class="st5" width="129" height="49"/>
			<g class="st2">
				<defs>
					<rect id="SVGID_7_" width="500" height="500"/>
				</defs>
				<clipPath id="SVGID_8_">
					<use xlink:href="#SVGID_7_"  style="overflow:visible;"/>
				</clipPath>
				<path class="st6" d="M377.8,82.8c0.9,0,1.6,0.1,2.3,0.4c0.7,0.3,1.3,0.6,1.8,1c0.5,0.4,0.9,1,1.1,1.6c0.3,0.6,0.4,1.3,0.4,2
					c0,0.6-0.1,1.2-0.3,1.8c-0.2,0.5-0.4,1.1-0.7,1.6c-0.3,0.5-0.7,1-1.1,1.4c-0.4,0.5-0.8,0.9-1.3,1.4l-3.4,3.5
					c0.4-0.1,0.9-0.2,1.3-0.3c0.4-0.1,0.8-0.1,1.2-0.1h3.3c0.4,0,0.7,0.1,0.9,0.3c0.2,0.2,0.3,0.5,0.3,0.9v2.2h-12.3v-1.2
					c0-0.2,0-0.5,0.1-0.7c0.1-0.3,0.3-0.5,0.5-0.7l5-5.1c0.4-0.4,0.8-0.8,1.1-1.2c0.3-0.4,0.6-0.8,0.8-1.2c0.2-0.4,0.4-0.8,0.5-1.1
					c0.1-0.4,0.2-0.8,0.2-1.2c0-0.7-0.2-1.2-0.5-1.6c-0.3-0.4-0.8-0.6-1.5-0.6c-0.3,0-0.5,0-0.8,0.1c-0.2,0.1-0.4,0.2-0.6,0.3
					c-0.2,0.1-0.3,0.3-0.5,0.5c-0.1,0.2-0.2,0.4-0.3,0.6c-0.1,0.4-0.3,0.6-0.5,0.8c-0.2,0.2-0.5,0.2-0.8,0.2c-0.1,0-0.2,0-0.3,0
					c-0.1,0-0.2,0-0.3,0l-2-0.3c0.1-0.9,0.4-1.6,0.7-2.3c0.4-0.6,0.8-1.2,1.4-1.6c0.5-0.4,1.2-0.8,1.9-1
					C376.2,82.9,377,82.8,377.8,82.8"/>
				<path class="st6" d="M397.9,91.7c0,1.5-0.2,2.9-0.5,4c-0.3,1.1-0.8,2-1.4,2.8c-0.6,0.7-1.3,1.3-2.1,1.6
					c-0.8,0.4-1.7,0.5-2.6,0.5c-0.9,0-1.8-0.2-2.6-0.5c-0.8-0.4-1.5-0.9-2-1.6c-0.6-0.7-1-1.7-1.4-2.8c-0.3-1.1-0.5-2.4-0.5-4
					c0-1.5,0.2-2.9,0.5-4c0.3-1.1,0.8-2,1.4-2.8c0.6-0.7,1.3-1.3,2-1.6c0.8-0.4,1.6-0.5,2.6-0.5c0.9,0,1.8,0.2,2.6,0.5
					c0.8,0.4,1.5,0.9,2.1,1.6c0.6,0.7,1,1.7,1.4,2.8C397.7,88.9,397.9,90.2,397.9,91.7 M394.1,91.7c0-1.2-0.1-2.2-0.2-3
					c-0.2-0.8-0.4-1.4-0.6-1.8s-0.5-0.7-0.9-0.9c-0.3-0.2-0.6-0.2-1-0.2c-0.3,0-0.6,0.1-1,0.2c-0.3,0.2-0.6,0.5-0.8,0.9
					c-0.2,0.4-0.4,1-0.6,1.8c-0.1,0.8-0.2,1.8-0.2,3c0,1.2,0.1,2.2,0.2,3c0.1,0.8,0.3,1.4,0.6,1.8c0.2,0.4,0.5,0.7,0.8,0.9
					c0.3,0.2,0.6,0.2,1,0.2c0.3,0,0.7-0.1,1-0.2c0.3-0.2,0.6-0.5,0.9-0.9s0.5-1,0.6-1.8C394,93.9,394.1,92.9,394.1,91.7"/>
				<path class="st6" d="M401.4,97.8h3.4V89c0-0.4,0-0.9,0-1.4l-2,1.6c-0.1,0.1-0.3,0.2-0.4,0.2c-0.1,0-0.3,0.1-0.4,0.1
					c-0.2,0-0.4,0-0.6-0.1s-0.3-0.2-0.4-0.3l-1.2-1.6l5.4-4.6h3.1v14.8h2.9v2.7h-10V97.8z"/>
				<path class="st6" d="M420.6,89.4c0.6,0,1.3,0.1,1.9,0.3s1.2,0.5,1.7,1s0.9,1,1.2,1.6c0.3,0.7,0.4,1.4,0.4,2.3
					c0,0.8-0.2,1.6-0.5,2.3c-0.3,0.7-0.7,1.4-1.3,1.9c-0.6,0.5-1.2,1-2,1.3c-0.8,0.3-1.7,0.5-2.6,0.5c-1,0-1.9-0.2-2.6-0.5
					c-0.8-0.3-1.4-0.7-2-1.3c-0.5-0.6-1-1.2-1.2-2s-0.4-1.6-0.4-2.5c0-0.9,0.2-1.7,0.5-2.6c0.3-0.9,0.8-1.7,1.5-2.6l3.9-5.3
					c0.2-0.2,0.4-0.4,0.8-0.6c0.4-0.2,0.8-0.2,1.2-0.2h3.3l-5.2,6.2c-0.1,0.1-0.2,0.2-0.2,0.3c-0.1,0.1-0.1,0.2-0.2,0.3
					c0.3-0.1,0.6-0.2,0.9-0.2C419.9,89.4,420.2,89.4,420.6,89.4 M416.7,94.9c0,0.4,0.1,0.8,0.2,1.2c0.1,0.3,0.3,0.6,0.5,0.9
					c0.2,0.2,0.5,0.4,0.8,0.6c0.3,0.1,0.7,0.2,1.2,0.2c0.4,0,0.7-0.1,1.1-0.2c0.3-0.1,0.6-0.3,0.9-0.6c0.2-0.3,0.4-0.5,0.6-0.9
					c0.1-0.3,0.2-0.7,0.2-1.1c0-0.4-0.1-0.8-0.2-1.2c-0.1-0.4-0.3-0.6-0.6-0.9c-0.2-0.2-0.5-0.4-0.9-0.6c-0.3-0.1-0.7-0.2-1.1-0.2
					c-0.4,0-0.7,0.1-1,0.2c-0.3,0.1-0.6,0.3-0.8,0.6c-0.2,0.2-0.4,0.5-0.5,0.9C416.7,94.1,416.7,94.5,416.7,94.9"/>
				<defs>
					<filter id="Adobe_OpacityMaskFilter" filterUnits="userSpaceOnUse" x="296.8" y="295.1" width="146.5" height="129.3">
						<feFlood  style="flood-color:white;flood-opacity:1" result="back"/>
						<feBlend  in="SourceGraphic" in2="back" mode="normal"/>
					</filter>
				</defs>
				<mask maskUnits="userSpaceOnUse" x="296.8" y="295.1" width="146.5" height="129.3" id="SVGID_9_">
					<g class="st7">
						<g class="st8">
							<g>
								<defs>
									<path id="SVGID_10_" d="M440,359.8c0,2.1-31.3,3.8-69.9,3.8c-38.6,0-69.9-1.7-69.9-3.8c0-2.1,31.3-3.8,69.9-3.8
										C408.7,355.9,440,357.6,440,359.8"/>
								</defs>
								<clipPath id="SVGID_11_" class="st6">
									<use xlink:href="#SVGID_10_"  style="overflow:visible;"/>
								</clipPath>
								<defs>
									<filter id="Adobe_OpacityMaskFilter_1_" filterUnits="userSpaceOnUse" x="296.8" y="295.1" width="146.5" height="129.3">
										<feFlood  style="flood-color:white;flood-opacity:1" result="back"/>
										<feBlend  in="SourceGraphic" in2="back" mode="normal"/>
									</filter>
								</defs>
								<mask maskUnits="userSpaceOnUse" x="296.8" y="295.1" width="146.5" height="129.3" id="SVGID_9_">
									<g class="st9">
										<g class="st8">
										</g>
									</g>
								</mask>
								
									<linearGradient id="SVGID_12_" gradientUnits="userSpaceOnUse" x1="-8.1047" y1="4.7167" x2="-7.1047" y2="4.7167" gradientTransform="matrix(-26.8195 -46.0842 -46.0842 26.8195 383.8315 -116.6045)">
									<stop  offset="0" style="stop-color:#231F20"/>
									<stop  offset="0.6943" style="stop-color:#FFFFFF"/>
									<stop  offset="1" style="stop-color:#FFFFFF"/>
								</linearGradient>
								<polygon class="st10" points="335.5,424.4 296.8,357.9 404.6,295.1 443.3,361.7 								"/>
							</g>
						</g>
					</g>
				</mask>
				<g class="st11">
					<g>
						<defs>
							<rect id="SVGID_13_" x="300.2" y="355.9" width="139.8" height="7.7"/>
						</defs>
						<clipPath id="SVGID_14_">
							<use xlink:href="#SVGID_13_"  style="overflow:visible;"/>
						</clipPath>
						<g class="st12">
							<defs>
								<path id="SVGID_15_" d="M440,359.8c0,2.1-31.3,3.8-69.9,3.8c-38.6,0-69.9-1.7-69.9-3.8c0-2.1,31.3-3.8,69.9-3.8
									C408.7,355.9,440,357.6,440,359.8"/>
							</defs>
							<clipPath id="SVGID_16_">
								<use xlink:href="#SVGID_15_"  style="overflow:visible;"/>
							</clipPath>
							
								<linearGradient id="SVGID_17_" gradientUnits="userSpaceOnUse" x1="-8.1047" y1="4.7167" x2="-7.1047" y2="4.7167" gradientTransform="matrix(-26.8195 -46.0842 -46.0842 26.8195 383.8307 -116.6046)">
								<stop  offset="0" style="stop-color:#97CBEC"/>
								<stop  offset="0.6943" style="stop-color:#CCC2F5"/>
								<stop  offset="1" style="stop-color:#CCC2F5"/>
							</linearGradient>
							<polygon class="st13" points="335.5,424.4 296.8,357.9 404.6,295.1 443.3,361.7 							"/>
						</g>
					</g>
				</g>
				<path class="st14" d="M389.4,353.6c0,0.8,0.7,1.4,1.5,1.4c0.8,0,1.5-0.6,1.5-1.4s-0.7-1.4-1.5-1.4
					C390.1,352.3,389.4,352.9,389.4,353.6"/>
				<polygon class="st14" points="423.1,352.3 422.7,353.3 406.7,348.7 407.5,346.8 				"/>
				<rect x="406.1" y="330.4" class="st14" width="1.8" height="17.6"/>
				<polygon class="st14" points="390.9,352.3 391.3,353.3 407.3,348.7 406.6,346.6 				"/>
				<polygon class="st14" points="402.2,353.1 402.2,354.3 407.3,348.7 406.6,346.6 				"/>
				<path class="st14" d="M402,353.6c0,0.8,0.7,1.4,1.5,1.4c0.8,0,1.5-0.6,1.5-1.4s-0.7-1.4-1.5-1.4
					C402.7,352.3,402,352.9,402,353.6"/>
				<path class="st15" d="M384.2,348.9c0,0,0,0.9-0.3,2c-0.2,0.8-0.7,3.8-1.3,4.3c-0.6,0.4-2.6,1.6-2.3,2.7c0.3,1.2,0.5,2,2.7,1.3
					c2.2-0.7,3.6-1.1,4-2.8c0.4-1.7,1.6-3.3,1.6-3.3l1.6,3.5l0.8-0.3c0,0-1.2-3.8-1.1-4.2c0.1-0.3-0.6-3.4-3.2-4.1
					C384,347.3,384.2,348.9,384.2,348.9"/>
				<path class="st15" d="M369.9,350c0,0-0.4,0.9-1.1,1.7c-0.5,0.7-2.2,3.3-3,3.5c-0.7,0.2-3.1,0.6-3.3,1.7c-0.2,1.2-0.3,2,2,2.1
					s3.8,0.2,4.9-1.2c1.1-1.5,2.8-2.5,2.8-2.5v3.8h0.9c0,0,0.4-4,0.6-4.2c0.2-0.3,0.8-3.3-1.3-4.9C370.3,348.4,369.9,350,369.9,350"
					/>
				<path class="st16" d="M393,298.2c0,0-0.5-1.6-0.6-1.9c0-0.2-0.5-0.6-1.1-1.1c-0.6-0.4-1.6-0.8-1.7-0.8c-0.1,0-0.3,0-0.5,0.3
					c-0.2,0.2-0.2,0.6-0.2,0.6s-0.4,0.2-0.4,0.6c0,0-0.4,0.2-0.3,0.6c0,0-0.4,0.2-0.3,0.5c0,0,0.5,0.4,0.6,0.6
					c0.1,0.2,1.2,1,2.3,1.7C390.8,299.4,392.3,300.4,393,298.2"/>
				<path class="st17" d="M390.8,296.9c0,0-0.2,0.7-0.2,0.9c0,0.2-1.7,0.3-1.7,0.3S389.9,296.7,390.8,296.9"/>
				<path class="st18" d="M410.8,301.1c-0.7-1.1-1.7-1.5-4.7,0.4c-3,1.9-2.3,1.5-3,2.1c-0.7,0.6-3.9,2.1-3.9,2.1s-1.9-1.7-2.8-2.9
					c-1-1.4-3.1-5-3.1-5l-2.9,2c0,0,5.7,9.5,6.9,10.2c1.2,0.7,4.8-0.5,6.7-1.2c1.9-0.7,3.9-1.7,4.7-1.8
					C409.5,306.8,412.7,303.8,410.8,301.1"/>
				<polygon class="st19" points="390.1,296.1 390.7,296 389.3,290.1 388.7,290.2 				"/>
				<path class="st20" d="M389.8,294.6c0,0,1.5,1.2,1.3,1.4c-0.2,0.2-0.4,0.2-0.4,0.2l0.4,0.7c0,0-0.1,0.6-0.8,0.4
					c0,0,0,0.6-0.6,0.3c0,0-0.2,0.4-0.5,0.3c-0.3-0.1-1.3-0.9-1.3-0.9s-0.1-0.3,0.3-0.5c0,0-0.1-0.4,0.3-0.6c0,0,0-0.4,0.4-0.6
					c0,0,0-0.8,0.7-0.8C389.6,294.5,389.7,294.6,389.8,294.6"/>
				<path class="st16" d="M392.5,296.4c0,0-1-0.8-1.8-1.1c-0.2-0.1-0.4-0.1-0.5,0.1c-0.1,0.1-0.1,0.4,0.3,0.8c0.4,0.4,0.8,1,0.8,1
					S391.9,297.5,392.5,296.4"/>
				<path class="st21" d="M396.7,306.8c0,0-0.6-2,0.1-3.5c0,0-0.3,1.6,0.5,2.7C397.8,306.8,396.7,306.8,396.7,306.8"/>
				<path class="st22" d="M385.8,307.1c0,0-1.6-10.8-4.4-15.6h4.1c0,0,4.6,7.4,3.7,14.9L385.8,307.1z"/>
				<path class="st16" d="M384.8,299c0,0-0.5-0.8-0.6-1.1c-0.1-0.3-0.6,0.2-0.5,0.5C383.8,298.8,384.8,299,384.8,299"/>
				<path class="st16" d="M381.2,300.8c0,0,0.1,0.4,0.3,0.5c0,0,0.3,0.2,0.5,0.4c0.1,0.1,0.1,0.1,0.1,0.2c0.1,0.2,0.3,0.5,0.8,0.8
					c0.4,0.3,2,1.2,2,1.2l1.1-1.1l0.9-0.8c0,0-0.8-2.6-1.1-2.9c0,0-0.1-0.1-0.1-0.1c-0.3-0.2-0.7-0.3-0.9-0.4c-0.1,0-0.8-0.4-1-0.3
					c-0.3,0.1-0.5,0.3-0.5,0.5c0,0-0.6,0.2-0.8,0.6c0,0-0.6,0.2-0.7,0.7C381.7,300.2,381.2,300.5,381.2,300.8"/>
				<path class="st16" d="M373.9,328.8c0,0,2.7,5.6,4.7,9.6c0.3,0.7,0.6,1.3,0.9,1.8c0.3,0.6,0.6,1.2,0.7,1.5
					c1.2,2.5,4.3,8.1,4.3,8.1s2.3,0.1,2.4-1.7c0,0-2.2-3.8-2.2-6.5c0-2.7-0.4-10.6-3.2-12.3C378.1,327.1,375.8,326.7,373.9,328.8"/>
				<path class="st16" d="M399,318.2c0,0-0.6,0.5-1.1,0.6c-0.5,0.1-8.6,0.7-12.3,1.8c-3.7,1.1-8.7,1.8-9.6,2.8
					c-0.9,1-2.5,6.3-2.4,7.3c0,1-3.3,17.9-3.7,19.3c-0.2,0.7,3,0.4,3,0.4s4.6-10,5.6-11.9c1.8-3.4,1.9-7.6,2.6-8.2
					c0.7-0.6,8-2.1,12.2-2.1c4.2,0,13.7,0.3,14.7-0.2c1-0.5,7.4-4.3,4.7-9.4C410,313.5,399,318.2,399,318.2"/>
				<path class="st23" d="M380.8,321.9l6.7,11.8c0,0,2-4.4,5.5-5.1c3.5-0.8,17.6-0.3,17.6-0.3s6.5-7.5,0.9-11.4
					c-5.5-3.9-12,0.6-12,0.6s-1.3,1.3-2,1.3C396.9,318.8,391.7,318.7,380.8,321.9"/>
				<path class="st16" d="M365.7,355.3c0,0,2,0.5,2.8,0c0.8-0.5,3.4-4.6,4.3-4.8c0,0-0.9-1.6-3-0.4
					C369.9,350,366.3,354.6,365.7,355.3"/>
				<path class="st16" d="M382.6,355.2c0,0,2.1-0.3,2.6-1s1.3-5.4,2-5.9c0,0-1.4-1.2-3,0.6C384.2,348.9,382.8,354.3,382.6,355.2"/>
				<path class="st14" d="M421.6,353.6c0,0.8,0.7,1.4,1.5,1.4c0.8,0,1.5-0.6,1.5-1.4s-0.7-1.4-1.5-1.4
					C422.2,352.3,421.6,352.9,421.6,353.6"/>
				<path class="st16" d="M403.9,281.2c-1.6-0.1-5.2,0.7-5.7,4.6c0,0,0.1,1.1,0.4,1.9c0.3,0.8-0.5,3.3-0.3,3.4
					c0.2,0.1,1.1,0.3,1.1,0.3s0.9,2.7,2,2.6c1,0,4.9-0.8,6.7-4.1C409.8,286.6,410.4,281.5,403.9,281.2"/>
				<path class="st16" d="M402.7,292.7c0,0,0.1,0.4,0.3,0.9c0.1,0.3,0.2,0.6,0.2,1c0.2,1,0.3,2.1,0,2.9c0,0,2.3,0.7,4-2.2
					c0,0-0.8-3.1,0.2-5C408.4,288.3,402.7,292.7,402.7,292.7"/>
				<path class="st23" d="M398.1,285.8c0,0,2.5,2,5.1,1.9c2.7-0.2,4.4,2.9,4.4,2.9s4-4.5,0.8-8.2
					C405.2,278.6,397.6,281.2,398.1,285.8"/>
				<path class="st16" d="M404.4,287.6c0-0.5,0.6-1.1,1.4-0.5c0.8,0.6-0.3,2.8-1,2.6C404.2,289.5,404.4,288.1,404.4,287.6"/>
				<path class="st24" d="M402.9,293.6c0.1,0.3,0.2,0.6,0.2,1c2.1-1.2,3.2-2.7,3.2-2.7C405.1,292.9,402.9,293.6,402.9,293.6"/>
				<path class="st18" d="M396.8,304.8c0.5,2,1.7,2.1,1.7,3.6c-0.1,1.5-0.6,1.6,0.3,4c0.2,0.4,0.3,0.9,0.4,1.4c0,0.1,0,0.1,0,0.2
					c0.1,0.3,0.1,0.5,0.1,0.8c0.1,0.5,0.1,1,0.2,1.4c0.1,1.2-0.8,2.1-0.8,2.1s8.2,4.5,13.9,3.9c0,0-1.5-5.6-2.3-7.6
					c-0.8-1.9-0.6-10.9,0-12.8c0.9-2.8-0.9-7.1-3.3-7.6l-3.7,1.6c0,0-3.7,4.1-4.6,4.7C397.9,301,396.3,302.7,396.8,304.8"/>
				<path class="st18" d="M409.1,296.5c-1-0.8-2.6-2.2-4.8,0.5c-2.2,2.7-3.8,4.4-4.3,5.2c-0.5,0.8-4.6,6.3-4.6,6.3s-2.2-1.9-3.5-2.7
					c-1.4-1-5.3-4.7-5.3-4.7l-2.6,2.6c0,0,8.9,9,10.3,9.3c1.4,0.3,5.2-2.8,6.8-4.1c1.5-1.2,5.8-5.7,6.6-6.1
					C408.3,302.4,411.8,298.6,409.1,296.5"/>
				<path class="st24" d="M378.6,338.3c0.3,0.7,0.6,1.3,0.9,1.8c1-2.9,0.9-7.8,0.9-7.8C379.8,335.8,378.6,338.3,378.6,338.3"/>
				<rect x="393" y="328.2" class="st25" width="28.6" height="2.9"/>
				<path class="st25" d="M406.7,319c0,0,0.7,2.7-2.7,3.3c-3.4,0.6-7.6,1.4-7.6,6.2h11.8L406.7,319z"/>
				<polygon class="st16" points="389.3,290.1 388.8,289.2 388.7,290.2 				"/>
				<path class="st25" d="M421.6,331l10-38.3c0,0-18.1-2.6-20.2,4.8c-2.2,7.4-5.7,29.4-10,30.7C397,329.6,421.6,331,421.6,331"/>
				<path class="st21" d="M398.3,311.1c0,0,0.2,0.7,0.4,1.3l4.4-5.2L398.3,311.1z"/>
				<path class="st23" d="M409.4,287.2c0,0-1.7,4.2-1.3,5.3c0,0-2.7-1.1-2.2-3.8C406.4,286,409.4,287.2,409.4,287.2"/>
				<polygon class="st18" points="403.1,295.9 403.1,295.1 406.9,293.4 408.3,294.8 				"/>
				<defs>
					<filter id="Adobe_OpacityMaskFilter_2_" filterUnits="userSpaceOnUse" x="68" y="292.4" width="152.9" height="134.8">
						<feFlood  style="flood-color:white;flood-opacity:1" result="back"/>
						<feBlend  in="SourceGraphic" in2="back" mode="normal"/>
					</filter>
				</defs>
				<mask maskUnits="userSpaceOnUse" x="68" y="292.4" width="152.9" height="134.8" id="SVGID_18_">
					<g class="st26">
						<g class="st8">
							<g>
								<defs>
									<path id="SVGID_19_" d="M217.5,359.8c0,2.1-32.7,3.8-73.1,3.8c-40.4,0-73.1-1.7-73.1-3.8c0-2.1,32.7-3.8,73.1-3.8
										C184.8,355.9,217.5,357.6,217.5,359.8"/>
								</defs>
								<clipPath id="SVGID_20_" class="st6">
									<use xlink:href="#SVGID_19_"  style="overflow:visible;"/>
								</clipPath>
								<defs>
									<filter id="Adobe_OpacityMaskFilter_3_" filterUnits="userSpaceOnUse" x="68" y="292.4" width="152.9" height="134.8">
										<feFlood  style="flood-color:white;flood-opacity:1" result="back"/>
										<feBlend  in="SourceGraphic" in2="back" mode="normal"/>
									</filter>
								</defs>
								<mask maskUnits="userSpaceOnUse" x="68" y="292.4" width="152.9" height="134.8" id="SVGID_18_">
									<g class="st27">
										<g class="st8">
										</g>
									</g>
								</mask>
								
									<linearGradient id="SVGID_21_" gradientUnits="userSpaceOnUse" x1="-7.7554" y1="4.5134" x2="-6.7554" y2="4.5134" gradientTransform="matrix(-28.0276 -48.1601 -48.1601 28.0276 158.7788 -115.54)">
									<stop  offset="0" style="stop-color:#231F20"/>
									<stop  offset="0.6943" style="stop-color:#FFFFFF"/>
									<stop  offset="1" style="stop-color:#FFFFFF"/>
								</linearGradient>
								<polygon class="st28" points="108.3,427.2 68,357.9 180.5,292.4 220.8,361.7 								"/>
							</g>
						</g>
					</g>
				</mask>
				<g class="st11">
					<g>
						<defs>
							<rect id="SVGID_22_" x="71.3" y="355.9" width="146.2" height="7.7"/>
						</defs>
						<clipPath id="SVGID_23_">
							<use xlink:href="#SVGID_22_"  style="overflow:visible;"/>
						</clipPath>
						<g class="st29">
							<defs>
								<path id="SVGID_24_" d="M217.5,359.8c0,2.1-32.7,3.8-73.1,3.8c-40.4,0-73.1-1.7-73.1-3.8c0-2.1,32.7-3.8,73.1-3.8
									C184.8,355.9,217.5,357.6,217.5,359.8"/>
							</defs>
							<clipPath id="SVGID_25_">
								<use xlink:href="#SVGID_24_"  style="overflow:visible;"/>
							</clipPath>
							
								<linearGradient id="SVGID_26_" gradientUnits="userSpaceOnUse" x1="-7.7554" y1="4.5134" x2="-6.7554" y2="4.5134" gradientTransform="matrix(-28.0276 -48.1601 -48.1601 28.0276 158.7786 -115.5403)">
								<stop  offset="0" style="stop-color:#97CBEC"/>
								<stop  offset="0.6943" style="stop-color:#CCC2F5"/>
								<stop  offset="1" style="stop-color:#CCC2F5"/>
							</linearGradient>
							<polygon class="st30" points="108.3,427.2 68,357.9 180.5,292.4 220.8,361.7 							"/>
						</g>
					</g>
				</g>
				<path class="st31" d="M147,178.5c-1-0.3-1.9-0.8-2.5-1.6c-0.7-0.8-1-1.8-0.7-2.8c0.3-1.9,0.1-4-0.1-5.4
					c-2.1-2.3-2.8-5.4-1.9-8.3c1.5-4.8,7-7.5,12.3-6.1c5.2,1.4,8.3,6.4,6.7,11.2c-0.8,2.6-2.9,4.7-5.6,5.8c-1.1,1.7-1.9,3.2-2.4,4.6
					c-0.5,1.9-2.9,3.1-5.3,2.6C147.3,178.6,147.1,178.5,147,178.5 M153.7,155.1c-4.8-1.3-9.9,1.3-11.2,5.6c-0.8,2.7-0.2,5.5,1.8,7.7
					l0.1,0.1l0,0.1c0.2,1.5,0.5,3.7,0.1,5.7l0,0c-0.2,0.7,0,1.5,0.6,2.2c0.6,0.7,1.4,1.2,2.4,1.4c2,0.4,4-0.5,4.4-2.1l0,0l0,0
					c0.5-1.5,1.4-3.2,2.6-4.9l0.1-0.1l0.1,0c2.6-1,4.5-2.9,5.2-5.3C161.3,161,158.6,156.4,153.7,155.1"/>
				<polygon class="st31" points="145.9,175.1 146.9,165.3 148.7,167.4 150.4,166.2 151.2,167.8 153.7,166.6 150.2,176 149.4,175.7 
					152.2,168.1 150.9,168.8 150.1,167.3 148.5,168.4 147.5,167.2 146.7,175.2 				"/>
				<polygon class="st31" points="150.4,180.9 143.6,179.5 144.2,177 151,178.4 				"/>
				<polygon class="st31" points="151.8,180.1 142.7,178.3 143.7,174.2 152.7,176 				"/>
				<polygon class="st32" points="360.9,231.4 360.1,231.2 366.7,213.6 381.5,209.9 386.6,190.6 398,185.8 400.4,170.8 401.2,171 
					398.8,186.3 387.3,191.1 382.2,210.5 367.4,214.2 				"/>
				<path class="st33" d="M383.6,208.9c0.8,0.9,0.7,2.1-0.3,2.9c-0.9,0.7-2.4,0.6-3.1-0.3c-0.8-0.9-0.7-2.1,0.3-2.9
					C381.4,207.9,382.8,208,383.6,208.9"/>
				<path class="st32" d="M383.6,212c-1.1,0.9-2.8,0.7-3.7-0.3c-0.9-1-0.8-2.5,0.3-3.4c1.1-0.9,2.8-0.7,3.7,0.3
					C384.8,209.6,384.7,211.2,383.6,212 M380.7,208.9c-0.8,0.6-0.9,1.6-0.2,2.3c0.6,0.7,1.8,0.8,2.5,0.2c0.8-0.6,0.9-1.6,0.2-2.3
					C382.6,208.4,381.5,208.3,380.7,208.9"/>
				<path class="st33" d="M388.8,189.6c0.8,0.9,0.7,2.1-0.3,2.9c-0.9,0.7-2.4,0.6-3.1-0.3c-0.8-0.9-0.7-2.1,0.3-2.9
					C386.6,188.7,388,188.8,388.8,189.6"/>
				<path class="st32" d="M388.7,192.8c-1.1,0.9-2.8,0.7-3.7-0.3c-0.9-1-0.8-2.5,0.3-3.4c1.1-0.9,2.8-0.7,3.7,0.3
					C390,190.4,389.9,191.9,388.7,192.8 M385.9,189.7c-0.8,0.6-0.9,1.6-0.2,2.3c0.6,0.7,1.8,0.8,2.6,0.2c0.8-0.6,0.9-1.6,0.2-2.3
					C387.8,189.2,386.6,189.1,385.9,189.7"/>
				<path class="st33" d="M400,184.8c0.8,0.9,0.7,2.1-0.3,2.9c-0.9,0.7-2.3,0.6-3.1-0.3c-0.8-0.9-0.7-2.1,0.3-2.9
					C397.8,183.8,399.2,183.9,400,184.8"/>
				<path class="st32" d="M400,187.9c-1.1,0.9-2.8,0.7-3.7-0.3c-0.9-1-0.8-2.5,0.3-3.4c1.1-0.9,2.8-0.7,3.7,0.3
					S401.1,187.1,400,187.9 M397.1,184.8c-0.8,0.6-0.9,1.6-0.2,2.3c0.6,0.7,1.8,0.8,2.6,0.2c0.8-0.6,0.9-1.6,0.2-2.3
					C399,184.3,397.9,184.2,397.1,184.8"/>
				<path class="st33" d="M368.8,212.8c0.8,0.9,0.7,2.1-0.3,2.9s-2.4,0.6-3.1-0.3c-0.8-0.9-0.7-2.1,0.3-2.9
					C366.6,211.8,368.1,211.9,368.8,212.8"/>
				<path class="st32" d="M368.8,215.9c-1.1,0.9-2.8,0.7-3.7-0.3c-0.9-1-0.8-2.5,0.3-3.4c1.1-0.9,2.8-0.7,3.7,0.3
					C370.1,213.6,370,215.1,368.8,215.9 M366,212.8c-0.8,0.6-0.9,1.6-0.2,2.3c0.6,0.7,1.8,0.8,2.6,0.2c0.8-0.6,0.9-1.6,0.2-2.3
					C367.9,212.3,366.7,212.2,366,212.8"/>
			</g>
			<g class="st2">
				<defs>
					<path id="SVGID_27_" d="M256,140.3c-36.4,0.2-65.8,23.1-65.6,51.3c0,7.4,2.1,14.5,5.8,20.8c0,0,20.3,35.8,23.3,69.8
						c0.1,15.9,16.8,28.7,37.3,28.6c20.5-0.1,37.1-13.1,37-29c2.7-34,22.6-70,22.6-70c3.6-6.4,5.6-13.4,5.6-20.8
						c-0.2-28.1-29.6-50.7-65.8-50.7C256.3,140.3,256.1,140.3,256,140.3"/>
				</defs>
				<clipPath id="SVGID_28_">
					<use xlink:href="#SVGID_27_"  style="overflow:visible;"/>
				</clipPath>
				
					<radialGradient id="SVGID_29_" cx="0" cy="-4.3121" r="1" gradientTransform="matrix(127.0725 0 0 -115.9529 239.8974 -324.3435)" gradientUnits="userSpaceOnUse">
					<stop  offset="0" style="stop-color:#FFDD91"/>
					<stop  offset="7.772020e-03" style="stop-color:#FFDD91"/>
					<stop  offset="0.9948" style="stop-color:#FFE655"/>
					<stop  offset="1" style="stop-color:#FFE655"/>
				</radialGradient>
				<rect x="190.3" y="140.3" class="st34" width="131.9" height="170.6"/>
			</g>
			<g class="st2">
				<defs>
					<rect id="SVGID_30_" width="500" height="500"/>
				</defs>
				<clipPath id="SVGID_31_">
					<use xlink:href="#SVGID_30_"  style="overflow:visible;"/>
				</clipPath>
				<polygon class="st35" points="333.4,122.2 340.8,122.2 338.6,117.9 331.2,117.9 				"/>
				<polygon class="st35" points="330,122.2 331.7,122.2 329.5,117.9 327.7,117.9 				"/>
				<rect x="178" y="126.1" class="st36" width="18.9" height="1.2"/>
				<rect x="178" y="128.4" class="st36" width="18.9" height="5.1"/>
				<rect x="169.1" y="135.2" class="st36" width="11.2" height="0.8"/>
				<rect x="169.1" y="136.3" class="st36" width="11.2" height="2.1"/>
				<rect x="200" y="119.5" class="st37" width="0.8" height="14.3"/>
				<rect x="148" y="206.3" class="st38" width="14.9" height="2.5"/>
				<rect x="148" y="205.2" class="st38" width="14.9" height="0.5"/>
				<path class="st39" d="M341.1,203.5l-2.3-0.4c5.5-25.4,0.8-46-13.6-59.5c-10.9-10.2-23.7-12.9-23.8-12.9l0.5-2.1
					c0.5,0.1,13.5,2.8,24.9,13.5C337.3,151.7,348.3,170.3,341.1,203.5"/>
				<path class="st39" d="M183.9,235.5c-22.3-38.6-8.4-59.5-7.8-60.4l2,1.2c-0.1,0.2-13.8,20.9,7.8,58.2L183.9,235.5z"/>
				<path class="st40" d="M285.5,198.7c0.6-1.5,1-3,1.1-4.6l3.4-1.2l-0.7-3.5l-0.7-3.5l-3.6-0.1c-0.7-1.4-1.6-2.8-2.7-4l1.5-3
					l-3.2-2.1l-3.2-2.1l-2.6,2.3c-1.6-0.6-3.3-0.9-5-1l-1.3-3.1l-3.9,0.6l-3.9,0.6l-0.1,3.3c-1.6,0.6-3,1.5-4.4,2.5l-3.3-1.3
					l-2.3,2.9l-2.3,2.9l2.5,2.4c-0.6,1.5-1,3-1.1,4.6l-3.4,1.2l0.7,3.5l0.7,3.5l3.6,0.1c0.7,1.4,1.6,2.8,2.7,4l-1.5,3l3.2,2.1
					l3.2,2.1l2.6-2.3c1.6,0.6,3.3,0.9,5,1l1.3,3.1l3.9-0.6l3.9-0.6l0.1-3.3c1.6-0.6,3-1.5,4.4-2.5l3.3,1.3l2.3-2.9l2.3-2.9
					L285.5,198.7z M262.6,199.8c-4.3-2.8-5.4-8.3-2.3-12.3c3.1-4,9.1-4.9,13.4-2.1c4.3,2.8,5.4,8.3,2.3,12.3
					C273,201.7,267,202.6,262.6,199.8"/>
				<path class="st40" d="M250,217.8c0.4-0.9,0.6-1.9,0.7-2.9l2.1-0.7l-0.4-2.2l-0.4-2.2l-2.3-0.1c-0.4-0.9-1-1.7-1.7-2.5l0.9-1.9
					l-2-1.3l-2-1.3l-1.7,1.4c-1-0.4-2.1-0.6-3.2-0.7l-0.8-2l-2.5,0.4l-2.5,0.4l-0.1,2.1c-1,0.4-1.9,0.9-2.8,1.6l-2.1-0.9l-1.4,1.8
					l-1.4,1.8l1.6,1.5c-0.4,0.9-0.6,1.9-0.7,2.9l-2.1,0.7l0.4,2.2l0.4,2.2l2.3,0.1c0.4,0.9,1,1.7,1.7,2.5l-0.9,1.9l2,1.3l2,1.3
					l1.7-1.4c1,0.4,2.1,0.6,3.2,0.7l0.8,2l2.5-0.4l2.5-0.4l0.1-2.1c1-0.4,1.9-0.9,2.8-1.6l2.1,0.8l1.4-1.8l1.4-1.8L250,217.8z
					 M235.5,218.6c-2.7-1.8-3.4-5.3-1.4-7.8c2-2.5,5.8-3.1,8.5-1.3c2.7,1.8,3.4,5.3,1.4,7.8C242.1,219.7,238.3,220.3,235.5,218.6"/>
				<g class="st41">
					<g>
						<defs>
							<rect id="SVGID_32_" x="180.3" y="129.5" width="153.6" height="169"/>
						</defs>
						<clipPath id="SVGID_33_">
							<use xlink:href="#SVGID_32_"  style="overflow:visible;"/>
						</clipPath>
						<g class="st42">
							<defs>
								<path id="SVGID_34_" d="M186.3,298.5c0,0-36.7-171.3,71.3-169c108.1,2.4,69.6,168.9,69.6,168.9L186.3,298.5z"/>
							</defs>
							<clipPath id="SVGID_35_">
								<use xlink:href="#SVGID_34_"  style="overflow:visible;"/>
							</clipPath>
							
								<linearGradient id="SVGID_36_" gradientUnits="userSpaceOnUse" x1="0" y1="-3.2478" x2="1" y2="-3.2478" gradientTransform="matrix(153.5897 0 0 -153.5897 180.3167 -285.9786)">
								<stop  offset="0" style="stop-color:#E0E0E0"/>
								<stop  offset="1" style="stop-color:#FF556F"/>
							</linearGradient>
							<rect x="149.6" y="127.2" class="st43" width="216.1" height="171.3"/>
						</g>
					</g>
				</g>
				<defs>
					<filter id="Adobe_OpacityMaskFilter_4_" filterUnits="userSpaceOnUse" x="233.7" y="238.5" width="11.2" height="66.3">
						<feFlood  style="flood-color:white;flood-opacity:1" result="back"/>
						<feBlend  in="SourceGraphic" in2="back" mode="normal"/>
					</filter>
				</defs>
				<mask maskUnits="userSpaceOnUse" x="233.7" y="238.5" width="11.2" height="66.3" id="SVGID_37_">
					<g class="st44">
						<g class="st8">
							<g>
								<defs>
									<polygon id="SVGID_38_" points="245,304.6 242.9,304.8 233.7,238.8 235.8,238.5 									"/>
								</defs>
								<clipPath id="SVGID_39_" class="st45">
									<use xlink:href="#SVGID_38_"  style="overflow:visible;"/>
								</clipPath>
								<defs>
									<filter id="Adobe_OpacityMaskFilter_5_" filterUnits="userSpaceOnUse" x="233.7" y="238.5" width="11.2" height="66.3">
										<feFlood  style="flood-color:white;flood-opacity:1" result="back"/>
										<feBlend  in="SourceGraphic" in2="back" mode="normal"/>
									</filter>
								</defs>
								<mask maskUnits="userSpaceOnUse" x="233.7" y="238.5" width="11.2" height="66.3" id="SVGID_37_">
									<g class="st46">
										<g class="st8">
										</g>
									</g>
								</mask>
								
									<linearGradient id="SVGID_40_" gradientUnits="userSpaceOnUse" x1="6.8351" y1="-3.233165e-06" x2="7.8351" y2="-3.233165e-06" gradientTransform="matrix(0 73.1516 73.1516 0 239.3657 -287.9316)">
									<stop  offset="0" style="stop-color:#231F20"/>
									<stop  offset="7.772020e-03" style="stop-color:#231F20"/>
									<stop  offset="1" style="stop-color:#FFFFFF"/>
								</linearGradient>
								<rect x="233.7" y="238.5" class="st47" width="11.2" height="66.3"/>
							</g>
						</g>
					</g>
				</mask>
				<g class="st45">
					<g>
						<defs>
							<rect id="SVGID_41_" x="233.7" y="238.5" width="11.2" height="66.3"/>
						</defs>
						<clipPath id="SVGID_42_">
							<use xlink:href="#SVGID_41_"  style="overflow:visible;"/>
						</clipPath>
						<g class="st48">
							<defs>
								<polygon id="SVGID_43_" points="245,304.6 242.9,304.8 233.7,238.8 235.8,238.5 								"/>
							</defs>
							<clipPath id="SVGID_44_">
								<use xlink:href="#SVGID_43_"  style="overflow:visible;"/>
							</clipPath>
							
								<linearGradient id="SVGID_45_" gradientUnits="userSpaceOnUse" x1="6.8351" y1="-1.355844e-06" x2="7.8351" y2="-1.355844e-06" gradientTransform="matrix(0 73.1516 73.1516 0 239.3656 -287.9317)">
								<stop  offset="0" style="stop-color:#FFDD91"/>
								<stop  offset="7.772020e-03" style="stop-color:#FFDD91"/>
								<stop  offset="1" style="stop-color:#FFFFFF"/>
							</linearGradient>
							<rect x="233.7" y="238.5" class="st49" width="11.2" height="66.3"/>
						</g>
					</g>
				</g>
				<defs>
					<filter id="Adobe_OpacityMaskFilter_6_" filterUnits="userSpaceOnUse" x="272.3" y="238.3" width="10.5" height="66.3">
						<feFlood  style="flood-color:white;flood-opacity:1" result="back"/>
						<feBlend  in="SourceGraphic" in2="back" mode="normal"/>
					</filter>
				</defs>
				<mask maskUnits="userSpaceOnUse" x="272.3" y="238.3" width="10.5" height="66.3" id="SVGID_46_">
					<g class="st50">
						<g class="st8">
							<g>
								<defs>
									<polygon id="SVGID_47_" points="272.3,304.4 274.4,304.6 282.8,238.5 280.7,238.3 									"/>
								</defs>
								<clipPath id="SVGID_48_" class="st45">
									<use xlink:href="#SVGID_47_"  style="overflow:visible;"/>
								</clipPath>
								<defs>
									<filter id="Adobe_OpacityMaskFilter_7_" filterUnits="userSpaceOnUse" x="272.3" y="238.3" width="10.5" height="66.3">
										<feFlood  style="flood-color:white;flood-opacity:1" result="back"/>
										<feBlend  in="SourceGraphic" in2="back" mode="normal"/>
									</filter>
								</defs>
								<mask maskUnits="userSpaceOnUse" x="272.3" y="238.3" width="10.5" height="66.3" id="SVGID_46_">
									<g class="st51">
										<g class="st8">
										</g>
									</g>
								</mask>
								
									<linearGradient id="SVGID_49_" gradientUnits="userSpaceOnUse" x1="6.8351" y1="-5.840504e-06" x2="7.8351" y2="-5.840504e-06" gradientTransform="matrix(0 73.1523 73.1523 0 277.5444 -287.9321)">
									<stop  offset="0" style="stop-color:#231F20"/>
									<stop  offset="7.772020e-03" style="stop-color:#231F20"/>
									<stop  offset="1" style="stop-color:#FFFFFF"/>
								</linearGradient>
								<rect x="272.3" y="238.3" class="st52" width="10.5" height="66.3"/>
							</g>
						</g>
					</g>
				</mask>
				<g class="st45">
					<g>
						<defs>
							<rect id="SVGID_50_" x="272.3" y="238.3" width="10.5" height="66.3"/>
						</defs>
						<clipPath id="SVGID_51_">
							<use xlink:href="#SVGID_50_"  style="overflow:visible;"/>
						</clipPath>
						<g class="st53">
							<defs>
								<polygon id="SVGID_52_" points="272.3,304.4 274.4,304.6 282.8,238.5 280.7,238.3 								"/>
							</defs>
							<clipPath id="SVGID_53_">
								<use xlink:href="#SVGID_52_"  style="overflow:visible;"/>
							</clipPath>
							
								<linearGradient id="SVGID_54_" gradientUnits="userSpaceOnUse" x1="6.8351" y1="-1.042947e-06" x2="7.8351" y2="-1.042947e-06" gradientTransform="matrix(0 73.1523 73.1523 0 277.5436 -287.9322)">
								<stop  offset="0" style="stop-color:#FFDD91"/>
								<stop  offset="7.772020e-03" style="stop-color:#FFDD91"/>
								<stop  offset="1" style="stop-color:#FFFFFF"/>
							</linearGradient>
							<rect x="272.3" y="238.3" class="st54" width="10.5" height="66.3"/>
						</g>
					</g>
				</g>
				<defs>
					<filter id="Adobe_OpacityMaskFilter_8_" filterUnits="userSpaceOnUse" x="234.7" y="239.7" width="47.3" height="9">
						<feFlood  style="flood-color:white;flood-opacity:1" result="back"/>
						<feBlend  in="SourceGraphic" in2="back" mode="normal"/>
					</filter>
				</defs>
				<mask maskUnits="userSpaceOnUse" x="234.7" y="239.7" width="47.3" height="9" id="SVGID_55_">
					<g class="st55">
						<g class="st8">
							<g>
								<defs>
									<polygon id="SVGID_56_" points="273.7,248.7 265.8,241.6 258.1,248.7 250.5,241.8 243,248.6 234.7,241.1 235.8,240.2 
										243,246.8 250.5,239.9 258.1,246.8 265.8,239.7 273.7,246.9 281,240.2 282,241.1 									"/>
								</defs>
								<clipPath id="SVGID_57_" class="st45">
									<use xlink:href="#SVGID_56_"  style="overflow:visible;"/>
								</clipPath>
								<defs>
									<filter id="Adobe_OpacityMaskFilter_9_" filterUnits="userSpaceOnUse" x="234.7" y="239.7" width="47.3" height="9">
										<feFlood  style="flood-color:white;flood-opacity:1" result="back"/>
										<feBlend  in="SourceGraphic" in2="back" mode="normal"/>
									</filter>
								</defs>
								<mask maskUnits="userSpaceOnUse" x="234.7" y="239.7" width="47.3" height="9" id="SVGID_55_">
									<g class="st56">
										<g class="st8">
										</g>
									</g>
								</mask>
								
									<linearGradient id="SVGID_58_" gradientUnits="userSpaceOnUse" x1="6.8349" y1="2.711581e-06" x2="7.8349" y2="2.711581e-06" gradientTransform="matrix(0 73.1545 73.1545 0 258.3838 -287.9331)">
									<stop  offset="0" style="stop-color:#231F20"/>
									<stop  offset="7.772020e-03" style="stop-color:#231F20"/>
									<stop  offset="1" style="stop-color:#FFFFFF"/>
								</linearGradient>
								<rect x="234.7" y="239.7" class="st57" width="47.3" height="9"/>
							</g>
						</g>
					</g>
				</mask>
				<g class="st45">
					<g>
						<defs>
							<rect id="SVGID_59_" x="234.7" y="239.7" width="47.3" height="9"/>
						</defs>
						<clipPath id="SVGID_60_">
							<use xlink:href="#SVGID_59_"  style="overflow:visible;"/>
						</clipPath>
						<g class="st58">
							<defs>
								<polygon id="SVGID_61_" points="273.7,248.7 265.8,241.6 258.1,248.7 250.5,241.8 243,248.6 234.7,241.1 235.8,240.2 
									243,246.8 250.5,239.9 258.1,246.8 265.8,239.7 273.7,246.9 281,240.2 282,241.1 								"/>
							</defs>
							<clipPath id="SVGID_62_">
								<use xlink:href="#SVGID_61_"  style="overflow:visible;"/>
							</clipPath>
							
								<linearGradient id="SVGID_63_" gradientUnits="userSpaceOnUse" x1="6.8349" y1="9.386240e-07" x2="7.8349" y2="9.386240e-07" gradientTransform="matrix(0 73.1545 73.1545 0 258.3839 -287.933)">
								<stop  offset="0" style="stop-color:#FFDD91"/>
								<stop  offset="7.772020e-03" style="stop-color:#FFDD91"/>
								<stop  offset="1" style="stop-color:#FFFFFF"/>
							</linearGradient>
							<rect x="234.7" y="239.7" class="st59" width="47.3" height="9"/>
						</g>
					</g>
				</g>
				<path class="st60" d="M278.1,328.8l-42.2,0.2c-4.7,0-8.5-3.4-8.5-7.7l-0.1-15.1l59.1-0.3l0.1,15.1
					C286.5,325.3,282.7,328.8,278.1,328.8"/>
			</g>
			<g class="st2">
				<defs>
					<path id="SVGID_64_" d="M217.7,282.8l0.1,25.2c0,6.4,5.8,11.6,12.8,11.6l52.7-0.2c7,0,12.7-5.3,12.7-11.7l-0.1-25.2
						L217.7,282.8z"/>
				</defs>
				<clipPath id="SVGID_65_">
					<use xlink:href="#SVGID_64_"  style="overflow:visible;"/>
				</clipPath>
				
					<linearGradient id="SVGID_66_" gradientUnits="userSpaceOnUse" x1="3.314138e-06" y1="-6.3883" x2="1.0004" y2="-6.3883" gradientTransform="matrix(78.2706 0 0 -78.2706 217.6557 -198.9438)">
					<stop  offset="0" style="stop-color:#40D5E6"/>
					<stop  offset="1" style="stop-color:#5577FF"/>
				</linearGradient>
				<rect x="217.7" y="282.5" class="st61" width="78.3" height="37.2"/>
			</g>
			<g class="st2">
				<defs>
					<rect id="SVGID_67_" x="186.3" y="298.4" width="140.9" height="40.2"/>
				</defs>
				<clipPath id="SVGID_68_">
					<use xlink:href="#SVGID_67_"  style="overflow:visible;"/>
				</clipPath>
				
					<linearGradient id="SVGID_69_" gradientUnits="userSpaceOnUse" x1="0" y1="2.1927" x2="1" y2="2.1927" gradientTransform="matrix(228.0275 0 0 228.0275 150.152 -181.4762)">
					<stop  offset="0" style="stop-color:#FF9F55"/>
					<stop  offset="1" style="stop-color:#FFD255"/>
				</linearGradient>
				<rect x="186.3" y="298.4" class="st62" width="140.9" height="40.2"/>
			</g>
			<g class="st2">
				<defs>
					<polygon id="SVGID_70_" points="276,298.4 248.4,338.2 327.3,338.6 327.3,298.4 					"/>
				</defs>
				<clipPath id="SVGID_71_">
					<use xlink:href="#SVGID_70_"  style="overflow:visible;"/>
				</clipPath>
				
					<linearGradient id="SVGID_72_" gradientUnits="userSpaceOnUse" x1="0" y1="7.478" x2="1" y2="7.478" gradientTransform="matrix(66.8631 0 0 66.8631 234.021 -181.4762)">
					<stop  offset="0" style="stop-color:#FF9F55"/>
					<stop  offset="1" style="stop-color:#FFD255"/>
				</linearGradient>
				<rect x="248.4" y="298.4" class="st63" width="78.8" height="40.2"/>
			</g>
			<g class="st2">
				<defs>
					<rect id="SVGID_73_" width="500" height="500"/>
				</defs>
				<clipPath id="SVGID_74_">
					<use xlink:href="#SVGID_73_"  style="overflow:visible;"/>
				</clipPath>
				<rect x="189.1" y="280" class="st64" width="1.7" height="71.1"/>
				<path class="st65" d="M191.3,339.4H149c-3.9,0-7.1-3.2-7.1-7.1v-74.9c0-3.9,3.2-7.1,7.1-7.1h42.3c3.9,0,7.1,3.2,7.1,7.1v74.9
					C198.4,336.2,195.2,339.4,191.3,339.4"/>
				<path class="st66" d="M189.8,335.9h-39.3c-3.9,0-7-3.1-7-7v-70.2c0-3.9,3.1-7,7-7h39.3c3.9,0,7,3.1,7,7v70.2
					C196.8,332.8,193.7,335.9,189.8,335.9"/>
				<rect x="161.8" y="249.6" class="st64" width="16.8" height="3.5"/>
				<path class="st67" d="M154.6,269.7c0-7.2,6.5-13.1,14.4-13.1v0.6c-7.6,0-13.8,5.6-13.8,12.6c0,7.6,7.3,13.4,15.4,12.5
					c6.8-0.8,12.1-6,12.1-12.5c0-0.6,0-1.2-0.1-1.8l0.6-0.1c0.1,0.6,0.2,1.3,0.2,1.9c0,6.7-5.5,12.3-12.6,13
					C162.3,283.8,154.6,277.7,154.6,269.7"/>
				<path class="st68" d="M136.4,311.2c0,0,0.4,0.6,0.4,1.1c0,0.4,0.4,0.9,0.5,1.2c0.1,0.3,0.6,1.7,0.6,2.1c0,0.1-0.4,1.1-0.3,1.4
					c0.1,0.3,0.2,0.9-0.1,0.9c-0.3,0-0.6-0.4-0.6-0.4s0,0.3-0.2,0.4c-0.5,0.2-0.7,0-0.7,0s-0.2,0.3-0.4,0.3
					c-0.5,0.1-0.7-0.1-0.7-0.1s-0.2,0.2-0.6,0.2c-0.4,0-0.6-0.4-0.6-0.4s-0.6,0.1-0.7-0.1c-0.2-0.2-0.1-0.5-0.2-0.7
					c-0.1-0.2,0-2.1,0.7-3.5c0.7-1.4-0.2-2.7-0.2-2.7L136.4,311.2z"/>
				<path class="st69" d="M137.1,317.2c0,0,0-1.7-0.5-2.1c-0.5-0.4-0.6,0.3-0.6,0.3s0.1-0.6-0.5-0.7c-0.5-0.1-0.6,0.7-0.6,0.7
					s-0.1-0.5-0.7-0.4c-0.6,0.1-0.4,0.7-0.4,0.7s-0.5-0.6-0.9,0c-0.6,1-0.1,2.1-0.1,2.1s0.2,0.3,0.7,0.1c0,0,0.4,0.7,1.2,0.2
					c0,0,0.8,0.4,1.1-0.3C136,317.8,137,318.2,137.1,317.2"/>
				<path class="st70" d="M142.8,286.2c0,0-3.2,9.9-4.3,13.5c-0.3,1.1-1.2,12.1-1.3,12.5c-0.1,0.4-4.3,1-4.3,1s0.5-13.7,0.5-14.4
					c0-0.7,4.5-16,5.9-16.5c1-0.4,1.5-0.1,2.7,0.8C143.7,284.3,142.8,286.2,142.8,286.2"/>
				<polygon class="st71" points="174.8,272.9 174.5,272.4 181.9,267.9 182.3,268.5 				"/>
				<path class="st72" d="M183.1,270.5c0,0-0.1,0.4-0.2,0.5c0,0-0.2,0.3-0.4,0.5c-0.1,0.1-0.1,0.1-0.1,0.2c-0.1,0.2-0.3,0.5-0.6,0.9
					c-0.4,0.3-1.7,1.4-1.7,1.4l-1.2-0.9l-1.2-0.5c0,0,0.7-2.7,1-3.1c0,0,0.1-0.1,0.1-0.1c0.3-0.3,0.6-0.4,0.8-0.5
					c0.1,0,0.7-0.5,0.9-0.4c0.3,0.1,0.5,0.2,0.6,0.4c0,0,0.6,0.2,0.8,0.5c0,0,0.6,0.1,0.7,0.6C182.5,270,183,270.2,183.1,270.5"/>
				<path class="st73" d="M140.2,353.7c0,0-0.3,1.9-0.3,2.2c0,0.3-3.3-0.2-3.3-0.2l-0.3-2.2C136.3,353.4,139.7,353.4,140.2,353.7"/>
				<path class="st74" d="M139.9,355.6c0,0,1,1.1,2,1.6c1,0.5,2.6,0.7,3.2,1.2c0.4,0.4,1.6,2-2.6,1.9c-4.1,0-6.1,0.2-6.6-0.4
					c-0.4-0.6,0.6-4.5,0.6-4.5S137.5,355.8,139.9,355.6"/>
				<path class="st73" d="M163.5,353.7c0,0-0.3,1.9-0.3,2.2c0,0.3-3.3-0.2-3.3-0.2l-0.3-2.2C159.6,353.4,163.1,353.4,163.5,353.7"/>
				<path class="st74" d="M163.2,355.6c0,0,1,1.1,2,1.6c1,0.5,4.7,0.9,5.3,1.4c0.4,0.4,1.1,1.9-4.7,1.7c-4.1-0.1-6.1,0.2-6.6-0.4
					c-0.4-0.6,0.6-4.5,0.6-4.5S160.8,355.8,163.2,355.6"/>
				<path class="st74" d="M142.8,305.5c0,0-3.1,4.4-2.8,8.4c0.2,4-1.1,8.4-1.6,12.6c-0.5,4.7-2.6,15.7-2.7,18.2
					c-0.1,2.5,0.3,10.5,0.3,10.5l4.2,0.1c0,0,3.5-19.3,4.4-21.3c0.9-2,5.4-16,5.6-17.6C150.5,314.8,142.8,305.5,142.8,305.5"/>
				<path class="st74" d="M159,306.1c0,0,2.3,11,2.6,13.4c0.3,2.5,0.5,11.9,0.7,13.4c0.2,1.5,1.4,20,1.8,22.4h-5.4
					c0,0-4.1-13.5-4.1-19.9c0-6.4-3.2-13.9-5.2-18.1c-2.1-4.2-6.8-4.3-8-12.1C141.3,305.3,157.2,303.6,159,306.1"/>
				<path class="st68" d="M148,268.2c0,0,4.1-1.4,6,1.5c1.9,2.9,1.7,8.6-0.4,9.3c-2.1,0.7-5.2,0.3-6.2-1.5c-1.1-1.8-2-4.4-2-6.1
					C145.4,269.6,146.9,268.7,148,268.2"/>
				<path class="st68" d="M153.2,279c0,0-0.2,1,0.1,1.5c0.3,0.5-5.3,0.5-5.3,0.5s-0.5-2.7-1.3-5C145.8,273.8,153.2,279,153.2,279"/>
				<path class="st74" d="M146.6,276.1c0,0,0.4,0.6,2,0.4c1.6-0.2,3.5-2.1,4.2-2.4c0.7-0.2,0.7-0.6,0.7-0.6l0.4,0.6l0.7,0
					c0,0-0.6-1.7,0.3-2.4c1-0.7-1-5.5-6.1-3.9c0,0-3.9,1-3.7,3C145.2,272.8,145.8,275.1,146.6,276.1"/>
				<path class="st75" d="M153.6,280.5c0,0,0-1-0.5-1c-0.5-0.1-5.2-0.5-5.8-0.3v1.1C147.3,280.3,148.4,280.9,153.6,280.5"/>
				<path class="st68" d="M153.3,272.8c-0.1-0.3-1-1.3-1.4-0.3c-0.4,1,0.5,2.4,1.1,2.3C153.5,274.7,153.5,273.6,153.3,272.8"/>
				<path class="st70" d="M161.4,281.9c-3.3-0.4-7.9-1.4-7.9-1.4l-6.3-0.2c0,0-5.8,1.2-8.1,2.1c-0.2,0.1-0.2,4.7-0.8,5.9l1.9,3.6
					c0,0,1.1,7.2,1.3,10.4c0.1,1.5-2.2,13.8-2.2,13.8s2.5,0.7,6.8,1.1c4.3,0.4,15-0.2,15.1-0.6c0.1-0.5-2.1-17.2-2.2-18.1
					c-0.1-1.3,0.5-8.4,0.5-8.4c1-0.7,9.7-4.4,12.1-6.3c0.6-0.5,3.3-2.9,4.1-3.7c2.7-2.9,4.9-5.4,5.2-6c0.3-0.3-3-2-3.3-2.1
					c-0.3-0.1-3.8,4.3-5.2,5.7c-0.6,0.6-3.2,2.3-3.2,2.3S163.5,282,161.4,281.9"/>
				<path class="st74" d="M146.8,268.5c0,0-5.2,0.4-0.2,7.5L146.8,268.5z"/>
				<polygon class="st76" points="182.3,268.5 182.7,267.9 181.9,267.9 				"/>
				<polygon class="st77" points="436.8,256 412.3,256 412.3,272.2 412.3,275.6 416.1,272.2 436.8,272.2 				"/>
				<path class="st78" d="M98.8,355.7c0,0-0.8,1.3-1.3,1.8c-0.5,0.5-2.4,1.4-2.4,2.9c0,1.6,3.2,1.2,4.4,1.1c1.3-0.1,1.3-0.9,1.9-1.9
					c0.5-0.9,1.1-0.8,1.2-1.5c0.1-0.8-0.5-2.5-0.5-2.5H98.8z"/>
				<path class="st79" d="M117.8,311.8c0,0-3.5-7.5-4-9.3c-0.2-0.8-0.7-2.9-1.1-4.6c-0.1-0.6-0.2-1.1-0.3-1.7v0
					c-0.3-2.3-0.4-4.3-0.4-4.3s-1.9-5.9,2.1-6.2c0,0,1.4,0.5,1.5,0.6c0.7,1.4,0.9,5.1,1,5.9c0,0.6,1.1,7.2,1.1,7.4
					c0,0.4,1.1,2.8,1.7,4.5c1.2,3.8,1.9,6.8,1.9,6.8L117.8,311.8z"/>
				<rect x="109.8" y="298.7" class="st80" width="18.1" height="14.4"/>
				<rect x="121.6" y="306.2" class="st81" width="1" height="4.4"/>
				<rect x="123" y="307.3" class="st81" width="1" height="3.3"/>
				<rect x="124.3" y="305.6" class="st81" width="1" height="5"/>
				<path class="st68" d="M123.7,312.3c0,0-0.1,1.9-1.3,2.3c-1.1,0.3-2.4,0-2.9-0.3c-0.5-0.3-1.9-1.2-1.4-1.7
					C119.8,310.9,123.7,312.3,123.7,312.3"/>
				<path class="st68" d="M123.2,314.1c0,0,1.4,0.1,1.4-0.5c-0.1-0.6-1.1-0.3-1.1-0.3L123.2,314.1z"/>
				<rect x="117.2" y="307.2" class="st81" width="1" height="3.4"/>
				<rect x="118.6" y="306.9" class="st81" width="1" height="3.7"/>
				<rect x="120.1" y="307.6" class="st81" width="1" height="3"/>
				<rect x="115.7" y="307.6" class="st81" width="1" height="3"/>
				<path class="st81" d="M112.1,305.4C112.2,305.4,112.2,305.4,112.1,305.4L112.1,305.4l-1.1,0.7l0,0L112.1,305.4L112.1,305.4z"/>
				<path class="st81" d="M116,305.6C116,305.6,116,305.6,116,305.6L116,305.6l-3.1-0.3l0,0c0,0,0,0,0,0l0,0L116,305.6L116,305.6z"
					/>
				<path class="st81" d="M119.1,303.5L119.1,303.5l-2.3,1.9l0,0c0,0,0,0,0,0l0,0L119.1,303.5L119.1,303.5
					C119.1,303.4,119.1,303.5,119.1,303.5"/>
				<path class="st81" d="M122.8,303.2C122.8,303.2,122.8,303.2,122.8,303.2l-3.1,0c0,0,0,0,0,0c0,0,0,0,0,0L122.8,303.2
					C122.8,303.2,122.8,303.2,122.8,303.2"/>
				<path class="st81" d="M125.5,301l-2,2l0,0c0,0,0,0,0,0l0,0L125.5,301L125.5,301z"/>
				<path class="st81" d="M112.5,304.8c-0.2,0-0.4,0.2-0.4,0.4c0,0.1,0,0.1,0.1,0.2c0,0,0,0,0,0c0.1,0.1,0.2,0.2,0.3,0.2
					c0.2,0,0.4-0.1,0.4-0.3c0,0,0,0,0,0c0,0,0,0,0,0C112.9,305,112.7,304.8,112.5,304.8 M112.8,305.3c0,0.2-0.2,0.3-0.4,0.3
					c-0.1,0-0.2-0.1-0.3-0.1c0,0,0,0,0,0c0-0.1-0.1-0.1-0.1-0.2c0-0.2,0.2-0.3,0.4-0.3S112.9,305,112.8,305.3L112.8,305.3
					C112.9,305.2,112.9,305.3,112.8,305.3"/>
				<path class="st81" d="M116.7,305.4C116.7,305.4,116.7,305.4,116.7,305.4c-0.1-0.1-0.2-0.1-0.3-0.1c-0.2,0-0.4,0.1-0.4,0.3
					c0,0,0,0,0,0c0,0,0,0,0,0c0,0.2,0.2,0.4,0.4,0.4c0.2,0,0.4-0.2,0.4-0.4C116.8,305.5,116.8,305.5,116.7,305.4 M116.4,306
					c-0.2,0-0.4-0.2-0.4-0.3c0,0,0,0,0,0c0,0,0,0,0,0c0-0.2,0.2-0.3,0.4-0.3c0.1,0,0.2,0,0.3,0.1c0,0,0,0,0,0
					c0.1,0.1,0.1,0.1,0.1,0.2C116.8,305.8,116.6,306,116.4,306"/>
				<path class="st81" d="M119.8,303.2c0-0.2-0.2-0.4-0.4-0.4c-0.2,0-0.4,0.2-0.4,0.4c0,0.1,0,0.2,0.1,0.2c0,0,0,0,0,0
					c0.1,0.1,0.2,0.1,0.3,0.1C119.6,303.6,119.8,303.4,119.8,303.2C119.8,303.2,119.8,303.2,119.8,303.2
					C119.8,303.2,119.8,303.2,119.8,303.2 M119.3,303.6c-0.1,0-0.2,0-0.3-0.1c0,0,0,0,0,0c-0.1-0.1-0.1-0.1-0.1-0.2
					c0-0.2,0.2-0.3,0.4-0.3c0.2,0,0.4,0.1,0.4,0.3c0,0,0,0,0,0c0,0,0,0,0,0C119.7,303.4,119.5,303.6,119.3,303.6"/>
				<path class="st81" d="M123.5,302.9C123.5,302.9,123.5,302.9,123.5,302.9c-0.1-0.1-0.2-0.1-0.3-0.1c-0.2,0-0.4,0.2-0.4,0.4
					c0,0,0,0,0,0c0,0,0,0,0,0c0,0.2,0.2,0.4,0.4,0.4c0.2,0,0.4-0.2,0.4-0.4C123.6,303.1,123.6,303,123.5,302.9 M123.2,303.6
					c-0.2,0-0.4-0.1-0.4-0.3c0,0,0,0,0,0c0,0,0,0,0,0c0-0.2,0.2-0.3,0.4-0.3c0.1,0,0.2,0,0.2,0.1c0,0,0,0,0,0
					c0.1,0.1,0.1,0.1,0.1,0.2C123.6,303.4,123.4,303.6,123.2,303.6"/>
				<path class="st68" d="M89.2,312c0,0-0.6,1-1.4,1c-0.6,0-1.5,0.4-1.7,0.5c-0.3,0.2-1.6,0.3-1.4,0.6c0.2,0.4,2.1-0.1,2.5-0.2
					c0.4,0-0.7,1.3-0.6,1.7c0,0.4,2.6,1.7,3.2,0.7c0.6-1,0.5-2.3,0.7-2.5c0.1-0.2,0.5-0.7,0.5-0.7L89.2,312z"/>
				<path class="st68" d="M86.7,315.3c0,0-1.7,3.1-1.6,3.4s0.3,0.3,0.5,0.1c0.2-0.3,1.7-3,1.7-3S86,319.7,86,320
					c0,0.1,0.4,0.3,0.5,0.1c0.1-0.1,1.6-4,1.6-4S87,319.8,87,320c0.1,0.2,0.5,0.2,0.6,0c0.1-0.3,1.4-3.6,1.4-3.6s-0.7,2.7-0.5,2.8
					c0.1,0.1,0.4,0.2,0.6-0.5c0.1-0.7,0.7-2.3,0.7-2.3L86.7,315.3z"/>
				<path class="st78" d="M117.9,355.5c0,0,1.5,1.6,3.1,1.9c1.6,0.3,2.7,0.7,2.7,1.7c0,0.9-4.5,1.5-6.3,0.6
					c-2.7-1.4-2.9-0.9-3.2-1.6c-0.3-0.7,0.4-2.5,0.3-2.7C114.5,355,117.9,355.5,117.9,355.5"/>
				<path class="st82" d="M117.7,354.7c0,0,0.2,0.7,0.2,0.8c0,0-3.5,0.4-3.4-0.2c0.1-0.5,0.2-1,0.2-1L117.7,354.7z"/>
				<path class="st82" d="M102.1,355.2c0,0,0.1,0.7,0.1,0.7c0,0-3.5,0.6-3.5,0c0-0.5,0.3-1,0.3-1L102.1,355.2z"/>
				<path class="st74" d="M114.6,310.7c0,0,1.3,11.3,1.9,15.1c0.8,4.5,1,8.2,1.3,10.6c0.3,2.9,0.3,17.4,0.5,18.3
					c0.2,0.9-4.2,0.2-4.2,0.2s-2.2-18.9-3-22c-0.8-2.9-3.5-15.5-4.2-14.7c-0.7,0.8-1.5,14.6-2,16.9c-0.5,2.3-2.1,20.3-2.1,20.3
					s-3.5,0.6-4.4-0.1c0,0-0.4-15.5-0.1-19.8c0.1-1.6-2.1-19.7,0.8-27C100.4,304.7,114.6,310.7,114.6,310.7"/>
				<path class="st83" d="M89.7,312.2c0,0,1,1,1.9,0.9c0.9-0.1,4.7-10.6,4.7-12.7c0-1.7,1-6.2,1-6.2s0,0,0,0c0,0,0,0,0,0
					c0,0,0,0,0,0c0.1,0.3,1.5,5,1.5,7.2c0,2.3-0.2,10.3-0.2,10.3l3.4,0.8l10.9,0.1l2.5-0.9c0,0-0.3-2.6-0.4-4.4
					c-0.1-1.1-0.3-3.2-0.2-5.2c0,0,0-2.1,0.2-3c0-4,0.3-8,0.3-8c0.1-1.8,0.3-3.5,0.3-5.1c-0.5-0.2-1.1-0.5-1.5-0.7
					c-1.4-0.6-3.4-1.5-4.7-2c-0.7-0.3-1.5-0.5-1.5-0.5s-5.1-0.4-5.5-0.4c-0.1,0-0.8,0.2-1.6,0.5c-1.8,0.6-5.3,1.9-5.9,2.3
					c-0.8,0.5-2.5,13.2-2.6,14.1C92.2,300.9,89.7,312.2,89.7,312.2"/>
				<path class="st84" d="M115.1,310.9c0,0-7.5,0.6-14,0v2c0,0,9.8,0.8,14.3-0.4L115.1,310.9z"/>
				<path class="st79" d="M108.7,283.2c0,0,1.2,2.6,2.1,8.4c0.4,2.2,1,6,1.5,9.8v0c0.4,3,1.2,6.1,1.5,8.5c0.3,2.4,1.1,9.5,1.1,9.5
					l2-1.2c0.3-0.2,0.7-0.6,0.6-0.9c-0.6-1.7-1.6-7.1-2.3-11.9c0,0,0,0,0,0c0-0.2-0.1-0.5-0.1-0.7c0,0,0,0,0,0
					c-0.1-1-0.2-1.9-0.3-2.7c-0.1-0.6,0-1.3,0.1-1.9c0.3-4.3,0.4-8.8,0.4-8.8c0.2-1.8,0.2-3.6,0.3-5.2
					C115.7,286.1,109.3,283.3,108.7,283.2"/>
				<path class="st79" d="M96.4,300.5c-0.2,1.9-4.1,13.3-4.6,13.2c-0.9-0.1-4-1-4-1s3.8-11.5,3.9-12.8c0.1-0.9,1.6-14.2,2.5-14.7
					c0.5-0.3,4-1.4,5.7-2.1c0.3-0.1,1.3-0.5,1.6-0.6c0.4,0.4,2.9,2.9,3.8,12.4c0.1,1.6-0.3,5-0.6,7.8c-0.3,3-0.7,5.3-1,7.7
					c-0.5,4.9-0.9,8.8-0.9,8.8l-5.3-2.2c-0.9-0.4-2.1-2-1.7-2.8c1.2-3.1,2.8-8.5,2.8-11.3c0,0-0.6-6.8-1.1-8.2
					C97.5,294.9,96.6,298,96.4,300.5"/>
				<path class="st68" d="M105.6,270.6c0,0,5.3-1.8,5,4.7c-0.3,6.5-1.6,7.1-5.1,6.2c-3.5-0.9-3.8-5-4.3-6.9
					C100.8,272.6,103.8,270.9,105.6,270.6"/>
				<path class="st85" d="M102,277.7c0,0,0-1.7,0.8-1.9c0.8-0.2,1.2,0.8,1.2,0.8l0.6,0c0,0-0.6-1.8,0.2-2.2c0.8-0.4,5.2,0,5.8-0.6
					c0.6-0.6-0.3-4.1-1.5-4.4c-1.2-0.3-4.6-1-6.7,0.7c0,0-1.8,0-1.9,1.4C100.4,272.9,101.3,276.8,102,277.7"/>
				<path class="st68" d="M103.6,275.1c-0.2-0.6-1.6-0.5-1.4,0.4c0.1,0.9,1.2,2.3,1.7,2C104.3,277.3,103.9,275.9,103.6,275.1"/>
				<path class="st86" d="M102.9,282.9c0,0,0.5-0.4-0.2-3.6c-0.2-0.9,5,1,5,1s0,0.7,0,1.4c0,0.3,0,0.6,0,0.9c0,0.2,0.1,0.5,0.2,0.6
					C108.1,283.8,104.8,284.2,102.9,282.9"/>
				<path class="st87" d="M107.7,282.7c-3.1,0-4.1-2.2-4.1-2.3c1.6,1.5,4.1,1.4,4.1,1.4C107.6,282.1,107.7,282.4,107.7,282.7"/>
				<path class="st88" d="M106.4,284.6l0.9,1.2c0,0-0.6,0.7-1.5,0.2L106.4,284.6z"/>
				<path class="st88" d="M107.1,285.8c0,0,3.5,12.3,2.8,21.9l-1.2,1.9l-1.1-2c0,0-0.3-17.1-1.3-21.8L107.1,285.8z"/>
				<path class="st86" d="M107.4,283.5l-1,1.1c0,0-1.6-0.3-2.1-1.1C103.9,282.8,107.4,283.5,107.4,283.5"/>
				<path class="st89" d="M107.7,282.6c0,0-0.1,0.8-1.2,2l1.2,1.5l0.7-3.1L107.7,282.6z"/>
				<path class="st89" d="M103,281.8c0,0,1.8,2.3,3.4,2.9l-0.8,1.7l-3.5-3.8L103,281.8z"/>
				<polygon class="st90" points="360.6,356.1 356.3,329.9 357.1,329.8 361.4,356 				"/>
				<polygon class="st90" points="355.3,356.1 351,329.9 351.8,329.8 356.1,356 				"/>
				<polygon class="st90" points="329.4,356.1 328.6,356 332.9,329.8 333.7,329.9 				"/>
				<path class="st91" d="M357.6,330.2l3.4-32.4c0,0-5.9-0.7-9.5-0.5l-5.4,32.9H357.6z"/>
				<rect x="346.2" y="328.6" class="st91" width="11.5" height="1.6"/>
				<path class="st91" d="M338.7,328.9l-1.8-30.9c0,0,14.9-1.5,24.1-0.2L338.7,328.9z"/>
				<path class="st92" d="M350.6,288c0,0,2.3-6.2-2.1-8.1c-4.4-1.9-8.1,0.9-8.8,2.4c-0.7,1.5-0.5,4.2,0.1,6.1
					c0.6,1.9,0.5,4.8-0.8,5.8c-1.3,1-2.9,2.6-2.9,5.8c0.1,2,8.7-5.2,8.7-5.2L350.6,288z"/>
				<path class="st93" d="M344.7,354.4c0,0-0.1,4.4,0.5,4.6c0.7,0.3,3.3-1.3,4.4-2.8c1.1-1.5-1.4-5-1.9-6.9
					c-0.2-0.8-2.2-2.3-3.2-1.8c-1,0.4-1.7,1.5-1.7,1.5S345.5,350.6,344.7,354.4"/>
				<path class="st94" d="M343,349c0,0,0.8,1.5,1.3,2.6c0.4,1.2,0.5,4.4,0.8,4.6c0.3,0.2,2.4-0.8,2.7-2c0.3-1.2-0.6-3.6-1.4-4.8
					c-0.8-1.3-1.7-1.9-1.7-1.9S343.2,347.8,343,349"/>
				<polygon class="st93" points="347.8,349.4 350.2,352.5 349.7,352.8 347.9,350.4 				"/>
				<path class="st94" d="M339.4,315.1c0,0,1.1,1.8,0,3c-1.1,1.3-8.8,4.8-8.7,6.8c0.1,2,1.5,5.2,2,6c0.5,0.8,2.4,4.1,3.3,6.1
					c1,2,6.5,11.3,7.6,13.4c1.1,2.1,0.4-8.4,0.4-8.4l-5.6-14.9l13-11.6C351.5,315.5,349.9,312.3,339.4,315.1"/>
				<path class="st95" d="M344.4,295.3c0,0-3.6,0.7-5.1,1.5c-1.4,0.8-4.6,4.3-4.6,5.8c0,1.5,14,2.9,14,2.9l2.6,8.8
					c0,0,7-1.6,7.9-2.9c0.8-1.3-2.8-10.6-3.3-12.5c-0.5-2-3.1-3.3-6.1-3.6C346.9,295,344.4,295.3,344.4,295.3"/>
				<path class="st68" d="M353,315.4c0,0-0.3,1.5,0.4,2.1c0.7,0.6,3.8,4.4,2.1,8c-1.5,3.4-4.4,3.3-4.4,3.3h-4.5c0,0,1.3,6,0.9,10
					c-0.4,4-2.4,13.1-2.5,13.5c0,0.5-1.9,1.9-2.5,1.2c0,0-0.1-5.5-0.3-7.5c-0.3-2.1-1.5-10.3-1.9-11.6c-0.4-1.2-2.6-4.9-2.6-5.3
					c0-0.4-2.2-6.4,2.6-7.9C345,319.7,346.7,315.4,353,315.4"/>
				<path class="st96" d="M340.3,357.8c0,0-3.1,3.3-2.8,3.9c0.3,0.6,3.4,0.9,5.3,0.4c1.9-0.5,2.3-4.7,3.3-6.4c0.4-0.7-0.1-3-1.2-3.2
					c-1-0.2-2.3,0.2-2.3,0.2S343.5,355.3,340.3,357.8"/>
				<path class="st68" d="M342.7,352.6c0,0-0.4,1.6-0.8,2.8c-0.5,1.1-2.6,3.7-2.5,4c0.1,0.3,2.4,0.8,3.5,0c1-0.8,2-3.1,2.2-4.6
					c0.2-1.5,0-2.4,0-2.4S343.7,351.8,342.7,352.6"/>
				<polygon class="st96" points="346.2,355.7 345.9,359.4 345.3,359.4 345.6,356.5 				"/>
				<path class="st95" d="M355.5,325.6c-1.4,3.4-4.4,3.3-4.4,3.3h-4.5c0,0-1.9-2.7-6.5-3.2c-1-0.1-2.2-0.1-3.5,0.1c0,0,0,0,0,0
					c-6.1,0.8-4.9,2.9-4.9,2.9c-0.5-1.1-1-2.9-0.9-3.9c0.6-4.4,7.6-5.4,8.7-6.6c1.1-1.3,0-3,0-3c10.5-2.8,12.1,0.4,12.1,0.4
					c0.5-0.1,1.6-0.7,2.1-0.7c0,0,0.5,1,0.9,2C354.9,317.7,357.1,321.9,355.5,325.6"/>
				<polygon class="st97" points="351.2,301.2 352.7,314.4 332.3,314.4 330.7,301.2 				"/>
				<rect x="350.9" y="313.2" class="st97" width="3.4" height="1.2"/>
				<rect x="318.2" y="314.4" class="st98" width="65.1" height="1.8"/>
				<path class="st68" d="M346.7,281c0,0,4.6,1.2,3.9,7c-0.7,5.8-3.6,5.5-3.9,5.5c-0.3,0-3.8,0.3-5-6.8S346.7,281,346.7,281"/>
				<path class="st68" d="M348.9,292.5c0,0-0.2,1.9,0.2,3.1c0.4,1.2-5.3,1.2-5.3,0.2c0-1.1,0.6-2,0-4
					C343.2,290,348.9,292.5,348.9,292.5"/>
				<path class="st92" d="M345.5,283.5c0,0,2.5,3.6,5.1,4.5c0,0,1.4-6.1-4.5-7.3c-5.9-1.3-5,6.1-4.5,8.1
					C341.6,288.8,342.8,285.9,345.5,283.5"/>
				<path class="st87" d="M344.4,292.7c0,0,1.8,1.7,4.1,0.2c0,0-0.2,1.1-1.9,1.2C345,294.3,344.4,292.7,344.4,292.7"/>
				<path class="st99" d="M342.2,283c0,0,1.3-2.3,3.5-2.4c2.2-0.1,3.5,1.6,3.5,1.6s-0.9-2-3.5-2S342.2,283,342.2,283"/>
				<path class="st68" d="M349.6,295.3c0,0-0.1,4-3.6,4.1s-2.8-3.9-2.8-3.9S345.8,294.7,349.6,295.3"/>
				<rect x="381.8" y="316.2" class="st100" width="1.4" height="45.3"/>
				<rect x="318.2" y="316.2" class="st100" width="1.4" height="45.3"/>
				<path class="st66" d="M265.1,324.1c0,0-1.1,0.9-2.1,2.2c-1,1.4-3.6,1.4-3.7,3.3c-0.1,1.9,3.6,1.9,5.5,1.3
					c1.9-0.6,2.2-2.4,3.4-2.9c1.2-0.5,1.8-0.8,1.7-1.7c-0.1-0.9-0.7-2.3-0.7-2.3s-0.7,0.2-1.2,0.3
					C267.6,324.3,266.1,324.4,265.1,324.1"/>
				<path class="st101" d="M278.4,273.8c0,0-0.7,4-1.3,6.7c-0.2,1.1-0.5,1.9-0.6,2.2c-0.2,0.3-1.6,1.7-3.3,3.3c-3,2.8-7,6.4-7,6.4
					l-1.5-2.7c0,0,3.5-3.8,5.9-6.3c1.1-1.2,2-2.1,2.1-2.2c0.5-0.4,1.1-4.4,1.9-7.7c0.8-3.3,2.4-5.1,2.4-5.1L278.4,273.8z"/>
				<path class="st68" d="M273.2,286c-3,2.8-7,6.4-7,6.4l-1.6-2.7c0,0,3.5-3.8,5.9-6.3C271.3,283.8,272.7,284.6,273.2,286"/>
				<path class="st66" d="M292.4,323c0,0,1,1,1.6,1.6c0.6,0.6,2.9,1.7,2.9,3.6c0,2-1.7,1.8-3.2,1.8s-2.8-1-3.4-2.2
					c-0.6-1.1-2.4-1.4-2.5-2.4c-0.1-0.9,0.8-2.6,0.8-2.6L292.4,323z"/>
				<path class="st102" d="M288.9,321.2l-0.2,1.7c0,0,3.2,1.3,3.8,0.1l-0.1-1.5L288.9,321.2z"/>
				<path class="st102" d="M265.3,322.9l-0.2,1.2c0,0,1.9,0.6,4-0.1l0-1.1L265.3,322.9z"/>
				<path class="st101" d="M292.6,291.9c0.1,0.4-20.4,0-20.4,0s5.7-3.8,6-4.8c0.4-1-1.4-7-1.7-9c-0.2-1.6-0.7-8.6,0.5-9.7
					c1.2-1.1,5.5-2.3,5.5-2.3l6.2,0.2c0,0,1,0.2,1.8,0.5c0.7,0.3,4.9,1.7,5.6,3.6c0.7,1.9-4.2,8.1-4.2,8.1s0,0.3,0,0.7
					c0,0.6,0,1.5-0.1,2.5c0,1.3-0.1,2.7-0.1,3.8C291.8,287.9,292.5,291.5,292.6,291.9"/>
				<path class="st95" d="M292.6,291.9c0,0,2.8,3.7,2.8,6.3c0,2.6-1,9.6-1.1,11c-0.1,1.4-1.5,13.1-1.5,13.1s-1.1,0.9-4.5-0.2
					c0,0-0.7-11.1-0.8-12.3c-0.1-1.2-0.1-6.6-0.8-7.4c-0.7-0.8-5.3-3.3-5.9-3.7c-0.6-0.5-10.9,1.8-12,2c-2.8,0.7-1.5,5.1-0.9,7.1
					c1,3.3,1.9,15.3,1.9,15.3s-2,0.8-5.3,0.1c0,0-6.5-21.7-6.8-23.8c-0.2-2.2-0.3-5.7,15.8-8.4L292.6,291.9z"/>
				<path class="st68" d="M284.2,253.7c0,0-5.4-1.1-4.2,5.1c1.2,6.2,2.5,6.7,5.8,5.4c3.3-1.3,3-5.3,3.1-7.2
					C289.2,255.1,286,253.8,284.2,253.7"/>
				<path class="st68" d="M282.8,267.7c0,0,2.4,2.3,6.2,0.2c0,0-0.8-5-0.4-7.5c0.4-2.4-4.9,3.8-4.9,3.8c0.1,0,0.1,0.3,0.1,0.6
					c0,0.3,0,0.6-0.1,1C283.6,266.6,283.3,267.5,282.8,267.7"/>
				<path class="st68" d="M287.1,258c0.1-0.5,1.3-0.7,1.4,0.1c0.1,0.8-0.5,2.3-1,2.1C287,260.1,287,258.8,287.1,258"/>
				<path class="st103" d="M288.7,260.2c0,0-0.1-2-0.9-2c-0.8-0.1-0.9,0.7-0.9,0.7l-0.8,0.1c0,0,0.3-1.7-0.5-2
					c-0.8-0.3-5.1,0.9-5.7,0.4c-0.6-0.5-0.3-4,0.8-4.5c1.1-0.5,4.3-1.5,6.6-0.1c0,0,1.8-0.2,2.1,1.1
					C289.6,255.4,289.2,259.2,288.7,260.2"/>
				<path class="st87" d="M283.7,265.8c3.9-1.1,4.2-3.2,4.2-3.3c-1.3,2-4.1,2.3-4.1,2.3C283.8,265.1,283.8,265.5,283.7,265.8"/>
				<path class="st68" d="M290.6,266.8c0,0-2.9,5.2-7.5,4.9c-4.6-0.3-0.8-5.6-0.6-5.6C282.7,266,287.3,265,290.6,266.8"/>
				<path class="st101" d="M269.9,291.6c0,0,14.2,1.6,22.7,0.3l-16.4-1.9C276.2,290,276.1,290.4,269.9,291.6"/>
				<path class="st68" d="M280.5,289.4l-1.1,0.5c0,0,0.2,1.5,0.8,2l1.2-0.3C281.4,291.6,281.2,289.9,280.5,289.4"/>
				<path class="st101" d="M296.9,286.3c-0.2,0.2-3,1.2-6.1,2.3c-4.3,1.5-9.1,2.9-9.1,2.9l-1.1-2.2c0,0,5.1-2.5,8.5-4.3
					c1.6-0.8,2.9-1.5,3-1.7c0.6-0.5,0.7-1.2,0.3-2.6c-0.4-1.3-1.3-7.5-1.4-8.2c-0.1-0.7,0.3-2.6,2.2-2.7c2-0.1,3,0.4,3,0.4
					s0.5,0.2,0.9,4.5C297.3,279.3,297.3,285.7,296.9,286.3"/>
				<path class="st104" d="M291.9,279.2L291.9,279.2c0,0.6,0,1.5-0.1,2.5c-1.9-4.3-0.8-7.7-0.8-7.8
					C290.8,275.1,291.9,279.2,291.9,279.2"/>
				<path class="st104" d="M277.1,280.5L277.1,280.5c-0.2,1.1-0.5,1.9-0.6,2.2c-0.7-2.9-0.1-6.6-0.1-6.6
					C276.5,277.9,277.1,280.5,277.1,280.5"/>
				<path class="st68" d="M290.7,288.6L290.7,288.6c-4.3,1.5-9.3,3-9.3,3l-0.9-2.2c0,0,5.1-2.5,8.5-4.3
					C289,285.1,290.2,285.7,290.7,288.6"/>
				<polygon class="st105" points="280.2,291.7 260,291.5 270.2,296.2 				"/>
				<polygon class="st106" points="270.2,296.2 280.2,292.7 280.2,291.7 269.4,295.3 				"/>
				<path class="st68" d="M279.6,289.9c0,0-1.3-0.2-2.1-0.4c-0.7-0.1-2.3,0.1-2.8,0.4c-0.4,0.4-1.8,3.1-2,3.3
					c-0.3,0.2,0.1,0.6,0.6,0.4c0,0,0.4,1.2,1.4,0.8c1-0.5,1.7-1.4,2.2-1.6c0.5-0.2,3.6-1,3.6-1S280.4,289.6,279.6,289.9"/>
				<path class="st68" d="M275.1,289.8c0,0-0.8,0.4-1,0.5c-0.2,0.2-1.1,0.7-1.3,0.9c-0.2,0.1,0.3,0.5,1.8-0.1
					C276.1,290.5,275.1,289.8,275.1,289.8"/>
				<polygon class="st107" points="270.2,296.2 264.2,281.3 244.9,281.5 250.6,295.3 				"/>
				<path class="st100" d="M258,287.9c0.6,1.1,0.4,2.2-0.4,2.6s-1.9-0.2-2.5-1.3c-0.6-1.1-0.4-2.2,0.4-2.6
					C256.3,286.2,257.4,286.8,258,287.9"/>
			</g>
		</g>
	</g>
</g>
</svg>
