<svg id="Group_3086" data-name="Group 3086" xmlns="http://www.w3.org/2000/svg" width="116.113" height="108.819" viewBox="0 0 116.113 108.819">
  <path id="Path_210" data-name="Path 210" d="M1252.154,209.95c.393-.046.534-.078.675-.078q26.522.009,53.046.026a14.751,14.751,0,0,1,14.426,14.757c-.127,10.075-.031,20.152-.031,30.228,0,11.93-.128,23.861.051,35.788.1,6.518-2.719,11.144-8.234,14.146a13.377,13.377,0,0,1-6.094,1.606q-43.705.152-87.412.06c-6.678,0-14.59-6.2-14.348-14.918.065-2.327.006-4.657.005-6.986q-.014-30.584-.027-61.168c0-4.34,3.422-9.681,7.394-11.336v1.7q0,33.65,0,67.3a13.567,13.567,0,0,0,11.219,13.625,11.217,11.217,0,0,0,2.124.139q6.916.018,13.832.006a13.431,13.431,0,0,0,13.368-13.429q0-34.862,0-69.724Zm11.7,27.768h40.684V225.6h-40.684Zm.051,11.792v8.447h8.4V249.51Zm16.2,8.453h8.458v-8.408H1280.1Zm16.019-8.455v8.457h8.413v-8.457Zm-23.816,24.758v-8.457h-8.413v8.457Zm7.861-8.491V274.2h8.379v-8.429Zm24.351,8.479v-8.429h-8.379v8.429Zm-40.608,7.777v8.429h8.379V282.03Zm24.668,8.476v-8.457h-8.442v8.457Zm16-8.437h-8.453v8.4h8.453Z" transform="translate(-1204.211 -197.682)" fill="#f9447c"/>
  <path id="Path_211" data-name="Path 211" d="M1266.872,223.68c0,11.451.026,22.9-.013,34.353a11.044,11.044,0,0,1-5.874,10.195,7.632,7.632,0,0,1-3.519.944c-4.7.049-9.407.112-14.087-.2-3.529-.238-5.827-2.7-7.209-5.731a14.091,14.091,0,0,1-1.144-5.652c-.075-22.664-.049-45.329-.048-67.993,0-4.671,1.707-8.467,5.961-10.693a10.218,10.218,0,0,1,4.366-1.006c4.031-.1,8.069.109,12.1.06,4.637-.056,8.641,4.715,9.228,8.825a20.284,20.284,0,0,1,.227,2.833Q1266.885,206.646,1266.872,223.68Z" transform="translate(-1223.256 -177.867)" fill="#f9447c"/>
</svg>
