<svg xmlns="http://www.w3.org/2000/svg" width="115.676" height="115.778" viewBox="0 0 115.676 115.778">
  <path id="Path_209" data-name="Path 209" d="M474.308,442.643a31.1,31.1,0,0,0-6.94-17.171c-.589-.732-1.223-1.426-.985-2.51a31.255,31.255,0,0,0,.291-6,39.833,39.833,0,0,0-.487-7.876C461.843,380.4,435.4,364,410.678,366.631a7,7,0,0,1-5.389-1.445c-6.876-5.23-14.446-7.823-23.243-6.008-14.378,2.962-24.635,16.725-23.167,31.217a31.045,31.045,0,0,0,4.329,13.1,6.835,6.835,0,0,1,1.015,4.955,45,45,0,0,0-.4,12.737c2.528,20.6,13.057,35.458,31.926,44.165,9.083,4.193,18.714,4.925,28.545,3.317a2.94,2.94,0,0,1,2.3.415c8.917,5.868,18.559,6.649,28.462,3.37C467.459,468.35,475.444,455.594,474.308,442.643Zm-37.538-2.189c-4,3.547-9.091,4.649-14.2,5.483a28.1,28.1,0,0,1-5.8.43,35.608,35.608,0,0,1-13.661-2.23,21.052,21.052,0,0,1-11.472-10.593,9.619,9.619,0,0,1-1.008-3.981c-.068-2.8.842-4.491,2.936-5.366a5.693,5.693,0,0,1,6.68,1.487,10.037,10.037,0,0,1,1.766,2.864,20.909,20.909,0,0,0,4.74,7.155c5.046,4.729,15.631,3.094,19.529-.226a6.933,6.933,0,0,0,2.7-6.831c-.6-3.162-2.83-5.012-5.7-5.951a69.709,69.709,0,0,0-8.751-2.208,60.589,60.589,0,0,1-12.446-3.608c-4.789-2.027-8.966-4.891-10.189-10.487-1.472-6.748,1.2-12.62,7.295-16.042,5.966-3.355,12.469-4.012,19.133-3.687a29.825,29.825,0,0,1,11.495,2.593,18.6,18.6,0,0,1,8.559,7.638,9.112,9.112,0,0,1,1.279,5.223,5.637,5.637,0,0,1-4.208,4.989,5.342,5.342,0,0,1-6.317-2.461c-1.3-2.2-2.291-4.627-4.438-6.234-.5-.374-.955-.819-1.476-1.162-4.113-2.717-14.035-1.634-17.488,1.894-2.453,2.5-2.2,5.487.66,7.548a23.563,23.563,0,0,0,9.046,3.525c5.566,1.227,11.235,2.049,16.537,4.306,4.295,1.83,7.729,4.389,9.514,9.023C444.208,430.638,441.276,436.454,436.77,440.454Z" transform="translate(-358.74 -358.601)" fill="#3498d8"/>
</svg>
