<svg xmlns="http://www.w3.org/2000/svg" width="120" height="120" viewBox="0 0 120 120">
  <g id="Group_3075" data-name="Group 3075" transform="translate(-1053 -3173)">
    <rect id="Rectangle_1015" data-name="Rectangle 1015" width="120" height="120" transform="translate(1053 3173)" fill="#fff"/>
    <g id="webapp_icon" transform="translate(1080 3209)">
      <g id="Group_980" data-name="Group 980" transform="translate(0 0)">
        <g id="Group_979" data-name="Group 979">
          <g id="Group_978" data-name="Group 978">
            <g id="Group_961" data-name="Group 961" transform="translate(41.509 24.341)">
              <path id="Path_271" data-name="Path 271" d="M48.787,56.828a12.023,12.023,0,0,1-11.7-9.63.535.535,0,1,1,1.048-.219,10.89,10.89,0,1,0,10.65-13.246,10.732,10.732,0,0,0-2.363.259.533.533,0,0,1-.64-.409.543.543,0,0,1,.407-.648,11.754,11.754,0,0,1,2.6-.286,12.09,12.09,0,0,1,0,24.179Z" transform="translate(-37.076 -32.649)" fill="#ff6c2c" stroke="#ff6c2c" stroke-width="0.652"/>
            </g>
            <g id="Group_962" data-name="Group 962" transform="translate(47.991 24.341)">
              <path id="Path_272" data-name="Path 272" d="M45.548,56.828c-2.586,0-4.737-3.985-5.226-9.692a.535.535,0,1,1,1.066-.095c.425,4.961,2.214,8.7,4.159,8.7,2.055,0,4.255-4.423,4.255-11.008s-2.2-11-4.255-11a2.8,2.8,0,0,0-2.041,1.429.531.531,0,0,1-.743.137.545.545,0,0,1-.136-.755,3.681,3.681,0,0,1,2.919-1.9c2.987,0,5.326,5.31,5.326,12.087S48.535,56.828,45.548,56.828Z" transform="translate(-40.32 -32.649)" fill="#ff6c2c" stroke="#ff6c2c" stroke-width="0.652"/>
            </g>
            <g id="Group_963" data-name="Group 963">
              <path id="Path_273" data-name="Path 273" d="M67.045,59.938H16.84A.54.54,0,0,1,16.3,59.4V21.157a.539.539,0,0,1,.536-.542H67.045a.538.538,0,0,1,.534.542V59.4A.539.539,0,0,1,67.045,59.938ZM17.376,58.853H66.508V21.7H17.376V58.853Z" transform="translate(-16.304 -20.615)" fill="#ff6c2c" stroke="#ff6c2c" stroke-width="0.652"/>
            </g>
            <g id="Group_964" data-name="Group 964" transform="translate(14.772 18.18)">
              <path id="Path_274" data-name="Path 274" d="M26.882,39.96h-2.65a.539.539,0,0,1-.536-.542V30.146a.539.539,0,0,1,.536-.542h2.65a.539.539,0,0,1,.536.542v9.272A.54.54,0,0,1,26.882,39.96Zm-2.114-1.083h1.578V30.688H24.768Z" transform="translate(-23.697 -29.603)" fill="#ff6c2c" stroke="#ff6c2c" stroke-width="0.652"/>
            </g>
            <g id="Group_965" data-name="Group 965" transform="translate(19.301 16.313)">
              <path id="Path_275" data-name="Path 275" d="M29.147,40.9H26.5a.539.539,0,0,1-.536-.542V29.222a.539.539,0,0,1,.536-.542h2.648a.539.539,0,0,1,.536.542v11.14A.538.538,0,0,1,29.147,40.9Zm-2.114-1.083h1.578V29.764H27.033Z" transform="translate(-25.963 -28.68)" fill="#ff6c2c" stroke="#ff6c2c" stroke-width="0.652"/>
            </g>
            <g id="Group_966" data-name="Group 966" transform="translate(23.829 18.956)">
              <path id="Path_276" data-name="Path 276" d="M31.414,39.568h-2.65a.539.539,0,0,1-.536-.542v-8.5a.539.539,0,0,1,.536-.542h2.65a.539.539,0,0,1,.536.542v8.5A.539.539,0,0,1,31.414,39.568ZM29.3,38.485h1.578V31.071H29.3Z" transform="translate(-28.229 -29.987)" fill="#ff6c2c" stroke="#ff6c2c" stroke-width="0.652"/>
            </g>
            <g id="Group_967" data-name="Group 967" transform="translate(28.36 23.755)">
              <path id="Path_277" data-name="Path 277" d="M33.678,37.141H31.032A.539.539,0,0,1,30.5,36.6V32.9a.539.539,0,0,1,.536-.542h2.646a.539.539,0,0,1,.536.542v3.7A.538.538,0,0,1,33.678,37.141Zm-2.11-1.083h1.574V33.444H31.568Z" transform="translate(-30.496 -32.36)" fill="#ff6c2c" stroke="#ff6c2c" stroke-width="0.652"/>
            </g>
            <g id="Group_968" data-name="Group 968" transform="translate(32.887 19.031)">
              <path id="Path_278" data-name="Path 278" d="M35.946,39.53H33.3a.539.539,0,0,1-.536-.542V30.566a.539.539,0,0,1,.536-.542h2.648a.539.539,0,0,1,.537.542v8.421A.539.539,0,0,1,35.946,39.53Zm-2.113-1.083h1.578V31.108H33.833Z" transform="translate(-32.762 -30.024)" fill="#ff6c2c" stroke="#ff6c2c" stroke-width="0.652"/>
            </g>
            <g id="Group_969" data-name="Group 969" transform="translate(10.756 29.815)">
              <path id="Path_279" data-name="Path 279" d="M50.881,36.44H22.222a.542.542,0,0,1,0-1.084h28.66a.542.542,0,0,1,0,1.084Z" transform="translate(-21.687 -35.356)" fill="#ff6c2c" stroke="#ff6c2c" stroke-width="0.652"/>
            </g>
            <g id="Group_970" data-name="Group 970" transform="translate(0 8.589)">
              <path id="Path_280" data-name="Path 280" d="M67.045,25.946H16.84a.542.542,0,0,1,0-1.084H67.045a.542.542,0,0,1,0,1.084Z" transform="translate(-16.304 -24.862)" fill="#ff6c2c" stroke="#ff6c2c" stroke-width="0.652"/>
            </g>
            <g id="Group_971" data-name="Group 971" transform="translate(3.641 2.757)">
              <path id="Path_281" data-name="Path 281" d="M20.092,25.949a1.985,1.985,0,1,1,1.965-1.985A1.978,1.978,0,0,1,20.092,25.949Zm0-2.886a.9.9,0,1,0,.894.9A.9.9,0,0,0,20.092,23.063Z" transform="translate(-18.127 -21.978)" fill="#ff6c2c" stroke="#ff6c2c" stroke-width="0.652"/>
            </g>
            <g id="Group_972" data-name="Group 972" transform="translate(9.837 2.757)">
              <path id="Path_282" data-name="Path 282" d="M23.191,25.949a1.985,1.985,0,1,1,1.96-1.985A1.976,1.976,0,0,1,23.191,25.949Zm0-2.886a.9.9,0,1,0,.89.9A.9.9,0,0,0,23.191,23.063Z" transform="translate(-21.227 -21.978)" fill="#ff6c2c" stroke="#ff6c2c" stroke-width="0.652"/>
            </g>
            <g id="Group_973" data-name="Group 973" transform="translate(22.317 4.2)">
              <path id="Path_283" data-name="Path 283" d="M55.9,23.776H28.008a.542.542,0,0,1,0-1.084H55.9a.542.542,0,0,1,0,1.084Z" transform="translate(-27.472 -22.692)" fill="#ff6c2c" stroke="#ff6c2c" stroke-width="0.652"/>
            </g>
            <g id="Group_974" data-name="Group 974" transform="translate(52.685 24.339)">
              <path id="Path_284" data-name="Path 284" d="M43.2,56.828a.539.539,0,0,1-.534-.542v-23.1a.534.534,0,1,1,1.069,0V56.285A.539.539,0,0,1,43.2,56.828Z" transform="translate(-42.669 -32.648)" fill="#ff6c2c" stroke="#ff6c2c" stroke-width="0.652"/>
            </g>
            <g id="Group_975" data-name="Group 975" transform="translate(50.204 35.885)">
              <path id="Path_285" data-name="Path 285" d="M55.85,39.441H41.964a.542.542,0,0,1,0-1.084H55.85a.542.542,0,0,1,0,1.084Z" transform="translate(-41.427 -38.356)" fill="#ff6c2c" stroke="#ff6c2c" stroke-width="0.652"/>
            </g>
            <g id="Group_976" data-name="Group 976" transform="translate(50.203 29.361)">
              <path id="Path_286" data-name="Path 286" d="M44.254,37.651q-1.175,0-2.333-.088A.542.542,0,0,1,42,36.482a32.5,32.5,0,0,0,11.7-1.33.538.538,0,0,1,.665.368.546.546,0,0,1-.365.673A34.553,34.553,0,0,1,44.254,37.651Z" transform="translate(-41.427 -35.131)" fill="#ff6c2c" stroke="#ff6c2c" stroke-width="0.652"/>
            </g>
            <g id="Group_977" data-name="Group 977" transform="translate(43.267 40.124)">
              <path id="Path_287" data-name="Path 287" d="M38.493,42.983a.537.537,0,0,1-.512-.381.543.543,0,0,1,.352-.679,31.9,31.9,0,0,1,19.138,0,.543.543,0,0,1,.365.671.533.533,0,0,1-.665.369,30.87,30.87,0,0,0-18.52,0A.52.52,0,0,1,38.493,42.983Z" transform="translate(-37.956 -40.452)" fill="#ff6c2c" stroke="#ff6c2c" stroke-width="0.652"/>
            </g>
          </g>
        </g>
      </g>
    </g>
  </g>
</svg>
