<svg xmlns="http://www.w3.org/2000/svg" width="120" height="120" viewBox="0 0 120 120">
  <g id="Group_3073" data-name="Group 3073" transform="translate(-617 1646)">
    <g id="Group_3072" data-name="Group 3072" transform="translate(-282 -4115)">
      <rect id="Rectangle_1013" data-name="Rectangle 1013" width="120" height="120" transform="translate(899 2469)" fill="#fff"/>
    </g>
    <g id="webdesign_icon" transform="translate(651 -1614)">
      <g id="Group_936" data-name="Group 936" transform="translate(0 0)">
        <g id="Group_935" data-name="Group 935">
          <g id="Group_934" data-name="Group 934">
            <g id="Group_913" data-name="Group 913" transform="translate(21.125)">
              <path id="Path_234" data-name="Path 234" d="M55.671,72.843H45.425a.455.455,0,0,1-.456-.455V36a.444.444,0,0,1,.047-.2l5.124-10.543A.455.455,0,0,1,50.548,25h0a.458.458,0,0,1,.41.256L56.081,35.8a.458.458,0,0,1,.045.2v36.39A.455.455,0,0,1,55.671,72.843Zm-9.789-.909h9.333V36.1L50.548,26.5,45.881,36.1Z" transform="translate(-44.969 -25)" fill="#72bd1c" stroke="#72bd1c" stroke-width="1"/>
            </g>
            <g id="Group_914" data-name="Group 914" transform="translate(21.009 10.522)">
              <path id="Path_235" data-name="Path 235" d="M53.646,36.89a.457.457,0,0,1-.323-.134L52.176,35.6l-1.149,1.152a.457.457,0,0,1-.59.048L48.7,35.547l-1.082.934a.454.454,0,0,1-.531.047l-2-1.19a.455.455,0,1,1,.466-.783l1.715,1.022,1.107-.955a.454.454,0,0,1,.564-.024l1.717,1.241,1.2-1.2a.455.455,0,0,1,.322-.134h0a.455.455,0,0,1,.324.134l1.2,1.2L55.415,34.6a.456.456,0,0,1,.532.74l-2.036,1.468A.454.454,0,0,1,53.646,36.89Z" transform="translate(-44.865 -34.49)" fill="#72bd1c" stroke="#72bd1c" stroke-width="1"/>
            </g>
            <g id="Group_915" data-name="Group 915" transform="translate(29.129 11.859)">
              <path id="Path_236" data-name="Path 236" d="M52.644,71.68a.455.455,0,0,1-.456-.455V36.152a.456.456,0,0,1,.911,0V71.226A.455.455,0,0,1,52.644,71.68Z" transform="translate(-52.188 -35.696)" fill="#72bd1c" stroke="#72bd1c" stroke-width="1"/>
            </g>
            <g id="Group_916" data-name="Group 916" transform="translate(26.438 11.684)">
              <path id="Path_237" data-name="Path 237" d="M50.374,71.7a.456.456,0,0,1-.456-.452L49.761,36a.457.457,0,0,1,.455-.458h0a.456.456,0,0,1,.456.453l.157,35.249a.455.455,0,0,1-.453.457Z" transform="translate(-49.761 -35.538)" fill="#72bd1c" stroke="#72bd1c" stroke-width="1"/>
            </g>
            <g id="Group_917" data-name="Group 917" transform="translate(23.227 11.274)">
              <path id="Path_238" data-name="Path 238" d="M47.321,71.738a.455.455,0,0,1-.456-.455V35.624a.456.456,0,0,1,.911,0V71.284A.455.455,0,0,1,47.321,71.738Z" transform="translate(-46.865 -35.168)" fill="#72bd1c" stroke="#72bd1c" stroke-width="1"/>
            </g>
            <g id="Group_918" data-name="Group 918" transform="translate(21.125 46.934)">
              <path id="Path_239" data-name="Path 239" d="M51.873,75.834H49.222a4.257,4.257,0,0,1-4.253-4.249v-3.8a.455.455,0,0,1,.456-.455H55.671a.454.454,0,0,1,.455.455v3.8A4.256,4.256,0,0,1,51.873,75.834ZM45.881,68.24v3.345a3.344,3.344,0,0,0,3.342,3.337h2.651a3.344,3.344,0,0,0,3.342-3.337V68.24Z" transform="translate(-44.969 -67.331)" fill="#72bd1c" stroke="#72bd1c" stroke-width="1"/>
            </g>
            <g id="Group_919" data-name="Group 919" transform="translate(5.333 1.405)">
              <path id="Path_240" data-name="Path 240" d="M38.083,34.083h-6.9a.456.456,0,0,1-.456-.456v-6.9a.456.456,0,0,1,.456-.456h6.9a.456.456,0,0,1,.456.456v6.9A.456.456,0,0,1,38.083,34.083Zm-6.444-.91h5.989V27.179H31.638Z" transform="translate(-30.726 -26.267)" fill="#72bd1c" stroke="#72bd1c" stroke-width="1"/>
            </g>
            <g id="Group_920" data-name="Group 920" transform="translate(40.147 47.574)">
              <path id="Path_241" data-name="Path 241" d="M69.482,75.722h-6.9a.455.455,0,0,1-.455-.456v-6.9a.454.454,0,0,1,.455-.455h6.9a.454.454,0,0,1,.455.455v6.9A.456.456,0,0,1,69.482,75.722Zm-6.445-.91h5.987V68.819H63.036Z" transform="translate(-62.125 -67.908)" fill="#72bd1c" stroke="#72bd1c" stroke-width="1"/>
            </g>
            <g id="Group_921" data-name="Group 921" transform="translate(40.147 1.405)">
              <path id="Path_242" data-name="Path 242" d="M69.482,34.083h-6.9a.455.455,0,0,1-.455-.456v-6.9a.455.455,0,0,1,.455-.456h6.9a.455.455,0,0,1,.455.456v6.9A.455.455,0,0,1,69.482,34.083Zm-6.445-.91h5.987V27.179H63.036Z" transform="translate(-62.125 -26.267)" fill="#72bd1c" stroke="#72bd1c" stroke-width="1"/>
            </g>
            <g id="Group_922" data-name="Group 922" transform="translate(5.333 47.574)">
              <path id="Path_243" data-name="Path 243" d="M38.083,75.722h-6.9a.456.456,0,0,1-.456-.456v-6.9a.455.455,0,0,1,.456-.455h6.9a.455.455,0,0,1,.456.455v6.9A.456.456,0,0,1,38.083,75.722Zm-6.444-.91h5.989V68.819H31.638Z" transform="translate(-30.726 -67.908)" fill="#72bd1c" stroke="#72bd1c" stroke-width="1"/>
            </g>
            <g id="Group_923" data-name="Group 923" transform="translate(8.786 4.857)">
              <path id="Path_244" data-name="Path 244" d="M65.655,76.461h-8.5a.455.455,0,0,1,0-.91h8.5a.455.455,0,1,1,0,.91Zm-19.184,0H37.744a.455.455,0,1,1,0-.91h8.728a.455.455,0,1,1,0,.91Zm22.635-3.453a.455.455,0,0,1-.455-.456V57.48a.456.456,0,0,1,.911,0V72.553A.455.455,0,0,1,69.107,73.008Zm-34.811,0a.456.456,0,0,1-.456-.456V57.48a.456.456,0,0,1,.911,0V72.553A.455.455,0,0,1,34.3,73.008ZM69.107,46.835a.455.455,0,0,1-.455-.456V33.288a.456.456,0,0,1,.911,0V46.379A.456.456,0,0,1,69.107,46.835Zm-34.811,0a.456.456,0,0,1-.456-.456V33.288a.456.456,0,0,1,.911,0V46.379A.456.456,0,0,1,34.3,46.835Zm31.36-16.542H54.121a.456.456,0,0,1,0-.911H65.655a.456.456,0,1,1,0,.911Zm-16.256,0H37.744a.456.456,0,0,1,0-.911H49.4a.456.456,0,0,1,0,.911Z" transform="translate(-33.84 -29.381)" fill="#72bd1c" stroke="#72bd1c" stroke-width="1"/>
            </g>
            <g id="Group_925" data-name="Group 925" transform="translate(0 21.4)">
              <g id="Group_924" data-name="Group 924">
                <path id="Path_245" data-name="Path 245" d="M78.866,56.312H57.743a.455.455,0,0,1-.456-.455v-11.1a.456.456,0,0,1,.456-.456H78.866a.455.455,0,0,1,.456.456v11.1A.455.455,0,0,1,78.866,56.312ZM58.2,55.4H78.41V45.211H58.2V55.4Zm-10.7.91H26.372a.455.455,0,0,1-.456-.455v-11.1a.456.456,0,0,1,.456-.456H47.5a.456.456,0,0,1,.456.456v11.1A.455.455,0,0,1,47.5,56.312ZM26.827,55.4H47.041V45.211H26.827Z" transform="translate(-25.916 -44.301)" fill="#72bd1c" stroke="#72bd1c" stroke-width="1"/>
              </g>
            </g>
            <g id="Group_926" data-name="Group 926" transform="translate(47.604 26.516)">
              <path id="Path_246" data-name="Path 246" d="M69.307,55.81a.455.455,0,0,1-.456-.455V49.371a.455.455,0,1,1,.91,0v5.985A.455.455,0,0,1,69.307,55.81Z" transform="translate(-68.851 -48.915)" fill="#72bd1c" stroke="#72bd1c" stroke-width="1"/>
            </g>
            <g id="Group_927" data-name="Group 927" transform="translate(43.273 28.827)">
              <path id="Path_247" data-name="Path 247" d="M65.4,55.584a.456.456,0,0,1-.457-.455V51.455a.456.456,0,0,1,.911,0v3.674A.454.454,0,0,1,65.4,55.584Z" transform="translate(-64.945 -51)" fill="#72bd1c" stroke="#72bd1c" stroke-width="1"/>
            </g>
            <g id="Group_928" data-name="Group 928" transform="translate(38.949 26.516)">
              <path id="Path_248" data-name="Path 248" d="M61.5,55.81a.454.454,0,0,1-.455-.455V49.371a.456.456,0,0,1,.911,0v5.985A.456.456,0,0,1,61.5,55.81Z" transform="translate(-61.045 -48.915)" fill="#72bd1c" stroke="#72bd1c" stroke-width="1"/>
            </g>
            <g id="Group_929" data-name="Group 929" transform="translate(34.621 28.827)">
              <path id="Path_249" data-name="Path 249" d="M57.6,55.584a.454.454,0,0,1-.455-.455V51.455a.456.456,0,0,1,.911,0v3.674A.456.456,0,0,1,57.6,55.584Z" transform="translate(-57.141 -51)" fill="#72bd1c" stroke="#72bd1c" stroke-width="1"/>
            </g>
            <g id="Group_930" data-name="Group 930" transform="translate(17.312 28.827)">
              <path id="Path_250" data-name="Path 250" d="M41.986,55.584a.455.455,0,0,1-.456-.455V51.455a.456.456,0,0,1,.911,0v3.674A.455.455,0,0,1,41.986,55.584Z" transform="translate(-41.53 -51)" fill="#72bd1c" stroke="#72bd1c" stroke-width="1"/>
            </g>
            <g id="Group_931" data-name="Group 931" transform="translate(12.988 26.516)">
              <path id="Path_251" data-name="Path 251" d="M38.086,55.81a.455.455,0,0,1-.456-.455V49.371a.456.456,0,0,1,.911,0v5.985A.457.457,0,0,1,38.086,55.81Z" transform="translate(-37.63 -48.915)" fill="#72bd1c" stroke="#72bd1c" stroke-width="1"/>
            </g>
            <g id="Group_932" data-name="Group 932" transform="translate(8.658 28.827)">
              <path id="Path_252" data-name="Path 252" d="M34.181,55.584a.455.455,0,0,1-.456-.455V51.455a.456.456,0,0,1,.911,0v3.674A.456.456,0,0,1,34.181,55.584Z" transform="translate(-33.725 -51)" fill="#72bd1c" stroke="#72bd1c" stroke-width="1"/>
            </g>
            <g id="Group_933" data-name="Group 933" transform="translate(4.329 26.516)">
              <path id="Path_253" data-name="Path 253" d="M30.276,55.81a.455.455,0,0,1-.456-.455V49.371a.456.456,0,0,1,.911,0v5.985A.455.455,0,0,1,30.276,55.81Z" transform="translate(-29.82 -48.915)" fill="#72bd1c" stroke="#72bd1c" stroke-width="1"/>
            </g>
          </g>
        </g>
      </g>
    </g>
  </g>
</svg>
